<svg xmlns="http://www.w3.org/2000/svg" width="80" height="88" viewBox="0 0 80 88">
  <g fill="none" fill-rule="evenodd" transform="rotate(-49 85.495 46.737)">
    <path fill="#FDB505" fill-rule="nonzero" d="M72.1472052,17.4490846 L72.1461784,20.2340989 C68.6190405,20.2646735 64.8693908,20.1659116 60.8969296,19.9380618 C61.0506329,19.4004908 61.1325233,18.8327957 61.1325233,18.245974 C61.1325233,17.8731387 61.099467,17.5080241 61.0361252,17.1534011 C64.9653478,17.3786609 68.6688192,17.4772392 72.1472052,17.4490846 Z M93.7480141,14.9384194 L95.3478825,17.3092277 C90.5985967,18.7422617 84.9512059,19.6487649 78.4032658,20.0307636 L78.4053068,17.2478428 C84.2812018,16.90511 89.3960679,16.1347797 93.7480141,14.9384194 Z M58.9504121,17.0227587 L58.9558674,17.0409258 C59.0707695,17.4224481 59.1325233,17.8269994 59.1325233,18.245974 C59.1325233,18.7985676 59.0250996,19.326071 58.8299961,19.8087405 C56.2711405,19.6372005 53.6228135,19.4136026 50.8853718,19.1385109 C50.8206914,18.8507786 50.7876958,18.5522296 50.7876958,18.245974 C50.7876958,17.5722819 50.9473614,16.9358816 51.230916,16.3725499 C53.8914483,16.6386891 56.4641872,16.8551754 58.9504121,17.0227587 Z M1.84741111e-13,10.4702792 L0.342288178,7.72227874 C18.9110642,11.8463724 35.1839343,14.6552977 49.1508739,16.1573655 C48.9155647,16.8092718 48.7876958,17.5126902 48.7876958,18.245974 C48.7876958,18.4749656 48.8001656,18.7010447 48.8244632,18.9235692 C35.1116501,17.4410814 19.2331593,14.7078231 1.17975787,10.731225 L1.84741111e-13,10.4702792 L0.342288178,7.72227874 Z M106.988384,7.97854061 L108.233214,10.2140173 C106.369604,12.0644146 104.070995,13.6578404 101.33656,14.9949809 L99.8329094,12.765728 C102.716866,11.4472008 105.102357,9.85119624 106.988384,7.97854061 Z"/>
    <polygon fill="#FF7345" fill-opacity=".735" points="108.459 5.184 116.541 13.926 100.377 13.926" transform="rotate(63 108.459 9.555)"/>
    <polygon fill="#FF7345" fill-opacity=".729" points="94.057 12.874 101.095 20.488 87.018 20.488" transform="rotate(75 94.057 16.681)"/>
    <circle cx="54.96" cy="18.246" r="4.172" fill="#FDB505" fill-opacity=".529"/>
    <line x1="9.777" x2="33.333" y1="20.748" y2="6.143" stroke="#5BB4B0" stroke-opacity=".588" stroke-width="3"/>
  </g>
</svg>
