<svg xmlns="http://www.w3.org/2000/svg" width="528" height="247" viewBox="0 0 528 247">
  <g fill="none" fill-rule="evenodd" transform="translate(-1)">
    <path stroke="#70A0A2" d="M0.22826087,123.223492 C25.5479553,116.023595 43.064375,106.252307 52.77752,93.9096275 C62.0938749,82.0711567 69.623075,70.7058049 75.3651203,59.8135723 L75.3651115,59.8135677 C75.8283351,58.934867 76.6964693,58.3424241 77.683566,58.2313791 C83.1366972,57.6179206 86.5643434,57.746078 87.9665047,58.6158513 C96.5438776,63.9364732 96.0591541,70.7906622 91.2663914,69.0989245 C86.3165614,67.3517456 96.2162214,62.9458211 101.991023,56.830695 C107.765825,50.715569 126.740173,2.66815028 133.339946,7.90968687 C139.939719,13.1512235 134.164918,18.39276 141.589663,18.39276 C149.014408,18.39276 163.038926,70.8081259 167.163784,62.9458211 C171.288643,55.0835162 177.888416,37.6117275 181.188303,37.6117275 C184.488189,37.6117275 193.439536,68.0730884 197.687736,75.1760731 C201.935935,82.2790578 200.987622,70.8081259 209.237339,83.9119674 C214.73715,92.6478617 226.589197,104.771409 244.793478,120.282609 M84.6666181,57.7422619 C88.5164858,42.5747268 92.091363,34.9909592 95.3912497,34.9909592 C100.34108,34.9909592 98.6911363,45.4740324 104.465938,45.4740324 C108.315806,45.4740324 116.290532,60.6162492 128.390116,90.9006829 M143.432578,83.038378 C150.032351,70.225733 154.70719,63.8194105 157.457096,63.8194105 C160.207001,63.8194105 162.956907,63.8194105 165.706813,63.8194105 M155.614181,44.600443 C149.642241,46.4632079 144.41742,46.4632079 139.939719,44.600443 C133.223168,41.8062956 138.289776,34.9909592 132.514974,34.9909592 C126.740173,34.9909592 130.865031,27.1286544 116.015541,29.7494227 M171.481614,53.3363373 C179.641536,52.1968697 183.721497,53.6655112 183.721497,57.7422619 C183.721497,60.6568201 189.305314,66.9148346 195.01985,68.1873577"/>
    <g transform="translate(58.652 98.477)">
      <g fill="#70A0A2" fill-rule="nonzero" transform="translate(28.533 32.675)">
        <path d="M-.306970307.394676109C7.73322557 6.64816179 11.7282609 13.306554 11.7282609 20.3804348 11.7282609 24.6153678 10.8653146 28.1512261 8.78316541 33.7058888L7.59565338 36.8208732C5.4242926 42.560119 4.93478261 44.4623245 4.93478261 47.5543478 4.93478261 53.1230103 8.59625374 60.9036365 15.8999798 70.9462598L16.7087159 70.3580881 15.9522533 69.3076672C9.26819618 59.9319931 5.93478261 52.6659326 5.93478261 47.5543478L5.93770345 47.1700701 5.94951497 46.7222557C6.04118422 44.2918352 6.58957862 42.332046 8.39054171 37.5469768L9.29819454 35.1659026C11.7247157 28.8569476 12.7282609 25.0434759 12.7282609 20.3804348 12.7282609 12.961562 8.57112225 6.03299763.306970307-.394676109L-.306970307.394676109zM10.5695652 1.75869565C17.6972324 7.10444604 21.2391304 13.3027676 21.2391304 20.3804348 21.2391304 24.5824376 20.9037253 27.9243146 20.0984291 32.9357582L19.1569482 38.6831827 19.0416864 39.4947491C19.0139273 39.7010586 18.9850072 39.9223737 18.9505313 40.1866891 18.6661724 42.366774 18.5217391 44.2856734 18.5217391 46.1956522 18.5217391 51.7711468 22.6367581 60.0011847 30.85 70.9521739L31.65 70.3521739 30.8672267 69.2997995 30.0977812 68.2472545C23.0425268 58.5081399 19.5217391 51.1395779 19.5217391 46.1956522 19.5217391 44.5398052 19.6333575 42.8728922 19.8542004 41.0199454L20.0907816 39.2083687 20.1818978 38.5956668C20.2254913 38.3133594 20.2781842 37.9841411 20.3477158 37.5587289L20.8736317 34.3892647C21.8401931 28.5898964 22.2391304 24.9994607 22.2391304 20.3804348 22.2391304 12.9653483 18.5346517 6.48251048 11.1695652.958695652L10.5695652 1.75869565z"/>
      </g>
      <path fill="#70A0A2" fill-rule="nonzero" d="M0.377844541,35.7198363 C5.72359234,29.5516658 10.554287,26.8344 15.1469404,26.8344 C18.5443938,26.8344 21.4808854,28.1577952 25.3647834,30.9695594 L25.8470644,31.3227896 L27.9778533,32.9263724 C28.8294289,33.5650541 29.4521554,34.0105015 30.0468313,34.396469 C31.5812193,35.3923459 32.8066777,35.892371 33.9673913,35.892371 C37.4273821,35.892371 43.9493075,33.1597443 50.5918313,27.6243077 C54.2995137,24.5345724 59.0848406,22.7670267 63.3693937,23.2932816 C68.6255841,23.9388788 72.902607,27.8723603 75.6154614,35.5587811 L76.5584517,35.225961 C73.7268274,27.2030254 69.152454,22.9960773 63.4913036,22.3007404 C59.0324293,21.7530743 54.1363117,23.5005806 50.2796389,26.5881759 L49.9516469,26.8560865 C43.6070113,32.1432828 37.426059,34.785622 34.1634717,34.8892007 L33.3970766,34.8902094 L33.1684782,34.876052 C32.3982628,34.8001931 31.7347999,34.4026544 28.9843737,32.3906012 L26.3636522,30.4610234 C22.1189059,27.3296532 18.9290323,25.8344 15.1469404,25.8344 C10.2287243,25.8344 5.14229078,28.6955188 -0.377844541,35.0649057 L0.377844541,35.7198363 Z"/>
      <g transform="rotate(3 8.703 1075.222)">
        <path fill="#BFE8E0" d="M3.58684806,12.8913625 C3.58684806,11.2252435 0.955051683,12.1340357 0.955051683,10.619382 C0.955051683,9.10472838 3.58684806,8.49886692 3.58684806,6.98421328 C3.58684806,5.46955964 -0.19635923,6.0754211 0.955051683,5.01516355 C1.64230735,4.38231562 2.87866577,3.11722415 4.66412694,1.21988913 L4.66412726,1.21988943 C5.03156235,0.829431503 5.64155266,0.798232231 6.04690774,1.14916414 C7.68325681,2.56581618 8.8370842,3.8039942 9.50838989,4.86369819 C10.6598008,6.68128255 6.21864443,5.92395573 7.53454261,6.98421328 C8.8504408,8.04447083 10.4953135,9.40765911 10.4953135,10.619382 C10.4953135,11.8311049 8.8504408,11.8311049 8.8504408,12.8913625 C8.8504408,13.95162 13.4560845,13.95162 11.4822372,16.2236005 C9.50838989,18.495581 2.1064626,18.495581 0.955051683,16.2236005 C-0.19635923,13.95162 3.58684806,14.5574815 3.58684806,12.8913625 Z"/>
        <path fill="#5BB4B0" fill-rule="nonzero" d="M9.50140661,12.8230965 C9.60304955,12.8924933 9.75527407,12.9682608 9.98491275,13.0643751 L10.1180089,13.118903 L10.7322559,13.3609761 C11.5301078,13.6828324 11.9760204,13.9385537 12.2901641,14.3524353 C12.7905949,15.0117485 12.6573703,15.8074112 11.9458616,16.6263873 C9.70905052,19.2010501 1.77546633,19.2010501 0.407231189,16.501229 C0.00333667156,15.7042585 0.0286142855,15.0114915 0.491767292,14.4781495 C0.774578918,14.1524789 1.07283407,13.9825496 1.73106665,13.7102038 L2.00485194,13.5985614 L2.14152679,13.5415627 C2.79301439,13.2649814 2.97269427,13.1104332 2.97269427,12.8913625 C2.97269427,12.5946595 2.85288019,12.4922197 2.24513707,12.3270565 L1.89755595,12.2356908 L1.74659298,12.193959 C1.41511039,12.0991534 1.22144815,12.0187901 1.00747537,11.8785886 C0.580107853,11.5985644 0.3408979,11.1716677 0.3408979,10.619382 C0.3408979,9.76675726 0.709526151,9.28770605 1.72795045,8.45172846 L2.02319853,8.21173685 L2.15348397,8.10356723 C2.77616137,7.57998296 2.97269427,7.30857562 2.97269427,6.98421328 C2.97269427,6.82974094 2.73211451,6.67344068 2.09111713,6.51553843 L2.02089935,6.49861422 C1.98637978,6.49047054 1.95134529,6.48241827 1.91409738,6.4740619 L1.27020891,6.33435268 C0.847145815,6.23633623 0.621244162,6.1522038 0.42002814,5.98041574 C-0.0525945172,5.57691443 0.0572728186,5.03271373 0.499183537,4.60115621 L0.709576461,4.40396142 L0.979557455,4.14427671 C1.61732484,3.52267266 2.54407518,2.56924865 3.75668565,1.28687105 L4.70650108,0.277534446 C5.01822148,-0.0551558154 5.53542479,-0.0867013204 5.88526733,0.205638586 C7.86287448,1.85819206 9.24217629,3.2958168 10.0272033,4.53503808 C10.4400599,5.18676169 10.4124443,5.82318421 9.91924282,6.26251401 C9.6338547,6.51672959 9.27197078,6.65467723 8.71837554,6.78000556 L8.6243148,6.80079454 L8.35178603,6.85696526 L8.560162,7.02924887 C9.16316442,7.53155379 9.57331277,7.90912601 9.96004242,8.32883127 C10.6984423,9.13019296 11.1094673,9.87046608 11.1094673,10.619382 C11.1094673,11.3667952 10.7938191,11.7728535 10.0911003,12.2691927 L9.88703926,12.410847 L9.7930234,12.4781503 C9.60525593,12.6157568 9.5185514,12.7024272 9.48405821,12.7864587 L9.47700283,12.8058258 L9.50140661,12.8230965 Z M3.58684806,12.8913625 C3.58684806,14.5574815 -0.19635923,13.95162 0.955051683,16.2236005 C2.1064626,18.495581 9.50838989,18.495581 11.4822372,16.2236005 C13.4560845,13.95162 8.8504408,13.95162 8.8504408,12.8913625 C8.8504408,11.8311049 10.4953135,11.8311049 10.4953135,10.619382 C10.4953135,9.49578441 9.08099486,8.24195162 7.82610848,7.22017424 L7.53454261,6.98421328 C6.21864443,5.92395573 10.6598008,6.68128255 9.50838989,4.86369819 C8.76350507,3.68784429 7.42452726,2.29224862 5.49145646,0.676911195 C5.39150198,0.593385947 5.24373038,0.602398901 5.15466788,0.697452761 L4.60222758,1.28564734 C2.99047961,2.99735683 1.83263699,4.18643421 1.12869972,4.85287949 L0.955051683,5.01516355 C-0.19635923,6.0754211 3.58684806,5.46955964 3.58684806,6.98421328 C3.58684806,8.49886692 0.955051683,9.10472838 0.955051683,10.619382 C0.955051683,12.1340357 3.58684806,11.2252435 3.58684806,12.8913625 Z"/>
        <polygon fill="#FDB505" fill-opacity=".647" fill-rule="nonzero" points="5.992 14.65 6.378 20.961 7.351 20.917 6.965 14.606"/>
      </g>
    </g>
    <path fill="#C3E5E1" fill-rule="nonzero" d="M51.6730959,13.9083445 L51.6820543,13.8976823 L51.697,13.923 L51.94683,13.6636299 C54.5720111,10.9973386 58.312984,9.00917313 61.535484,9.00917313 C72.3374653,9.00917313 83.2740786,23.0370274 78.090082,28.9122235 L77.9407974,29.0814127 L13.8829826,29.0814127 L14.0045412,28.4820324 C15.0389163,23.38174 18.0620902,19.9776484 23.0255382,18.3231658 C24.7123521,17.7608945 26.2281688,17.5485902 27.5388098,17.6508576 L27.5289419,17.6032518 L27.577,17.612 L27.5550282,17.3905302 C27.148689,12.734503 29.9197656,8.30094776 35.9336487,6.63042468 C41.9666601,4.95458817 48.3755399,8.61305423 51.6730959,13.9083445 Z M36.2012926,7.59394259 C30.4523978,9.19085782 27.9868521,13.4330422 28.6099466,17.8157384 C29.9795209,18.1396714 30.9873149,18.8690708 31.3704062,19.7412643 C31.818537,20.761535 31.2484826,21.6944969 30.0749969,21.6944969 C29.0186951,21.6944969 28.1415406,20.4350511 27.7501384,18.6783922 L28.0047591,18.7131562 C26.7294366,18.5027679 25.1592589,18.6660181 23.341766,19.2718491 C18.9147081,20.747535 16.1875892,23.668438 15.1178386,28.0814127 L77.4818264,28.0814127 L77.6016405,27.9226786 C81.4152078,22.6101554 71.3864887,10.0091731 61.535484,10.0091731 C58.4314907,10.0091731 54.6701846,12.1169561 52.2089736,14.8428506 C52.7634532,15.9072929 53.0558262,16.8780628 53.0314271,17.6381078 C52.9987296,18.6566505 52.3847151,19.2975074 51.3482787,19.2975074 C50.1146636,19.2975074 49.4254175,18.6413346 49.5296843,17.576587 C49.6047024,16.8105192 50.0961492,15.8561739 50.9022945,14.8398766 L50.997,14.722 L50.9145888,14.5836769 C47.8582682,9.55074705 41.7955962,6.03996936 36.2012926,7.59394259 Z M28.8474737,18.9224944 L28.9105526,19.1209679 C29.2363516,20.0894627 29.7123598,20.6944969 30.0749969,20.6944969 C30.5104493,20.6944969 30.6189136,20.5169822 30.4548306,20.1434102 C30.2628985,19.7064336 29.7681204,19.2835373 29.0490775,18.9971296 L28.8474737,18.9224944 Z M51.511576,15.6873695 L51.3690078,15.882675 C50.8650459,16.5919733 50.5690795,17.2231383 50.5249237,17.6740471 C50.4817987,18.1144292 50.6741046,18.2975074 51.3482787,18.2975074 C51.8276696,18.2975074 52.0160558,18.1008857 52.031942,17.6060221 C52.0457495,17.1759098 51.9047654,16.5985801 51.6235687,15.9386071 L51.511576,15.6873695 Z"/>
    <g transform="translate(142.212 110.333)">
      <g transform="translate(50.951 41.302)">
        <polygon fill="#FFBABA" points="19.454 2.779 37.982 26.865 .926 26.865"/>
        <polygon fill="#FD5B61" fill-rule="nonzero" points="19.954 29.644 19.954 0 18.954 0 18.954 29.644"/>
        <polygon fill="#FD5B61" fill-rule="nonzero" points="37.921 22.02 37.921 29.431 38.921 29.431 38.921 22.02"/>
        <polygon fill="#FD5B61" fill-rule="nonzero" points=".426 22.02 .426 29.431 1.426 29.431 1.426 22.02"/>
      </g>
      <g transform="translate(96.467 29.753)">
        <path fill="#FF7043" d="M7.83999744,0.859992995 C9.54222286,2.6207352 10.8281031,4.18419763 11.6976382,5.55038028 C12.4519213,5.00821143 13.3064563,4.44370245 14.2594897,3.85691789 C14.0605942,6.86823597 13.5929036,9.13464858 12.856418,10.6561557 C12.228026,12.8658168 10.2200388,14.482579 7.83999744,14.482579 C4.95726113,14.482579 2.62034161,12.1107303 2.62034161,9.18490668 C2.62034161,7.23435758 4.36022689,4.45938635 7.83999744,0.859992995 Z"/>
        <polygon fill="#BB9189" fill-rule="nonzero" points=".949 15.336 13.566 25.429 14.19 24.648 1.574 14.555"/>
        <polygon fill="#BB9189" fill-rule="nonzero" points="3.473 15.336 16.089 25.429 16.714 24.648 4.097 14.555" transform="matrix(-1 0 0 1 20.186 0)"/>
        <polygon fill="#BB9189" fill-rule="nonzero" points="1.262 20.492 16.401 20.492 16.401 19.492 1.262 19.492"/>
      </g>
      <g transform="translate(0 .138)">
        <path fill="#C4E5E4" fill-rule="nonzero" d="M4.38540737,43.4470002 C10.5717442,38.9309744 16.7050174,36.646643 22.7660476,36.646643 C28.9147433,36.646643 34.2072499,39.0024539 38.5431848,43.6572074 L41.1547432,46.4607922 L0.256925098,46.4607922 L4.38540737,43.4470002 Z M5.36841296,44.7935832 L37.323252,44.7935832 C33.2993093,40.4737624 28.4469078,38.313852 22.7660476,38.313852 C17.0851873,38.313852 11.2859757,40.4737624 5.36841296,44.7935832 Z"/>
        <path fill="#56B3B2" fill-opacity=".35" d="M24.6212035,48.326117 C28.6895279,44.1810318 32.6764858,42.1084892 36.5820773,42.1084892 C40.4876687,42.1084892 43.8236947,44.1810318 46.5901553,48.326117 L24.6212035,48.326117 Z"/>
        <g fill-rule="nonzero" transform="translate(6.615 9.986)">
          <polygon fill="#FFD469" points="7.174 19.141 7.174 27.529 8.935 27.529 8.935 19.141"/>
          <path fill="#FF6868" fill-opacity=".703" d="M11.9760201,16.7917609 C12.1037213,16.8788056 12.2931989,16.9769704 12.572985,17.1018775 L12.6696309,17.1445251 L13.4470698,17.4775484 C14.4184457,17.9049511 14.9689186,18.2504681 15.3563035,18.8047229 C15.9628729,19.672578 15.8032717,20.7077202 14.9344212,21.7937833 C12.1657931,25.2545684 2.35504296,25.2545684 0.661502874,21.6255539 C0.171727026,20.5760343 0.201967855,19.6759901 0.766376581,18.9701701 C1.11323721,18.5364043 1.47981591,18.3056609 2.26486521,17.9505235 L2.75901864,17.7305448 L2.94622522,17.643447 C3.62009934,17.3217986 3.79994277,17.1340843 3.79994277,16.8501464 C3.79994277,16.4508979 3.67797426,16.328577 2.97867836,16.1210511 L2.60881685,16.0152642 C1.21245699,15.6078999 0.583296718,15.1253269 0.583296718,13.8345407 C0.583296718,12.7313549 1.02616376,12.0924586 2.23307024,11.0099963 L2.57940026,10.7040255 L2.77063757,10.5328327 C3.55694691,9.81905747 3.79994277,9.45872381 3.79994277,9.00957164 C3.79994277,8.79610804 3.53642313,8.60762711 2.7857679,8.40560131 L2.55586045,8.34691346 L1.7292894,8.15146089 C1.21858008,8.02091494 0.937767063,7.90420268 0.683610721,7.66856197 C0.108474185,7.13532489 0.2327295,6.44133215 0.76848945,5.86759789 L1.09254697,5.5366834 L1.33836297,5.27962684 C2.11254507,4.46187427 3.21718311,3.2250241 4.64819832,1.57308541 L5.55540712,0.521121526 C5.98719787,0.0183852433 6.73622636,-0.0601571591 7.26291116,0.342074304 C9.85010352,2.31792433 11.6256322,4.11997382 12.5910509,5.77497719 C13.0921258,6.63396278 13.0592771,7.45606901 12.4534585,8.04210975 C12.0949352,8.38892855 11.6429927,8.578124 10.9617057,8.74729535 L10.8223501,8.7809034 L10.5321191,8.84616178 C12.9075088,10.9717381 13.9108476,12.2583489 13.9108476,13.8345407 C13.9108476,14.807689 13.5254462,15.3511768 12.6726789,16.0082644 L12.4718327,16.1597841 C12.1105329,16.4307589 11.9672337,16.5691884 11.9201412,16.7135477 L11.9114781,16.744623 L11.9760201,16.7917609 Z M2.3872067,6.59570578 L3.02692593,6.7459293 L3.21938133,6.7958192 C4.64887908,7.18176707 5.46715176,7.77283882 5.46715176,9.00957164 C5.46715176,10.1483441 4.99525181,10.7923898 3.69818493,11.9402857 L3.47104822,12.1400869 L3.27981091,12.3112797 C2.49350157,13.0250549 2.25050571,13.3853885 2.25050571,13.8345407 C2.25050571,14.1028997 2.3338308,14.1931552 2.92093901,14.3697351 L3.36785439,14.4980959 C4.78991129,14.9160864 5.46715176,15.4674579 5.46715176,16.8501464 C5.46715176,18.0860156 4.8526021,18.619483 3.35412505,19.2910177 L2.8847212,19.5006027 C2.40518866,19.7217612 2.19220843,19.856649 2.06847059,20.0113891 C1.93875021,20.1736106 1.93102606,20.4035009 2.17229956,20.9205155 C3.29332476,23.3227124 11.5762087,23.3227124 13.6325497,20.7522861 L13.7447339,20.6071315 C14.0860392,20.1478081 14.1069971,19.9275236 13.9897857,19.7598223 C13.8334061,19.5360806 13.4626999,19.3064078 12.7652369,18.9990926 L12.0825941,18.7070308 L11.7671465,18.5673187 C10.7097742,18.0827282 10.2332349,17.6744455 10.2332349,16.8501464 C10.2332349,15.9884089 10.5825969,15.509642 11.3707025,14.9026019 L11.6538504,14.6887252 C12.1257689,14.3268683 12.2436387,14.1548165 12.2436387,13.8345407 C12.2436387,12.9059668 11.301633,11.7570553 9.19146639,9.88521688 L8.90958394,9.63692296 C8.27490113,9.0815755 8.05146551,8.36104442 8.67388151,7.78329641 C8.93988523,7.53638258 9.21934989,7.43388187 9.79375366,7.30186588 L10.3838605,7.17114124 L10.5396298,7.13411561 L10.7180946,7.08720343 C10.9961463,7.0095001 11.1775506,6.93453415 11.2668122,6.86709427 C11.2539776,6.81665607 11.2195967,6.73271408 11.1509509,6.6150355 C10.3504884,5.24281411 8.82051464,3.6657254 6.56238977,1.90719374 L5.72078776,2.88100966 C4.4842901,4.30547213 3.49580951,5.41400347 2.75267876,6.20922356 L2.3872067,6.59570578 Z"/>
        </g>
        <g fill-rule="nonzero" transform="translate(24.989)">
          <polygon fill="#FFD469" points="6.774 25.132 6.774 39.512 8.536 39.512 8.536 25.132"/>
          <path fill="#FF6868" fill-opacity=".703" d="M9.69868057,10.9585689 C12.1030973,13.8575246 13.1345549,15.5596039 13.1345549,17.5026459 C13.1345549,18.5828579 12.8073944,19.2161504 12.0548269,20.0113813 L11.7872574,20.2883724 C11.3668257,20.7304878 11.2550038,20.9484223 11.2550038,21.3647373 C11.2550038,21.3944792 11.2755927,21.4367093 11.3635502,21.5260462 C11.4688754,21.6330232 11.6260622,21.7503329 11.864543,21.8999591 L12.0358968,22.0047388 L12.7379133,22.4166106 C14.8444288,23.692158 15.5202473,25.1006809 14.1485222,27.4495253 C11.5565488,31.8878359 2.17410143,31.8878359 0.610480026,27.2979492 C-0.139379373,25.0967964 0.431847737,24.0512061 2.20271707,22.9597934 L2.45111817,22.8090864 L2.63931411,22.6915566 C3.37906701,22.218496 3.57323098,21.9403898 3.57323098,21.3647373 C3.57323098,20.6429598 3.44001687,20.4544174 2.76305511,20.1781079 L2.42415104,20.0452172 C1.14163304,19.5323221 0.565949083,18.9314881 0.565949083,17.5026459 C0.565949083,16.2527543 0.960484058,15.4765434 2.03833508,14.1515674 L2.4552707,13.6461693 L2.63548307,13.4218701 C3.34699351,12.5210119 3.57323098,12.0253639 3.57323098,11.3232995 C3.57323098,10.8052954 3.29650407,10.5469566 2.50255413,10.2683159 L2.32038655,10.2067937 L1.71654754,10.0134781 C1.15422516,9.82474425 0.844716431,9.66356081 0.588907629,9.33866658 C0.171005704,8.80790327 0.248517325,8.18144043 0.671589142,7.56203256 L0.955931125,7.16470747 L1.09837857,6.96186022 C1.78466374,5.97782159 2.77229755,4.4700341 4.05802445,2.44290075 L5.10894748,0.776165767 C5.47589706,0.191135392 6.24762929,0.0143459754 6.83265967,0.381295554 C6.9211412,0.43679397 7.00232064,0.503159722 7.07430129,0.57884222 C9.43968879,3.06587763 11.0628567,5.33182904 11.9401815,7.39208292 C12.7050329,9.18821147 11.97806,10.2055856 10.3657177,10.7530337 L10.2083758,10.8042326 L9.69868057,10.9585689 Z M2.31284984,8.13337974 L2.12830142,8.39136611 L2.26542582,8.43902673 L2.34597318,8.46549897 L2.7633199,8.59779001 L2.96278344,8.663472 C2.99385256,8.67401627 3.02426248,8.6845092 3.05465556,8.6951758 L3.17202711,8.73751963 C4.48584654,9.22483885 5.24043997,9.96801286 5.24043997,11.3232995 C5.24043997,12.573191 4.845905,13.3494019 3.76805398,14.6743779 L3.44489986,15.0655168 C2.51622685,16.1902961 2.23315808,16.7173367 2.23315808,17.5026459 L2.23542902,17.6372676 C2.25304293,18.0997525 2.38337827,18.2329676 2.9750238,18.4704938 L3.31111193,18.6018623 C4.6268817,19.1310666 5.24043997,19.8110757 5.24043997,21.3647373 C5.24043997,22.7321984 4.6801422,23.3958169 3.32960502,24.2259752 L2.99151232,24.4317751 C1.95122269,25.0785289 1.76526096,25.428874 2.12547517,26.5684428 L2.18862713,26.7603271 C3.25637739,29.8946233 10.7898907,29.8946233 12.7088401,26.608751 L12.8112684,26.42781 C13.4846957,25.1960934 13.2413961,24.6810698 11.9709187,23.9011307 L11.7824224,23.7878026 L11.1802764,23.4356474 L10.958149,23.2993543 C10.0326417,22.7151164 9.58779477,22.2033891 9.58779477,21.3647373 C9.58779477,20.4286005 9.88461065,19.8725094 10.5773653,19.1414718 L10.8469986,18.862293 C11.3270148,18.3560792 11.467346,18.0729543 11.467346,17.5026459 C11.467346,16.138921 10.581667,14.6533465 8.54406327,12.1786752 L8.27766551,11.8573198 C7.7613518,11.2384506 7.61373015,10.5863306 8.05915012,10.0199551 C8.30979526,9.7012462 8.59941122,9.55701277 9.15407457,9.38203169 L9.26860819,9.3465647 L9.7078618,9.21392478 L9.91265382,9.14697633 L10.0524764,9.09718149 C10.6189588,8.88490884 10.6782979,8.70673259 10.4355914,8.11537172 L10.3296344,7.86962107 C9.56815453,6.16417295 8.20388271,4.24354183 6.23406345,2.11942829 L5.40537022,3.43133879 C4.04269209,5.57818823 3.0131032,7.14384599 2.31284984,8.13337974 Z" transform="matrix(-1 0 0 1 15.151 0)"/>
        </g>
      </g>
    </g>
    <g transform="translate(244.662 80.201)">
      <g transform="translate(11.68)">
        <polygon fill="#8E4A3D" fill-rule="nonzero" points="9.69 12.908 9.69 38.723 10.69 38.723 10.69 12.908"/>
        <circle cx="10.19" cy="10.19" r="10.19" fill="#63BBB1" fill-opacity=".379"/>
        <polygon fill="#8E4A3D" fill-rule="nonzero" points="10.451 25.563 17.244 21.42 16.723 20.567 9.93 24.709"/>
      </g>
      <g fill="#70A0A2" fill-rule="nonzero" transform="translate(0 33.967)">
        <path d="M16.3240272,7.28448505 C16.3240272,2.97558358 12.5490363,-0.5 7.91201359,-0.5 C3.27499086,-0.5 -0.5,2.97558358 -0.5,7.28448505 L0.5,7.28448505 C0.5,3.54716652 3.80966742,0.5 7.91201359,0.5 C12.0143598,0.5 15.3240272,3.54716652 15.3240272,7.28448505 L16.3240272,7.28448505 Z"/>
        <path d="M32.1480543,7.28448505 C32.1480543,2.97558358 28.3730635,-0.5 23.7360408,-0.5 C19.099018,-0.5 15.3240272,2.97558358 15.3240272,7.28448505 L16.3240272,7.28448505 C16.3240272,3.54716652 19.6336946,0.5 23.7360408,0.5 C27.8383869,0.5 31.1480543,3.54716652 31.1480543,7.28448505 L32.1480543,7.28448505 Z"/>
        <path d="M47.9720815,7.28448505 C47.9720815,2.97558358 44.1970907,-0.5 39.5600679,-0.5 C34.9230452,-0.5 31.1480543,2.97558358 31.1480543,7.28448505 L32.1480543,7.28448505 C32.1480543,3.54716652 35.4577218,0.5 39.5600679,0.5 C43.6624141,0.5 46.9720815,3.54716652 46.9720815,7.28448505 L47.9720815,7.28448505 Z"/>
      </g>
    </g>
    <g transform="translate(291.217 33.76)">
      <g transform="translate(10.365 123.566)">
        <path fill="#FFD469" fill-rule="nonzero" d="M16.7460968,12.8633053 C17.1406543,14.2442566 16.8991931,14.8703712 16.3044643,14.9474657 C15.6188833,15.0363373 14.5690956,14.4874025 13.7989682,13.5522479 C13.1024674,12.7064968 12.7201337,11.7537495 12.6934475,10.7380961 L12.6942093,10.4828977 C14.6538661,10.2564162 16.2233073,11.0335421 16.7460968,12.8633053 Z M17.5042089,3.98871627 C22.8189967,0.445524404 27.2847823,0.825591264 30.1990654,4.15620047 C32.7056305,7.02084631 33.4867322,11.6330659 32.035068,14.5363943 C31.9115733,14.7833836 32.0116855,15.0837201 32.2586748,15.2072147 C32.505664,15.3307094 32.8060005,15.2305972 32.9294952,14.9836079 C34.5702705,11.7020572 33.7158255,6.65676267 30.9516421,3.49769587 C27.6928855,-0.226597324 22.6661186,-0.654407276 16.9495087,3.15666598 C13.8526131,5.22126307 12.1905932,7.48767525 11.7896544,9.62619757 C10.7879598,9.85112679 9.73954582,10.2788112 8.70625693,10.8987846 C4.79241153,13.2470918 3.11985306,17.1225322 5.65543815,20.1652343 C5.83222019,20.3773727 6.14750254,20.4060347 6.35964099,20.2292527 C6.57177943,20.0524707 6.60044147,19.7371883 6.42365943,19.5250499 C4.36956982,17.0601423 5.76331072,13.8307427 9.22075269,11.7562775 C10.0617385,11.251686 10.8983511,10.8910838 11.6934317,10.6772462 C11.7008162,11.9383726 12.1581328,13.132856 13.027038,14.1879551 C13.9967066,15.3654098 15.3599788,16.0782659 16.4330183,15.9391682 C17.7543519,15.7678842 18.2493018,14.4844677 17.7076208,12.5885842 C17.0668853,10.3460102 15.2659985,9.34245903 13.0705297,9.4483689 L12.8420361,9.46327743 C13.2945175,7.69507917 14.7843477,5.8019571 17.5042089,3.98871627 Z" transform="matrix(-1 0 0 1 38.21 0)"/>
        <path fill="#000" fill-opacity=".201" d="M3.19564801,15.4024295 L9.26635499,15.4024295 C9.49802872,15.4024295 9.71131128,15.5286163 9.8228479,15.7316737 L11.5656652,18.9045502 C11.7344842,19.2118927 11.6221887,19.5978979 11.3148461,19.766717 C11.2211787,19.8181672 11.11604,19.8451421 11.0091723,19.8451421 L1.16130448,19.8451421 C0.810648953,19.8451421 0.526386482,19.5608796 0.526386482,19.2102241 C0.526386482,19.088736 0.561241367,18.9697985 0.626814577,18.8675268 L2.6611581,15.6946503 C2.77791119,15.5125556 2.9793386,15.4024295 3.19564801,15.4024295 Z"/>
      </g>
      <path fill="#70A0A2" fill-rule="nonzero" d="M81.1177756,1.10591813 L81.9946155,1.03051237 C87.2132122,0.606292803 94.2505511,0.454669448 103.318501,0.5109205 L104.892937,0.522587782 L107.998896,0.55576783 L111.385339,0.604777107 C112.767535,0.627203065 114.200276,0.653261237 115.746221,0.683835487 L134.879886,1.08501855 L135.544042,1.09314507 L138.228261,1.10386473 C141.180479,1.10386473 143.100555,3.20427476 144.311301,7.16498265 L144.407921,7.49019301 C145.127614,9.98263532 145.518715,12.4996858 145.964174,17.2593943 L146.054104,18.2418953 L146.498964,23.4633274 L146.637819,24.9975108 C147.082737,29.7418322 147.513784,32.6129708 148.230723,35.1193217 L148.305922,35.37736 L148.449327,35.8449023 C149.719801,39.8569229 151.636782,41.864734 154.532609,41.864734 C156.470455,41.864734 157.956867,39.8736418 160.291306,34.8910482 L161.395538,32.5134448 L161.813999,31.6419816 L162.146609,30.9771585 C162.686071,29.9230595 163.156703,29.1305985 163.642642,28.4788957 L164.783491,26.9443178 L165.947477,25.3696781 L172.689636,16.1768847 L173.636882,14.9088493 C174.665953,13.5443581 175.321066,12.7292811 175.747933,12.2872506 L175.816989,12.2170028 L175.933877,12.1048528 C177.94605,10.2603605 187.641304,10.4257032 187.641304,12.4734299 L187.653653,12.6803332 C187.715382,13.406667 188.008415,15.7001383 188.530087,19.5398697 L188.752397,20.4313267 L188.654758,20.4550661 L189.865796,29.1913261 L193.051003,51.6644779 L206.477262,67.7759883 L237.628771,82.6745362 L237.197316,83.5766704 L205.947316,68.6310183 L205.778933,68.5000434 L192.101172,52.0867301 L189.338313,32.6286071 L171.199509,31.3187403 L162.89611,32.6680427 L162.779483,31.9449462 L162.524468,32.4684443 L162.299755,32.9405183 L161.025536,35.6793195 L160.698725,36.3611349 C158.445423,41.0009602 156.890269,42.864734 154.532609,42.864734 C151.11414,42.864734 148.883492,40.5283946 147.495985,36.146794 C147.085358,34.8500778 146.761822,33.504641 146.48315,31.9004927 L146.56253,32.6719119 L144.408095,32.8872272 C126.467058,34.6336472 114.908403,34.5608636 109.6554,32.6442274 C108.558811,32.2441207 107.747009,31.7358861 107.200064,31.1661599 L106.701464,31.3011134 C100.305653,32.9567956 87.7842104,33.4420585 68.9382924,32.8603265 L66.646412,32.7854037 L63.6117491,32.6741406 L63.6333355,32.132036 C59.7110009,37.0288504 56.5378413,38.5105852 50.82347,39.2405792 L50.438711,39.288161 L49.0444744,39.4449112 L48.4569126,39.520237 C46.2125165,39.830756 45.2066979,40.2672111 44.3005538,41.3821522 C43.0525298,42.9177504 42.3796936,45.7450914 42.2752644,50.511647 L42.2671392,50.9642127 L42.2567454,52.3177727 C41.9872803,66.7354802 28.5133454,78.4131707 1.96656318,87.4043928 L1.15811388,87.6760319 L0.841886118,86.7273486 C27.5645504,77.8197939 40.9909851,66.3260714 41.2568415,52.3013691 L41.2688904,50.7070175 L41.2841982,49.9371595 C41.507594,41.2744964 43.3854103,39.1418304 49.0547341,38.4387718 L49.9421578,38.3391049 C56.0354244,37.6538702 59.0835068,36.3194767 63.106472,31.186728 C65.6308385,27.9659847 67.442061,24.6030665 68.8244044,20.854792 C69.3070269,19.5461434 69.7304417,18.2146175 70.1486725,16.7248625 L70.3563518,15.9703631 L71.6439803,10.9816851 L71.7904812,10.45292 L71.6006398,9.96994611 L71.9730266,9.82536785 C73.7592711,3.83934547 75.8996539,1.58029282 81.1177756,1.10591813 Z M206.378771,67.7288841 L206.547154,67.859859 L206.477262,67.7759883 L206.378771,67.7288841 Z M117.363252,19.308975 L116.400298,19.2862835 L115.671813,19.276332 C114.169026,19.2695654 112.82314,19.3569613 110.388614,19.6138097 L109.994987,19.6557839 L105.815953,20.124361 C102.97786,20.4330138 100.979087,20.5873973 98.8745463,20.6271526 L98.451948,20.6335871 L97.4421825,20.6352406 C96.133652,20.6154326 92.9281732,20.4764622 87.8195149,20.2181033 L86.8982296,20.1712712 L70.4230353,19.2872643 C70.2126669,19.9391543 69.9944469,20.572236 69.7626338,21.2008059 C68.4292016,24.8164561 66.7027997,28.0889367 64.3433933,31.2184521 L63.9833032,31.68772 L66.2883021,31.7720183 C85.7639877,32.4497854 98.9520769,32.0137775 105.633249,30.5780696 L106.140686,30.4641749 L106.612995,30.3484907 C105.983066,29.089396 106.420482,27.662865 107.755306,26.466572 C108.647,25.6674197 109.759465,25.207712 110.604176,25.3587867 C111.712121,25.5569399 112.103346,26.6332014 111.667859,28.2299881 C111.400619,29.2098671 110.375175,30.0366304 108.582669,30.7148854 L108.293266,30.8207449 L108.45788,30.9407527 C108.857792,31.2179619 109.368734,31.4751487 109.998162,31.7048052 C114.859618,33.4785795 125.621351,33.6143092 142.21549,32.0901911 L144.350207,31.8881011 L146.445443,31.6802384 C146.169139,30.0425368 145.936289,28.1334064 145.703915,25.7391146 L145.503851,23.5630645 L145.142976,19.2947907 C140.363958,20.1905666 136.056738,20.6377102 132.219131,20.6377102 L131.588237,20.6335766 C130.308791,20.6154111 129.568584,20.5357413 128.793564,20.3625042 L128.055754,20.1839162 L127.530731,20.0636858 C127.354148,20.026476 127.173524,19.9916725 126.980844,19.9581322 L126.500135,19.8808474 L126.114821,19.826894 C124.580182,19.6241747 122.372966,19.4686439 119.143058,19.3608691 L117.363252,19.308975 Z M170.933,20.259 L166.752102,25.9634612 L164.31969,29.2477619 C163.882479,29.8619649 163.441326,30.628375 162.927795,31.6476482 L171.096918,30.3222943 L171.213133,30.3171196 L189.195772,31.6151625 L187.806961,21.6336308 C187.763099,21.3136668 187.72048,21.0020874 187.679105,20.6988843 L183.317614,21.7900223 L183.141131,21.801893 L170.91287,20.4431973 L170.933,20.259 Z M110.428122,26.3431671 C109.936473,26.2552368 109.106983,26.5980098 108.422713,27.2112649 C107.431031,28.1000281 107.075012,29.0618316 107.516185,29.9340488 L107.592492,30.0709991 L107.863477,29.9829259 C109.541369,29.4193435 110.49063,28.7459093 110.703095,27.9668706 C111.003238,26.8663474 110.839825,26.4167992 110.428122,26.3431671 Z M186.649917,12.644836 L186.641304,12.4734299 C186.641304,11.6183957 178.103294,11.4727886 176.609601,12.8420069 C176.226785,13.1929219 175.497051,14.0961598 174.217749,15.8007033 L173.100759,17.3027076 L171.488,19.501 L183.162254,20.7980861 L187.543546,19.7026869 L187.022844,15.794116 C186.817823,14.2124222 186.695668,13.1886064 186.6558,12.7181266 L186.649917,12.644836 L186.641304,12.4734299 L186.649917,12.644836 Z M112.686321,1.62684382 L107.986234,1.55568767 L104.888884,1.52259647 C95.3104268,1.44039199 87.9075601,1.57518214 82.4616488,1.99660652 L82.0357701,2.03047364 L81.2083114,2.10181133 C76.7000441,2.51165381 74.7724693,4.32554231 73.1526818,9.38836938 C77.209779,7.94260484 80.9072805,7.21799457 84.2467227,7.21799457 C85.9115137,7.21799457 86.7654964,7.37799565 87.6632255,7.79839478 L87.9031749,7.91676889 L88.6192574,8.27959962 L88.8663109,8.39290369 C89.115176,8.50234688 89.3723646,8.60107463 89.6638762,8.69689141 C91.297133,9.23372577 93.8922578,9.62483189 98.1195107,9.8652966 L98.5787065,9.89048401 L99.5025846,9.93590567 C101.372449,10.0212351 102.730552,9.85282991 105.868778,9.13922575 L106.625627,8.96473712 L109.164405,8.3639167 L110.179862,8.13408527 C112.955169,7.52298644 114.90654,7.24905511 117.093848,7.2205044 L117.482509,7.21799457 C118.789114,7.21799457 123.431872,7.6565012 131.443027,8.53595889 L135.547206,8.99197363 L143.851506,9.93868382 L143.73684,10.9320879 L134.758611,9.9099293 C125.353502,8.8573545 119.695258,8.29485874 117.822169,8.22534498 L117.635966,8.21978362 L117.141216,8.22001345 C114.648696,8.24978495 112.461836,8.61113704 108.881438,9.45721245 L106.779018,9.95583126 C103.301791,10.7656498 101.791325,11.000096 99.8875036,10.9504553 L99.456998,10.9348661 L98.0360579,10.8621493 C93.7424012,10.6167821 91.0764843,10.2138341 89.3516217,9.6468899 C89.0287806,9.54077543 88.7416561,9.43050604 88.4640666,9.30843886 L88.1886857,9.18215601 L87.2329984,8.70114995 C86.477232,8.34839046 85.76611,8.21799457 84.2467227,8.21799457 C80.8418375,8.21799457 77.0230779,9.00550778 72.7919412,10.5845711 L72.6085742,11.2447311 L71.3892345,15.9773795 L71.1109349,16.9969982 L70.8582567,17.8755054 C70.8158799,18.0192088 70.773336,18.1616428 70.730572,18.3029391 L86.9186995,19.1710587 C91.94395,19.4278083 95.2786741,19.5787063 96.917746,19.6235168 L97.3898773,19.6343299 L98.4402865,19.6336381 C100.648087,19.6079095 102.676924,19.458598 105.631533,19.1384992 L106.196641,19.0764677 L109.263415,18.7296511 C112.476449,18.3749674 113.997654,18.263107 115.7914,18.2769707 L116.913711,18.2976861 L118.756965,18.3478838 C121.960231,18.4480551 124.214202,18.5930581 125.830502,18.7837214 L126.255735,18.8368532 L126.83737,18.9208043 C127.164796,18.9723764 127.455683,19.0259064 127.737129,19.0852174 L128.119663,19.1707718 L128.777341,19.3312088 L129.174458,19.4215167 C129.767929,19.5435016 130.370425,19.6066496 131.320338,19.6285872 L131.616073,19.6339498 L132.219131,19.6377102 C136.018278,19.6377102 140.299068,19.1904565 145.060457,18.2950171 L144.929047,16.8934464 C144.56885,13.1775371 144.24075,10.8925138 143.740677,8.86413308 L143.617254,8.38164803 L143.447171,7.7676095 C142.352088,3.97511234 140.710713,2.10386473 138.228261,2.10386473 L136.095665,2.09818685 L134.731777,2.08306463 L113.897894,1.64862435 L112.686321,1.62684382 Z"/>
      <path fill="#C3E5E1" d="M33.9409755,81.7669076 C35.164788,81.7669076 36.1568839,82.7590036 36.1568839,83.982816 L36.1568839,90.595319 C36.1568839,90.7823593 36.1921393,90.9611654 36.2563672,91.1254543 L36.9324519,91.1256582 C37.2690003,91.1256582 37.5418267,90.8357801 37.5418267,90.4781974 L37.5418267,86.9465935 C37.5418267,86.0688905 38.2114915,85.3573717 39.0375648,85.3573717 C39.8636382,85.3573717 40.533303,86.0688905 40.533303,86.9465935 L40.533303,90.4781974 C40.533303,92.5911861 38.921147,94.3041018 36.9324519,94.3041018 L37.61342,94.3041018 L37.4731458,94.3107694 C36.7345346,94.381348 36.1568839,95.0035341 36.1568839,95.7606378 L36.1568839,95.7606378 L36.1568839,102.153265 C36.1568839,103.377077 35.164788,104.369173 33.9409755,104.369173 C32.7171631,104.369173 31.7250672,103.377077 31.7250672,102.153265 L31.7255268,96.1922878 C31.6517206,96.1650962 31.5752137,96.1434873 31.4965181,96.1279731 L30.9494992,96.1287638 C28.9608041,96.1287638 27.3486481,94.4158481 27.3486481,92.3028595 L27.3486481,92.3028595 L27.3486481,88.7712555 C27.3486481,87.8935526 28.0183129,87.1820337 28.8443863,87.1820337 C29.6704596,87.1820337 30.3401244,87.8935526 30.3401244,88.7712555 L30.3401244,88.7712555 L30.3401244,92.3028595 C30.3401244,92.6604422 30.6129508,92.9503202 30.9494992,92.9503202 L30.9494992,92.9503202 L31.7246481,92.9499076 L31.7250672,83.982816 C31.7250672,82.7590036 32.7171631,81.7669076 33.9409755,81.7669076 Z M37.6716814,94.3041018 L37.6708839,94.3068993 L37.61342,94.3041018 L37.6716814,94.3041018 Z"/>
      <g transform="translate(32.175 91.843)">
        <path fill="#70A0A2" fill-rule="nonzero" d="M0.730648533,23.1793289 L1.26935147,24.0218247 L2.48528416,23.24864 L3.71538535,22.475476 C17.7444285,13.7111827 27.7321418,9.33152174 33.6086957,9.33152174 L33.9437629,9.3347224 L34.2844898,9.34482894 C37.2396861,9.46352457 40.3133832,10.4062477 48.227178,13.3649558 L52.290964,14.8884914 L52.8342208,15.0888741 C62.0535688,18.4764865 67.5874072,19.6530646 71.9027591,18.4201069 C74.3470876,17.7217274 76.5835924,16.3720294 79.7103704,13.9224976 L80.6870527,13.1462004 L82.8999768,11.3583497 L83.6408959,10.7703351 C86.8811391,8.22133796 88.8946024,6.96062787 91.3324069,6.09146599 C94.949998,4.80166926 98.5956551,5.02263879 102.678567,7.06409478 C105.260311,8.35496679 107.580808,9.79223516 109.983962,11.5331539 L110.641675,12.0155965 C112.1504,13.1357105 116.842287,16.8892199 116.993376,17.0064443 C123.488601,22.0458426 128.527166,24.1005768 136.869565,24.1005768 L143.239814,24.1069827 L149.792135,24.1278267 C156.233147,24.1559022 162.340231,24.2056721 168.113376,24.2771356 L168.125754,23.2772122 L163.993291,23.2303494 C155.617465,23.1438336 146.576233,23.1005768 136.869565,23.1005768 C128.944493,23.1005768 124.146104,21.2125498 118.00859,16.5259819 L113.676046,13.0994256 C112.695319,12.3279802 111.771892,11.6092277 111.237775,11.2126863 C108.552538,9.21910133 105.998521,7.60603788 103.125781,6.16966759 C98.7992048,4.00637961 94.8707428,3.76826881 90.9965786,5.14954277 C88.2457675,6.13030236 86.0505031,7.55775739 82.2864097,10.5685557 L79.8613301,12.5266184 L79.4842761,12.8272564 C76.2436003,15.3992213 74.0147898,16.7766539 71.628038,17.458583 C67.7504195,18.566474 62.6055037,17.5469072 54.2031639,14.5227477 L52.6378501,13.9505838 L47.2795424,11.9449727 L45.1573264,11.1669548 C39.0494824,8.95702925 36.4846218,8.33152174 33.6086957,8.33152174 C27.1400932,8.33152174 16.2082459,13.2827488 0.730648533,23.1793289 Z"/>
        <g transform="translate(132.109 .815)">
          <circle cx="30.495" cy="14.514" r="6.131" fill="#FFCFC0"/>
          <circle cx="7.123" cy="14.514" r="6.131" fill="#FFCFC0"/>
          <path fill="#FF7043" fill-rule="nonzero" d="M30.4950597,7.53178462 C34.3510555,7.53178462 37.4769577,10.6576868 37.4769577,14.5136826 C37.4769577,18.3696784 34.3510555,21.4955806 30.4950597,21.4955806 C26.6390639,21.4955806 23.5131617,18.3696784 23.5131617,14.5136826 C23.5131617,10.6576868 26.6390639,7.53178462 30.4950597,7.53178462 Z M30.4950597,8.38295435 C27.109152,8.38295435 24.3643314,11.1277749 24.3643314,14.5136826 C24.3643314,17.8995903 27.109152,20.6444109 30.4950597,20.6444109 C33.8809674,20.6444109 36.625788,17.8995903 36.625788,14.5136826 C36.625788,11.1277749 33.8809674,8.38295435 30.4950597,8.38295435 Z"/>
          <path fill="#FFF" fill-rule="nonzero" d="M30.4950597,8.38295435 C33.8809674,8.38295435 36.625788,11.1277749 36.625788,14.5136826 C36.625788,17.8995903 33.8809674,20.6444109 30.4950597,20.6444109 C27.109152,20.6444109 24.3643314,17.8995903 24.3643314,14.5136826 C24.3643314,11.1277749 27.109152,8.38295435 30.4950597,8.38295435 Z M30.4950597,9.65970896 C27.8142841,9.65970896 25.641086,11.832907 25.641086,14.5136826 C25.641086,17.1944583 27.8142841,19.3676563 30.4950597,19.3676563 C33.1758353,19.3676563 35.3490334,17.1944583 35.3490334,14.5136826 C35.3490334,11.832907 33.1758353,9.65970896 30.4950597,9.65970896 Z"/>
          <path fill="#FF7043" fill-rule="nonzero" d="M7.12336423,7.53178462 C10.97936,7.53178462 14.1052622,10.6576868 14.1052622,14.5136826 C14.1052622,18.3696784 10.97936,21.4955806 7.12336423,21.4955806 C3.26736844,21.4955806 0.141466226,18.3696784 0.141466226,14.5136826 C0.141466226,10.6576868 3.26736844,7.53178462 7.12336423,7.53178462 Z M7.12336423,8.38295435 C3.7374565,8.38295435 0.992635962,11.1277749 0.992635962,14.5136826 C0.992635962,17.8995903 3.7374565,20.6444109 7.12336423,20.6444109 C10.509272,20.6444109 13.2540925,17.8995903 13.2540925,14.5136826 C13.2540925,11.1277749 10.509272,8.38295435 7.12336423,8.38295435 Z"/>
          <path fill="#FFF" fill-rule="nonzero" d="M7.12336423,8.38295435 C10.509272,8.38295435 13.2540925,11.1277749 13.2540925,14.5136826 C13.2540925,17.8995903 10.509272,20.6444109 7.12336423,20.6444109 C3.7374565,20.6444109 0.992635962,17.8995903 0.992635962,14.5136826 C0.992635962,11.1277749 3.7374565,8.38295435 7.12336423,8.38295435 Z M7.12336423,9.65970896 C4.4425886,9.65970896 2.26939057,11.832907 2.26939057,14.5136826 C2.26939057,17.1944583 4.4425886,19.3676563 7.12336423,19.3676563 C9.80413986,19.3676563 11.9773379,17.1944583 11.9773379,14.5136826 C11.9773379,11.832907 9.80413986,9.65970896 7.12336423,9.65970896 Z"/>
          <polygon fill="#FF7043" fill-rule="nonzero" points="7.484 13.913 14.034 3.433 21.846 .829 21.577 .022 13.475 2.723 6.762 13.462"/>
          <path fill="#FF7043" fill-rule="nonzero" d="M27.0167879,5.30491299 C27.1779876,5.30491299 27.3253519,5.39598916 27.3974426,5.54017052 L31.3761274,13.49754 C31.5176133,13.7805118 31.3118448,14.1134522 30.9954727,14.1134522 L19.0594184,14.1134522 C18.9331134,14.1134522 18.8133336,14.0573503 18.7324751,13.9603201 L12.1013339,6.00295065 C11.8703381,5.72575577 12.0674503,5.30491299 12.4282772,5.30491299 L27.0167879,5.30491299 Z M13.3369186,6.15608273 L19.2587517,13.2622825 L30.3068619,13.2622825 L26.753762,6.15608273 L13.3369186,6.15608273 Z"/>
          <polygon fill="#FF7043" fill-rule="nonzero" points="30.995 3.504 30.995 2.652 24.364 2.652 24.364 3.504 27.017 3.504 26.643 2.874 18.807 17.241 16.407 17.241 16.407 18.092 19.312 18.092 27.269 3.504"/>
        </g>
      </g>
      <g transform="translate(200.783 113.658)">
        <path fill="#C6E7E0" d="M16.3234981,0.302428966 C17.9813043,0.302428966 19.3252217,1.64634642 19.3252217,3.30415262 L19.3252217,12.2596994 C19.3252217,12.5144244 19.3746898,12.7575954 19.4645433,12.9801298 L20.375825,12.9800212 C20.8317217,12.9800212 21.201299,12.5873453 21.201299,12.1029551 L21.201299,7.318958 C21.201299,6.13000012 22.1084433,5.16615932 23.2274625,5.16615932 C24.3464816,5.16615932 25.2536259,6.13000012 25.2536259,7.318958 L25.2536259,12.1029551 C25.2536259,14.9652611 23.0697601,17.2856186 20.375825,17.2856186 L21.250499,17.2856186 L21.1000397,17.291411 C20.1070593,17.368168 19.3252217,18.1982279 19.3252217,19.2108958 L19.3252217,19.2108958 L19.3252217,27.9182866 C19.3252217,29.5760927 17.9813043,30.9200102 16.3234981,30.9200102 C14.6656919,30.9200102 13.3217744,29.5760927 13.3217744,27.9182866 L13.3216086,19.8464727 C13.2195802,19.8078602 13.1135729,19.7773438 13.0043707,19.7557074 L12.2711711,19.7573504 C9.57723607,19.7573504 7.3933702,17.4369929 7.3933702,14.5746869 L7.3933702,14.5746869 L7.3933702,9.79068982 C7.3933702,8.60173194 8.30051448,7.63789114 9.41953366,7.63789114 C10.5385528,7.63789114 11.4456971,8.60173194 11.4456971,9.79068982 L11.4456971,9.79068982 L11.4456971,14.5746869 C11.4456971,15.0590771 11.8152744,15.451753 12.2711711,15.451753 L12.2711711,15.451753 L13.3213702,15.451429 L13.3217744,3.30415262 C13.3217744,1.64634642 14.6656919,0.302428966 16.3234981,0.302428966 Z M21.32751,17.2856186 L21.3272217,17.2889069 L21.250499,17.2856186 L21.32751,17.2856186 Z"/>
        <path fill="#6BAAA3" fill-rule="nonzero" d="M16.3234981,0.302428966 C17.9813043,0.302428966 19.3252217,1.64634642 19.3252217,3.30415262 L19.3252217,12.2596994 C19.3252217,12.5144244 19.3746898,12.7575954 19.4645433,12.9801298 L20.375825,12.9800212 C20.8317217,12.9800212 21.201299,12.5873453 21.201299,12.1029551 L21.201299,7.318958 C21.201299,6.18169394 22.031276,5.25039711 23.0827621,5.17156462 L23.2274625,5.16615932 C24.3464816,5.16615932 25.2536259,6.13000012 25.2536259,7.318958 L25.2536259,12.1029551 C25.2536259,14.8899372 23.183188,17.1631192 20.5874139,17.2808303 L20.375825,17.2856186 L21.250499,17.2856186 L21.1000397,17.291411 C20.1593215,17.3641282 19.4081053,18.1129399 19.3316358,19.0526016 L19.3252217,19.2108958 L19.3252217,27.9182866 C19.3252217,29.5168854 18.0755842,30.8236157 16.4998721,30.9149146 L16.3234981,30.9200102 C14.6656919,30.9200102 13.3217744,29.5760927 13.3217744,27.9182866 L13.3216086,19.8464727 L13.1656798,19.794724 L13.0043707,19.7557074 L12.2711711,19.7573504 C9.64812909,19.7573504 7.50866374,17.5575101 7.39787681,14.7995001 L7.3933702,14.5746869 L7.3933702,9.79068982 C7.3933702,8.65342576 8.2233472,7.72212893 9.27483334,7.64329644 L9.41953366,7.63789114 C10.4898998,7.63789114 11.3664145,8.5197417 11.4406098,9.63694573 L11.4456971,9.79068982 L11.4456971,14.5746869 C11.4456971,15.0218163 11.7606032,15.3907987 12.1676254,15.4449194 L12.2711711,15.451753 L13.3213702,15.451429 L13.3217744,3.30415262 C13.3217744,1.70555379 14.5714119,0.398823439 16.147124,0.307524586 L16.3234981,0.302428966 Z M16.3234981,0.802428966 C14.9418342,0.802428966 13.8217744,1.9224888 13.8217744,3.30416925 L13.8213536,15.9512747 L12.2382448,15.9506677 L12.1017217,15.9405571 C11.437821,15.8522798 10.9456971,15.2640979 10.9456971,14.5746869 L10.9459706,9.8072256 L10.9417088,9.67007853 C10.884168,8.80365217 10.214551,8.13789114 9.41953366,8.13789114 C8.58366096,8.13789114 7.89326977,8.87132506 7.89326977,9.79068982 L7.89326977,14.5646659 L7.89747391,14.7794317 C7.99808804,17.2841926 9.93129277,19.2573504 12.2700508,19.2573516 L13.1015472,19.2652416 C13.2372075,19.2921201 13.3699326,19.3301527 13.4985833,19.3788404 L13.8216015,19.5010861 L13.8217744,27.9182866 C13.8217744,29.2999504 14.9418342,30.4200102 16.3234981,30.4200102 C17.7051619,30.4200102 18.8252217,29.2999504 18.8252217,27.9182866 L18.8256317,19.1906525 L18.8332833,19.0120457 C18.9098837,18.0707756 19.5229311,17.2822876 20.375825,16.9514161 L20.375825,16.7856186 C22.7866136,16.7856186 24.7536259,14.6956679 24.7536259,12.1029551 L24.7536259,7.318958 C24.7536259,6.39959325 24.0633352,5.66615932 23.2274625,5.66615932 C22.3915897,5.66615932 21.701299,6.39959325 21.701299,7.318958 L21.701299,12.1029551 C21.701299,12.8569384 21.1148682,13.4800212 20.3758846,13.4800212 L19.1272262,13.4801699 L19.0009107,13.1673323 C18.8853638,12.8811647 18.8252217,12.5741935 18.8252217,12.2596994 L18.8252217,3.30415262 C18.8252217,1.9224888 17.7051619,0.802428966 16.3234981,0.802428966 Z"/>
        <g transform="translate(0 28.156)">
          <path fill="#CAABA6" fill-rule="nonzero" d="M18.8579177,1.21516788 C21.6428255,1.21516788 23.9938837,3.05567792 25.902643,6.65948005 L26.2460752,7.30789163 L10.0012059,7.30789163 L10.5566318,6.59480088 C13.3371431,3.02500545 16.1001184,1.21516788 18.8579177,1.21516788 Z M24.6582995,6.24853119 C22.9908378,3.46221106 21.0595276,2.09853038 18.8579177,2.09853038 C16.6001375,2.09853038 14.2538469,3.52729034 11.8288879,6.42452913 L24.7621724,6.42452913 L24.6582995,6.24853119 Z"/>
          <path fill="#BA928B" fill-opacity=".763" d="M0,7.29322206 C4.06411198,2.43107402 8.04694173,0 11.9484892,0 C15.8500367,0 19.1826086,2.43107402 21.9462047,7.29322206 L0,7.29322206 Z"/>
        </g>
      </g>
    </g>
    <g fill="#70A0A2" fill-rule="nonzero" transform="translate(1 201.125)">
      <polygon points="103.168 .179 0 .179 0 1.179 103.168 1.179"/>
      <polygon points="117.435 1.179 528 1.179 528 .179 117.435 .179"/>
    </g>
    <g transform="translate(.549 188.897)">
      <g transform="translate(319.652 4.297)">
        <polygon fill="#FF906D" points=".679 13.678 27.853 13.678 27.853 0 41.44 0 46.937 13.927 63.179 17.781 62.5 27.853 .679 27.356"/>
        <g transform="translate(13.587 22.48)">
          <path fill="#000" fill-opacity=".497" fill-rule="nonzero" d="M5.83705977,-0.375 C9.26788565,-0.375 12.0491195,2.4062339 12.0491195,5.83705977 C12.0491195,9.26788565 9.26788565,12.0491195 5.83705977,12.0491195 C2.4062339,12.0491195 -0.375,9.26788565 -0.375,5.83705977 C-0.375,2.4062339 2.4062339,-0.375 5.83705977,-0.375 Z M5.83705977,0.375 C2.82044746,0.375 0.375,2.82044746 0.375,5.83705977 C0.375,8.85367209 2.82044746,11.2991195 5.83705977,11.2991195 C8.85367209,11.2991195 11.2991195,8.85367209 11.2991195,5.83705977 C11.2991195,2.82044746 8.85367209,0.375 5.83705977,0.375 Z"/>
          <line x1="3.799" x2="7.875" y1="3.799" y2="7.875" stroke="#000" stroke-linecap="round" stroke-opacity=".497"/>
          <line x1="3.799" x2="7.875" y1="3.799" y2="7.875" stroke="#000" stroke-linecap="round" stroke-opacity=".497" transform="matrix(-1 0 0 1 11.674 0)"/>
        </g>
        <g transform="translate(39.402 22.48)">
          <path fill="#000" fill-opacity=".497" fill-rule="nonzero" d="M5.83705977,-0.375 C9.26788565,-0.375 12.0491195,2.4062339 12.0491195,5.83705977 C12.0491195,9.26788565 9.26788565,12.0491195 5.83705977,12.0491195 C2.4062339,12.0491195 -0.375,9.26788565 -0.375,5.83705977 C-0.375,2.4062339 2.4062339,-0.375 5.83705977,-0.375 Z M5.83705977,0.375 C2.82044746,0.375 0.375,2.82044746 0.375,5.83705977 C0.375,8.85367209 2.82044746,11.2991195 5.83705977,11.2991195 C8.85367209,11.2991195 11.2991195,8.85367209 11.2991195,5.83705977 C11.2991195,2.82044746 8.85367209,0.375 5.83705977,0.375 Z"/>
          <line x1="3.799" x2="7.875" y1="3.799" y2="7.875" stroke="#000" stroke-linecap="round" stroke-opacity=".497"/>
          <line x1="3.799" x2="7.875" y1="3.799" y2="7.875" stroke="#000" stroke-linecap="round" stroke-opacity=".497" transform="matrix(-1 0 0 1 11.674 0)"/>
        </g>
        <polygon fill="#FFE5DB" points="31.929 3.856 38.661 3.856 42.737 13.834 31.929 13.834"/>
      </g>
      <g transform="translate(270.74)">
        <rect width="15.823" height="2.532" x="34.178" y="29.115" fill="#DBDBDB"/>
        <path fill="#D2D2D2" fill-rule="nonzero" d="M22.4691129,-1.70530257e-13 C34.8784613,-1.70530257e-13 44.9382258,10.0597645 44.9382258,22.4691129 L44.9382258,31.6466379 L0,31.6466379 L0,11 C0,4.92486775 4.92486775,-1.70530257e-13 11,-1.70530257e-13 L22.4691129,-1.70530257e-13 Z"/>
        <path fill="#F8F8F8" fill-rule="nonzero" d="M36.0581967 10.8864434C36.334339 10.8864434 36.5581967 11.110301 36.5581967 11.3864434L36.5581967 19.7096585C36.5581967 19.9858008 36.334339 20.2096585 36.0581967 20.2096585L24.5514448 20.2096585C24.2753024 20.2096585 24.0514448 19.9858008 24.0514448 19.7096585L24.0514448 11.3864434C24.0514448 11.110301 24.2753024 10.8864434 24.5514448 10.8864434L36.0581967 10.8864434zM25.0514448 11.8864434L25.0514448 19.2096585 35.5581967 19.2096585 35.5581967 11.8864434 25.0514448 11.8864434zM13.5702127 8.3547124C15.7793517 8.3547124 17.5702127 10.1455734 17.5702127 12.3547124L17.5702127 28.5883057 6.32932757 28.5883057 6.32932757 12.3547124C6.32932757 10.1455734 8.12018857 8.3547124 10.3293276 8.3547124L13.5702127 8.3547124zM16.5702127 12.3547124C16.5702127 10.6978581 15.227067 9.3547124 13.5702127 9.3547124L10.3293276 9.3547124C8.67247332 9.3547124 7.32932757 10.6978581 7.32932757 12.3547124L7.32932757 27.5883057 16.5702127 27.5883057 16.5702127 12.3547124z"/>
        <g transform="translate(19.022 26.777)">
          <path fill="#000" fill-opacity=".497" fill-rule="nonzero" d="M5.83705977,-0.375 C9.26788565,-0.375 12.0491195,2.4062339 12.0491195,5.83705977 C12.0491195,9.26788565 9.26788565,12.0491195 5.83705977,12.0491195 C2.4062339,12.0491195 -0.375,9.26788565 -0.375,5.83705977 C-0.375,2.4062339 2.4062339,-0.375 5.83705977,-0.375 Z M5.83705977,0.375 C2.82044746,0.375 0.375,2.82044746 0.375,5.83705977 C0.375,8.85367209 2.82044746,11.2991195 5.83705977,11.2991195 C8.85367209,11.2991195 11.2991195,8.85367209 11.2991195,5.83705977 C11.2991195,2.82044746 8.85367209,0.375 5.83705977,0.375 Z"/>
          <line x1="3.799" x2="7.875" y1="3.799" y2="7.875" stroke="#000" stroke-linecap="round" stroke-opacity=".497"/>
          <line x1="3.799" x2="7.875" y1="3.799" y2="7.875" stroke="#000" stroke-linecap="round" stroke-opacity=".497" transform="matrix(-1 0 0 1 11.674 0)"/>
        </g>
      </g>
      <path fill="#FFBABA" fill-rule="nonzero" d="M223.315912 27.7401971L239.62026 27.7401971C239.896402 27.7401971 240.12026 27.5163395 240.12026 27.2401971 240.12026 26.9640547 239.896402 26.7401971 239.62026 26.7401971L223.315912 26.7401971C223.039769 26.7401971 222.815912 26.9640547 222.815912 27.2401971 222.815912 27.5163395 223.039769 27.7401971 223.315912 27.7401971zM250.489825 30.4575884L262.718086 30.4575884C262.994228 30.4575884 263.218086 30.2337308 263.218086 29.9575884 263.218086 29.681446 262.994228 29.4575884 262.718086 29.4575884L250.489825 29.4575884C250.213682 29.4575884 249.989825 29.681446 249.989825 29.9575884 249.989825 30.2337308 250.213682 30.4575884 250.489825 30.4575884zM231.468086 20.9467188L262.718086 20.9467188C262.994228 20.9467188 263.218086 20.7228612 263.218086 20.4467188 263.218086 20.1705765 262.994228 19.9467188 262.718086 19.9467188L231.468086 19.9467188C231.191943 19.9467188 230.968086 20.1705765 230.968086 20.4467188 230.968086 20.7228612 231.191943 20.9467188 231.468086 20.9467188z"/>
      <polygon fill="#DFDFDF" fill-rule="nonzero" points=".451 41.94 528.451 41.94 528.451 40.94 .451 40.94"/>
    </g>
    <circle cx="315.276" cy="12.058" r="12.058" fill="#FFD469"/>
    <rect width="17.254" height="25.136" x="236.779" y="220.429" fill="#FFF"/>
    <rect width="8.789" height="25.136" x="189.907" y="221.845" fill="#FFF"/>
    <g fill-rule="nonzero" transform="translate(12.704 129.727)">
      <g transform="translate(13.444)">
        <polygon fill="#FFD469" points="10.547 10.625 10.547 18.291 12.984 14.87 14.148 15.699 10.547 20.752 10.547 35.121 9.118 35.121 9.118 16.89 8.969 16.996 6.216 13.132 7.38 12.304 9.118 14.743 9.118 10.625" transform="matrix(-1 0 0 1 20.364 0)"/>
        <path fill="#7DB4AE" fill-opacity=".543" d="M9.94196057,0.253089198 L9.91829603,1.68137987 L9.69975021,1.67859796 L9.71793234,0.250216453 L9.94196057,0.253089198 C17.6607026,0.410614545 21.9547518,5.49963463 20.5961871,12.2723856 C19.9750693,15.3687978 16.769527,19.2694392 10.9862211,24.0759988 L10.3222828,24.6250082 L9.66454462,24.0718633 L9.2667818,23.733285 C3.8900189,19.1257891 0.945869055,15.3269108 0.44993134,12.2454015 C-0.648119846,5.42265973 2.63640826,0.316919888 9.51149892,0.250715156 L9.72093322,0.250216453 L9.94196057,0.253089198 Z M9.53030365,1.67916052 C3.61645376,1.73568171 0.889783128,5.98823624 1.86028015,12.0184202 C2.2804888,14.6293869 4.9698201,18.1289203 9.94306727,22.4304854 L10.3301298,22.7629555 C15.7132786,18.2528045 18.6663158,14.6299882 19.1955902,11.991436 C20.3757338,6.10815459 16.7582819,1.82099247 9.91829603,1.68137987 L9.71048627,1.67873462 L9.53030365,1.67916052 Z M9.71793234,0.250216453 L9.93647817,0.252998363 L9.9273871,0.967189115 L9.91281363,1.68128903 L9.69975021,1.67859796 L9.71793234,0.250216453 Z"/>
      </g>
      <g fill="#70A0A2" transform="translate(0 29.278)">
        <path d="M17.2024022,8.64318135 C17.2024022,3.6029238 13.4465642,-0.5 8.79038859,-0.5 C4.13421298,-0.5 0.378375,3.6029238 0.378375,8.64318135 L1.378375,8.64318135 C1.378375,4.13644441 4.7071953,0.5 8.79038859,0.5 C12.8735819,0.5 16.2024022,4.13644441 16.2024022,8.64318135 L17.2024022,8.64318135 Z"/>
        <path d="M33.0264293,8.64318135 C33.0264293,3.6029238 29.2705914,-0.5 24.6144158,-0.5 C19.9582402,-0.5 16.2024022,3.6029238 16.2024022,8.64318135 L17.2024022,8.64318135 C17.2024022,4.13644441 20.5312225,0.5 24.6144158,0.5 C28.697609,0.5 32.0264293,4.13644441 32.0264293,8.64318135 L33.0264293,8.64318135 Z"/>
      </g>
    </g>
  </g>
</svg>
