<svg xmlns="http://www.w3.org/2000/svg" width="246" height="248" viewBox="0 0 246 248">
  <g fill="none" fill-rule="evenodd" transform="translate(-8 -8.065)">
    <g transform="translate(64.5 81.056)">
      <path fill="#FFCD52" d="M64.0946406,6.48370437 C73.0245215,15.7205645 80.3347382,24.1899677 86.0252907,31.8919141 C90.6013783,30.0690169 95.5332307,28.2465284 100.81929,26.4228771 C104.083678,49.7750896 103.44109,66.949722 98.8915261,77.9467745 C93.8016736,92.4624442 80.143879,102.854471 64.0946406,102.854471 C43.701192,102.854471 27.1690355,86.0752134 27.1690355,65.3769505 C27.1690355,51.5781086 39.4775705,31.9470265 64.0946406,6.48370437 Z"/>
      <path fill="#FF7043" fill-rule="nonzero" d="M102.453515,79.8626316 C96.545195,95.9359545 81.3491732,106.854471 64.0946406,106.854471 C41.4786604,106.854471 23.1690355,88.2711777 23.1690355,65.3769505 C23.1690355,50.3606186 35.6666609,30.27779 60.4636414,4.48676272 L64.0946406,0.728796855 L66.9704516,3.70346855 C75.0818537,12.0937135 81.888848,19.8761198 87.3935082,27.0587213 C91.2024418,25.5875752 95.2422334,24.1155708 99.5147691,22.6415775 L104.108079,21.0569194 L104.901352,26.7417124 L105.134593,28.4919537 C108.033863,50.8091916 107.31303,67.5762885 102.807173,78.9342096 L102.629705,79.3739894 L102.453515,79.8626316 Z M64.0947684,12.2717827 L63.4377793,12.9687906 C41.8669737,35.916639 31.1690355,53.5747451 31.1690355,65.3769505 C31.1690355,83.8792491 45.9237236,98.8544708 64.0946406,98.8544708 C78.1204997,98.8544708 90.4783611,89.8516442 95.1168529,76.6232028 L95.1953471,76.4176372 C99.1067272,66.9631811 99.9232302,52.0584348 97.4905448,31.8352936 C93.983218,33.0958601 90.6551689,34.3532784 87.5055751,35.6079278 L84.6406908,36.7491624 L82.8081489,34.2688866 C77.8501576,27.558434 71.6116906,20.2234574 64.0947684,12.2717827 Z"/>
      <path fill="#FF6565" fill-opacity=".584" fill-rule="nonzero" d="M64.0946406,6.48370437 C73.0245215,15.7205645 80.3347382,24.1899677 86.0252907,31.8919141 C90.6013783,30.0690169 95.5332307,28.2465284 100.81929,26.4228771 C104.083678,49.7750896 103.44109,66.949722 98.8915261,77.9467745 C93.8016736,92.4624442 80.143879,102.854471 64.0946406,102.854471 C43.701192,102.854471 27.1690355,86.0752134 27.1690355,65.3769505 C27.1690355,51.5781086 39.4775705,31.9470265 64.0946406,6.48370437 Z M63.1230498,26.6946196 C47.6928847,44.2918934 40.1690355,57.5986213 40.1690355,65.3769505 C40.1690355,78.9383293 50.9244197,89.8544708 64.0946406,89.8544708 C74.1171073,89.8544708 82.9985496,83.4803225 86.4871792,74.0250142 L86.7421998,73.3076127 L87.0168925,72.6362456 C89.4262869,66.5512123 90.3667096,57.093767 89.6132902,44.4561142 L81.5253411,47.6779711 L75.5695797,39.6170747 C72.5314113,35.5050294 68.9647755,31.118738 64.8714112,26.4649357 L64.0977333,25.5892145 L63.1230498,26.6946196 Z"/>
      <path fill="#FFF" fill-rule="nonzero" d="M64.0946406,6.48370437 C73.0245215,15.7205645 80.3347382,24.1899677 86.0252907,31.8919141 C90.6013783,30.0690169 95.5332307,28.2465284 100.81929,26.4228771 C104.083678,49.7750896 103.44109,66.949722 98.8915261,77.9467745 C93.8016736,92.4624442 80.143879,102.854471 64.0946406,102.854471 C43.701192,102.854471 27.1690355,86.0752134 27.1690355,65.3769505 C27.1690355,51.5781086 39.4775705,31.9470265 64.0946406,6.48370437 Z M64.0950514,15.1928856 L63.4771519,15.8566749 C43.1901712,37.7104058 33.1690355,54.4811647 33.1690355,65.3769505 C33.1690355,82.7812669 47.0349894,96.8544708 64.0946406,96.8544708 C77.1174454,96.8544708 88.6162299,88.5806126 93.0847564,76.3655339 L93.2841447,75.8056229 L93.5088587,75.2544514 C96.8632056,66.810396 97.7421903,53.7622195 95.9693438,36.2607562 L95.792478,34.5804908 C93.1705772,35.5443797 90.6550985,36.506151 88.2457173,37.4659347 L83.9483909,39.1777866 L81.1995779,35.4573728 C76.6149442,29.2522455 70.9126117,22.4942263 64.0950514,15.1928856 Z"/>
      <g fill="#8E4A3D" fill-opacity=".609" fill-rule="nonzero" transform="translate(.991 93.376)">
        <polygon points="0 5.826 104.183 81.124 109.341 75.299 5.159 0"/>
        <polygon points="20.837 5.826 125.019 81.124 130.178 75.299 25.995 0" transform="matrix(-1 0 0 1 151.014 0)"/>
        <polygon points="2.579 44.292 127.598 44.292 127.598 36.832 2.579 36.832"/>
      </g>
    </g>
    <g transform="translate(0 60.927)">
      <g transform="rotate(45 37.743 91.542)">
        <rect width="5" height="106.434" x="11" y=".189" fill="#8E4A3D" fill-opacity=".609"/>
        <rect width="25" height="29" x="1" y="7" fill="#FFF" rx="4"/>
        <path fill="#000" fill-opacity=".183" fill-rule="nonzero" d="M22,6 C24.7614237,6 27,8.23857625 27,11 L27,32 C27,34.7614237 24.7614237,37 22,37 L5,37 C2.23857625,37 2.84217094e-14,34.7614237 2.84217094e-14,32 L2.84217094e-14,11 C2.84217094e-14,8.23857625 2.23857625,6 5,6 L22,6 Z M22,8 L5,8 C3.34314575,8 2,9.34314575 2,11 L2,32 C2,33.6568542 3.34314575,35 5,35 L22,35 C23.6568542,35 25,33.6568542 25,32 L25,11 C25,9.34314575 23.6568542,8 22,8 Z"/>
      </g>
      <g transform="rotate(-45 106.74 -192.089)">
        <rect width="5" height="106.434" x="11" y=".189" fill="#8E4A3D" fill-opacity=".609"/>
        <rect width="25" height="29" x="1" y="7" fill="#FFF" rx="4"/>
        <path fill="#000" fill-opacity=".184" fill-rule="nonzero" d="M22,6 C24.7614237,6 27,8.23857625 27,11 L27,32 C27,34.7614237 24.7614237,37 22,37 L5,37 C2.23857625,37 -5.68434189e-14,34.7614237 -5.68434189e-14,32 L-5.68434189e-14,11 C-5.68434189e-14,8.23857625 2.23857625,6 5,6 L22,6 Z M22,8 L5,8 C3.34314575,8 2,9.34314575 2,11 L2,32 C2,33.6568542 3.34314575,35 5,35 L22,35 C23.6568542,35 25,33.6568542 25,32 L25,11 C25,9.34314575 23.6568542,8 22,8 Z"/>
      </g>
    </g>
    <g transform="translate(35)">
      <g transform="rotate(31 54 196.64)">
        <path fill="#BFE8E0" fill-rule="nonzero" d="M10.3260359,38.1386622 C6.42633701,37.8690977 4.53758267,36.3117038 4.53758267,33.3637029 C4.53758267,30.4798524 5.32678641,29.6906487 6.83140322,30.0156459 C8.9260227,30.4680837 11.5854182,32.8336793 13.3480574,36.147441 C13.5890666,36.6005383 13.8106358,37.0589714 14.0124445,37.5223007 L14.2076545,37.9872459 C12.8147567,38.1670527 11.5081149,38.2203727 10.3260359,38.1386622 Z M15.2964524,41.8735786 C16.5727453,49.8108648 12.3870098,58.6856966 1.36897322,66.618683 L3.70619212,69.8648203 C16.0108376,61.0054756 20.8208628,50.5358856 19.2169056,41.0563579 C21.8813863,40.3501002 24.6499057,39.3238729 27.3791522,38.0185811 C41.7439062,31.1484813 50.72185,19.3300582 47.3914478,7.34061026 L43.5373761,8.41118572 C46.2236732,18.0818552 38.4799452,28.2755761 25.6533302,34.4100442 C23.1372318,35.6133956 20.5975635,36.5516842 18.1876115,37.190722 C17.82449,36.1999127 17.3880121,35.2249035 16.879547,34.2689891 C14.6073157,29.9971944 11.0525792,26.8351716 7.67592676,26.1058147 C3.45781209,25.1947019 0.537582669,28.1149314 0.537582669,33.3637029 C0.537582669,38.6733506 4.24171074,41.7276317 10.0501965,42.1291399 C11.4850386,42.2283225 13.0414052,42.1676933 14.6787369,41.9588288 L15.2964524,41.8735786 Z"/>
        <circle cx="38.086" cy="28.669" r="6.037" fill="#FFBA2D" fill-opacity=".652"/>
        <path fill="#FFF" fill-rule="nonzero" d="M38.0863632,20.6319956 C42.5248467,20.6319956 46.1229485,24.2300974 46.1229485,28.6685809 C46.1229485,33.1070645 42.5248467,36.7051663 38.0863632,36.7051663 C33.6478796,36.7051663 30.0497778,33.1070645 30.0497778,28.6685809 C30.0497778,24.2300974 33.6478796,20.6319956 38.0863632,20.6319956 Z M38.0863632,22.6319956 C34.7524491,22.6319956 32.0497778,25.3346669 32.0497778,28.6685809 C32.0497778,32.002495 34.7524491,34.7051663 38.0863632,34.7051663 C41.4202772,34.7051663 44.1229485,32.002495 44.1229485,28.6685809 C44.1229485,25.3346669 41.4202772,22.6319956 38.0863632,22.6319956 Z"/>
        <polygon fill="#FF0E10" fill-opacity=".524" points="45.55 .422 56.391 12.15 34.709 12.15"/>
      </g>
      <path fill="#79C7C6" fill-rule="nonzero" d="M199,8.37976881 C203.418278,8.37976881 207,11.9614908 207,16.3797688 C207,20.7980468 203.418278,24.3797688 199,24.3797688 C194.581722,24.3797688 191,20.7980468 191,16.3797688 C191,11.9614908 194.581722,8.37976881 199,8.37976881 Z M199,12.3797688 C196.790861,12.3797688 195,14.1706298 195,16.3797688 C195,18.5889078 196.790861,20.3797688 199,20.3797688 C201.209139,20.3797688 203,18.5889078 203,16.3797688 C203,14.1706298 201.209139,12.3797688 199,12.3797688 Z"/>
      <polygon fill="#FFD469" points="55 27.039 47.222 30.778 50.961 23 47.222 15.222 55 18.961 62.778 15.222 59.039 23 62.778 30.778" transform="rotate(45 55 23)"/>
      <circle cx="5.442" cy="15.38" r="5" fill="#EB7044"/>
    </g>
    <g fill-rule="nonzero" transform="translate(20.5 44.427)">
      <polygon fill="#5BB4B0" points="-1.156 1.632 27.158 21.688 29.47 18.424 1.156 -1.632" transform="matrix(-1 0 0 1 28.314 0)"/>
      <polygon fill="#FF895F" fill-opacity=".585" points="-1.156 1.632 27.158 21.688 29.47 18.424 1.156 -1.632"/>
    </g>
    <g fill-rule="nonzero" transform="translate(231.5 54.927)">
      <polygon fill="#5BB4B0" points="0 12.5 21 12.5 21 8.5 0 8.5"/>
      <polygon fill="#FF0E10" fill-opacity=".519" points="0 12.5 21 12.5 21 8.5 0 8.5" transform="rotate(90 10.5 10.5)"/>
    </g>
    <circle cx="219.5" cy="38.681" r="4.5" fill="#FF7043"/>
  </g>
</svg>
