<svg xmlns="http://www.w3.org/2000/svg" xmlns:xlink="http://www.w3.org/1999/xlink" width="250" height="224" viewBox="0 0 250 224">
  <defs>
    <ellipse id="empty-state-friends-a" cx="34.475" cy="30.998" rx="34.168" ry="30.741"/>
  </defs>
  <g fill="none" fill-rule="evenodd" transform="translate(0 1)">
    <g transform="translate(0 146.406)">
      <g transform="translate(0 13.343)">
        <mask id="empty-state-friends-b" fill="#fff">
          <use xlink:href="#empty-state-friends-a"/>
        </mask>
        <use fill="#BFE8E0" xlink:href="#empty-state-friends-a"/>
        <path fill="#5BB4B0" fill-rule="nonzero" d="M34.4753925,-0.436436944 C48.8723383,-0.436436944 60.2515783,15.0117434 60.2515783,33.8149495 C60.2515783,52.6181556 48.8723383,68.0663359 34.4753925,68.0663359 C20.0784467,68.0663359 8.6992067,52.6181556 8.6992067,33.8149495 C8.6992067,15.0117434 20.0784467,-0.436436944 34.4753925,-0.436436944 Z M34.6091167,3.84774081 L34.4749246,3.73300647 L34.3416682,3.84774081 C34.0603624,4.09570666 33.7302019,4.53806609 33.3863263,5.16460744 C32.6040537,6.58990824 31.8557647,8.76759365 31.2141612,11.5314242 C29.8609328,17.3607158 29.0800776,25.3133583 29.0800776,33.8149495 C29.0800776,42.3165407 29.8609328,50.2691832 31.2141612,56.0984748 C31.8557647,58.8623053 32.6040537,61.0399907 33.3863263,62.4652915 C33.7302019,63.0918329 34.0603624,63.5341923 34.3416682,63.7821582 L34.4749246,63.8967241 L34.6091167,63.7821582 C34.8591664,63.5617441 35.1478172,63.187735 35.4503896,62.6673031 L35.5644586,62.4652915 C36.3467312,61.0399907 37.0950202,58.8623053 37.7366237,56.0984748 C39.0898522,50.2691832 39.8707074,42.3165407 39.8707074,33.8149495 C39.8707074,25.3133583 39.0898522,17.3607158 37.7366237,11.5314242 C37.0950202,8.76759365 36.3467312,6.58990824 35.5644586,5.16460744 C35.2205831,4.53806609 34.8904226,4.09570666 34.6091167,3.84774081 Z M29.0771259,4.66920596 L29.0006866,4.69771641 C19.7939131,8.07517305 12.8479136,19.7545565 12.8479136,33.8149495 C12.8479136,47.9141321 19.832291,59.6191496 29.0769367,62.9599459 C26.4410332,57.0763785 24.9805412,46.6356871 24.9325903,34.4367368 L24.9324158,33.2392859 C24.9768644,21.0199555 26.4378466,10.5599493 29.0771259,4.66920596 Z M39.8738483,4.66995305 L39.9750505,4.89908459 C42.5468728,10.8217043 43.9706595,21.1495045 44.0181846,33.1906191 L44.0183692,34.390613 C43.9739205,46.6099435 42.5129383,57.0699497 39.8736591,62.960693 C49.1184939,59.6191496 56.1028714,47.9141321 56.1028714,33.8149495 C56.1028714,19.7157669 49.1184939,8.01074933 39.8738483,4.66995305 Z" mask="url(#empty-state-friends-b)"/>
        <path fill="#FFF" fill-rule="nonzero" d="M34.4753925,1.6379165 C47.565553,1.6379165 58.1772248,16.0440649 58.1772248,33.8149495 C58.1772248,51.5858341 47.565553,65.9919825 34.4753925,65.9919825 C21.3852319,65.9919825 10.7735601,51.5858341 10.7735601,33.8149495 C10.7735601,16.0440649 21.3852319,1.6379165 34.4753925,1.6379165 Z M34.4753925,4.29745257 C34.2617288,4.52848683 34.0125573,4.88587544 33.7500195,5.36421948 C32.9887384,6.75127383 32.2520342,8.89524494 31.6182856,11.6252388 C30.2727703,17.4213048 29.4949482,25.3430553 29.4949482,33.8149495 C29.4949482,42.2868436 30.2727703,50.2085942 31.6182856,56.0046602 C32.2520342,58.734654 32.9887384,60.8786251 33.7500195,62.2656795 C34.0125573,62.7440235 34.2617288,63.1014121 34.4753925,63.3324464 C34.6890562,63.1014121 34.9382276,62.7440235 35.2007655,62.2656795 C35.9620466,60.8786251 36.6987508,58.734654 37.3324994,56.0046602 C38.6780147,50.2085942 39.4558367,42.2868436 39.4558367,33.8149495 C39.4558367,25.3430553 38.6780147,17.4213048 37.3324994,11.6252388 C36.6987508,8.89524494 35.9620466,6.75127383 35.2007655,5.36421948 C34.9382276,4.88587544 34.6890562,4.52848683 34.4753925,4.29745257 Z M31.4237859,4.43682849 L31.4146806,4.43969527 C21.2875619,6.5225172 13.2627843,18.7707396 13.2627843,33.8149495 C13.2627843,48.8636607 21.2923647,61.114711 31.4237859,63.1920705 C28.8578311,58.238771 27.0592424,47.2322475 27.0068976,34.3911366 L27.0057241,33.8149495 C27.0057241,20.7268363 28.8197321,9.46382456 31.4237859,4.43682849 Z M37.526991,4.4378238 L37.5956758,4.57121304 C40.124575,9.58653615 41.8916869,20.5098383 41.9438731,33.2352929 L41.9450608,33.8149495 C41.9450608,46.9023461 40.1312515,58.1648411 37.5274267,63.1922447 C47.6584083,61.1147292 55.6880007,48.8636719 55.6880007,33.8149495 C55.6880007,18.7662271 47.6584083,6.51516979 37.526991,4.4378238 Z" mask="url(#empty-state-friends-b)"/>
      </g>
      <path fill="#A87369" fill-opacity=".736" fill-rule="nonzero" d="M78.6860646,61.5172977 C85.2447328,61.5172977 90.7841744,65.8538123 95.2852601,74.3520142 L96.0628168,75.8200674 L57.8576814,75.8200674 L59.115208,74.2055756 C65.6744813,65.7843675 72.1887722,61.5172977 78.6860646,61.5172977 Z M92.4682227,73.4172963 C88.5123298,66.7722646 83.9232045,63.5172977 78.6860646,63.5172977 C73.320783,63.5172977 67.7491426,66.9212648 61.9936604,73.8200674 L92.7048165,73.8200674 L92.4682227,73.4172963 Z"/>
      <path fill="#A87369" fill-opacity=".74" d="M23.4540179,75.8285262 C35.693067,64.3457581 47.687335,58.604374 59.4368221,58.604374 C71.1863091,58.604374 81.2223293,64.3457581 89.5448827,75.8285262 L23.4540179,75.8285262 Z"/>
      <g fill-rule="nonzero" transform="translate(17.85 .102)">
        <path fill="#FF7043" d="M23.7080908,6.95930391 C23.808797,6.49137902 23.4822429,6.03618533 22.9787118,5.94260035 C22.6584571,5.88307865 22.3280789,5.98406906 22.108386,6.20864258 L18.0279725,10.379705 L17.3062215,4.3432816 C17.2495146,3.8690086 16.7898142,3.52725372 16.2794519,3.57995072 C15.8842695,3.62075493 15.5607449,3.89056413 15.4744902,4.25126312 L14.0270784,10.3040373 L11.3384409,6.37779844 C11.0627537,5.97521024 10.4880687,5.85653307 10.054846,6.11272556 C9.78665279,6.27132546 9.62424233,6.54626317 9.62424233,6.84167598 L9.62424233,12.7399958 L5.57863795,10.1083267 C5.15795736,9.83467853 4.57821491,9.92975243 4.28374182,10.320681 C4.11312245,10.5471872 4.06945518,10.8358933 4.16627218,11.0973312 C6.98957388,18.7211804 10.9234283,22.5727269 15.9815148,22.5727269 C21.0738348,22.5727269 25.2184942,19.1552396 28.4141275,12.3830815 C28.6203256,11.9460516 28.4062688,11.4364412 27.9360079,11.244809 C27.7170652,11.1555895 27.4695539,11.1481706 27.2448794,11.2240932 L22.4408436,12.8474851 L23.7080908,6.95930391 Z" transform="rotate(2 16.304 13.074)"/>
        <path fill="#FFF" d="M13.464758,7.57580685 L13.5700031,7.69789653 C13.638144,7.78170921 13.702159,7.87034298 13.7615615,7.96368975 L16.0699553,11.5911658 L12.4302582,12.2310559 L13.464758,7.57580685 Z M13.464758,7.57580685 L13.6729682,6.63886087 C13.9325621,5.4706883 14.9062487,4.59687466 16.0955984,4.4647247 C17.6315957,4.29405832 19.0151201,5.40087779 19.1857864,6.93687516 L19.3164634,8.11296808 L19.8411517,7.53581101 C20.5023442,6.80849925 21.4966576,6.48142812 22.4605031,6.67419721 C23.9759412,6.97728484 24.9587455,8.45149128 24.6556579,9.96692944 L24.2650561,11.9199382 L25.0476046,11.6353752 C25.7237985,11.3894865 26.4687233,11.4135138 27.127666,11.7024669 C28.5429818,12.3230973 29.1872069,13.9735282 28.5666112,15.3889487 C25.5314711,22.3104301 21.3543603,26.0000339 16.0606603,26.0000339 C10.687809,26.0000339 6.70152851,21.8254048 4.02525453,14.0486618 C3.73387134,13.2019577 3.8652936,12.2669419 4.37879446,11.5333693 C5.26504797,10.2672928 7.00985124,9.95938354 8.27594696,10.8456347 L8.60247243,11.0742025 L8.60247243,9.46602002 C8.60247243,8.50928559 9.09126648,7.61886257 9.89842647,7.1052153 C11.009342,6.39826904 12.4293359,6.57269272 13.3384487,7.44627315 L13.464758,7.57580685 Z M11.7493971,13.2770498 L8.60247243,14.9155136 L8.60247243,11.0742025 L11.7493971,13.2770498 Z M23.5676326,15.4070559 L20.9229851,13.1352368 L24.2650561,11.9199382 L23.5676326,15.4070559 Z M19.8054629,12.5139635 L16.3378153,11.389481 L19.3164634,8.11296808 L19.8054629,12.5139635 Z M16.3164614,6.45249217 C15.9771681,6.49019143 15.6993983,6.73946979 15.6253423,7.07272179 L14.3826323,12.6649168 L12.0742385,9.03744073 L12.0099347,8.94996567 C11.7561492,8.64961778 11.313135,8.57556529 10.9721775,8.79253828 C10.7419138,8.93906969 10.6024724,9.19308632 10.6024724,9.46602002 L10.6024724,14.9155136 L7.12902227,12.4840985 L7.03610157,12.4279504 C6.68657916,12.2478114 6.24901629,12.3492111 6.0172583,12.680294 C5.87076898,12.8895644 5.8332774,13.1563017 5.91640195,13.3978458 C8.34041498,20.4415665 11.7179196,24.0000339 16.0606603,24.0000339 C20.4327932,24.0000339 23.9912894,20.8425965 26.7349767,14.5857583 C26.9120129,14.1819837 26.7282293,13.7111516 26.3244756,13.5341014 C26.1364972,13.451671 25.9239904,13.4448167 25.7310907,13.514962 L21.6064713,15.0148236 L22.6944965,9.57469717 L22.7085945,9.46704909 C22.7331766,9.0746059 22.4645629,8.71461698 22.0682708,8.63535856 C21.7933085,8.5803661 21.5096544,8.67367175 21.3210318,8.88115659 L17.8176954,12.7348266 L17.198019,7.15773822 L17.1807792,7.05890244 C17.0883535,6.6731341 16.7209387,6.40755025 16.3164614,6.45249217 Z" transform="rotate(-21 16.338 15.224)"/>
        <path fill="#FFA889" stroke="#FFF" stroke-width="2" d="M22.9357637,13.4673809 L25.3893477,12.5751686 C25.8238945,12.4171516 26.3026102,12.4325924 26.7260708,12.6182842 C27.6356056,13.0171244 28.0496099,14.077756 27.6507939,14.9873535 C24.7588304,21.5823281 20.8895435,25.0000339 16.0606603,25.0000339 C11.2079677,25.0000339 7.52384741,21.1418418 4.97082824,13.7232538 C4.78357437,13.1791297 4.86803129,12.5782532 5.19802638,12.1068316 C5.76756659,11.2932027 6.88884408,11.0953284 7.70248462,11.6648666 L9.60247243,12.9948581 L9.60247243,9.46602002 C9.60247243,8.85118595 9.91659014,8.27896613 10.435302,7.94887679 C11.273197,7.41567084 12.384694,7.66267017 12.9179,8.50056524 L13.9301617,10.0912623 L14.6491553,6.85579133 C14.8159802,6.10507904 15.4417084,5.54353304 16.2060299,5.45860843 C17.1931204,5.34893171 18.082226,6.06021614 18.1919027,7.04730669 L18.5670794,10.4238973 L20.5810917,8.2084838 C21.0059993,7.7410855 21.6449831,7.53089711 22.2643869,7.65477788 C23.2382654,7.84955357 23.8698529,8.7969349 23.6750772,9.77081331 L22.9357637,13.4673809 Z" transform="rotate(-21 16.338 15.224)"/>
      </g>
    </g>
    <g transform="translate(70.41)">
      <path fill="#CCC" fill-rule="nonzero" d="M93.3585603,-1 C96.6722688,-1 99.3585603,1.6862915 99.3585603,5 L99.3585603,169.142595 C99.3585603,172.456303 96.6722688,175.142595 93.3585603,175.142595 L5.73961207,175.142595 C2.42590358,175.142595 -0.260387926,172.456303 -0.260387926,169.142595 L-0.260387926,5 C-0.260387926,1.6862915 2.42590358,-1 5.73961207,-1 L93.3585603,-1 Z M93.3585603,1 L5.73961207,1 C3.53047307,1 1.73961207,2.790861 1.73961207,5 L1.73961207,169.142595 C1.73961207,171.351734 3.53047307,173.142595 5.73961207,173.142595 L93.3585603,173.142595 C95.5676993,173.142595 97.3585603,171.351734 97.3585603,169.142595 L97.3585603,5 C97.3585603,2.790861 95.5676993,1 93.3585603,1 Z"/>
      <rect width="20.441" height="4.172" x="39.327" y="158.462" fill="#818181" fill-opacity=".28" rx="2.086"/>
      <rect width="77.19" height="136.524" x="10.953" y="11.474" fill="#F5B7A1" fill-opacity=".536" rx="2"/>
    </g>
    <g transform="translate(159.59 94.922)">
      <path fill="#C4E5E4" fill-rule="nonzero" d="M49.940763,88.7444816 C63.5057958,88.7444816 75.1583519,94.5359038 84.6401159,105.901392 L90.1148719,112.463808 L0.903111841,112.463808 L9.61439242,105.363292 C23.1376768,94.34054 36.5941245,88.7444816 49.940763,88.7444816 Z M49.940763,92.7444816 C37.5981808,92.7444816 24.9984615,97.9842571 12.1416051,108.463808 L81.5686299,108.463808 C72.8259675,97.9842571 62.2833452,92.7444816 49.940763,92.7444816 Z"/>
      <path fill="#56B3B2" fill-opacity=".35" d="M12.8720819,117.841541 C24.435991,106.992194 35.7686219,101.567521 46.8699746,101.567521 C57.9713273,101.567521 67.4537327,106.992194 75.3171909,117.841541 L12.8720819,117.841541 Z"/>
      <g transform="rotate(3 -1.418 494.132)">
        <path fill="#BFE8E0" d="M15.2301169,55.6233852 C15.2301169,48.5488766 4.05524533,52.4076995 4.05524533,45.976328 C4.05524533,39.5449566 15.2301169,36.972408 15.2301169,30.5410366 C15.2301169,24.1096652 -0.833761002,26.6822138 4.05524533,22.1802538 C7.23689905,19.250481 13.1901653,13.12944 21.9150442,3.81713081 L21.9150393,3.81712625 C22.2775259,3.43023403 22.8789556,3.39347848 23.2858574,3.73335058 C31.5107815,10.6033664 37.2066884,16.5379551 40.3735781,21.5371166 C45.2625844,29.2547623 26.4049885,26.0390766 31.9924244,30.5410366 C37.5798602,35.0429966 44.5641549,40.8312309 44.5641549,45.976328 C44.5641549,51.1214252 37.5798602,51.1214252 37.5798602,55.6233852 C37.5798602,60.1253452 57.1358855,60.1253452 48.7547318,69.7724023 C40.3735781,79.4194594 8.94425166,79.4194594 4.05524533,69.7724023 C-0.833761002,60.1253452 15.2301169,62.6978937 15.2301169,55.6233852 Z"/>
        <path fill="#53B4AF" fill-rule="nonzero" d="M40.3439263,55.333521 C40.7755125,55.6281867 41.4218731,55.949903 42.3969419,56.3580141 L42.9620817,56.5895449 L45.5702361,57.6174116 C48.9579954,58.9840458 50.8513848,60.069864 52.1852707,61.8272472 C54.31015,64.6267572 53.7444651,68.0052206 50.7233277,71.4826757 C41.2256032,82.4149523 7.5388083,82.4149523 1.72914451,70.9512407 C0.0141678424,67.5672242 0.121499129,64.6256658 2.08809329,62.3610422 C3.28893985,60.9782121 4.55536116,60.2566751 7.35028276,59.1002675 L8.51280263,58.6262226 L9.09313774,58.3842006 C11.8594195,57.2098086 12.6223583,56.5535816 12.6223583,55.6233852 C12.6223583,54.3635544 12.1136157,53.9285848 9.53307738,53.2272852 L8.05721307,52.8393373 L7.41620913,52.6621401 C6.00870077,52.259586 5.18639148,51.918355 4.27784158,51.3230455 C2.46319618,50.1340345 1.44748671,48.3213885 1.44748671,45.976328 C1.44748671,42.3559977 3.01271927,40.3218982 7.33705108,36.7722534 L8.59070408,35.7532249 L9.14390914,35.2939258 C11.7878599,33.0707345 12.6223583,31.9183117 12.6223583,30.5410366 C12.6223583,29.8851315 11.6008325,29.221465 8.87909328,28.5509962 L8.58094152,28.4791342 C8.43436796,28.4445554 8.285608,28.4103646 8.12744965,28.3748826 L5.39343457,27.7816633 C3.59706618,27.3654756 2.63786508,27.0082408 1.78348165,26.2788115 C-0.2233216,24.5655044 0.243186138,22.2547736 2.11958341,20.422337 L3.01293289,19.5850282 L4.1592993,18.4823808 C6.86732362,15.8429876 10.8023986,11.7946536 15.9512644,6.34954952 L19.9842761,2.06380497 C21.3078722,0.651168724 23.5039694,0.517223343 24.9894359,1.75852794 C33.3865544,8.77543589 39.2432084,14.8797349 42.5765121,20.1415928 C44.3295426,22.9088767 44.212284,25.6111906 42.1181008,27.4766291 C40.9063142,28.5560539 39.3697188,29.1417935 37.0190978,29.6739501 L36.6197065,29.7622222 L35.4625219,30.0007288 L36.3473072,30.7322622 C38.907716,32.8650994 40.6492471,34.4683089 42.29134,36.2504196 C45.4266602,39.6530818 47.1719135,42.7963558 47.1719135,45.976328 C47.1719135,49.1499196 45.8316394,50.8740837 42.8478251,52.9815898 L41.9813613,53.5830683 L41.5821605,53.8688449 C40.784881,54.4531357 40.4167248,54.8211472 40.2702633,55.1779534 L40.2403055,55.2601877 L40.3439263,55.333521 Z M15.2301169,55.6233852 C15.2301169,62.6978937 -0.833761002,60.1253452 4.05524533,69.7724023 C8.94425166,79.4194594 40.3735781,79.4194594 48.7547318,69.7724023 C57.1358855,60.1253452 37.5798602,60.1253452 37.5798602,55.6233852 C37.5798602,51.1214252 44.5641549,51.1214252 44.5641549,45.976328 C44.5641549,41.2054198 38.5588159,35.8815199 33.2304423,31.5429505 L31.9924244,30.5410366 C26.4049885,26.0390766 45.2625844,29.2547623 40.3735781,21.5371166 C37.2107223,16.5443229 31.5252881,10.6184836 23.3172754,3.75959875 C22.8928587,3.40494216 22.2654056,3.44321207 21.8872373,3.8468203 L19.5415203,6.34435351 C12.6978766,13.6124439 7.78156063,18.6613858 4.79257232,21.4911794 L4.05524533,22.1802538 C-0.833761002,26.6822138 15.2301169,24.1096652 15.2301169,30.5410366 C15.2301169,36.972408 4.05524533,39.5449566 4.05524533,45.976328 C4.05524533,52.4076995 15.2301169,48.5488766 15.2301169,55.6233852 Z"/>
        <path fill="#FFF" fill-rule="nonzero" d="M15.2301169,55.6233852 C15.2301169,48.5488766 4.05524533,52.4076995 4.05524533,45.976328 C4.05524533,39.5449566 15.2301169,36.972408 15.2301169,30.5410366 C15.2301169,24.1096652 -0.833761002,26.6822138 4.05524533,22.1802538 L4.79257232,21.4911794 C7.91742374,18.5327588 13.1487965,13.1488641 20.4866907,5.33949523 L21.8872373,3.8468203 C22.2654056,3.44321207 22.8928587,3.40494216 23.3172754,3.75959875 C31.5252881,10.6184836 37.2107223,16.5443229 40.3735781,21.5371166 C45.2625844,29.2547623 26.4049885,26.0390766 31.9924244,30.5410366 L33.2304423,31.5429505 C38.5588159,35.8815199 44.5641549,41.2054198 44.5641549,45.976328 C44.5641549,51.1214252 37.5798602,51.1214252 37.5798602,55.6233852 C37.5798602,60.1253452 57.1358855,60.1253452 48.7547318,69.7724023 C40.3735781,79.4194594 8.94425166,79.4194594 4.05524533,69.7724023 C-0.833761002,60.1253452 15.2301169,62.6978937 15.2301169,55.6233852 Z M6.94688773,22.3175639 L6.10420987,23.1219954 L6.31865165,23.1749034 L7.06160073,23.3451019 L8.61353291,23.6757908 C8.90831081,23.7394208 9.16627913,23.7966049 9.4137648,23.8535227 L9.99174223,23.9908145 L10.6370591,24.1567705 C14.9519095,25.3172527 17.3163238,27.0397438 17.3163238,30.5410366 C17.3163238,33.9435727 15.8144093,35.8959419 11.6185267,39.3410033 L10.651086,40.1263388 C7.21314857,42.9205662 6.14145222,44.2433895 6.14145222,45.976328 C6.14145222,47.1670422 6.70168154,47.6085412 9.35219512,48.3257446 L10.5278177,48.6339305 L11.2344768,48.8271914 C12.7901521,49.2683839 13.724134,49.6572017 14.6806532,50.3269728 C16.3876722,51.5222565 17.3163238,53.2974218 17.3163238,55.6233852 C17.3163238,57.7608865 16.3297425,59.455506 14.5903331,60.758831 C13.6156967,61.489118 12.6811297,61.9739663 10.9545766,62.6967935 L8.9267955,63.5292149 C7.01977381,64.3304638 6.17024208,64.8192241 5.63223351,65.4387657 C5.03519754,66.1262801 5.00235869,67.0262729 5.91612598,68.8293316 C10.0686063,77.0230651 39.6919579,77.0230651 47.179855,68.4041836 C48.8800375,66.4472027 49.0461123,65.4553477 48.4463453,64.6651599 C47.8258894,63.8477147 46.5133797,63.0816815 44.1215968,62.0962022 L43.4422426,61.8217908 C43.2739347,61.7550437 42.3920822,61.4107647 41.7582668,61.1613683 L40.5483905,60.6732973 C37.0230282,59.1993742 35.4936533,58.018338 35.4936533,55.6233852 C35.4936533,53.1223559 36.5387526,51.7259973 38.9736646,49.9632353 L39.5377738,49.5648811 L39.8864712,49.3244193 C41.9103334,47.9266894 42.477948,47.2384961 42.477948,45.976328 C42.477948,42.7965756 39.0952185,39.0157614 31.5121011,32.8368276 L30.6835141,32.1655406 C28.7226098,30.5855828 28.0405259,28.560144 29.8812534,26.9867836 C30.7128019,26.2760181 31.6754496,25.9823753 33.7802085,25.5514834 L35.3009952,25.2435786 L35.9396541,25.1052782 C37.5586429,24.738293 38.5508485,24.3680469 38.9959157,23.9715938 C39.0973406,23.8812474 39.1037053,23.8689978 39.1051387,23.8359649 C39.1139217,23.6335524 38.9828113,23.2401019 38.6112308,22.6535357 C35.6801059,18.0265455 30.3834619,12.456401 22.7337364,5.99409517 L19.4446828,9.48709435 C13.9096568,15.3419941 9.74797161,19.6149185 6.94688773,22.3175639 Z"/>
        <path fill="#FDB505" fill-opacity=".647" fill-rule="nonzero" d="M24.5736292,64.287666 L25.9167821,89.91655 C25.9745908,91.0196058 26.9156573,91.8669459 28.018713,91.8091372 C29.1217688,91.7513285 29.9691089,90.8102619 29.9113002,89.7072062 L28.5681473,64.0783221 C28.5103386,62.9752664 27.569272,62.1279263 26.4662163,62.185735 C25.3631606,62.2435437 24.5158205,63.1846102 24.5736292,64.287666 Z"/>
      </g>
    </g>
    <g transform="translate(22.513 36.353)">
      <g transform="translate(0 55.526)">
        <path fill="#FFF" d="M2,2 L138.646552,2 L138.646552,34.1166062 L31.1912947,34.1166062 L16.1476376,48.9396552 L2.55320914,34.6962256 C2.19812098,34.3241855 2,33.8296548 2,33.3153577 L2,2 L2,2 Z"/>
        <path fill="#000" fill-opacity=".201" fill-rule="nonzero" d="M16.1038793,51.7905367 L1.10641828,36.0770936 C0.396241961,35.3330133 0,34.3439519 0,33.3153577 L0,0 L140.646552,0 L140.646552,36.1166062 L32.0110814,36.1166062 L16.1038793,51.7905367 Z M138.646552,2 L2,2 L2,33.3153577 C2,33.8296548 2.19812098,34.3241855 2.55320914,34.6962256 L16.1476376,48.9396552 L31.1912947,34.1166062 L138.646552,34.1166062 L138.646552,2 Z"/>
        <g transform="translate(11.738 3.68)">
          <path fill="#FDB505" fill-rule="nonzero" d="M5.68434189e-14,10.4702792 C58.8390534,23.538333 94.8137549,23.538333 108.233214,10.2140173 L106.988384,7.97854061 C94.2218341,20.6545766 58.5700989,20.6545766 0.342288178,7.72227874 L5.68434189e-14,10.4702792 Z"/>
          <polygon fill="#FF6868" fill-opacity=".677" points="108.459 5.184 116.541 13.926 100.377 13.926" transform="rotate(63 108.459 9.555)"/>
          <rect width="6.259" height="9.185" x="72.145" y="11.673" fill="#FFF"/>
          <polygon fill="#FFF" points="94.862 11.04 101.121 11.04 101.121 20.226 94.862 20.226" transform="rotate(-34 97.991 15.633)"/>
          <polygon fill="#FF6868" fill-opacity=".677" points="94.057 12.874 101.095 20.488 87.018 20.488" transform="rotate(75 94.057 16.681)"/>
          <circle cx="54.96" cy="18.246" r="4.172" fill="#FDB505" fill-opacity=".529"/>
          <path fill="#FFF" fill-rule="nonzero" d="M54.9601095,12.0735603 C58.3690396,12.0735603 61.1325233,14.837044 61.1325233,18.245974 C61.1325233,21.6549041 58.3690396,24.4183878 54.9601095,24.4183878 C51.5511795,24.4183878 48.7876958,21.6549041 48.7876958,18.245974 C48.7876958,14.837044 51.5511795,12.0735603 54.9601095,12.0735603 Z M54.9601095,14.0735603 C52.655749,14.0735603 50.7876958,15.9416135 50.7876958,18.245974 C50.7876958,20.5503346 52.655749,22.4183878 54.9601095,22.4183878 C57.2644701,22.4183878 59.1325233,20.5503346 59.1325233,18.245974 C59.1325233,15.9416135 57.2644701,14.0735603 54.9601095,14.0735603 Z"/>
          <polygon fill="#6A5893" fill-opacity=".596" fill-rule="nonzero" points="10.567 22.022 34.123 7.418 32.542 4.868 8.986 19.473"/>
        </g>
      </g>
      <g transform="translate(54.763)">
        <path fill="#FFF" d="M2,2 L138.646552,2 L138.646552,34.1166062 L31.1912947,34.1166062 L16.1476376,48.9396552 L2.55320914,34.6962256 C2.19812098,34.3241855 2,33.8296548 2,33.3153577 L2,2 L2,2 Z" transform="matrix(-1 0 0 1 140.647 0)"/>
        <path fill="#000" fill-opacity=".199" fill-rule="nonzero" d="M16.1038793,51.7905367 L1.10641828,36.0770936 C0.396241961,35.3330133 0,34.3439519 0,33.3153577 L0,0 L140.646552,0 L140.646552,36.1166062 L32.0110814,36.1166062 L16.1038793,51.7905367 Z M138.646552,2 L2,2 L2,33.3153577 C2,33.8296548 2.19812098,34.3241855 2.55320914,34.6962256 L16.1476376,48.9396552 L31.1912947,34.1166062 L138.646552,34.1166062 L138.646552,2 Z" transform="matrix(-1 0 0 1 140.647 0)"/>
        <g transform="translate(13.996 7.856)">
          <path fill="#BFE8E0" fill-rule="nonzero" d="M54.1898002,0.135054745 C60.3904928,-0.649683922 63.5063583,2.05822709 61.0788565,6.36438217 C60.260293,7.8164352 58.8255022,9.34057542 56.9511906,10.7959629 L56.9511906,10.7959629 L57.4977394,11.0949177 C59.3480965,12.0883418 61.4804596,13.0485796 63.7966628,13.9075202 C79.055924,19.5662633 95.5008931,19.2093157 105.544923,10.9120734 L105.544923,10.9120734 L107.537923,13.324652 C96.4705237,22.4672861 78.9067964,22.848517 62.708597,16.8415782 C59.4451768,15.6313717 56.5030301,14.2266289 54.0953798,12.7515734 C52.3563385,13.8080234 50.4018942,14.7840401 48.3145047,15.6139024 C41.5186722,18.3156526 34.4017764,19.2943238 27.3962706,18.3213059 L28.7268566,15.3332315 C34.9055149,16.0316545 41.1578936,15.0915418 47.1584276,12.7059703 C48.6116535,12.1282261 49.9885757,11.4751523 51.2530153,10.7799354 C50.1759938,9.92128651 49.3012912,9.05754457 48.6678926,8.21142239 C45.6854458,4.22733636 47.9866351,0.920106307 54.1898002,0.135054745 Z M12.461352,9.32535466 C15.85533,11.5582183 19.3756529,13.1666983 22.9564837,14.1898395 L21.6702906,17.0767788 C17.8946014,15.951503 14.1875166,14.2251599 10.6195256,11.8604865 Z M2.37594954,0.311998256 C4.65170783,2.96704959 7.03508439,5.25453142 9.49901854,7.19049211 L7.65797936,9.72422726 C5.0027045,7.64785447 2.43964869,5.19478324 -2.13162821e-14,2.34852643 L-2.13162821e-14,2.34852643 Z M58.6467122,3.55445799 C58.1863773,3.15439387 56.8035032,2.95854455 54.5827011,3.23960174 L54.5827011,3.23960174 L54.3135847,3.27480798 C50.442623,3.79842801 49.9074805,4.64551279 51.1730354,6.33609767 C51.806344,7.18209973 52.8077863,8.09187163 54.1021298,9.01321443 L54.1021298,9.01321443 L54.4530215,8.7625848 C56.2952086,7.42334832 57.6652514,6.04740793 58.3528582,4.82765955 C58.8046758,4.02617841 58.8042078,3.69133302 58.6467122,3.55445799 Z"/>
          <circle cx="106.02" cy="12.398" r="6.259" fill="#6A5893" fill-opacity=".43"/>
          <circle cx="31.438" cy="17.092" r="3.651" fill="#FF6868" fill-opacity=".586"/>
          <path fill="#FFF" fill-rule="nonzero" d="M31.4379748,12.4410179 C34.006575,12.4410179 36.0888368,14.5232798 36.0888368,17.09188 C36.0888368,19.6604802 34.006575,21.742742 31.4379748,21.742742 C28.8693746,21.742742 26.7871127,19.6604802 26.7871127,17.09188 C26.7871127,14.5232798 28.8693746,12.4410179 31.4379748,12.4410179 Z M31.4379748,13.4410179 C29.4216593,13.4410179 27.7871127,15.0755645 27.7871127,17.09188 C27.7871127,19.1081954 29.4216593,20.742742 31.4379748,20.742742 C33.4542902,20.742742 35.0888368,19.1081954 35.0888368,17.09188 C35.0888368,15.0755645 33.4542902,13.4410179 31.4379748,13.4410179 Z"/>
          <polygon fill="#44A9A4" fill-opacity=".539" fill-rule="nonzero" points="18.606 6.657 13.365 18.447 16.107 19.666 21.347 7.876"/>
        </g>
      </g>
    </g>
  </g>
</svg>
