<svg xmlns="http://www.w3.org/2000/svg" xmlns:xlink="http://www.w3.org/1999/xlink" width="210" height="250" viewBox="0 0 210 250">
  <defs>
    <path id="help_donate-a" d="M26.1507433,39.422531 C24.66241,40.773781 22.37116,40.773781 20.8828267,39.4029477 L20.66741,39.2071144 C10.38616,29.905031 3.66907665,23.8146144 3.92365998,16.216281 C4.04115998,12.8871144 5.74490998,9.69503105 8.50615998,7.81503105 C13.67616,4.29003105 20.0603267,5.93503105 23.5069933,9.96919772 C26.95366,5.93503105 33.3378267,4.27044772 38.5078267,7.81503105 C41.2690767,9.69503105 42.9728267,12.8871144 43.0903267,16.216281 C43.3644933,23.8146144 36.6278267,29.905031 26.3465767,39.246281 L26.1507433,39.422531 Z"/>
  </defs>
  <g fill="none" fill-rule="evenodd" transform="translate(-2 -11)">
    <circle cx="117.535" cy="139.535" r="13.535" fill="#FFD071"/>
    <path fill="#FFBA2D" fill-rule="nonzero" d="M117.535156,126 C125.010417,126 131.070312,132.059896 131.070312,139.535156 C131.070312,147.010417 125.010417,153.070312 117.535156,153.070312 C110.059896,153.070312 104,147.010417 104,139.535156 C104,132.059896 110.059896,126 117.535156,126 Z M117.535156,128 C111.164465,128 106,133.164465 106,139.535156 C106,145.905847 111.164465,151.070312 117.535156,151.070312 C123.905847,151.070312 129.070312,145.905847 129.070312,139.535156 C129.070312,133.164465 123.905847,128 117.535156,128 Z"/>
    <path fill="#933A31" d="M0,6 C58,98 91.3333333,144 100,144 C113,144 91,129 91,113 C91,103.720718 101.157659,103.677505 111,113 C118.128525,119.752016 124.059686,129.780404 127,126 C131.031542,120.816589 124.702009,107.622511 114,96 C108.935241,90.4996108 155.061105,85.2220697 155.030982,80.6110349 C155,76 145.388622,78.3460704 114,79 C111.572454,79.0505739 137.942275,58.058384 131,58 C126.369159,57.961055 87.9093557,78.7658337 86,79 C70.7677466,80.8681065 55.10108,54.5347732 39,0 L0,6 Z"/>
    <path fill="#4C1813" fill-rule="nonzero" d="M115.808575,77.9597402 C119.974569,77.8621308 123.964388,77.7312226 128.159585,77.5622917 L140.469158,77.0199255 L143.151202,76.9128875 L144.540291,76.8687965 C146.295944,76.8195225 147.679021,76.8084319 148.849038,76.8370506 L149.593923,76.8618024 C154.019369,77.0505005 156.013702,78.035895 156.031045,80.6045022 C156.042062,82.3038416 153.869784,83.4304748 149.216705,84.8455197 L147.869146,85.2454495 C146.166468,85.7395342 144.547864,86.1618221 141.579053,86.8783806 L130.656953,89.4726069 L128.61847,89.9709915 C124.594222,90.9676841 121.911252,91.7190914 119.633706,92.502132 L118.839933,92.7825306 C117.028452,93.4423889 115.754321,94.0621739 115.06471,94.6204652 L114.87493,94.7784526 C114.579605,95.034867 114.565371,95.1228257 114.696402,95.278355 L115.414995,96.0685938 C126.402516,108.267909 132.035552,121.154541 127.789352,126.613941 C126.200556,128.656678 124.053477,128.075934 121.416831,125.686352 L120.998042,125.297096 C120.288399,124.621531 119.512755,123.804684 118.555639,122.737721 L117.341909,121.361112 C116.502466,120.400009 115.112979,118.808428 114.407199,118.012551 L113.44168,116.940906 C112.315106,115.707928 111.304929,114.666196 110.312326,113.72602 C100.998704,104.904318 92,104.917212 92,113 C92,117.929398 94.0431553,122.901232 98.0642093,129.216739 L98.5688635,129.999548 C98.6334004,130.098138 98.7040326,130.205555 98.7797249,130.320282 L102.320384,135.618792 L102.741401,136.272109 C103.675155,137.740593 104.274165,138.829819 104.655965,139.795929 C105.973504,143.129846 104.399823,145 100,145 C90.92279,145 59.0536376,101.271101 2.6387325,12.0525166 L-1.65907531,5.24347725 L39.7116323,-1.121247 L40.4373056,1.32869428 C56.2145723,54.243204 71.5518187,79.7644544 85.8782705,78.0074367 L85.939055,77.9920529 C86.3706439,77.8546869 88.5132233,76.8353864 92.0074711,75.0865793 L109.840793,66.1017468 L111.937151,65.0638025 C122.824642,59.6941881 129.032118,56.9834149 131.00841,57.0000354 C132.374563,57.0115246 133.267821,57.7499632 133.159858,59.0025464 C133.091624,59.7942013 132.608094,60.7222123 131.747707,61.890589 C130.518456,63.5598706 128.529921,65.6970735 125.690977,68.4780303 L124.931032,69.218216 L122.447167,71.5882387 C120.691632,73.2478655 117.692119,76.0829218 116.881559,76.8789013 L116.1939,77.5638885 L115.808575,77.9597402 Z M1.65934331,6.75648152 L3.35974664,9.44965086 L6.68486388,14.7038702 C60.5424207,99.6731738 92.2066916,143 100,143 L100.466189,142.995255 C102.986615,142.940811 103.464385,142.406601 102.902457,140.814809 L102.795944,140.530995 C102.444291,139.641168 101.833907,138.55315 100.841509,137.014118 L100.184204,136.01569 C99.5445808,135.063105 97.8588866,132.560717 96.9938286,131.244779 L96.3779962,130.292273 C92.1669628,123.679627 90,118.405498 90,113 C90,102.495565 101.346824,102.479306 111.687674,112.27398 C112.717717,113.249619 113.758584,114.322864 114.913542,115.586763 L116.016052,116.81261 L119.775333,121.101033 L120.287609,121.672183 C121.110945,122.582299 121.787486,123.288656 122.399664,123.869987 L122.759907,124.204412 C124.647498,125.915128 125.598982,126.172487 126.210648,125.386059 C129.671015,120.937016 124.062623,108.404416 113.264362,96.6773753 C112.175933,95.495328 112.48536,94.1353845 113.806266,93.0660134 C114.760351,92.2936112 116.324066,91.5495778 118.518629,90.7729285 L119.063478,90.5833209 C121.913539,89.6080304 125.34334,88.6891109 131.080274,87.3135292 L137.944522,85.6822053 C149.455268,82.9100542 154.036501,81.4592532 154.031014,80.6177537 C154.024062,79.5846123 153.106283,79.0705687 150.097634,78.889984 L149.508722,78.8599868 L148.978755,78.8412019 C147.612574,78.8020722 145.924219,78.8215978 143.628041,78.8978011 L141.876775,78.9619994 L128.010376,79.5698913 C123.277945,79.7592266 118.797141,79.9002766 114.020829,79.9997831 C113.186889,80.0171568 112.659966,79.2802617 112.901477,78.5068461 C112.989163,78.2260396 113.16345,77.9542193 113.439275,77.6097403 C113.750641,77.2208745 114.215293,76.7184523 114.855751,76.0726507 L115.480238,75.4519116 C116.450671,74.4989354 120.460121,70.7155584 121.871179,69.3802681 L123.539423,67.7817532 L124.281271,67.0592091 C127.052186,64.345047 128.986961,62.2667128 130.137252,60.7046571 C130.639382,60.0227821 130.96108,59.471046 131.096077,59.1079287 L131.130968,59.0047105 L130.99159,58.9999646 C129.38337,58.9864396 122.215413,62.1885018 110.648684,67.9338696 L107.721134,69.3949831 L91.6977018,77.4773411 L89.9675307,78.3322252 C87.8208504,79.3820201 86.7090352,79.8725188 86.2171095,79.9762722 L86.1217295,79.9925633 C70.2097355,81.9440343 54.458584,55.6146611 38.2889599,1.1211559 L1.65934331,6.75648152 Z"/>
    <g transform="translate(43 158)">
      <path fill="#FFB199" d="M0,17.6899408 L148,17.6899408 L148,96.5570737 C148,99.8707822 145.313708,102.557074 142,102.557074 L6,102.557074 C2.6862915,102.557074 1.29399067e-15,99.8707822 0,96.5570737 L0,17.6899408 L0,17.6899408 Z"/>
      <g transform="translate(50.713 36.837)">
        <mask id="help_donate-b" fill="#fff">
          <use xlink:href="#help_donate-a"/>
        </mask>
        <g fill="#FFF" mask="url(#help_donate-b)">
          <rect width="47" height="47"/>
        </g>
      </g>
      <polygon fill="#FF7043" fill-rule="nonzero" points=".011 21.164 148.011 20.107 147.989 17.107 -.011 18.164"/>
      <path fill="#FFB199" fill-opacity=".635" d="M0,17.5944056 L13.1423016,0.76886614 C13.5213263,0.28361663 14.1027381,-3.88369462e-15 14.7184708,0 L132.268866,0 C132.859201,-4.32729014e-15 133.419379,0.260800463 133.799389,0.712560425 L148,17.5944056 L148,17.5944056 L0,17.5944056 Z"/>
      <path fill="#FFB199" fill-rule="nonzero" d="M52.7832168,10.8146853 L95.2167832,10.8146853 C96.0452103,10.8146853 96.7167832,10.1431124 96.7167832,9.31468531 C96.7167832,8.48625819 96.0452103,7.81468531 95.2167832,7.81468531 L52.7832168,7.81468531 C51.9547897,7.81468531 51.2832168,8.48625819 51.2832168,9.31468531 C51.2832168,10.1431124 51.9547897,10.8146853 52.7832168,10.8146853 Z"/>
    </g>
    <g transform="translate(47.308 94.11)">
      <g stroke-width="3" transform="matrix(-1 0 0 1 122.192 14.89)">
        <path stroke="#5BB4B0" d="M28.4475784,21.9207404 C25.44674,19.2521056 22.1231116,17.8865285 18.4766932,17.8240091 C14.8302748,17.7614897 11.5514786,19.0138654 8.64030467,21.5811361" transform="rotate(-46 18.544 19.871)"/>
        <path stroke="#BFE8E0" d="M27.7953121,16.7532822 C23.2716602,12.7304149 18.2614143,10.6718583 12.7645746,10.5776126 C7.26773493,10.483367 2.32507205,12.3712766 -2.06341403,16.2413414" transform="rotate(-46 12.866 13.664)"/>
      </g>
      <polygon fill="#FF6868" fill-opacity=".522" fill-rule="nonzero" points="95.901 43.045 144.651 2.545 142.734 .237 93.984 40.737"/>
      <polygon fill="#FFD071" fill-rule="nonzero" points="15.8 30.448 23.8 50.448 26.585 49.334 18.585 29.334"/>
      <polygon fill="#AE9DD3" fill-opacity=".698" fill-rule="nonzero" points="25.78 47.448 11.78 51.448 12.604 54.333 26.604 50.333"/>
      <polygon fill="#AE9DD3" fill-opacity=".698" fill-rule="nonzero" points="8.78 52.448 -.412 55.075 .412 57.959 9.604 55.333"/>
      <path fill="#AE9DD3" fill-rule="nonzero" d="M141.157288,35.1104191 C139.451209,33.7455556 136.710749,33.5515407 134.623056,34.5536333 C132.125841,35.7522968 131.107928,38.3343185 132.313586,41.3484625 C132.67073,42.241322 133.32244,43.1293024 134.196715,43.956405 C131.836064,45.9410357 129.638793,46.7644002 128.487714,46.1060477 L128.376126,46.0352616 C127.697819,45.5596661 126.762396,45.7239963 126.286801,46.4023034 C125.811205,47.0806105 125.975535,48.0160333 126.653842,48.4916287 C129.372232,50.3976292 133.103668,49.004953 136.66796,45.7856378 C138.779571,47.0263456 141.4182,47.9310512 144.174039,48.1810244 C151.359258,48.8327719 158.762602,45.4250872 165.421914,37.3279826 C165.948132,36.68815 165.85603,35.742879 165.216197,35.2166606 C164.576365,34.6904422 163.631094,34.7825448 163.104875,35.4223774 C157.052696,42.7812644 150.599619,45.7515513 144.445047,45.1932903 C142.544447,45.0208931 140.723314,44.4714577 139.19332,43.7398287 L138.845509,43.5678457 C141.790745,40.1967905 143.210112,36.7526781 141.157288,35.1104191 Z M135.099016,40.2342904 C134.481764,38.6911602 134.842558,37.7759743 135.92125,37.2582024 C136.928564,36.7746916 138.29184,36.8289762 139.096273,37.3222309 C139.061155,37.6277592 138.903198,38.0867318 138.624923,38.6367847 C138.176544,39.5230755 137.473265,40.5405001 136.622604,41.5387105 L136.333738,41.8705295 C135.738392,41.323831 135.310751,40.7636282 135.099016,40.2342904 Z" transform="rotate(166 145.89 41.64)"/>
    </g>
  </g>
</svg>
