<svg xmlns="http://www.w3.org/2000/svg" width="228" height="216" viewBox="0 0 228 216">
  <g fill="none" fill-rule="evenodd" transform="translate(.322 .538)">
    <g transform="translate(111.767 18.72)">
      <polygon fill="#8E4A3D" fill-rule="nonzero" points="37.911 74.742 37.911 107.742 41.911 107.742 41.911 74.742"/>
      <path fill="#FFCD4F" fill-opacity=".719" d="M25.2422621,6.77966102 C44.5755954,-6.55367232 60.2422621,-0.220338983 72.2422621,25.779661 C66.9089288,37.1129944 66.9089288,43.4463277 72.2422621,44.779661 C80.2422621,46.779661 72.8728444,78.4802959 54.2422621,82.779661 C35.6116798,87.0790262 29.2422621,77.779661 7.24226211,59.779661 C-14.7577379,41.779661 19.9109341,50.7415647 24.9109341,39.7415647 C29.9109341,28.7415647 -3.75773789,26.779661 25.2422621,6.77966102 Z"/>
      <polygon fill="#FFC22A" fill-rule="nonzero" points="53.727 22.821 56.095 24.662 42.095 42.662 41.41 42.13 41.411 68.242 38.411 68.242 38.411 31.742 41.411 31.742 41.41 38.655"/>
    </g>
    <g transform="translate(158.286 6)">
      <path fill="#95CECC" fill-opacity=".7" d="M32.8673407,9.9475983e-14 C45.3226697,9.9475983e-14 57.8146505,3.76185614 62.604534,12.5433092 C74.6489786,34.6247909 55.4197088,39.6859823 55.4197088,46.0724936 C55.4197088,52.4590049 67.3944175,42.0898192 67.3944175,50.0640632 C67.3944175,56.4505745 61.8062201,62.0387719 67.3944175,62.0387719 C73.8200231,62.0387719 58.3216665,94.2874976 37.8568027,92.3747006 C17.3919389,90.4619036 7.39193887,84.4619036 1.39193887,70.4619036 C-2.64020808,61.0535608 2.33068217,41.9618137 13.1612931,40.6492309 C11.3483536,36.7117638 10.3149726,32.1734572 10.3149726,27.3425295 C10.3149726,12.2418209 20.4120117,9.9475983e-14 32.8673407,9.9475983e-14 Z"/>
      <path fill="#5899A2" fill-rule="nonzero" d="M40.3919389,18.4619036 L40.3912281,65.6959036 L53.8774431,57.6044107 L54.9064346,59.3193966 L40.3912281,68.0279036 L40.3919389,77.4619036 L38.3919389,77.4619036 L38.3912281,35.9539036 L25.7822281,26.2545276 L27.0016496,24.6692797 L38.3912281,33.4309036 L38.3919389,18.4619036 L40.3919389,18.4619036 Z"/>
      <polygon fill="#8E4A3D" fill-rule="nonzero" points="38.392 90.5 38.392 128.962 42.392 128.962 42.392 90.5"/>
    </g>
    <g transform="translate(38.678 48)">
      <path fill="#FFB199" d="M73,1.42108547e-14 L146,114.447591 L0,114.447591 L73,1.42108547e-14 Z M72,64.847654 L46.5,112.847654 L97.5,112.847654 L72,64.847654 Z"/>
      <path fill="#FF6D3F" fill-opacity=".672" fill-rule="nonzero" d="M104.154418,116.847654 L39.8455823,116.847654 L72,56.3216912 L104.154418,116.847654 Z M72,64.847654 L46.5,112.847654 L97.5,112.847654 L72,64.847654 Z"/>
    </g>
    <path fill="#B5DDDC" fill-opacity=".459" d="M50.1784135,1.77897241 C65.8034135,-3.90278065 81.4284135,7.46072546 75.1784135,15.0363962 C84.1274575,10.9041289 91.3331461,11.9842583 96.7954793,18.2767845 C97.881588,19.5279871 97.7477692,21.4227535 96.4965759,22.5088729 C95.9508959,22.9825595 95.2525791,23.2433728 94.5299827,23.2433728 L0.178413548,23.2433728 L0.178413548,23.2433728 C23.0950802,12.7216079 39.7617469,5.56680778 50.1784135,1.77897241 Z"/>
    <g fill="#5899A2" fill-rule="nonzero" transform="translate(18.678 189.462)">
      <path d="M13 21.2793901L19.225 25.0443901C20.365 25.7343901 21.76 24.7143901 21.46 23.4243901L19.81 16.3443901 25.315 11.5743901C26.32 10.7043901 25.78 9.0543901 24.46 8.9493901L17.215 8.3343901 14.38 1.6443901C13.87.429390099 12.13.429390099 11.62 1.6443901L8.785 8.3193901 1.54 8.9343901C.22 9.0393901-.32 10.6893901.685 11.5593901L6.19 16.3293901 4.54 23.4093901C4.24 24.6993901 5.635 25.7193901 6.775 25.0293901L13 21.2793901 13 21.2793901zM53 21.2793901L59.225 25.0443901C60.365 25.7343901 61.76 24.7143901 61.46 23.4243901L59.81 16.3443901 65.315 11.5743901C66.32 10.7043901 65.78 9.0543901 64.46 8.9493901L57.215 8.3343901 54.38 1.6443901C53.87.429390099 52.13.429390099 51.62 1.6443901L48.785 8.3193901 41.54 8.9343901C40.22 9.0393901 39.68 10.6893901 40.685 11.5593901L46.19 16.3293901 44.54 23.4093901C44.24 24.6993901 45.635 25.7193901 46.775 25.0293901L53 21.2793901 53 21.2793901zM93 21.2793901L99.225 25.0443901C100.365 25.7343901 101.76 24.7143901 101.46 23.4243901L99.81 16.3443901 105.315 11.5743901C106.32 10.7043901 105.78 9.0543901 104.46 8.9493901L97.215 8.3343901 94.38 1.6443901C93.87.429390099 92.13.429390099 91.62 1.6443901L88.785 8.3193901 81.54 8.9343901C80.22 9.0393901 79.68 10.6893901 80.685 11.5593901L86.19 16.3293901 84.54 23.4093901C84.24 24.6993901 85.635 25.7193901 86.775 25.0293901L93 21.2793901 93 21.2793901zM133 21.2793901L139.225 25.0443901C140.365 25.7343901 141.76 24.7143901 141.46 23.4243901L139.81 16.3443901 145.315 11.5743901C146.32 10.7043901 145.78 9.0543901 144.46 8.9493901L137.215 8.3343901 134.38 1.6443901C133.87.429390099 132.13.429390099 131.62 1.6443901L128.785 8.3193901 121.54 8.9343901C120.22 9.0393901 119.68 10.6893901 120.685 11.5593901L126.19 16.3293901 124.54 23.4093901C124.24 24.6993901 125.635 25.7193901 126.775 25.0293901L133 21.2793901 133 21.2793901zM173 21.2793901L179.225 25.0443901C180.365 25.7343901 181.76 24.7143901 181.46 23.4243901L179.81 16.3443901 185.315 11.5743901C186.32 10.7043901 185.78 9.0543901 184.46 8.9493901L177.215 8.3343901 174.38 1.6443901C173.87.429390099 172.13.429390099 171.62 1.6443901L168.785 8.3193901 161.54 8.9343901C160.22 9.0393901 159.68 10.6893901 160.685 11.5593901L166.19 16.3293901 164.54 23.4093901C164.24 24.6993901 165.635 25.7193901 166.775 25.0293901L173 21.2793901 173 21.2793901z"/>
    </g>
    <path fill="#5BB4B0" fill-opacity=".647" d="M18.6784135,141.461904 C21.6784135,135.461904 30.6784135,159.461904 33.6784135,147.461904 C35.6784135,139.461904 39.0117469,133.461904 43.6784135,129.461904 C49.0117469,126.795237 51.6784135,129.12857 51.6784135,136.461904 C51.6784135,143.795237 50.3450802,151.12857 47.6784135,158.461904 C61.6784135,143.795237 68.6784135,140.12857 68.6784135,147.461904 C68.6784135,158.461904 54.6784135,175.461904 38.6784135,175.461904 C22.6784135,175.461904 15.6784135,147.461904 18.6784135,141.461904 Z"/>
  </g>
</svg>
