<svg xmlns="http://www.w3.org/2000/svg" width="238" height="242" viewBox="0 0 238 242">
  <g fill="none" fill-rule="evenodd" transform="translate(1 .847)">
    <g transform="translate(44.5 72.073)">
      <path fill="#FFDB81" d="M70.131376,0.508064516 C108.795275,0.508064516 140.138558,31.8513477 140.138558,70.515247 C140.138558,98.3795805 123.859454,122.441725 100.29312,133.709807 L100.292666,150.324849 L39.9700857,150.324849 L39.9695637,133.709775 C16.4032666,122.441679 0.124193548,98.3795537 0.124193548,70.515247 C0.124193548,31.8513477 31.4674768,0.508064516 70.131376,0.508064516 Z"/>
      <path fill="#5BB4B0" fill-opacity=".538" d="M103.308795,143.538558 L103.308795,163.143397 L83.8450218,163.14285 C81.4624573,166.258096 76.2180156,168.421623 70.131376,168.421623 C64.0447364,168.421623 58.8002947,166.258096 56.4177302,163.14285 L36.9539567,163.143397 L36.9539567,143.538558 L103.308795,143.538558 Z"/>
      <path fill="#FFF" fill-rule="nonzero" d="M49.9411288,75.6465258 C43.4963596,73.6635199 37.5415055,76.4300424 36.399867,81.6202155 C35.1905242,87.1181894 39.82484,92.5978958 49.0483029,95.5105683 C51.5310953,96.294608 53.8812575,96.8013006 56.087938,97.0518737 L56.6861934,97.1138697 C58.20663,109.266461 58.3580999,127.270623 57.002443,150.99462 L59.997557,151.165769 L60.1156249,149.04757 L60.2782884,145.927338 C61.3219444,125.011053 61.1676422,108.809681 59.7224324,97.2345955 C67.4615869,97.1027657 73.0454497,93.4571836 75.881036,87.45782 C77.8946953,88.658591 79.8318874,89.6666858 81.6848553,90.4878112 C81.2325025,93.5942868 81,97.1240072 81,101.080194 L81,154.080194 L84,154.080194 L84,101.080194 C84,97.5480689 84.1903318,94.4010532 84.5520453,91.6342444 C91.9662328,94.2646087 97.8160965,93.6369994 101.523477,90.1767772 C105.858332,86.1309126 105.7592,78.9934105 101.371857,75.8595941 C96.9392258,72.6934287 91.7881221,72.4538425 87.8736825,75.9633401 C85.2758397,78.2924405 83.3646919,82.112908 82.2261073,87.4466075 C80.8512536,86.8054936 79.4140607,86.0503027 77.9169995,85.1759754 L77.2717436,84.7939549 C77.1695238,84.732623 77.0680774,84.6713971 76.9674035,84.6102789 C77.648009,82.3375429 78,79.8122719 78,77.0801943 C78,70.5107922 71.0588225,67.3456152 66.3532564,70.1689549 C63.9472098,71.6125829 63.1906759,74.3179478 64.5964776,77.2982473 C65.8423541,79.9395055 68.7272695,82.811003 73.321869,85.8521932 C71.0096144,91.0328159 66.360149,94.1314531 59.6994338,94.2472789 L59.3053097,94.250645 C57.585464,83.217952 54.4975499,77.0485015 49.9411288,75.6465258 Z M89.8763175,78.1970484 C92.6385361,75.7205767 96.2510727,75.8886016 99.6281427,78.3007945 C102.409136,80.2872186 102.477134,85.1830408 99.4765226,87.9836114 C96.6516525,90.6201568 91.8678572,91.1037278 85.4433309,88.7827899 L85.0396645,88.6340737 C86.0312457,83.6173363 87.6959094,80.1518971 89.8763175,78.1970484 Z M67.3097724,76.0183913 C66.5495804,74.4067842 66.8375685,73.3769388 67.8967436,72.7414337 C70.7195866,71.0477279 75,72.9995964 75,77.0801943 C75,78.9729399 74.816006,80.7438632 74.4545527,82.3749047 L74.3275046,82.9133797 C70.5492524,80.3302433 68.2371904,77.9845174 67.3097724,76.0183913 Z M49.9516971,92.6498203 C42.0443496,90.1527632 38.5131664,85.9774226 39.3298241,82.2646934 C40.0645067,78.924643 44.1799794,77.0126653 49.0588712,78.5138628 C52.2383685,79.4921696 54.6077942,84.3692974 56.0942959,93.0757817 L56.2558256,94.0589239 C54.2933458,93.820509 52.1898696,93.3566116 49.9516971,92.6498203 Z"/>
    </g>
    <g fill-rule="nonzero" transform="translate(1.991 12.97)">
      <polygon fill="#56B3B2" points="-1.17 .939 20.555 28.022 22.895 26.145 1.17 -.939"/>
      <polygon fill="#FF7043" points="22.687 30.876 32.686 42.465 34.958 40.506 24.959 28.916" transform="rotate(2 28.822 35.69)"/>
      <polygon fill="#FFBA2D" points="34.143 46.485 52.73 66.061 54.905 63.995 36.319 44.419" transform="rotate(-175 44.524 55.24)"/>
    </g>
    <g fill-rule="nonzero" transform="scale(-1 1) rotate(-11 70 1144.532)">
      <polygon fill="#BAACD8" points="16.326 39.003 25.056 55.948 27.723 54.575 18.993 37.629" transform="rotate(7 22.025 46.789)"/>
      <polygon fill="#79C7C6" points=".839 2.213 17.085 32.535 19.73 31.118 3.484 .797" transform="rotate(7 10.284 16.666)"/>
    </g>
    <polygon fill="#FFBA2D" fill-rule="nonzero" points="80.521 13.405 88.521 60.405 91.479 59.902 83.479 12.902"/>
    <polygon fill="#FF7043" fill-rule="nonzero" points="136.442 44.565 148.871 1.065 145.986 .241 133.558 43.741" transform="rotate(-8 141.214 22.403)"/>
    <polygon fill="#79C7C6" fill-rule="nonzero" points="211.024 108.059 236.524 98.559 235.476 95.748 209.976 105.248"/>
    <g fill-rule="nonzero" transform="translate(201.5 131.153)">
      <polygon fill="#61B7B6" points="0 8.041 13.082 8.041 13.082 5.041 0 5.041" transform="rotate(90 6.541 6.541)"/>
      <polygon fill="#8E78BF" fill-opacity=".613" points="0 8.041 13.082 8.041 13.082 5.041 0 5.041"/>
    </g>
    <g fill-rule="nonzero" transform="rotate(90 -23.541 42.532)">
      <polygon fill="#61B7B6" points="0 9.968 16.936 9.968 16.936 6.968 0 6.968" transform="rotate(90 8.468 8.468)"/>
      <polygon fill="#FF4648" fill-opacity=".613" points="0 9.968 16.936 9.968 16.936 6.968 0 6.968"/>
    </g>
    <polygon fill="#BAACD8" fill-rule="nonzero" points="29.822 127.899 .822 108.899 -.822 111.408 28.178 130.408"/>
    <g fill-rule="nonzero" transform="translate(185.5)">
      <polygon fill="#FFD469" points="0 10.066 17.131 10.066 17.131 7.066 0 7.066"/>
      <polygon fill="#FF0E10" fill-opacity=".519" points="0 10.066 17.131 10.066 17.131 7.066 0 7.066" transform="rotate(90 8.566 8.566)"/>
    </g>
  </g>
</svg>
