<svg xmlns="http://www.w3.org/2000/svg" width="244" height="250" viewBox="0 0 244 250">
  <g fill="none" fill-rule="evenodd" transform="translate(1 -2)">
    <path fill="#FF7043" fill-rule="nonzero" d="M211.89644,80.2821651 L211.999483,80.2202463 C215.097296,78.3448495 217.095928,75.6990742 217.042619,73.232481 C216.978293,70.2561989 214.223504,68.5615855 209.785156,68.5615855 C205.121406,68.5615855 202.854109,71.0332586 203.922762,74.7141758 C204.343482,76.163322 205.285091,77.7474083 206.596078,79.3040801 C200.844603,80.8643237 193.959833,79.0602665 187.841044,72.9961741 C187.252633,72.4130235 186.302895,72.4172875 185.719745,73.005698 C185.136594,73.5941084 185.140858,74.5438463 185.729269,75.1269969 C193.155532,82.4868756 201.86599,84.3254986 208.935014,81.7012818 C209.588333,82.2865778 210.286808,82.8543877 211.021135,83.394742 C219.945714,89.9618849 229.698744,90.0813098 234.140763,80.7037151 C234.495401,79.9550341 234.175967,79.0606171 233.427286,78.7059788 C232.678605,78.3513404 231.784188,78.6707751 231.429549,79.419456 C227.992724,86.6749774 220.414535,86.5821833 212.799177,80.9784291 C212.490233,80.7510928 212.189001,80.5185834 211.89644,80.2821651 Z M206.803801,73.8777452 C206.336955,72.2697207 206.986536,71.5615855 209.785156,71.5615855 C212.796339,71.5615855 214.022102,72.3156159 214.043319,73.2973037 C214.069122,74.4912108 212.720061,76.277089 210.44583,77.6538945 L210.015393,77.904935 L209.577857,78.1412079 C208.159975,76.6338931 207.164067,75.1186618 206.803801,73.8777452 Z" transform="scale(1 -1) rotate(20 653.93 0)"/>
    <g transform="translate(74 66)">
      <path fill="#E7C5A4" d="M59.4113056,93.9278454 L149.26237,160.460767 C135.951101,182.203552 125.135695,190.030955 116.816152,183.942975 C108.496609,177.854995 89.3616603,160.460767 59.4113056,131.760291 L45.6840596,117.410053 L59.4113056,93.9278454 Z"/>
      <path fill="#D0A981" fill-rule="nonzero" d="M59.4113056,93.9278454 L149.26237,160.460767 L148.466689,161.748636 C135.519483,182.511082 124.969304,189.909195 116.816152,183.942975 L116.304001,183.564129 C107.726885,177.154703 88.7626532,159.886758 59.4113056,131.760291 L45.6840596,117.410053 L59.4113056,93.9278454 Z M60.0128007,96.8618632 L48.1717361,117.117517 L60.7950673,130.316268 L66.0565472,135.348021 C92.9254625,160.989598 110.271638,176.675611 117.997237,182.328961 C124.614196,187.171044 133.922908,180.865714 145.859134,162.135227 L146.593206,160.972927 L60.0128007,96.8618632 Z"/>
      <path fill="#BFE8E0" d="M29.6224172,91.091762 L26.654358,91.0923077 C12.4640484,91.0923077 0.960529634,80.2278733 0.960529634,66.8259142 L0.960529634,66.8259142 L0.960529634,44.4261665 C0.960529634,38.8591989 5.73891436,34.3462799 11.6333506,34.3462799 C17.5277869,34.3462799 22.3061716,38.8591989 22.3061716,44.4261665 L22.3061716,44.4261665 L22.3061716,66.8259142 C22.3061716,69.0939381 24.252921,70.9325347 26.654358,70.9325347 L26.654358,70.9325347 L28.455122,70.9325347 C30.5169619,70.9325347 32.1884133,69.2610832 32.1884133,67.1992434 L32.1884133,67.1992434 L32.1884133,15.8115867 C32.1884133,7.07908848 39.2675018,1.60413389e-15 48,0 C56.7324982,-1.60413389e-15 63.8115867,7.07908848 63.8115867,15.8115867 L63.8115867,55.6260404 C63.8115867,57.6878802 65.4830381,59.3593317 67.544878,59.3593317 L69.345642,59.3593317 C71.747079,59.3593317 73.6938284,57.5207351 73.6938284,55.2527112 L73.6938284,32.8529634 C73.6938284,27.2859958 78.4722131,22.7730769 84.3666494,22.7730769 C90.2610856,22.7730769 95.0394704,27.2859958 95.0394704,32.8529634 L95.0394704,55.2527112 C95.0394704,68.6546703 83.5359516,79.5191047 69.345642,79.5191047 L67.544878,79.5191047 C65.4830381,79.5191047 63.8115867,81.1905561 63.8115867,83.252396 L63.8115867,83.252396 L63.8115867,127.546799 C63.8115867,136.279297 56.7324982,143.358386 48,143.358386 C39.2675018,143.358386 32.1884133,136.279297 32.1884133,127.546799 L32.1884133,94.6389344 C32.1884133,92.9847545 31.112569,91.5818514 29.6224172,91.091762 Z"/>
      <path fill="#5BB4B0" fill-rule="nonzero" d="M28.1884133,15.8115867 C28.1884133,4.86994949 37.0583628,-4 48,-4 C58.9416372,-4 67.8115867,4.86994949 67.8115867,15.8115867 L67.8115867,55.3593317 L69.345642,55.3593317 C69.5874439,55.3593317 69.6938284,55.2588575 69.6938284,55.2527112 L69.6938284,32.8529634 C69.6938284,25.0241183 76.312578,18.7730769 84.3666494,18.7730769 C92.4207207,18.7730769 99.0394704,25.0241183 99.0394704,32.8529634 L99.0394704,55.2527112 C99.0394704,70.9165478 85.6955867,83.5191047 69.345642,83.5191047 L67.8115867,83.5191047 L67.8115867,127.546799 C67.8115867,138.488436 58.9416372,147.358386 48,147.358386 C37.0583628,147.358386 28.1884133,138.488436 28.1884133,127.546799 L28.1884133,95.0920257 L26.654358,95.0923077 C10.4875881,95.0923077 -2.76994686,82.7609243 -3.03588097,67.261514 L-3.03947037,66.8259142 L-3.03947037,44.4261665 C-3.03947037,36.5973213 3.57927929,30.3462799 11.6333506,30.3462799 C19.5390982,30.3462799 26.0850218,36.3757893 26.3019402,44.0970249 L26.3061716,44.4261665 L26.3061716,66.8259142 C26.3061716,66.8285111 26.4001544,66.921475 26.5299483,66.9285811 L26.654358,66.9325347 L28.1884133,66.9325347 L28.1884133,15.8115867 Z M48,0 C39.2675018,0 32.1884133,7.07908848 32.1884133,15.8115867 L32.1884133,67.1992434 L32.1832385,67.3975146 C32.0801715,69.3671795 30.4504509,70.9325347 28.455122,70.9325347 L26.654358,70.9325347 L26.4373396,70.9275089 C24.1367238,70.8207103 22.3061716,69.0252101 22.3061716,66.8259142 L22.3061716,44.4261665 L22.3023353,44.1532462 C22.1492034,38.7124471 17.4311568,34.3462799 11.6333506,34.3462799 C5.73891436,34.3462799 0.960529634,38.8591989 0.960529634,44.4261665 L0.960529634,66.8259142 L0.963971873,67.2272034 C1.19086869,80.4440755 12.6059515,91.0923077 26.654358,91.0923077 L29.6224172,91.091762 C31.112569,91.5818514 32.1884133,92.9847545 32.1884133,94.6389344 L32.1884133,127.546799 C32.1884133,136.279297 39.2675018,143.358386 48,143.358386 C56.7324982,143.358386 63.8115867,136.279297 63.8115867,127.546799 L63.8115867,83.252396 L63.8167615,83.0541248 C63.9198285,81.0844598 65.5495491,79.5191047 67.544878,79.5191047 L69.345642,79.5191047 C83.5359516,79.5191047 95.0394704,68.6546703 95.0394704,55.2527112 L95.0394704,32.8529634 C95.0394704,27.2859958 90.2610856,22.7730769 84.3666494,22.7730769 C78.4722131,22.7730769 73.6938284,27.2859958 73.6938284,32.8529634 L73.6938284,55.2527112 C73.6938284,57.5207351 71.747079,59.3593317 69.345642,59.3593317 L67.544878,59.3593317 C65.4830381,59.3593317 63.8115867,57.6878802 63.8115867,55.6260404 L63.8115867,15.8115867 C63.8115867,7.07908848 56.7324982,0 48,0 Z"/>
      <path fill="#FFF" fill-rule="nonzero" d="M48,0 C56.7324982,0 63.8115867,7.07908848 63.8115867,15.8115867 L63.8115867,55.6260404 C63.8115867,57.6878802 65.4830381,59.3593317 67.544878,59.3593317 L69.345642,59.3593317 C71.747079,59.3593317 73.6938284,57.5207351 73.6938284,55.2527112 L73.6938284,32.8529634 C73.6938284,27.2859958 78.4722131,22.7730769 84.3666494,22.7730769 C90.2610856,22.7730769 95.0394704,27.2859958 95.0394704,32.8529634 L95.0394704,55.2527112 C95.0394704,68.6546703 83.5359516,79.5191047 69.345642,79.5191047 L67.544878,79.5191047 C65.5495491,79.5191047 63.9198285,81.0844598 63.8167615,83.0541248 L63.8115867,83.252396 L63.8115867,127.546799 C63.8115867,136.279297 56.7324982,143.358386 48,143.358386 C39.2675018,143.358386 32.1884133,136.279297 32.1884133,127.546799 L32.1884133,94.6389344 C32.1884133,92.9847545 31.112569,91.5818514 29.6224172,91.091762 L26.654358,91.0923077 C12.6059515,91.0923077 1.19086869,80.4440755 0.963971873,67.2272034 L0.960529634,66.8259142 L0.960529634,44.4261665 C0.960529634,38.8591989 5.73891436,34.3462799 11.6333506,34.3462799 C17.4311568,34.3462799 22.1492034,38.7124471 22.3023353,44.1532462 L22.3061716,44.4261665 L22.3061716,66.8259142 C22.3061716,69.0252101 24.1367238,70.8207103 26.4373396,70.9275089 L26.654358,70.9325347 L28.455122,70.9325347 C30.4504509,70.9325347 32.0801715,69.3671795 32.1832385,67.3975146 L32.1884133,67.1992434 L32.1884133,15.8115867 C32.1884133,7.07908848 39.2675018,0 48,0 Z M48,4 C41.4766408,4 36.1884133,9.28822748 36.1884133,15.8115867 L36.1870516,67.3036072 L36.1777734,67.6065372 C35.9632671,71.705868 32.5737215,74.9325347 28.455122,74.9325347 L26.5617493,74.9314625 L26.2518523,74.9232059 C21.8571608,74.7191966 18.3061716,71.2067004 18.3061716,66.8259142 L18.3065668,44.4823878 L18.3039186,44.2657821 C18.2127974,41.0282319 15.3011421,38.3462799 11.6333506,38.3462799 C7.89854944,38.3462799 4.96038248,41.1210764 4.96038248,44.4261665 L4.96038248,66.7916037 L4.96338258,67.1585447 C5.15221791,78.1583131 14.7572024,87.0923077 26.6536226,87.0923078 L30.2629445,87.0916442 L30.8721076,87.2919891 C34.0204655,88.3274386 36.1884133,91.2741645 36.1884133,94.6389344 L36.1884133,127.546799 C36.1884133,134.070158 41.4766408,139.358386 48,139.358386 C54.5233592,139.358386 59.8115867,134.070158 59.8115867,127.546799 L59.8129484,83.1480321 L59.8222266,82.8451021 C60.0367329,78.7457714 63.4262785,75.5191047 67.544878,75.5191047 L69.345642,75.5191047 C81.3763165,75.5191047 91.0394704,66.3927927 91.0394704,55.2527112 L91.0394704,32.8529634 C91.0394704,29.5478734 88.1014506,26.7730769 84.3666494,26.7730769 C80.6318482,26.7730769 77.6938284,29.5478734 77.6938284,32.8529634 L77.6938284,55.2527112 C77.6938284,59.7826126 73.9067141,63.3593317 69.345642,63.3593317 L67.544878,63.3593317 C63.2738991,63.3593317 59.8115867,59.8970192 59.8115867,55.6260404 L59.8115867,15.8115867 C59.8115867,9.28822748 54.5233592,4 48,4 Z"/>
      <path fill="#E7C5A4" d="M34.3832971,95.1976128 C37.6175715,95.1976128 40.2394689,97.8195102 40.2394689,101.053785 C40.2394689,104.288059 37.6175715,106.909956 34.3832971,106.909956 L35.9804349,106.909956 C39.5087342,106.909956 42.3689859,109.770208 42.3689859,113.298507 C42.3689859,116.826807 39.5087342,119.687058 35.9804349,119.687058 L38.1099519,119.687058 C41.0502013,119.687058 43.4337444,122.070601 43.4337444,125.010851 C43.4337444,127.118692 42.2087606,128.940422 40.4318638,129.802972 C42.2087606,130.664106 43.4337444,132.485836 43.4337444,134.593677 C43.4337444,137.533927 41.0502013,139.91747 38.1099519,139.91747 L29.8802663,139.91747 C26.9400169,139.91747 24.5564738,137.533927 24.5564738,134.593677 C24.5564738,132.799775 25.4437364,131.213104 26.8033615,130.248565 C24.3152658,129.803879 22.4269568,127.627884 22.4269568,125.010851 C22.4269568,122.070601 24.8104999,119.687058 27.7507493,119.687058 C24.22245,119.687058 21.3621983,116.826807 21.3621983,113.298507 C21.3621983,109.770208 24.22245,106.909956 27.7507493,106.909956 L25.088853,106.909956 C21.8545787,106.909956 19.2326813,104.288059 19.2326813,101.053785 C19.2326813,97.8195102 21.8545787,95.1976128 25.088853,95.1976128 L34.3832971,95.1976128 Z"/>
      <path fill="#D0A981" fill-rule="nonzero" d="M21.059161,107.799142 C18.7670921,106.426905 17.2326813,103.919535 17.2326813,101.053785 C17.2326813,96.7149407 20.7500092,93.1976128 25.088853,93.1976128 L34.3832971,93.1976128 C38.722141,93.1976128 42.2394689,96.7149407 42.2394689,101.053785 C42.2394689,102.996629 41.5342222,104.774755 40.365766,106.146124 C42.7673724,107.621761 44.3689859,110.273096 44.3689859,113.298507 C44.3689859,115.466844 43.5462846,117.443028 42.196,118.931942 C44.1490574,120.247313 45.4337444,122.479054 45.4337444,125.010851 C45.4337444,126.815306 44.7748444,128.501667 43.6496844,129.802444 C44.774825,131.102841 45.4337444,132.789208 45.4337444,134.593677 C45.4337444,138.638496 42.1547708,141.91747 38.1099519,141.91747 L29.8802663,141.91747 C25.8354474,141.91747 22.5564738,138.638496 22.5564738,134.593677 C22.5564738,133.299675 22.8951595,132.061547 23.5079327,130.98145 C21.6314634,129.646346 20.4269568,127.454375 20.4269568,125.010851 C20.4269568,123.007176 21.2315827,121.191433 22.5353432,119.869111 C20.6018716,118.332367 19.3621983,115.960208 19.3621983,113.298507 C19.3621983,111.37295 20.0109845,109.598925 21.1018835,108.183106 L21.2989424,107.937016 L21.059161,107.799142 Z M34.3832971,95.1976128 L25.088853,95.1976128 C21.8545787,95.1976128 19.2326813,97.8195102 19.2326813,101.053785 C19.2326813,104.288059 21.8545787,106.909956 25.088853,106.909956 L27.7507493,106.909956 C24.22245,106.909956 21.3621983,109.770208 21.3621983,113.298507 C21.3621983,116.826807 24.22245,119.687058 27.7507493,119.687058 C24.8104999,119.687058 22.4269568,122.070601 22.4269568,125.010851 C22.4269568,127.627884 24.3152658,129.803879 26.8033615,130.248565 C25.4437364,131.213104 24.5564738,132.799775 24.5564738,134.593677 C24.5564738,137.533927 26.9400169,139.91747 29.8802663,139.91747 L38.1099519,139.91747 C41.0502013,139.91747 43.4337444,137.533927 43.4337444,134.593677 C43.4337444,132.485836 42.2087606,130.664106 40.4318638,129.802972 C42.2087606,128.940422 43.4337444,127.118692 43.4337444,125.010851 C43.4337444,122.070601 41.0502013,119.687058 38.1099519,119.687058 L35.9804349,119.687058 C39.5087342,119.687058 42.3689859,116.826807 42.3689859,113.298507 C42.3689859,109.770208 39.5087342,106.909956 35.9804349,106.909956 L34.3832971,106.909956 C37.6175715,106.909956 40.2394689,104.288059 40.2394689,101.053785 C40.2394689,97.8195102 37.6175715,95.1976128 34.3832971,95.1976128 Z"/>
      <path fill="#E7C5A4" d="M52.7979714,84.4852694 L65.2686782,84.4852694 C68.513297,84.4853068 71.1435803,87.11559 71.1435803,90.3602088 C71.1435803,92.5309418 69.9465949,94.5247798 68.0307283,95.5453369 C68.0307283,95.5453369 68.0307283,95.5453369 68.0307283,95.5453369 C65.240814,97.0314878 60.2016006,97.3194664 52.9130879,96.4092726 C49.6881745,96.0065424 47.2679376,93.2652659 47.2679376,90.0153031 C47.2679376,86.9611498 49.743818,84.4852694 52.7979714,84.4852694 Z"/>
      <path fill="#D0A981" fill-rule="nonzero" d="M65.2686782,82.4852694 L65.5139838,82.4890194 C69.7496732,82.6186584 73.1435803,86.093092 73.1435803,90.3602088 C73.1435803,93.1523508 71.6651392,95.7336512 69.2260103,97.1681889 L68.9710163,97.3105163 C65.7173193,99.0437182 60.3330457,99.3514161 52.6652511,98.3938574 C48.4393767,97.8661263 45.2679376,94.2740016 45.2679376,90.0153031 C45.2679376,85.8565803 48.6392485,82.4852694 52.7979714,82.4852694 L65.2686782,82.4852694 Z M65.2686782,84.4852694 L52.7979714,84.4852694 C49.743818,84.4852694 47.2679376,86.9611498 47.2679376,90.0153031 C47.2679376,93.2652659 49.6881745,96.0065424 52.9130879,96.4092726 C60.2016006,97.3194664 65.240814,97.0314878 68.0307283,95.5453369 L68.2485723,95.4233063 C70.0369,94.371146 71.1435803,92.4474521 71.1435803,90.3602088 C71.1435803,87.11559 68.513297,84.4852694 65.2686782,84.4852694 Z"/>
    </g>
    <g transform="translate(0 27)">
      <path fill="#FFBA2D" fill-rule="nonzero" d="M86.7997977,60.3220892 C80.4028998,54.6635264 73.2078884,51.8140169 65.2737016,51.8140169 C57.3395148,51.8140169 50.1445033,54.6635264 43.7476055,60.3220892 L45.7352815,62.5691192 C51.5951904,57.3855656 58.0883511,54.8140169 65.2737016,54.8140169 C72.4590521,54.8140169 78.9522127,57.3855656 84.8121216,62.5691192 L86.7997977,60.3220892 Z" transform="rotate(-46 65.274 57.192)"/>
      <circle cx="57.883" cy="62.877" r="6.448" fill="#5BB4B0" fill-opacity=".447"/>
      <polygon fill="#FF7043" fill-rule="nonzero" points="-.931 18.337 35.598 47.266 37.46 44.914 .931 15.985"/>
      <polygon fill="#FFF" fill-rule="nonzero" points="10.996 42.231 28.157 18.941 23.327 15.382 6.165 38.672"/>
      <path fill="#FFB3B3" fill-rule="nonzero" d="M85.5664233,49.262872 C76.0595894,40.8533243 65.3914597,36.6283225 53.6209724,36.6283225 C41.8504851,36.6283225 31.1823554,40.8533243 21.6755215,49.262872 L23.6631975,51.509902 C32.6330425,43.5753636 42.5993214,39.6283225 53.6209724,39.6283225 C64.6426234,39.6283225 74.6089023,43.5753636 83.5787473,51.509902 L85.5664233,49.262872 Z" transform="rotate(-46 53.621 44.07)"/>
      <polygon fill="#9A86C6" fill-opacity=".607" fill-rule="nonzero" points="54.991 .548 68.475 34.871 71.267 33.774 57.783 -.548"/>
    </g>
    <path fill="#AE9DD3" fill-rule="nonzero" d="M23.1016129,16 C26.9676062,16 30.1016129,19.1340068 30.1016129,23 C30.1016129,26.8659932 26.9676062,30 23.1016129,30 C19.2356197,30 16.1016129,26.8659932 16.1016129,23 C16.1016129,19.1340068 19.2356197,16 23.1016129,16 Z M23.1016129,19 C20.8924739,19 19.1016129,20.790861 19.1016129,23 C19.1016129,25.209139 20.8924739,27 23.1016129,27 C25.3107519,27 27.1016129,25.209139 27.1016129,23 C27.1016129,20.790861 25.3107519,19 23.1016129,19 Z"/>
    <polygon fill="#FFBA2D" points="182.782 53.45 175.302 56.595 178.447 49.115 175.302 41.635 182.782 44.779 190.262 41.635 187.117 49.115 190.262 56.595" transform="rotate(-46 182.782 49.115)"/>
    <polygon fill="#FF7043" points="108.544 32.318 102.564 34.832 105.079 28.852 102.564 22.872 108.544 25.387 114.524 22.872 112.01 28.852 114.524 34.832" transform="rotate(-46 108.544 28.852)"/>
    <circle cx="238.686" cy="38.314" r="4.314" fill="#BFE8E0"/>
    <g fill-rule="nonzero" transform="translate(194 9)">
      <polygon fill="#61B7B6" points="0 9.91 16.82 9.91 16.82 6.91 0 6.91" transform="rotate(90 8.41 8.41)"/>
      <polygon fill="#8E78BF" fill-opacity=".613" points="0 9.91 16.82 9.91 16.82 6.91 0 6.91"/>
    </g>
    <g fill-rule="nonzero" transform="translate(7.102 102)">
      <polygon fill="#FFD469" points="0 10.066 17.131 10.066 17.131 7.066 0 7.066"/>
      <polygon fill="#FF0E10" fill-opacity=".519" points="0 10.066 17.131 10.066 17.131 7.066 0 7.066" transform="rotate(90 8.566 8.566)"/>
    </g>
    <g transform="translate(136.5)">
      <path fill="#FFB3B3" fill-rule="nonzero" d="M21.45513,11.3641381 L18.54487,10.6358619 L18.162748,12.1491139 L17.6001986,14.3271007 C11.5320114,37.5026312 5.30041452,51.0302617 -0.777974991,54.71752 L0.777974991,57.28248 C8.12108246,52.8280214 14.8906049,37.5965958 21.45513,11.3641381 Z"/>
      <polygon fill="#5BB4B0" fill-opacity=".509" points="20 4 31 15.846 9 15.846" transform="rotate(19 20 9.923)"/>
      <circle cx="14.55" cy="29.82" r="6" fill="#FFBA2D"/>
      <path fill="#FFF" fill-rule="nonzero" d="M14.5501059,22.8199779 C18.4160992,22.8199779 21.5501059,25.9539846 21.5501059,29.8199779 C21.5501059,33.6859711 18.4160992,36.8199779 14.5501059,36.8199779 C10.6841127,36.8199779 7.55010594,33.6859711 7.55010594,29.8199779 C7.55010594,25.9539846 10.6841127,22.8199779 14.5501059,22.8199779 Z M14.5501059,24.8199779 C11.7886822,24.8199779 9.55010594,27.0585541 9.55010594,29.8199779 C9.55010594,32.5814016 11.7886822,34.8199779 14.5501059,34.8199779 C17.3115297,34.8199779 19.5501059,32.5814016 19.5501059,29.8199779 C19.5501059,27.0585541 17.3115297,24.8199779 14.5501059,24.8199779 Z"/>
    </g>
    <circle cx="86.5" cy="5.5" r="3.5" fill="#FFB3B3"/>
  </g>
</svg>
