<svg xmlns="http://www.w3.org/2000/svg" xmlns:xlink="http://www.w3.org/1999/xlink" width="241" height="216" viewBox="0 0 241 216">
  <defs>
    <path id="no_one_nearby-a" d="M32.937579,111.271102 C46.7920353,95.2073075 53.7192634,77.2675628 53.7192634,57.451868 C53.7192634,27.7283258 44.4149864,3.63263391 32.937579,3.63263391 C21.4601716,3.63263391 12.1558945,27.7283258 12.1558945,57.451868 C12.1558945,77.2675628 19.0831227,95.2073075 32.937579,111.271102 Z"/>
  </defs>
  <g fill="none" fill-rule="evenodd" transform="translate(-16 -.91)">
    <g fill-rule="nonzero" transform="translate(0 98.91)">
      <path fill="#E5C487" fill-opacity=".766" d="M66.4538686,59.8136192 L58.3032838,56.0591854 L59.781831,52.849374 L66.6283163,56.0030957 C66.607817,43.4324083 60.7758395,33.166484 53.4228928,31.1158653 L54.852847,27.8473985 C61.6420261,29.9890183 67.005016,37.3183396 69.1493476,46.8088923 L74.6660104,40.7392698 L77.2811934,43.1162023 L69.8941814,51.2436475 C70.0706925,52.8146688 70.1623471,54.4271412 70.1623471,56.0695864 C70.1623471,58.890551 69.8919713,61.6230975 69.3856633,64.20907 L74.7715052,61.3775548 L76.4160146,64.5055861 L68.1802981,68.8353745 C66.8533053,72.8588522 64.9140385,76.3612369 62.5285108,79.062226 C70.1026071,75.9268393 76.1331365,69.864939 79.1809016,62.3048411 L79.0339851,62.0762822 L79.2657102,61.9273323 L73.7819983,53.8787417 L76.7025357,51.8889044 L80.62874,57.6514997 C81.1031365,55.5302371 81.353273,53.32555 81.353273,51.0631195 C81.353273,45.1418428 79.6398785,39.6160994 76.6769944,34.9462864 L68.8531356,33.7445411 L69.3896625,30.2515295 L73.6070521,30.8993209 C69.4610121,26.2876279 63.9148383,22.9373311 57.6283898,21.5033007 L59.0678995,18.2129928 C70.1399206,20.9679023 79.0690122,29.080331 82.88496,39.611133 L83.8779571,36.208208 L87.2704467,37.19816 L84.6305748,46.2447989 L84.5404016,46.2184857 C84.7689749,47.8006658 84.8872496,49.4181746 84.8872496,51.0631195 C84.8872496,53.7627916 84.568675,56.3885641 83.9667847,58.9055471 L87.9523842,56.3436498 L89.8632616,59.3164495 L82.2059064,64.2384991 C77.0211364,76.3991817 64.8764734,84.9303953 50.7254758,84.9303953 C36.6741262,84.9303953 24.6009543,76.5189082 19.3556086,64.4948553 L11.2994336,59.3164495 L13.2103111,56.3436498 L17.5374497,59.1250789 C16.9010945,56.5413775 16.563702,53.8413808 16.563702,51.0631195 C16.563702,49.408884 16.6833165,47.7823954 16.9144335,46.1916808 L16.7324017,46.2447989 L14.0925298,37.19816 L17.4850194,36.208208 L18.517406,39.7461178 C22.3057505,29.1496847 31.2637699,20.9796617 42.3830521,18.2129928 L43.8225618,21.5033007 C37.5240832,22.9400754 31.9687152,26.3004576 27.8201125,30.9258106 L32.2029487,30.2106374 L32.7720813,33.6984847 L24.7335284,35.0101826 C21.7954924,39.6664707 20.0976786,45.1688269 20.0976786,51.0631195 C20.0976786,52.917866 20.2657895,54.7338045 20.5877539,56.4967855 L24.12852,51.2999083 L27.0490574,53.2897456 L21.7847371,61.0163294 C24.6448904,69.1743712 30.9227004,75.7506388 38.9224408,79.062226 C35.6868751,75.3987901 33.2722663,70.2610794 32.0928425,64.3484916 L24.7633801,60.4951509 L26.4078896,57.3671197 L31.468305,60.0275474 C31.3497391,58.7323878 31.2886045,57.4109832 31.2886045,56.0695864 C31.2886045,52.6632303 31.6828372,49.385796 32.4106588,46.3396766 L26.7571981,38.9097394 L29.569593,36.76978 L33.6699946,42.1586433 C36.3158793,34.9701887 40.9663016,29.6239286 46.5981046,27.8473985 L48.0280589,31.1158653 C43.6571311,32.3348468 39.8236618,36.4568357 37.4289011,42.2402827 L41.3627801,40.9062591 L42.497711,44.253037 L36.0238916,46.4483836 C35.2516536,49.4073795 34.8225811,52.6538951 34.8225811,56.0695864 C34.8225811,58.1249817 34.97795,60.1191178 35.2699691,62.0262079 L35.2701636,62.0274782 C35.7039448,64.859729 36.4391205,67.4999734 37.414373,69.8637409 L39.3184418,66.6010851 L42.3706689,68.3823488 L39.3092532,73.6281392 C41.7029629,77.5614517 44.8738654,80.2639568 48.3694914,81.1123395 L48.3694914,63.2012065 L41.1471614,57.4083228 L43.358313,54.6515495 L48.3694914,58.6709135 L48.3694914,37.8107073 L51.903468,37.8107073 L51.903468,48.4807441 L57.4865547,44.0026641 L59.6977063,46.7594373 L51.903468,53.011037 L51.903468,61.5054441 L52.0880951,61.6535297 L51.903468,61.8837152 L51.903468,72.1255126 L57.5338928,67.6094637 L59.7450444,70.366237 L51.903468,76.6558055 L51.903468,81.3257732 C59.2058865,80.4480647 65.3552524,71.487543 66.4538686,59.8136192 L66.4538686,59.8136192 Z" transform="rotate(-53 50.581 51.572)"/>
      <path fill="#EFDBB5" d="M256.393319,114.56417 C255.668852,112.164372 254.869036,109.889692 253.993412,107.740158 C253.472531,106.461468 252.01369,105.847143 250.735,106.368024 C249.45631,106.888905 248.841985,108.347746 249.362866,109.626436 C250.178361,111.628361 250.926453,113.755937 251.606681,116.009193 C252.005713,117.330987 253.400718,118.079033 254.722511,117.680001 C256.044305,117.280969 256.792351,115.885964 256.393319,114.56417 Z M246.797228,94.9652644 C245.222973,92.9378657 243.521858,91.1182316 241.694101,89.5084838 C240.657954,88.5959248 239.078215,88.6961128 238.165656,89.7322602 C237.253097,90.7684075 237.353285,92.3481461 238.389433,93.2607052 C239.97772,94.6595465 241.463837,96.2492035 242.848003,98.0317977 C243.694803,99.1223459 245.265334,99.319943 246.355882,98.4731433 C247.446431,97.6263435 247.644028,96.0558126 246.797228,94.9652644 Z M228.580538,82.1923535 C226.256735,81.4822916 223.818282,80.9853591 221.266974,80.7005921 C219.894783,80.5474336 218.658243,81.5356545 218.505085,82.9078453 C218.351926,84.2800362 219.340147,85.5165762 220.712338,85.6697348 C222.96088,85.9207082 225.095976,86.3558196 227.119424,86.974105 C228.439868,87.3775804 229.837381,86.6342303 230.240857,85.313786 C230.644332,83.9933418 229.900982,82.5958289 228.580538,82.1923535 Z M206.687168,81.172154 C204.395095,81.5308533 202.034701,82.0165735 199.605773,82.6289262 C198.266952,82.9664539 197.455244,84.3254026 197.792772,85.6642231 C198.1303,87.0030436 199.489248,87.8147519 200.828069,87.4772242 C203.111596,86.9015281 205.32239,86.4465925 207.460237,86.112029 C208.824345,85.898552 209.757117,84.619666 209.54364,83.2555572 C209.330163,81.8914484 208.051277,80.958677 206.687168,81.172154 Z M185.939603,87.1175314 C183.801277,87.9677394 181.618186,88.8987655 179.390215,89.91056 C178.133065,90.4814725 177.576761,91.9634094 178.147673,93.2205586 C178.718586,94.4777078 180.200522,95.0340126 181.457672,94.4631001 C183.61414,93.4837774 185.72394,92.5840082 187.786958,91.7637428 C189.069974,91.2536098 189.696519,89.7999754 189.186386,88.5169596 C188.676253,87.2339438 187.222619,86.6073984 185.939603,87.1175314 Z M166.663464,96.3003186 L165.81604,96.7659018 L167.024447,98.9544523 L166.754814,96.4690352 C164.732334,96.6884457 162.750402,96.8742652 160.804596,97.0275488 C159.428149,97.1359804 158.400219,98.3397128 158.50865,99.7161603 C158.617082,101.092608 159.820814,102.120538 161.197262,102.012106 C163.192242,101.854949 165.22304,101.664548 167.294079,101.439869 L168.232853,101.143003 L169.061793,100.687575 C170.2733,100.025295 170.718537,98.5062895 170.056257,97.2947822 C169.393976,96.0832748 167.874971,95.6380383 166.663464,96.3003186 Z M147.044755,97.531607 C144.645639,97.5001698 142.37216,97.3961792 140.224665,97.2199575 C138.848578,97.1070369 137.6415,98.1310353 137.528579,99.5071218 C137.415658,100.883208 138.439657,102.090287 139.815743,102.203208 C142.080592,102.389059 144.46831,102.498275 146.979243,102.531178 C148.359836,102.549269 149.493694,101.444742 149.511785,100.064149 C149.529875,98.6835553 148.425349,97.5496978 147.044755,97.531607 Z M127.073505,94.7492217 C124.847932,94.0041885 122.897867,93.1140854 121.220946,92.0833813 C120.044661,91.3603884 118.504992,91.7278544 117.781999,92.9041395 C117.059006,94.0804246 117.426472,95.6200936 118.602757,96.3430864 C120.617473,97.5814132 122.912769,98.6290964 125.48628,99.4906049 C126.795576,99.9289052 128.212284,99.222823 128.650584,97.9135262 C129.088884,96.6042293 128.382802,95.187522 127.073505,94.7492217 Z M112.883733,82.8890341 C112.010983,80.9732441 111.510007,78.9797007 111.387236,76.9855304 C111.302393,75.6074278 110.116442,74.5590336 108.738339,74.6438764 C107.360236,74.7287193 106.311842,75.914671 106.396685,77.2927737 C106.557224,79.9004028 107.208508,82.4920734 108.333636,84.9618612 C108.906031,86.218336 110.388623,86.7728918 111.645098,86.2004965 C112.901573,85.6281011 113.456129,84.1455089 112.883733,82.8890341 Z M115.274871,65.7601892 C116.454603,64.4318179 117.875026,63.2733759 119.51057,62.3206162 C119.653973,62.2370792 119.799939,62.1555349 119.948405,62.0760119 C121.165517,61.4240887 121.623693,59.9089364 120.97177,58.6918245 C120.319846,57.4747125 118.804694,57.0165366 117.587582,57.6684598 C117.386835,57.7759864 117.188875,57.8865772 116.993793,58.0002189 C114.903307,59.2179973 113.069925,60.7132331 111.536368,62.4400095 C110.619525,63.4723687 110.71317,65.0525087 111.745529,65.969351 C112.777888,66.8861933 114.358028,66.7925484 115.274871,65.7601892 Z M132.141477,60.1210773 C134.341167,60.3887391 136.394703,60.9593551 138.110018,61.7775619 C139.356216,62.3719993 140.848346,61.8436429 141.442784,60.5974449 C142.037221,59.3512468 141.508864,57.859117 140.262666,57.2646797 C138.039272,56.2041191 135.463738,55.4884554 132.74543,55.1576873 C131.374828,54.9909101 130.128536,55.9668033 129.961759,57.3374056 C129.794982,58.7080079 130.770875,59.9543002 132.141477,60.1210773 Z M142.599529,70.06754 C142.238629,71.2023638 141.604075,72.4271092 140.676454,73.7296459 C140.330978,74.2127816 139.969503,74.6406666 139.566787,75.0445372 C138.591875,76.0222447 138.594141,77.6051555 139.571848,78.5800675 C140.549556,79.5549795 142.132467,79.5527133 143.107379,78.5750059 C143.703338,77.9773376 144.240718,77.3412303 144.746417,76.6340182 C145.965188,74.9226659 146.83797,73.2381193 147.364377,71.5828686 C147.782824,70.2670921 147.055394,68.8612266 145.739617,68.4427802 C144.423841,68.0243337 143.017975,68.7517635 142.599529,70.06754 Z M128.218055,79.461119 C126.205615,79.6708496 123.986567,79.7370465 121.56247,79.6577046 C120.182497,79.6125374 119.027193,80.6946113 118.982025,82.0745842 C118.936858,83.4545571 120.018932,84.6098614 121.398905,84.6550286 C124.041865,84.741534 126.487155,84.668588 128.736334,84.4341852 C130.109608,84.2910667 131.106846,83.0617874 130.963728,81.688513 C130.820609,80.3152387 129.59133,79.3180004 128.218055,79.461119 Z M108.037418,78.0944715 C105.884159,77.704651 103.634586,77.2433934 101.288926,76.7106298 C99.9425059,76.4048211 98.60311,77.248403 98.2973012,78.5948228 C97.9914925,79.9412426 98.8350744,81.2806385 100.181494,81.5864473 C102.597481,82.1351838 104.919143,82.6112229 107.146709,83.0144957 C108.505337,83.2604581 109.806113,82.358465 110.052076,80.9998378 C110.298038,79.6412107 109.396045,78.3404338 108.037418,78.0944715 Z M87.9582757,73.2170707 C85.80581,72.5871652 83.5921843,71.9113378 81.3174515,71.1895845 C80.0013975,70.7720117 78.5960153,71.5003747 78.1784425,72.8164287 C77.7608697,74.1324828 78.4892327,75.537865 79.8052868,75.9554378 C82.1153107,76.6883887 84.3648492,77.3751804 86.5539553,78.0158085 C87.8790901,78.4036008 89.267692,77.6437346 89.6554844,76.3185998 C90.0432767,74.9934649 89.2834105,73.6048631 87.9582757,73.2170707 Z"/>
    </g>
    <g transform="translate(48.5 .91)">
      <g transform="translate(9.697)">
        <path fill="#BFE8E0" stroke="#BFE8E0" stroke-width="2" d="M54.6274932,154.247332 C43.2805954,138.015062 37.6034052,119.875213 37.6034052,99.8551676 C37.6034052,69.561984 45.2792714,45.0359335 55.4470971,45.0359335 C65.6149229,45.0359335 73.290789,69.561984 73.290789,99.8551676 C73.290789,119.875213 67.6135989,138.015062 56.2667011,154.247332 L55.4470971,155.419814 L54.6274932,154.247332 Z" transform="rotate(96 55.447 99.855)"/>
        <path fill="#BFE8E0" d="M63.5085135,104.982338 C76.3434527,90.7469431 82.7609224,74.8491205 82.7609224,57.2888707 C82.7609224,39.7286208 76.3434527,23.8307982 63.5085135,9.59540304 C50.6735742,23.8307982 44.2561045,39.7286208 44.2561045,57.2888707 C44.2561045,74.8491205 50.6735742,90.7469431 63.5085135,104.982338 Z" transform="scale(-1 1) rotate(31 0 -171.715)"/>
        <path fill="#5BB4B0" fill-rule="nonzero" d="M60.8252283,7.17609524 L63.5085135,4.20002934 L66.1917987,7.17609524 C79.6113295,22.0598684 86.3738256,38.8124157 86.3738256,57.2888707 C86.3738256,75.7653257 79.6113295,92.517873 66.1917987,107.401646 L63.5085135,110.377712 L60.8252283,107.401646 C47.4056974,92.517873 40.6432013,75.7653257 40.6432013,57.2888707 C40.6432013,38.8124157 47.4056974,22.0598684 60.8252283,7.17609524 Z M63.0507221,15.6982205 C52.9030452,28.3074866 47.8690077,42.1345885 47.8690077,57.2888707 C47.8690077,72.6693362 53.0544364,86.6827084 63.5085135,99.4433013 C73.9625905,86.6827084 79.1480192,72.6693362 79.1480192,57.2888707 C79.1480192,42.1345885 74.1139817,28.3074866 63.9663048,15.6982205 L63.5085135,15.13444 L63.0507221,15.6982205 Z" transform="scale(-1 1) rotate(31 0 -171.715)"/>
        <path fill="#FFF" fill-rule="nonzero" d="M63.5085135,9.59540304 C76.3434527,23.8307982 82.7609224,39.7286208 82.7609224,57.2888707 C82.7609224,74.8491205 76.3434527,90.7469431 63.5085135,104.982338 C50.6735742,90.7469431 44.2561045,74.8491205 44.2561045,57.2888707 C44.2561045,39.7286208 50.6735742,23.8307982 63.5085135,9.59540304 Z M63.0507221,15.6982205 C52.9030452,28.3074866 47.8690077,42.1345885 47.8690077,57.2888707 C47.8690077,72.6693362 53.0544364,86.6827084 63.5085135,99.4433013 C73.9625905,86.6827084 79.1480192,72.6693362 79.1480192,57.2888707 C79.1480192,42.1345885 74.1139817,28.3074866 63.9663048,15.6982205 L63.5085135,15.13444 L63.0507221,15.6982205 Z" transform="scale(-1 1) rotate(31 0 -171.715)"/>
        <path fill="#BFE8E0" d="M91.3711562,90.8436507 C101.289064,78.4333062 106.248018,64.573666 106.248018,49.2647302 C106.248018,33.9557944 101.289064,20.0961543 91.3711562,7.68580974 C81.4532486,20.0961543 76.4942947,33.9557944 76.4942947,49.2647302 C76.4942947,64.573666 81.4532486,78.4333062 91.3711562,90.8436507 Z" transform="rotate(39 91.371 49.265)"/>
        <path fill="#BFE8E0" d="M111.373573,118.304225 C122.749996,104.068829 128.438208,88.1710068 128.438208,70.6107569 C128.438208,53.0505071 122.749996,37.1526845 111.373573,22.9172893 C99.9971491,37.1526845 94.3089373,53.0505071 94.3089373,70.6107569 C94.3089373,88.1710068 99.9971491,104.068829 111.373573,118.304225 Z" transform="rotate(42 111.374 70.61)"/>
        <path fill="#5BB4B0" fill-rule="nonzero" d="M108.551219,20.6617646 L111.373573,17.130135 L114.195926,20.6617646 C126.079056,35.5312059 132.051111,52.2223326 132.051111,70.6107569 C132.051111,88.9991813 126.079056,105.690308 114.195926,120.559749 L111.373573,124.091379 L108.551219,120.559749 C96.6680886,105.690308 90.6960341,88.9991813 90.6960341,70.6107569 C90.6960341,52.2223326 96.6680886,35.5312059 108.551219,20.6617646 Z M110.949216,29.5120328 C102.249733,41.9676647 97.9218405,55.6375259 97.9218405,70.6107569 C97.9218405,85.8254917 102.390468,99.6944734 111.37357,112.311226 L111.797927,111.709484 C120.497412,99.2538514 124.825304,85.5839892 124.825304,70.6107569 C124.825304,55.6375247 120.497412,41.9676624 111.797925,29.5120327 L111.373573,28.9102851 L110.949216,29.5120328 Z" transform="rotate(42 111.374 70.61)"/>
        <path fill="#FFF" fill-rule="nonzero" d="M111.373573,22.9172893 C122.749996,37.1526845 128.438208,53.0505071 128.438208,70.6107569 C128.438208,88.1710068 122.749996,104.068829 111.373573,118.304225 C99.9971491,104.068829 94.3089373,88.1710068 94.3089373,70.6107569 C94.3089373,53.0505071 99.9971491,37.1526845 111.373573,22.9172893 Z M110.949216,29.5120328 C102.249733,41.9676647 97.9218405,55.6375259 97.9218405,70.6107569 C97.9218405,85.8254917 102.390468,99.6944734 111.37357,112.311226 L111.797927,111.709484 C120.497412,99.2538514 124.825304,85.5839892 124.825304,70.6107569 C124.825304,55.6375247 120.497412,41.9676624 111.797925,29.5120327 L111.373573,28.9102851 L110.949216,29.5120328 Z" transform="rotate(42 111.374 70.61)"/>
        <g transform="translate(41.487 2.86)">
          <path fill="#BFE8E0" stroke="#BFE8E0" stroke-width="4" d="M53.53428,151.96103 C42.0696124,135.560285 36.329796,117.220332 36.329796,96.9959353 C36.329796,66.1331105 44.1403506,41.1767012 55.1734879,41.1767012 C66.2066252,41.1767012 74.0171799,66.1331105 74.0171799,96.9959353 C74.0171799,117.220332 68.2773635,135.560285 56.8126958,151.96103 L55.1734879,154.305994 L53.53428,151.96103 Z" transform="scale(1 -1) rotate(-86 -48.842 0)"/>
          <path fill="#5BB4B0" fill-rule="nonzero" d="M32.937579,0.0197306884 C47.3491019,0.0197306884 57.3321666,25.8733086 57.3321666,57.451868 C57.3321666,78.1505734 50.0834783,96.9228176 35.6734923,113.630731 L32.937579,116.802934 L30.2016656,113.630731 C15.7916796,96.9228176 8.54299128,78.1505734 8.54299128,57.451868 C8.54299128,25.8733086 18.526056,0.0197306884 32.937579,0.0197306884 Z M33.3993859,105.00536 C44.5597816,90.6162207 50.1063602,74.8004156 50.1063602,57.451868 C50.1063602,43.4051603 47.9630189,30.281821 44.2620847,20.6973504 C40.8698643,11.9123695 36.6093534,7.24553714 32.937579,7.24553714 C29.2658046,7.24553714 25.0052936,11.9123695 21.6130732,20.6973504 C17.912139,30.281821 15.7687977,43.4051603 15.7687977,57.451868 C15.7687977,74.8004156 21.3153763,90.6162207 32.475772,105.00536 L32.937579,105.595892 L33.3993859,105.00536 Z" transform="matrix(1 0 0 -1 0 116.823)"/>
          <path fill="#FFF" fill-rule="nonzero" d="M32.937579,3.63263391 C44.4149864,3.63263391 53.7192634,27.7283258 53.7192634,57.451868 C53.7192634,77.2675628 46.7920353,95.2073075 32.937579,111.271102 C19.0831227,95.2073075 12.1558945,77.2675628 12.1558945,57.451868 C12.1558945,27.7283258 21.4601716,3.63263391 32.937579,3.63263391 Z" transform="matrix(1 0 0 -1 0 114.904)"/>
          <g transform="matrix(1 0 0 -1 0 114.904)">
            <use fill="#BFE8E0" stroke="#5BB4B0" stroke-width="8" xlink:href="#no_one_nearby-a"/>
            <path stroke="#FFF" stroke-linejoin="square" stroke-width="4" d="M32.937579,108.16704 C45.4730587,92.9269284 51.7192634,76.0445206 51.7192634,57.451868 C51.7192634,28.7552103 42.7907438,5.63263391 32.937579,5.63263391 C23.0844141,5.63263391 14.1558945,28.7552103 14.1558945,57.451868 C14.1558945,76.0445206 20.4020992,92.9269284 32.937579,108.16704 Z"/>
          </g>
        </g>
        <path fill="#BFE8E0" d="M43.7408897,97.6424532 C56.575829,83.407058 62.9932987,67.5092355 62.9932987,49.9489856 C62.9932987,32.3887357 56.575829,16.4909132 43.7408897,2.25551797 C30.9059504,16.4909132 24.4884808,32.3887357 24.4884808,49.9489856 C24.4884808,67.5092355 30.9059504,83.407058 43.7408897,97.6424532 Z" transform="scale(-1 1) rotate(36 -31.81 -74.387)"/>
      </g>
      <path fill="#5BB4B0" fill-rule="nonzero" d="M57.739797,37.4222813 L60.5062524,34.1287731 L63.2727078,37.4222813 C76.6460809,53.34349 83.3715645,71.2271624 83.3715645,90.9399326 C83.3715645,110.652703 76.6460809,128.536375 63.2727078,144.457584 L60.5062524,147.751092 L57.739797,144.457584 C44.3664239,128.536375 37.6409402,110.652703 37.6409402,90.9399326 C37.6409402,71.2271624 44.3664239,53.34349 57.739797,37.4222813 Z M60.0487811,46.1338618 C49.9080375,59.7002602 44.8667467,74.602295 44.8667467,90.9399326 C44.8667467,107.521416 50.0596468,122.624122 60.5062524,136.352562 C70.9528579,122.624122 76.1457581,107.521416 76.1457581,90.9399326 C76.1457581,74.602295 71.1044672,59.7002602 60.9637237,46.1338618 L60.5062524,45.5273034 L60.0487811,46.1338618 Z" transform="scale(-1 1) rotate(59 0 -16.005)"/>
      <path fill="#BFE8E0" d="M60.5062524,142.133838 C73.3411917,126.853643 79.7586613,109.789008 79.7586613,90.9399326 C79.7586613,72.0908571 73.3411917,55.0262219 60.5062524,39.746027 C47.6713131,55.0262219 41.2538434,72.0908571 41.2538434,90.9399326 C41.2538434,109.789008 47.6713131,126.853643 60.5062524,142.133838 Z" transform="scale(-1 1) rotate(59 0 -16.005)"/>
      <path fill="#FFF" fill-rule="nonzero" d="M60.5062524,39.746027 C73.3411917,55.0262219 79.7586613,72.0908571 79.7586613,90.9399326 C79.7586613,109.789008 73.3411917,126.853643 60.5062524,142.133838 C47.6713131,126.853643 41.2538434,109.789008 41.2538434,90.9399326 C41.2538434,72.0908571 47.6713131,55.0262219 60.5062524,39.746027 Z M60.0487811,46.1338618 C49.9080375,59.7002602 44.8667467,74.602295 44.8667467,90.9399326 C44.8667467,107.521416 50.0596468,122.624122 60.5062524,136.352562 C70.9528579,122.624122 76.1457581,107.521416 76.1457581,90.9399326 C76.1457581,74.602295 71.1044672,59.7002602 60.9637237,46.1338618 L60.5062524,45.5273034 L60.0487811,46.1338618 Z" transform="scale(-1 1) rotate(59 0 -16.005)"/>
    </g>
    <path fill="#A87369" fill-opacity=".74" fill-rule="nonzero" d="M183.947917,107.909836 C194.934472,107.909836 204.207055,115.177291 211.736606,129.366295 L213.533544,132.807062 L148.477394,132.807062 L150.945052,129.589849 C161.971788,115.213722 172.952111,107.909836 183.947917,107.909836 Z M206.556969,128.302336 C200.029681,117.283899 192.5009,111.909836 183.947917,111.909836 C175.217581,111.909836 166.11482,117.482708 156.687359,128.807062 L206.852974,128.807062 L206.556969,128.302336 Z"/>
    <path fill="#A87369" fill-opacity=".744" d="M112.712834,129.999693 C129.789927,113.939788 146.525477,105.909836 162.919486,105.909836 C179.313494,105.909836 193.31671,113.939788 204.929132,129.999693 L112.712834,129.999693 Z"/>
  </g>
</svg>
