<svg xmlns="http://www.w3.org/2000/svg" xmlns:xlink="http://www.w3.org/1999/xlink" width="249" height="241" viewBox="0 0 249 241">
  <defs>
    <path id="thank_you_pointy-a" d="M43.0447347,130.240389 C70.9256377,130.240389 81.1676021,102.289366 81.1676021,67.8100326 C81.1676021,33.3306989 73.2016298,4 43.0447347,4 C12.8878396,4 4.92186736,33.3306989 4.92186736,67.8100326 C4.92186736,102.289366 15.1638317,130.240389 43.0447347,130.240389 Z"/>
  </defs>
  <g fill="none" fill-rule="evenodd" transform="translate(-1 1.526)">
    <g transform="translate(82.417 74.697)">
      <g transform="translate(0 29.882)">
        <path fill="#5BB4B0" fill-rule="nonzero" d="M43.0447347,0 C58.8929974,0 70.1971221,7.45315522 77.0000959,21.2012547 C82.668823,32.6571603 85.1676021,48.2454759 85.1676021,67.8100326 C85.1676021,108.611517 71.4530947,134.240389 43.0447347,134.240389 C14.6363748,134.240389 0.921867357,108.611517 0.921867357,67.8100326 C0.921867357,48.2454759 3.42064639,32.6571603 9.08937355,21.2012547 C15.8923473,7.45315522 27.196472,0 43.0447347,0 Z M43.0447347,8 C19.1364044,8 8.92186736,28.6425127 8.92186736,67.8100326 C8.92186736,104.778652 20.4064595,126.240389 43.0447347,126.240389 C65.6830099,126.240389 77.1676021,104.778652 77.1676021,67.8100326 C77.1676021,28.6425127 66.953065,8 43.0447347,8 Z"/>
        <mask id="thank_you_pointy-b" fill="#fff">
          <use xlink:href="#thank_you_pointy-a"/>
        </mask>
        <use fill="#BFE8E0" xlink:href="#thank_you_pointy-a"/>
        <path fill="#FFF" fill-rule="nonzero" d="M43.0447347,4 C73.2016298,4 81.1676021,33.3306989 81.1676021,67.8100326 C81.1676021,102.289366 70.9256377,130.240389 43.0447347,130.240389 C15.1638317,130.240389 4.92186736,102.289366 4.92186736,67.8100326 C4.92186736,33.3306989 12.8878396,4 43.0447347,4 Z M43.0447347,8 C19.1364044,8 8.92186736,28.6425127 8.92186736,67.8100326 C8.92186736,104.778652 20.4064595,126.240389 43.0447347,126.240389 C65.6830099,126.240389 77.1676021,104.778652 77.1676021,67.8100326 C77.1676021,28.6425127 66.953065,8 43.0447347,8 Z" mask="url(#thank_you_pointy-b)"/>
        <g fill="#FFF" fill-rule="nonzero" mask="url(#thank_you_pointy-b)">
          <g transform="translate(12.657 20.111)">
            <polygon points="19.314 3.928 20.82 5.245 17.382 9.173 20.82 13.102 19.314 14.419 16.053 10.691 12.793 14.419 11.288 13.102 14.724 9.173 11.288 5.245 12.793 3.928 16.053 7.655"/>
            <polygon points="15.301 73.876 16.806 75.193 13.369 79.121 16.806 83.05 15.301 84.367 12.04 80.639 8.779 84.367 7.274 83.05 10.711 79.121 7.274 75.193 8.779 73.876 12.04 77.603"/>
            <polygon points="46.262 109.997 47.767 111.314 44.329 115.242 47.767 119.17 46.262 120.487 43 116.76 39.74 120.487 38.235 119.17 41.671 115.241 38.235 111.314 39.74 109.997 43 113.723"/>
            <polygon points="7.274 41.196 8.779 42.513 5.342 46.44 8.779 50.369 7.274 51.686 4.013 47.959 .753 51.686 -.753 50.369 2.685 46.441 -.753 42.513 .753 41.196 4.013 44.922"/>
            <polygon points="44.542 58.852 46.047 60.169 42.609 64.097 46.047 68.025 44.542 69.342 41.28 65.615 38.02 69.342 36.515 68.025 39.951 64.096 36.515 60.169 38.02 58.852 41.28 62.578"/>
            <polygon points="32.501 34.643 34.007 35.96 31.716 38.578 34.007 41.196 32.501 42.513 30.387 40.096 28.273 42.513 26.768 41.196 29.058 38.578 26.768 35.96 28.273 34.643 30.387 37.059"/>
            <polygon points="58.302 79.773 59.807 81.09 57.516 83.708 59.807 86.326 58.302 87.643 56.187 85.226 54.074 87.643 52.568 86.326 54.858 83.708 52.568 81.09 54.074 79.773 56.187 82.189"/>
            <polygon points="36.515 89.357 38.02 90.674 35.729 93.291 38.02 95.909 36.515 97.226 34.4 94.81 32.287 97.226 30.781 95.909 33.071 93.291 30.781 90.674 32.287 89.357 34.4 91.772"/>
            <polygon points="16.878 108.85 18.383 110.167 16.163 112.702 18.383 115.239 16.878 116.556 14.835 114.221 12.793 116.556 11.288 115.239 13.506 112.702 11.288 110.167 12.793 108.85 14.835 111.184" transform="matrix(-1 0 0 1 29.67 0)"/>
            <polygon points="50.275 22.639 51.78 23.956 48.343 27.884 51.78 31.812 50.275 33.129 47.014 29.402 43.753 33.129 42.248 31.812 45.685 27.884 42.248 23.956 43.753 22.639 47.014 26.365"/>
            <polygon points="46.262 -.659 47.767 .659 45.476 3.276 47.767 5.894 46.262 7.211 44.147 4.795 42.033 7.211 40.528 5.894 42.818 3.276 40.528 .659 42.033 -.659 44.147 1.758"/>
          </g>
        </g>
      </g>
      <g fill-rule="nonzero" transform="translate(11.033 .544)">
        <path fill="#FF7043" d="M45.1746277,12.6812277 C45.3700023,11.7734324 44.7364727,10.8903361 43.7595996,10.7087771 C43.1382911,10.5933023 42.4973425,10.7892282 42.0711284,11.2249109 L34.1549426,19.3169597 L32.7547134,7.60602672 C32.6446994,6.68591577 31.7528599,6.02289594 30.7627341,6.12513049 C29.9960624,6.20429249 29.3684101,6.72773447 29.2010722,7.42750675 L26.393028,19.170161 L21.1769504,11.5530809 C20.6421049,10.7720417 19.5271901,10.5418027 18.6867185,11.0388276 C18.1664117,11.3465186 17.8513281,11.8799101 17.8513281,12.4530242 L17.8513281,23.89603 L10.0026736,18.7904736 C9.18653434,18.2595838 8.06180792,18.4440314 7.49051687,19.2024504 C7.15950763,19.6418827 7.07479116,20.2019854 7.26262049,20.7091868 C12.7399528,35.4997971 20.3718074,42.9719707 30.1847226,42.9719707 C40.0640525,42.9719707 48.1048782,36.3418916 54.3045507,23.2036001 C54.7045842,22.3557425 54.2893043,21.3670754 53.376977,20.9953003 C52.9522184,20.8222105 52.4720353,20.8078175 52.0361566,20.9551108 L42.7161112,24.104564 L45.1746277,12.6812277 Z" transform="rotate(2 30.81 24.543)"/>
        <path fill="#FFF" d="M25.2338406,13.6316864 L25.4358848,13.8465109 C25.6329742,14.0676015 25.8149087,14.3074262 25.9790768,14.5654046 L30.4574647,21.6028714 L23.1780705,22.8826515 L25.2338406,13.6316864 Z M25.2338406,13.6316864 L25.5889838,12.0335416 C26.1037316,9.71717662 28.0344511,7.98449483 30.392808,7.72245518 C33.4385315,7.38404146 36.1819167,9.57874963 36.5203304,12.6244731 L36.7445317,14.6422845 L37.5838656,13.7190172 C38.8949417,12.2768334 40.8665622,11.6282853 42.7777677,12.0105264 C45.7827243,12.6115177 47.7315233,15.5347162 47.1305319,18.5396728 L46.414561,22.1195275 L47.7323663,21.6403256 C49.0731887,21.1527538 50.5502975,21.2003975 51.8569127,21.7733615 C54.6633372,23.0040073 55.9407688,26.2766403 54.7101915,29.0832731 C48.8047149,42.5504098 40.6640208,49.7410103 30.3382686,49.7410103 C19.852323,49.7410103 12.0825275,41.6040983 6.87565613,26.4739206 C6.29787349,24.7949942 6.5584702,22.9409549 7.57668915,21.4863563 C9.33403794,18.9758581 12.7938017,18.3653059 15.3043383,20.1226501 L15.7491385,20.4340102 L15.7491385,17.5443697 C15.7491385,15.6472646 16.7183664,13.8816481 18.3188809,12.8631389 C20.4879789,11.4828038 23.2513207,11.7970191 25.0565671,13.4608204 L25.2338406,13.6316864 Z M22.0429879,24.8397048 L15.7491385,28.1166325 L15.7491385,20.4340102 L22.0429879,24.8397048 Z M45.0197139,29.0937629 L39.730419,24.5501246 L46.414561,22.1195275 L45.0197139,29.0937629 Z M37.7225307,23.4442754 L30.7872354,21.1953103 L36.7445317,14.6422845 L37.7225307,23.4442754 Z M30.8345341,11.6979901 C30.1762899,11.7711284 29.637404,12.2547396 29.4937321,12.9012635 L27.0828188,23.7503733 L22.6044309,16.7129066 L22.5183742,16.59088 C22.0334257,15.9685989 21.1455423,15.8055925 20.4663829,16.2377848 C20.019661,16.5220624 19.7491385,17.014866 19.7491385,17.5443697 L19.7491385,28.1166325 L13.010489,23.3995778 L12.8842336,23.3198543 C12.1978101,22.9309689 11.3152597,23.1207159 10.8536168,23.7802057 C10.569421,24.1861998 10.4966856,24.7036822 10.657951,25.1722886 L11.0186748,26.1971438 C15.6936182,39.1825477 22.1264501,45.7410103 30.3382686,45.7410103 C38.820403,45.7410103 45.7240457,39.6154398 51.0469224,27.4768923 C51.3903807,26.6935515 51.0338323,25.7801159 50.2505319,25.4366307 C49.8858453,25.2767119 49.4735726,25.2634142 49.0993386,25.3994993 L41.0973912,28.3092983 L43.2082092,17.7552083 L43.2296484,17.6157405 C43.314606,16.8278358 42.7854253,16.0912736 41.9933031,15.9328491 C41.4598639,15.8261613 40.9095622,16.0071784 40.5436259,16.4097084 L33.7469957,23.8860015 L32.5447955,13.0661992 L32.5229382,12.9267963 C32.365001,12.1502221 31.6374027,11.6087825 30.8345341,11.6979901 Z" transform="rotate(-21 30.876 28.715)"/>
        <path fill="#FFA889" d="M43.2082092,17.7552083 C43.3759528,16.9164906 42.8320208,16.1005926 41.9933031,15.9328491 C41.4598639,15.8261613 40.9095622,16.0071784 40.5436259,16.4097084 L33.7469957,23.8860015 L32.5447955,13.0661992 C32.4503403,12.216103 31.6846303,11.603535 30.8345341,11.6979901 C30.1762899,11.7711284 29.637404,12.2547396 29.4937321,12.9012635 L27.0828188,23.7503733 L22.6044309,16.7129066 C22.1452265,15.9912997 21.1879898,15.7785804 20.4663829,16.2377848 C20.019661,16.5220624 19.7491385,17.014866 19.7491385,17.5443697 L19.7491385,28.1166325 L13.010489,23.3995778 C12.3097731,22.9090855 11.3441124,23.0794978 10.8536168,23.7802057 C10.569421,24.1861998 10.4966856,24.7036822 10.657951,25.1722886 C15.3606453,38.8374236 21.9131561,45.7410103 30.3382686,45.7410103 C38.820403,45.7410103 45.7240457,39.6154398 51.0469224,27.4768923 C51.3903807,26.6935515 51.0338323,25.7801159 50.2505319,25.4366307 C49.8858453,25.2767119 49.4735726,25.2634142 49.0993386,25.3994993 L41.0973912,28.3092983 L43.2082092,17.7552083 Z" transform="rotate(-21 30.876 28.715)"/>
      </g>
    </g>
    <g transform="translate(.672 .2)">
      <path fill="#FFA889" fill-rule="nonzero" d="M60.8788533,88.1172575 L61.144947,88.2588123 C61.9456988,88.6927111 61.8939319,88.7734131 61.2822473,89.290161 C60.197528,90.2065262 57.9664121,91.0224433 55.4881548,91.3480574 L55.0102186,91.4044635 L54.8722393,91.4185658 C56.5150835,88.4169188 58.8425725,87.0461506 60.8788533,88.1172575 Z M43.7025363,83.8005683 C43.1967551,69.3168899 59.6066452,48.6126903 71.0700289,48.2123801 L70.9653304,45.2142076 C57.7292318,45.6764224 40.144167,67.8633286 40.7043638,83.9052668 C40.9207079,90.100552 44.9257935,93.576861 50.546733,94.3467652 C50.453256,94.704117 50.3675878,95.0681704 50.2901123,95.4383488 C48.6050367,103.48965 51.2133018,111.59409 58.1482771,115.861767 L59.7205694,113.306792 C53.9726487,109.76961 51.7809725,102.959601 53.2264901,96.0529102 C53.3390782,95.5149636 53.4693578,94.9977501 53.6153339,94.5029278 C54.2262975,94.48582 54.8496087,94.4417382 55.4831027,94.370695 C58.636774,94.0170262 61.5691829,92.9749853 63.2182584,91.5818549 C65.5226437,89.6351223 65.2240405,87.0131569 62.2754596,85.4621698 C58.0903783,83.2607694 53.9672425,86.0407887 51.6588711,91.1687814 L51.5369544,91.4457265 C46.9293545,91.0087777 43.8651086,88.4560298 43.7025363,83.8005683 Z" transform="rotate(2 55.88 80.538)"/>
      <path fill="#5BB4B0" fill-rule="nonzero" d="M241.744714,53.3923762 C245.564707,53.3923762 248.661424,56.4890925 248.661424,60.3090857 C248.661424,64.1290789 245.564707,67.2257953 241.744714,67.2257953 C237.924721,67.2257953 234.828005,64.1290789 234.828005,60.3090857 C234.828005,56.4890925 237.924721,53.3923762 241.744714,53.3923762 Z M241.744714,56.3923762 C239.581575,56.3923762 237.828005,58.1459468 237.828005,60.3090857 C237.828005,62.4722247 239.581575,64.2257953 241.744714,64.2257953 C243.907853,64.2257953 245.661424,62.4722247 245.661424,60.3090857 C245.661424,58.1459468 243.907853,56.3923762 241.744714,56.3923762 Z"/>
      <circle cx="225.662" cy="80.772" r="4.213" fill="#FFD469"/>
      <g fill-rule="nonzero" transform="translate(41.015)">
        <polygon fill="#5BB4B0" points="-.867 1.224 28.022 21.687 29.756 19.239 .867 -1.224" transform="matrix(-1 0 0 1 28.89 0)"/>
        <polygon fill="#FF895F" fill-opacity=".585" points="-.867 1.224 28.022 21.687 29.756 19.239 .867 -1.224"/>
      </g>
      <polygon fill="#FFD469" points="11.508 117.182 3.875 120.392 7.084 112.758 3.875 105.125 11.508 108.334 19.142 105.125 15.932 112.758 19.142 120.392" transform="rotate(-46 11.508 112.758)"/>
    </g>
    <g fill-rule="nonzero" transform="translate(82.886 19.459)">
      <polygon fill="#FDB505" points="137.223 0 137.223 42.13 120.371 42.129 120.371 39.722 134.816 39.723 134.816 2.407 2.407 2.407 2.407 40.519 16.813 54.542 30.673 39.723 103.593 39.722 103.593 42.129 31.92 42.13 16.891 58.607 0 41.334 0 0"/>
      <g fill="#FF7043" transform="translate(18.958 13.24)">
        <path d="M9.6297059 17.6705103L8.23339854 16.3993891C3.2741 11.9023165 0 8.92673737 0 5.29633824 0 2.32075912 2.33038883-8.2600593e-14 5.29633824-8.2600593e-14 6.97190707-8.2600593e-14 8.58006795.780006178 9.6297059 2.00297883 10.6793438.780006178 12.2875047-8.2600593e-14 13.9630736-8.2600593e-14 16.929023-8.2600593e-14 19.2594118 2.32075912 19.2594118 5.29633824 19.2594118 8.92673737 15.9853118 11.9023165 11.0260133 16.3993891L9.6297059 17.6705103zM49.3522427 17.6705103L47.9559354 16.3993891C42.9966368 11.9023165 39.7225368 8.92673737 39.7225368 5.29633824 39.7225368 2.32075912 42.0529257-8.2600593e-14 45.0188751-8.2600593e-14 46.6944439-8.2600593e-14 48.3026048.780006178 49.3522427 2.00297883 50.4018807.780006178 52.0100415-8.2600593e-14 53.6856104-8.2600593e-14 56.6515598-8.2600593e-14 58.9819486 2.32075912 58.9819486 5.29633824 58.9819486 8.92673737 55.7078486 11.9023165 50.7485501 16.3993891L49.3522427 17.6705103zM89.0747795 17.6705103L87.6784722 16.3993891C82.7191737 11.9023165 79.4450736 8.92673737 79.4450736 5.29633824 79.4450736 2.32075912 81.7754625-8.2600593e-14 84.7414119-8.2600593e-14 86.4169807-8.2600593e-14 88.0251416.780006178 89.0747795 2.00297883 90.1244175.780006178 91.7325784-8.2600593e-14 93.4081472-8.2600593e-14 96.3740966-8.2600593e-14 98.7044854 2.32075912 98.7044854 5.29633824 98.7044854 8.92673737 95.4303854 11.9023165 90.4710869 16.3993891L89.0747795 17.6705103z"/>
      </g>
    </g>
  </g>
</svg>
