<svg xmlns="http://www.w3.org/2000/svg" xmlns:xlink="http://www.w3.org/1999/xlink" width="249" height="230" viewBox="0 0 249 230">
  <defs>
    <path id="thank_you_aloe-a" d="M36.4666053,123.193006 C51.8054676,105.40809 59.4748988,85.5462303 59.4748988,63.6074253 C59.4748988,30.6992178 49.1737349,4.02184469 36.4666053,4.02184469 C23.7594757,4.02184469 13.4583118,30.6992178 13.4583118,63.6074253 C13.4583118,85.5462303 21.1277429,105.40809 36.4666053,123.193006 Z"/>
  </defs>
  <g fill="none" fill-rule="evenodd" transform="translate(-1 1)">
    <g transform="translate(29.556 93.09)">
      <g transform="translate(10.736)">
        <path fill="#BFE8E0" stroke="#BFE8E0" stroke-width="2" d="M60.5682536,170.712447 C48.0182349,152.759056 41.7394843,132.697091 41.7394843,110.553936 C41.7394843,77.0760867 50.2233338,49.9683549 61.3878575,49.9683549 C72.5523812,49.9683549 81.0362307,77.0760867 81.0362307,110.553936 C81.0362307,132.697091 74.7574801,152.759056 62.2074615,170.712447 L61.3878575,171.884929 L60.5682536,170.712447 Z" transform="rotate(96 61.388 110.554)"/>
        <path fill="#BFE8E0" d="M70.312997,116.230446 C84.5231084,100.46983 91.6281641,82.8686692 91.6281641,63.4269639 C91.6281641,43.9852587 84.5231084,26.384098 70.312997,10.6234819 C56.1028857,26.384098 48.99783,43.9852587 48.99783,63.4269639 C48.99783,82.8686692 56.1028857,100.46983 70.312997,116.230446 Z" transform="scale(-1 1) rotate(31 0 -190.114)"/>
        <path fill="#5BB4B0" fill-rule="nonzero" d="M67.342217,7.94496259 L70.312997,4.65003248 L73.2837771,7.94496259 C88.1411148,24.4234257 95.6281641,42.9708888 95.6281641,63.4269639 C95.6281641,83.8830391 88.1411148,102.430502 73.2837771,118.908965 L70.312997,122.203895 L67.342217,118.908965 C52.4848793,102.430502 44.99783,83.8830391 44.99783,63.4269639 C44.99783,42.9708888 52.4848793,24.4234257 67.342217,7.94496259 Z M69.8061567,17.3801727 C58.5712287,31.3404316 52.99783,46.6490087 52.99783,63.4269639 C52.99783,80.4553365 58.7388403,95.9701414 70.312997,110.097941 C81.8871537,95.9701414 87.6281641,80.4553365 87.6281641,63.4269639 C87.6281641,46.6490087 82.0547654,31.3404316 70.8198374,17.3801727 L70.312997,16.7559872 L69.8061567,17.3801727 Z" transform="scale(-1 1) rotate(31 0 -190.114)"/>
        <path fill="#FFF" fill-rule="nonzero" d="M70.312997,10.6234819 C84.5231084,26.384098 91.6281641,43.9852587 91.6281641,63.4269639 C91.6281641,82.8686692 84.5231084,100.46983 70.312997,116.230446 C56.1028857,100.46983 48.99783,82.8686692 48.99783,63.4269639 C48.99783,43.9852587 56.1028857,26.384098 70.312997,10.6234819 Z M69.8061567,17.3801727 C58.5712287,31.3404316 52.99783,46.6490087 52.99783,63.4269639 C52.99783,80.4553365 58.7388403,95.9701414 70.312997,110.097941 C81.8871537,95.9701414 87.6281641,80.4553365 87.6281641,63.4269639 C87.6281641,46.6490087 82.0547654,31.3404316 70.8198374,17.3801727 L70.312997,16.7559872 L69.8061567,17.3801727 Z" transform="scale(-1 1) rotate(31 0 -190.114)"/>
        <path fill="#BFE8E0" d="M101.160923,100.576899 C112.141464,86.8368747 117.631734,71.4922731 117.631734,54.5430942 C117.631734,37.5939153 112.141464,22.2493137 101.160923,8.50928936 C90.1803823,22.2493137 84.690112,37.5939153 84.690112,54.5430942 C84.690112,71.4922731 90.1803823,86.8368747 101.160923,100.576899 Z" transform="rotate(39 101.16 54.543)"/>
        <path fill="#BFE8E0" d="M123.306455,130.979677 C135.901781,115.219061 142.199444,97.6179004 142.199444,78.1761952 C142.199444,58.7344899 135.901781,41.1333293 123.306455,25.3727132 C110.711129,41.1333293 104.413466,58.7344899 104.413466,78.1761952 C104.413466,97.6179004 110.711129,115.219061 123.306455,130.979677 Z" transform="rotate(42 123.306 78.176)"/>
        <path fill="#5BB4B0" fill-rule="nonzero" d="M120.181707,22.8755251 L123.306455,18.9655066 L126.431204,22.8755251 C139.587527,39.3381208 146.199444,57.8175825 146.199444,78.1761952 C146.199444,98.5348079 139.587527,117.01427 126.431204,133.476865 L123.306455,137.386884 L120.181707,133.476865 C107.025384,117.01427 100.413466,98.5348079 100.413466,78.1761952 C100.413466,57.8175825 107.025384,39.3381208 120.181707,22.8755251 Z M122.836632,32.6740363 C113.205061,46.4642002 108.413466,61.5986894 108.413466,78.1761952 C108.413466,95.0210801 113.360875,110.376024 123.306453,124.344571 L123.776277,123.678357 C133.407849,109.888193 138.199444,94.7537023 138.199444,78.1761952 C138.199444,61.5986881 133.407849,46.4641977 123.776274,32.6740362 L123.306455,32.0078156 L122.836632,32.6740363 Z" transform="rotate(42 123.306 78.176)"/>
        <path fill="#FFF" fill-rule="nonzero" d="M123.306455,25.3727132 C135.901781,41.1333293 142.199444,58.7344899 142.199444,78.1761952 C142.199444,97.6179004 135.901781,115.219061 123.306455,130.979677 C110.711129,115.219061 104.413466,97.6179004 104.413466,78.1761952 C104.413466,58.7344899 110.711129,41.1333293 123.306455,25.3727132 Z M122.836632,32.6740363 C113.205061,46.4642002 108.413466,61.5986894 108.413466,78.1761952 C108.413466,95.0210801 113.360875,110.376024 123.306453,124.344571 L123.776277,123.678357 C133.407849,109.888193 138.199444,94.7537023 138.199444,78.1761952 C138.199444,61.5986881 133.407849,46.4641977 123.776274,32.6740362 L123.306455,32.0078156 L122.836632,32.6740363 Z" transform="rotate(42 123.306 78.176)"/>
        <g transform="translate(45.932 3.166)">
          <path fill="#BFE8E0" stroke="#BFE8E0" stroke-width="4" d="M59.4457251,168.119799 C46.7779367,149.997933 40.4365598,129.735864 40.4365598,107.388357 C40.4365598,73.3408669 49.0550978,45.8027764 61.0849331,45.8027764 C73.1147683,45.8027764 81.7333063,73.3408669 81.7333063,107.388357 C81.7333063,129.735864 75.3919295,149.997933 62.724141,168.119799 L61.0849331,170.464762 L59.4457251,168.119799 Z" transform="scale(1 -1) rotate(-86 -54.075 0)"/>
          <path fill="#5BB4B0" fill-rule="nonzero" d="M36.4666053,0.0218446908 C52.4222199,0.0218446908 63.4748988,28.6454489 63.4748988,63.6074253 C63.4748988,86.5238491 55.4495652,107.307405 39.4956522,125.805452 L36.4666053,129.317534 L33.4375584,125.805452 C17.4836453,107.307405 9.45831177,86.5238491 9.45831177,63.6074253 C9.45831177,28.6454489 20.5109906,0.0218446908 36.4666053,0.0218446908 Z M36.9778915,116.255935 C49.3340439,100.325101 55.4748988,82.8147459 55.4748988,63.6074253 C55.4748988,48.0557131 53.1019138,33.5263019 49.0044509,22.9149237 C45.2487784,13.1886948 40.5317841,8.02184469 36.4666053,8.02184469 C32.4014265,8.02184469 27.6844322,13.1886948 23.9287597,22.9149237 C19.8312968,33.5263019 17.4583118,48.0557131 17.4583118,63.6074253 C17.4583118,82.8147459 23.5991666,100.325101 35.9553191,116.255935 L36.4666053,116.909738 L36.9778915,116.255935 Z" transform="matrix(1 0 0 -1 0 129.34)"/>
          <path fill="#FFF" fill-rule="nonzero" d="M36.4666053,4.02184469 C49.1737349,4.02184469 59.4748988,30.6992178 59.4748988,63.6074253 C59.4748988,85.5462303 51.8054676,105.40809 36.4666053,123.193006 C21.1277429,105.40809 13.4583118,85.5462303 13.4583118,63.6074253 C13.4583118,30.6992178 23.7594757,4.02184469 36.4666053,4.02184469 Z" transform="matrix(1 0 0 -1 0 127.215)"/>
          <g transform="matrix(1 0 0 -1 0 127.215)">
            <use fill="#BFE8E0" stroke="#5BB4B0" stroke-width="8" xlink:href="#thank_you_aloe-a"/>
            <path stroke="#FFF" stroke-linejoin="square" stroke-width="4" d="M36.4666053,120.093206 C50.4866627,103.130113 57.4748988,84.3244403 57.4748988,63.6074253 C57.4748988,31.7261023 47.5494924,6.02184469 36.4666053,6.02184469 C25.3837182,6.02184469 15.4583118,31.7261023 15.4583118,63.6074253 C15.4583118,84.3244403 22.4465479,103.130113 36.4666053,120.093206 Z"/>
          </g>
        </g>
        <path fill="#BFE8E0" d="M48.4274136,108.104145 C62.637525,92.3435285 69.7425807,74.7423678 69.7425807,55.3006626 C69.7425807,35.8589574 62.637525,18.2577967 48.4274136,2.4971806 C34.2173022,18.2577967 27.1122466,35.8589574 27.1122466,55.3006626 C27.1122466,74.7423678 34.2173022,92.3435285 48.4274136,108.104145 Z" transform="scale(-1 1) rotate(36 -35.219 -82.357)"/>
      </g>
      <path fill="#5BB4B0" fill-rule="nonzero" d="M63.9262038,41.4318114 L66.9890651,37.7854274 L70.0519265,41.4318114 C84.858161,59.0588639 92.3042322,78.8586441 92.3042322,100.683497 C92.3042322,122.50835 84.858161,142.30813 70.0519265,159.935182 L66.9890651,163.581566 L63.9262038,159.935182 C49.1199693,142.30813 41.6738981,122.50835 41.6738981,100.683497 C41.6738981,78.8586441 49.1199693,59.0588639 63.9262038,41.4318114 Z M66.482579,51.0767756 C55.2553272,66.0967166 49.6738981,82.595398 49.6738981,100.683497 C49.6738981,119.041567 55.4231804,135.762421 66.9890651,150.961765 C78.5549498,135.762421 84.3042322,119.041567 84.3042322,100.683497 C84.3042322,82.595398 78.722803,66.0967166 67.4955512,51.0767756 L66.9890651,50.4052288 L66.482579,51.0767756 Z" transform="scale(-1 1) rotate(59 0 -17.72)"/>
      <path fill="#BFE8E0" d="M66.9890651,157.362464 C81.1991765,140.445105 88.3042322,121.552116 88.3042322,100.683497 C88.3042322,79.8148775 81.1991765,60.9218885 66.9890651,44.0045299 C52.7789538,60.9218885 45.6738981,79.8148775 45.6738981,100.683497 C45.6738981,121.552116 52.7789538,140.445105 66.9890651,157.362464 Z" transform="scale(-1 1) rotate(59 0 -17.72)"/>
      <path fill="#FFF" fill-rule="nonzero" d="M66.9890651,44.0045299 C81.1991765,60.9218885 88.3042322,79.8148775 88.3042322,100.683497 C88.3042322,121.552116 81.1991765,140.445105 66.9890651,157.362464 C52.7789538,140.445105 45.6738981,121.552116 45.6738981,100.683497 C45.6738981,79.8148775 52.7789538,60.9218885 66.9890651,44.0045299 Z M66.482579,51.0767756 C55.2553272,66.0967166 49.6738981,82.595398 49.6738981,100.683497 C49.6738981,119.041567 55.4231804,135.762421 66.9890651,150.961765 C78.5549498,135.762421 84.3042322,119.041567 84.3042322,100.683497 C84.3042322,82.595398 78.722803,66.0967166 67.4955512,51.0767756 L66.9890651,50.4052288 L66.482579,51.0767756 Z" transform="scale(-1 1) rotate(59 0 -17.72)"/>
    </g>
    <g transform="translate(.672 .725)">
      <path fill="#FFA889" fill-rule="nonzero" d="M60.8788533,88.1172575 L61.144947,88.2588123 C61.9456988,88.6927111 61.8939319,88.7734131 61.2822473,89.290161 C60.197528,90.2065262 57.9664121,91.0224433 55.4881548,91.3480574 L55.0102186,91.4044635 L54.8722393,91.4185658 C56.5150835,88.4169188 58.8425725,87.0461506 60.8788533,88.1172575 Z M43.7025363,83.8005683 C43.1967551,69.3168899 59.6066452,48.6126903 71.0700289,48.2123801 L70.9653304,45.2142076 C57.7292318,45.6764224 40.144167,67.8633286 40.7043638,83.9052668 C40.9207079,90.100552 44.9257935,93.576861 50.546733,94.3467652 C50.453256,94.704117 50.3675878,95.0681704 50.2901123,95.4383488 C48.6050367,103.48965 51.2133018,111.59409 58.1482771,115.861767 L59.7205694,113.306792 C53.9726487,109.76961 51.7809725,102.959601 53.2264901,96.0529102 C53.3390782,95.5149636 53.4693578,94.9977501 53.6153339,94.5029278 C54.2262975,94.48582 54.8496087,94.4417382 55.4831027,94.370695 C58.636774,94.0170262 61.5691829,92.9749853 63.2182584,91.5818549 C65.5226437,89.6351223 65.2240405,87.0131569 62.2754596,85.4621698 C58.0903783,83.2607694 53.9672425,86.0407887 51.6588711,91.1687814 L51.5369544,91.4457265 C46.9293545,91.0087777 43.8651086,88.4560298 43.7025363,83.8005683 Z" transform="rotate(2 55.88 80.538)"/>
      <path fill="#5BB4B0" fill-rule="nonzero" d="M241.744714,53.3923762 C245.564707,53.3923762 248.661424,56.4890925 248.661424,60.3090857 C248.661424,64.1290789 245.564707,67.2257953 241.744714,67.2257953 C237.924721,67.2257953 234.828005,64.1290789 234.828005,60.3090857 C234.828005,56.4890925 237.924721,53.3923762 241.744714,53.3923762 Z M241.744714,56.3923762 C239.581575,56.3923762 237.828005,58.1459468 237.828005,60.3090857 C237.828005,62.4722247 239.581575,64.2257953 241.744714,64.2257953 C243.907853,64.2257953 245.661424,62.4722247 245.661424,60.3090857 C245.661424,58.1459468 243.907853,56.3923762 241.744714,56.3923762 Z"/>
      <circle cx="225.662" cy="80.772" r="4.213" fill="#FFD469"/>
      <g fill-rule="nonzero" transform="translate(41.015)">
        <polygon fill="#5BB4B0" points="-.867 1.224 28.022 21.687 29.756 19.239 .867 -1.224" transform="matrix(-1 0 0 1 28.89 0)"/>
        <polygon fill="#FF895F" fill-opacity=".585" points="-.867 1.224 28.022 21.687 29.756 19.239 .867 -1.224"/>
      </g>
      <polygon fill="#FFD469" points="11.508 117.182 3.875 120.392 7.084 112.758 3.875 105.125 11.508 108.334 19.142 105.125 15.932 112.758 19.142 120.392" transform="rotate(-46 11.508 112.758)"/>
    </g>
    <g fill-rule="nonzero" transform="translate(82.886 19.985)">
      <polygon fill="#FDB505" points="137.223 0 137.223 42.13 120.371 42.129 120.371 39.722 134.816 39.723 134.816 2.407 2.407 2.407 2.407 40.519 16.813 54.542 30.673 39.723 103.593 39.722 103.593 42.129 31.92 42.13 16.891 58.607 0 41.334 0 0"/>
      <g fill="#FF7043" transform="translate(18.958 13.24)">
        <path d="M9.6297059 17.6705103L8.23339854 16.3993891C3.2741 11.9023165 0 8.92673737 0 5.29633824 0 2.32075912 2.33038883-8.2600593e-14 5.29633824-8.2600593e-14 6.97190707-8.2600593e-14 8.58006795.780006178 9.6297059 2.00297883 10.6793438.780006178 12.2875047-8.2600593e-14 13.9630736-8.2600593e-14 16.929023-8.2600593e-14 19.2594118 2.32075912 19.2594118 5.29633824 19.2594118 8.92673737 15.9853118 11.9023165 11.0260133 16.3993891L9.6297059 17.6705103zM49.3522427 17.6705103L47.9559354 16.3993891C42.9966368 11.9023165 39.7225368 8.92673737 39.7225368 5.29633824 39.7225368 2.32075912 42.0529257-8.2600593e-14 45.0188751-8.2600593e-14 46.6944439-8.2600593e-14 48.3026048.780006178 49.3522427 2.00297883 50.4018807.780006178 52.0100415-8.2600593e-14 53.6856104-8.2600593e-14 56.6515598-8.2600593e-14 58.9819486 2.32075912 58.9819486 5.29633824 58.9819486 8.92673737 55.7078486 11.9023165 50.7485501 16.3993891L49.3522427 17.6705103zM89.0747795 17.6705103L87.6784722 16.3993891C82.7191737 11.9023165 79.4450736 8.92673737 79.4450736 5.29633824 79.4450736 2.32075912 81.7754625-8.2600593e-14 84.7414119-8.2600593e-14 86.4169807-8.2600593e-14 88.0251416.780006178 89.0747795 2.00297883 90.1244175.780006178 91.7325784-8.2600593e-14 93.4081472-8.2600593e-14 96.3740966-8.2600593e-14 98.7044854 2.32075912 98.7044854 5.29633824 98.7044854 8.92673737 95.4303854 11.9023165 90.4710869 16.3993891L89.0747795 17.6705103z"/>
      </g>
    </g>
  </g>
</svg>
