<svg xmlns="http://www.w3.org/2000/svg" width="248" height="247" viewBox="0 0 248 247">
  <g fill="none" fill-rule="evenodd">
    <path fill="#FF7043" d="M4.0428317,0 L167.564448,0 C169.773587,1.52910644e-14 171.564448,1.790861 171.564448,4 L171.564448,89.3904124 C171.564448,91.5995514 169.773587,93.3904124 167.564448,93.3904124 C167.563036,93.3904124 167.561624,93.3904117 167.560211,93.3904102 L30.9876829,93.2457535 C30.5022025,93.2452393 30.0206836,93.3331077 29.5666754,93.5050614 L6.46628536,102.254238 C4.40035939,103.036699 2.09128563,101.996245 1.30882476,99.9303188 C1.14244552,99.4910289 1.05474455,99.025866 1.04974151,98.5561505 L0.0430585766,4.04260239 C0.0195299244,1.83358869 1.79121561,0.0237555291 4.00022931,0.000226876924 C4.0144296,7.56267138e-05 4.0286306,1.77896554e-15 4.0428317,0 Z"/>
    <path fill="#FFF" fill-rule="nonzero" d="M41.8082972 17.0519235C38.8412846 15.5824125 36.6078959 14.9883355 35.0050761 15.3364079 32.9710701 15.7781178 32.2054467 17.5405041 32.6550748 19.7424674 33.3292485 23.044097 36.7691153 28.1391759 41.777688 33.326993 43.5198938 35.1315482 45.3420936 36.8541055 47.2281058 38.4790967 46.545071 40.2998865 45.5577677 42.0858613 44.2721515 43.762602 37.617109 52.4423155 27.4201153 52.4675474 18.84812 40.8158337 18.3571982 40.1485352 17.4182752 40.0055536 16.7509766 40.4964753 16.0836781 40.9873971 15.9406965 41.9263201 16.4316182 42.5936187 26.1989062 55.8700658 38.7931632 55.8389021 46.6528917 45.5879995 47.8946437 43.9684679 48.8960782 42.2501696 49.6517567 40.485492 60.8550461 49.3910008 73.9642214 54.8127762 85.848655 53.7388105 107.823242 51.7530236 130.786929 43.0023353 154.73917 27.5115503 155.434795 27.0616644 155.634005 26.1330443 155.184119 25.4374193 154.734233 24.7417943 153.805613 24.5425835 153.109988 24.9924694 129.54258 40.2343692 107.032317 48.8122729 85.5786529 50.7509854 74.4683554 51.7549944 61.9270483 46.4936076 51.1955774 37.8749767L50.6938777 37.4685305C52.8163274 29.4592604 50.0140959 21.1161162 41.8082972 17.0519235zM43.935966 31.2432858L43.2976629 30.5730638 42.648073 29.8714575C38.7116784 25.5570921 36.0747991 21.4948187 35.5944222 19.1422696 35.5140117 18.7484755 35.5111169 18.4733983 35.5464739 18.3280175L35.5633079 18.2730937C35.561709 18.275426 35.561087 18.2788454 35.5731394 18.2788611L35.6417247 18.2680761C36.3974157 18.1039683 38.072908 18.5496461 40.4768106 19.7402582 46.6418995 22.793722 49.131571 28.7864757 48.1691698 34.9276717L48.1132529 35.2627764C46.6769869 33.9795708 45.2816695 32.6371486 43.935966 31.2432858zM19.8161498 69.1972415L151.815177 66.2538669C152.643398 66.2353989 153.299833 65.5490216 153.281745 64.7208004 153.262897 63.8925791 152.576519 63.2361444 151.748298 63.2546125L19.7492711 66.197987C18.9210498 66.2164551 18.2646152 66.9028324 18.2827029 67.7310536 18.3015513 68.5592749 18.9879286 69.2157095 19.8161498 69.1972415z"/>
    <g fill-rule="nonzero" transform="translate(71.579 73.764)">
      <path fill="#6143A5" fill-opacity=".47" d="M171.470598,0 C173.679737,0 175.470598,1.790861 175.470598,4 L175.470598,88.6402741 C175.470598,90.7824695 173.78663,92.531353 171.670238,92.6353788 L171.466489,92.640272 L31.6557395,92.4966451 C31.1837597,92.4961603 30.7154187,92.5792111 30.2723843,92.7419552 L6.45282943,101.491824 C4.37917263,102.253561 2.08063217,101.190039 1.31889562,99.1163824 C1.16171427,98.6884915 1.07883038,98.2368812 1.0738246,97.7810615 L0.044163828,4.04392506 C0.0201509516,1.83491927 1.79123805,0.0245003267 4.00024385,0 L171.470598,0 Z M7.07729364,6.99982235 L8.02675264,93.4563153 L27.8587037,86.1712516 C29.0770484,85.7237052 30.3649861,85.4953155 31.6629305,85.4966488 L168.470598,85.6371916 L168.470598,6.99982235 L7.07729364,6.99982235 Z" transform="matrix(-1 0 0 1 175.515 0)"/>
      <path fill="#9787B8" d="M28.134014 39.8811155L147.358642 39.0044638C148.187047 38.9983726 148.853664 38.32188 148.847614 37.4934753 148.841481 36.6650705 148.164989 35.9984537 147.336584 36.0045449L28.1119558 36.8811966C27.2835511 36.8872878 26.6169343 37.5637804 26.6229841 38.3921852 26.6291167 39.2205899 27.3056093 39.8872067 28.134014 39.8811155zM23.0844977 65.3040142L142.309126 64.4273625C143.137531 64.4212713 143.804147 63.7447787 143.798098 62.9163739 143.791965 62.0879692 143.115472 61.4213524 142.287068 61.4274436L23.0624395 62.3040953C22.2340347 62.3101865 21.5674179 62.9866791 21.5734677 63.8150838 21.5796003 64.6434886 22.256093 65.3101054 23.0844977 65.3040142z"/>
    </g>
    <g transform="matrix(-1 0 0 1 223.972 153.764)">
      <path fill="#FF6868" fill-opacity=".508" d="M4.05443024,0 L192.114198,0 C194.323337,1.52910644e-14 196.114198,1.790861 196.114198,4 L196.114198,80.1292765 C196.117535,82.3384155 194.326674,84.1292765 192.117535,84.1292765 C192.116422,84.1292765 192.115309,84.129276 192.114199,84.1259378 L35.1683375,83.9949386 C34.7798108,83.9946143 34.3933095,84.0508976 34.0210113,84.162015 L6.34175934,92.4232624 C4.22489486,93.0550693 1.99665649,91.8511922 1.36484963,89.7343277 C1.2592319,89.3804563 1.20312819,89.0136632 1.19813715,88.6444002 L0.0547955633,4.05405994 C0.0249390831,1.8451227 1.79143306,0.0302218064 4.0003703,0.000365326314 C4.01838925,0.000121778219 4.03640964,3.31032997e-18 4.05443024,0 Z" transform="matrix(-1 0 0 1 196.114 0)"/>
      <g fill="#FFF" transform="translate(19.057 30.845)">
        <path fill-rule="nonzero" d="M2.00896124,19.4709245 L135.260016,18.6748201 C136.088429,18.6698709 136.755977,17.994298 136.751056,17.1658856 C136.746079,16.3374733 136.070506,15.6699245 135.242094,15.6748463 L1.99103876,16.4709507 C1.16262642,16.4758999 0.495077614,17.1514728 0.499999426,17.9798852 C0.504975923,18.8082975 1.1805489,19.4758463 2.00896124,19.4709245 Z"/>
        <path fill-rule="nonzero" d="M67.3329785,0.635176927 L34.9661558,35.3050449 C34.2123848,36.11245 34.2558639,37.3780334 35.0632691,38.1318043 C35.8706742,38.8855753 37.1362575,38.8420962 37.8900285,38.034691 L70.2568513,3.36482307 C71.0106223,2.55741791 70.9671432,1.29183459 70.159738,0.53806362 C69.3523328,-0.215707349 68.0867495,-0.172228241 67.3329785,0.635176927 Z"/>
        <circle cx="148.21" cy="16.89" r="7.5" stroke="#FFB3B3" stroke-width="4"/>
      </g>
    </g>
  </g>
</svg>
