<svg xmlns="http://www.w3.org/2000/svg" width="221" height="180" viewBox="0 0 221 180">
  <g fill="none" fill-rule="evenodd" transform="translate(.5 .5)">
    <rect width="214.8" height="179" x="4.475" fill="#C2E3E2" rx="6"/>
    <path fill="#FFF" fill-opacity=".64" d="M28.43 7.16C29.5345695 7.16 30.43 8.0554305 30.43 9.16L30.43 26.64C30.43 27.7445695 29.5345695 28.64 28.43 28.64L2 28.64C.8954305 28.64 1.3527075e-16 27.7445695 0 26.64L0 9.16C-1.3527075e-16 8.0554305.8954305 7.16 2 7.16L28.43 7.16zM79.8925 7.16C80.9970695 7.16 81.8925 8.0554305 81.8925 9.16L81.8925 26.64C81.8925 27.7445695 80.9970695 28.64 79.8925 28.64L53.4625 28.64C52.3579305 28.64 51.4625 27.7445695 51.4625 26.64L51.4625 9.16C51.4625 8.0554305 52.3579305 7.16 53.4625 7.16L79.8925 7.16zM131.355 7.16C132.459569 7.16 133.355 8.0554305 133.355 9.16L133.355 26.64C133.355 27.7445695 132.459569 28.64 131.355 28.64L104.925 28.64C103.820431 28.64 102.925 27.7445695 102.925 26.64L102.925 9.16C102.925 8.0554305 103.820431 7.16 104.925 7.16L131.355 7.16zM182.8175 7.16C183.922069 7.16 184.8175 8.0554305 184.8175 9.16L184.8175 26.64C184.8175 27.7445695 183.922069 28.64 182.8175 28.64L156.3875 28.64C155.282931 28.64 154.3875 27.7445695 154.3875 26.64L154.3875 9.16C154.3875 8.0554305 155.282931 7.16 156.3875 7.16L182.8175 7.16zM219.300867 7.16L219.300867 28.64 207.85 28.64C206.745431 28.64 205.85 27.7445695 205.85 26.64L205.85 9.16C205.85 8.0554305 206.745431 7.16 207.85 7.16L219.300867 7.16zM28.43 150.36C29.5345695 150.36 30.43 151.255431 30.43 152.36L30.43 169.84C30.43 170.944569 29.5345695 171.84 28.43 171.84L2 171.84C.8954305 171.84 1.3527075e-16 170.944569 0 169.84L0 152.36C-1.3527075e-16 151.255431.8954305 150.36 2 150.36L28.43 150.36zM79.8925 150.36C80.9970695 150.36 81.8925 151.255431 81.8925 152.36L81.8925 169.84C81.8925 170.944569 80.9970695 171.84 79.8925 171.84L53.4625 171.84C52.3579305 171.84 51.4625 170.944569 51.4625 169.84L51.4625 152.36C51.4625 151.255431 52.3579305 150.36 53.4625 150.36L79.8925 150.36zM131.355 150.36C132.459569 150.36 133.355 151.255431 133.355 152.36L133.355 169.84C133.355 170.944569 132.459569 171.84 131.355 171.84L104.925 171.84C103.820431 171.84 102.925 170.944569 102.925 169.84L102.925 152.36C102.925 151.255431 103.820431 150.36 104.925 150.36L131.355 150.36zM182.8175 150.36C183.922069 150.36 184.8175 151.255431 184.8175 152.36L184.8175 169.84C184.8175 170.944569 183.922069 171.84 182.8175 171.84L156.3875 171.84C155.282931 171.84 154.3875 170.944569 154.3875 169.84L154.3875 152.36C154.3875 151.255431 155.282931 150.36 156.3875 150.36L182.8175 150.36zM219.300867 150.36L219.300867 171.84 207.85 171.84C206.745431 171.84 205.85 170.944569 205.85 169.84L205.85 152.36C205.85 151.255431 206.745431 150.36 207.85 150.36L219.300867 150.36z"/>
    <polygon fill="#5BB4B0" fill-rule="nonzero" points="4.475 39.828 220.17 39.828 220.17 37.142 4.475 37.142"/>
    <circle cx="111.875" cy="89.5" r="35.831" fill="#FFF"/>
    <path fill="#5BB4B0" d="M118.984478,72.9315092 L139.871388,105.86441 C140.167186,106.330802 140.028892,106.94868 139.5625,107.244478 C139.402331,107.346061 139.216576,107.4 139.02691,107.4 L97.25309,107.4 C96.7008053,107.4 96.25309,106.952285 96.25309,106.4 C96.25309,106.210334 96.3070286,106.024579 96.408612,105.86441 L117.295522,72.9315092 C117.59132,72.4651168 118.209198,72.326823 118.67559,72.6226213 C118.800058,72.7015621 118.905537,72.8070411 118.984478,72.9315092 Z" transform="rotate(90 118.14 89.5)"/>
    <polygon fill="#5BB4B0" fill-rule="nonzero" points="3.58 141.857 219.275 141.857 219.275 139.173 3.58 139.173"/>
  </g>
</svg>
