<svg xmlns="http://www.w3.org/2000/svg" width="250" height="200" viewBox="0 0 250 200">
  <g fill="none" fill-rule="evenodd">
    <rect width="240" height="200" x="5" fill="#C2E3E2" rx="6"/>
    <path fill="#FFF" fill-opacity=".64" d="M32 8C33.1045695 8 34 8.8954305 34 10L34 30C34 31.1045695 33.1045695 32 32 32L2 32C.8954305 32 1.3527075e-16 31.1045695 0 30L0 10C-1.3527075e-16 8.8954305.8954305 8 2 8L32 8zM89.5 8C90.6045695 8 91.5 8.8954305 91.5 10L91.5 30C91.5 31.1045695 90.6045695 32 89.5 32L59.5 32C58.3954305 32 57.5 31.1045695 57.5 30L57.5 10C57.5 8.8954305 58.3954305 8 59.5 8L89.5 8zM147 8C148.104569 8 149 8.8954305 149 10L149 30C149 31.1045695 148.104569 32 147 32L117 32C115.895431 32 115 31.1045695 115 30L115 10C115 8.8954305 115.895431 8 117 8L147 8zM204.5 8C205.604569 8 206.5 8.8954305 206.5 10L206.5 30C206.5 31.1045695 205.604569 32 204.5 32L174.5 32C173.395431 32 172.5 31.1045695 172.5 30L172.5 10C172.5 8.8954305 173.395431 8 174.5 8L204.5 8zM262 8C263.104569 8 264 8.8954305 264 10L264 30C264 31.1045695 263.104569 32 262 32L232 32C230.895431 32 230 31.1045695 230 30L230 10C230 8.8954305 230.895431 8 232 8L262 8zM32 168C33.1045695 168 34 168.895431 34 170L34 190C34 191.104569 33.1045695 192 32 192L2 192C.8954305 192 1.3527075e-16 191.104569 0 190L0 170C-1.3527075e-16 168.895431.8954305 168 2 168L32 168zM89.5 168C90.6045695 168 91.5 168.895431 91.5 170L91.5 190C91.5 191.104569 90.6045695 192 89.5 192L59.5 192C58.3954305 192 57.5 191.104569 57.5 190L57.5 170C57.5 168.895431 58.3954305 168 59.5 168L89.5 168zM147 168C148.104569 168 149 168.895431 149 170L149 190C149 191.104569 148.104569 192 147 192L117 192C115.895431 192 115 191.104569 115 190L115 170C115 168.895431 115.895431 168 117 168L147 168zM204.5 168C205.604569 168 206.5 168.895431 206.5 170L206.5 190C206.5 191.104569 205.604569 192 204.5 192L174.5 192C173.395431 192 172.5 191.104569 172.5 190L172.5 170C172.5 168.895431 173.395431 168 174.5 168L204.5 168zM262 168C263.104569 168 264 168.895431 264 170L264 190C264 191.104569 263.104569 192 262 192L232 192C230.895431 192 230 191.104569 230 190L230 170C230 168.895431 230.895431 168 232 168L262 168z"/>
    <polygon fill="#5BB4B0" fill-rule="nonzero" points="5 44.5 246 44.5 246 41.5 5 41.5"/>
    <circle cx="125" cy="100" r="40.035" fill="#FFF"/>
    <path fill="#5BB4B0" d="M132.844478,81.3315092 L156.395138,118.46441 C156.690937,118.930802 156.552643,119.54868 156.08625,119.844478 C155.926081,119.946061 155.740326,120 155.55066,120 L108.44934,120 C107.897055,120 107.44934,119.552285 107.44934,119 C107.44934,118.810334 107.503278,118.624579 107.604862,118.46441 L131.155522,81.3315092 C131.45132,80.8651168 132.069198,80.726823 132.53559,81.0226213 C132.660058,81.1015621 132.765537,81.2070411 132.844478,81.3315092 Z" transform="rotate(90 132 100)"/>
    <polygon fill="#5BB4B0" fill-rule="nonzero" points="4 158.5 245 158.5 245 155.5 4 155.5"/>
  </g>
</svg>
