<svg xmlns="http://www.w3.org/2000/svg" width="248" height="238" viewBox="0 0 248 238">
  <g fill="none" fill-rule="evenodd" transform="translate(0 -3)">
    <g transform="translate(0 86.5)">
      <path fill="#C4E5E4" d="M232.408891,14.2786885 L245.276486,14.2786885 C246.381056,14.2786885 247.276486,15.174119 247.276486,16.2786885 L247.276486,65 C247.276486,66.1045695 246.381056,67 245.276486,67 L232.460737,67 C231.472722,67.0000044 230.632755,66.2785423 230.483642,65.3018441 C229.045726,55.883416 228.326768,47.2232385 228.326768,39.3213115 C228.326768,31.4979671 229.031497,23.6982026 230.440956,15.9220179 C230.613393,14.9705205 231.441895,14.2786885 232.408891,14.2786885 Z" transform="matrix(-1 0 0 1 475.603 0)"/>
      <path fill="#C4E5E4" d="M4.08212322,14.2786885 L16.9497186,14.2786885 C18.0542881,14.2786885 18.9497186,15.174119 18.9497186,16.2786885 L18.9497186,65 C18.9497186,66.1045695 18.0542881,67 16.9497186,67 L4.13396958,67 C3.14595443,67.0000044 2.3059868,66.2785423 2.15687383,65.3018441 C0.718957944,55.883416 0,47.2232385 0,39.3213115 C0,31.4979671 0.704729341,23.6982026 2.11418802,15.9220179 C2.28662562,14.9705205 3.11512679,14.2786885 4.08212322,14.2786885 Z"/>
      <path fill="#5BB4B0" fill-opacity=".623" d="M15.1552965,4.1518688 C42.1155009,1.38395627 79.1234776,0 126.179227,0 C173.106981,0 208.429745,1.37643756 232.14752,4.12931268 C233.15611,4.24637801 233.916932,5.10061445 233.916932,6.11597551 L233.916932,57.0742785 C233.916948,58.1788569 233.02151,59.0742947 231.916932,59.0742947 C231.844341,59.0742947 231.771804,59.0703427 231.699643,59.0624562 C206.74562,56.3352263 171.572148,54.9716114 126.179227,54.9716114 C80.6168462,54.9716114 43.7416253,56.3454265 15.5535642,59.0930569 C14.4542145,59.200195 13.4761477,58.3958671 13.3689888,57.2965194 C13.3627031,57.2320343 13.3595547,57.1672819 13.3595547,57.1024911 L13.3595547,6.14139751 C13.3595682,5.11592195 14.1351831,4.25660038 15.1552965,4.1518688 Z"/>
      <text fill="#FFF" font-family="Montserrat-Regular, Montserrat" font-size="33" letter-spacing="3.415">
        <tspan x="33" y="40.5">Welcome</tspan>
      </text>
    </g>
    <path fill="#FFA889" fill-rule="nonzero" d="M85.2495784,181.080838 L85.3279801,181.1235 C84.7934463,181.525555 83.8522524,181.903059 82.7513009,182.141553 L82.4728777,182.198214 C83.348497,181.060386 84.3793488,180.623088 85.2495784,181.080838 Z M74.5074992,177.739494 C74.17873,168.324775 84.9435561,154.742898 92.3054442,154.485816 L92.2007458,151.487643 C83.0661427,151.806631 71.1261419,166.871214 71.5093267,177.844193 C71.6568046,182.067406 74.2787109,184.5178 77.9697506,185.20634 L77.9217958,185.427564 C76.7565737,190.995001 78.5677801,196.622809 83.3966853,199.594443 L84.9689776,197.039468 C81.327127,194.798329 79.9325096,190.464953 80.8581736,186.042125 C80.9051339,185.817749 80.9566265,185.599571 81.0122724,185.387826 C81.3156687,185.371825 81.6228459,185.346417 81.9332544,185.311607 C84.1294269,185.065317 86.1785151,184.337167 87.3654403,183.334458 C89.1754374,181.805382 88.9271908,179.625586 86.6461848,178.425751 C83.6328948,176.840726 80.7272012,178.672887 79.0465175,182.096978 L78.936299,182.327589 C76.2924525,181.967123 74.6015922,180.433964 74.5074992,177.739494 Z" transform="rotate(2 81.903 175.541)"/>
    <g fill-rule="nonzero" transform="scale(1 -1) rotate(2 6864.213 -27.629)">
      <polygon fill="#56B3B2" points="-1.167 .942 20.698 28.026 23.033 26.141 1.167 -.942"/>
      <polygon fill="#FF9090" points="22.845 30.881 32.906 42.468 35.171 40.501 25.111 28.914" transform="rotate(2 29.008 35.69)"/>
      <polygon fill="#FFBA2D" points="34.38 46.493 53.074 66.059 55.243 63.987 36.549 44.421" transform="rotate(-175 44.812 55.24)"/>
      <polygon fill="#56B3B2" points="25.472 9.077 52.678 45.1 55.072 43.292 27.866 7.269"/>
    </g>
    <polygon fill="#049490" fill-opacity=".354" points="155.811 34.464 147.813 38.309 151.658 30.311 147.813 22.313 155.811 26.158 163.809 22.313 159.964 30.311 163.809 38.309" transform="rotate(45 155.811 30.311)"/>
    <path fill="#FFD469" fill-rule="nonzero" d="M226.533193,58.3488109 C223.923566,59.3926618 222.932112,61.4575118 224.529488,63.3367609 C225.313841,64.2595216 226.713355,65.0151493 228.48797,65.5411295 C227.062407,68.0286971 224.640484,70.4844986 221.784031,72.0079398 L223.195796,74.6549987 C226.870222,72.6953049 229.917453,69.4589651 231.550164,66.1710796 C237.594535,66.9550381 244.332812,65.4022846 249.409816,61.2605186 L247.513436,58.9359235 C243.425631,62.2707112 238.020948,63.6797279 233.041585,63.3085407 L232.603378,63.2711727 C233.494563,59.1357156 231.032278,56.5491767 226.533193,58.3488109 Z M226.915669,61.4997932 C227.060938,61.4029226 227.300814,61.2728612 227.647365,61.134241 C229.627252,60.342286 230.162825,60.7060843 229.697609,62.577531 L229.652572,62.7518256 C228.349847,62.3990049 227.367136,61.9329695 226.915669,61.4997932 Z" transform="rotate(-18 235.597 66.211)"/>
    <g transform="matrix(-1 0 0 1 240.497 163)">
      <g fill-rule="nonzero" transform="matrix(-1 0 0 1 66.997 .5)">
        <polygon fill="#FF9090" points="-1.167 .943 19.573 26.604 21.906 24.718 1.167 -.943"/>
        <polygon fill="#FFBA2D" points="22.615 32.367 57.19 72.187 59.455 70.221 24.88 30.4" transform="rotate(2 41.035 51.294)"/>
      </g>
      <path fill="#79C7C6" fill-rule="nonzero" d="M18.7897933,3 C21.6658421,3 23.9973404,5.38218303 23.9973404,8.32075472 C23.9973404,11.2593264 21.6658421,13.6415094 18.7897933,13.6415094 C15.9137444,13.6415094 13.5822461,11.2593264 13.5822461,8.32075472 C13.5822461,5.38218303 15.9137444,3 18.7897933,3 Z M18.7897933,6 C17.5852109,6 16.5822461,7.02476844 16.5822461,8.32075472 C16.5822461,9.616741 17.5852109,10.6415094 18.7897933,10.6415094 C19.9943756,10.6415094 20.9973404,9.616741 20.9973404,8.32075472 C20.9973404,7.02476844 19.9943756,6 18.7897933,6 Z"/>
      <circle cx="5.884" cy="14.774" r="2.717" fill="#FFBA2D"/>
      <g fill-rule="nonzero" transform="rotate(90 53.519 74.632)">
        <polygon fill="#61B7B6" points="0 7.477 11.955 7.477 11.955 4.477 0 4.477" transform="rotate(90 5.977 5.977)"/>
        <polygon fill="#FF4648" fill-opacity=".613" points="0 7.477 11.955 7.477 11.955 4.477 0 4.477"/>
      </g>
      <polygon fill="#56B3B2" fill-rule="nonzero" points="76.701 3.565 96.108 51.336 98.887 50.207 79.48 2.435" transform="matrix(-1 0 0 1 175.588 0)"/>
      <polygon fill="#F6C5BF" points="9.588 38.983 3.475 41.922 6.414 35.809 3.475 29.695 9.588 32.635 15.702 29.695 12.762 35.809 15.702 41.922" transform="rotate(45 9.588 35.809)"/>
    </g>
    <g fill-rule="nonzero" transform="translate(10.497)">
      <g transform="rotate(-5 57.782 -57.494)">
        <polygon fill="#FFBA2D" points="-1.167 .942 32.334 42.438 34.669 40.554 1.167 -.942"/>
        <polygon fill="#0F9B9A" fill-opacity=".561" points="20.728 29.01 42.808 54.517 45.076 52.553 22.996 27.047" transform="rotate(2 32.902 40.782)"/>
        <polygon fill="#0F9B9A" fill-opacity=".561" points="44.214 58.088 53.344 67.643 55.513 65.571 46.383 56.016" transform="rotate(-175 49.864 61.83)"/>
      </g>
      <g transform="matrix(-1 0 0 1 213.177 3.024)">
        <polygon fill="#FF9090" points="16.326 39.003 25.056 55.948 27.723 54.575 18.993 37.629" transform="rotate(7 22.025 46.789)"/>
        <polygon fill="#79C7C6" points=".839 2.213 17.085 32.535 19.73 31.118 3.484 .797" transform="rotate(7 10.284 16.666)"/>
      </g>
      <polygon fill="#FF9090" points="1.512 35.093 24.735 60.219 26.938 58.183 3.716 33.057" transform="rotate(-5 14.225 46.638)"/>
      <g transform="translate(59.638 10.282)">
        <polygon fill="#61B7B6" points="0 8.041 13.082 8.041 13.082 5.041 0 5.041" transform="rotate(90 6.541 6.541)"/>
        <polygon fill="#FF4648" fill-opacity=".613" points="0 8.041 13.082 8.041 13.082 5.041 0 5.041"/>
        <g transform="translate(49.864 38.718)">
          <polygon fill="#FFD469" points="0 10.066 17.131 10.066 17.131 7.066 0 7.066"/>
          <polygon fill="#FF0E10" fill-opacity=".519" points="0 10.066 17.131 10.066 17.131 7.066 0 7.066" transform="rotate(90 8.566 8.566)"/>
        </g>
      </g>
    </g>
    <polygon fill="#AE9DD3" points="16.5 179.731 10.27 182.727 13.265 176.496 10.27 170.266 16.5 173.261 22.73 170.266 19.735 176.496 22.73 182.727" transform="rotate(45 16.5 176.496)"/>
    <circle cx="24.248" cy="72.814" r="3.748" fill="#EB7044"/>
    <path fill="#EB7044" fill-rule="nonzero" d="M106.344798,219 C109.934649,219 112.844798,221.910149 112.844798,225.5 C112.844798,229.089851 109.934649,232 106.344798,232 C102.754947,232 99.8447977,229.089851 99.8447977,225.5 C99.8447977,221.910149 102.754947,219 106.344798,219 Z M106.344798,221 C103.859516,221 101.844798,223.014719 101.844798,225.5 C101.844798,227.985281 103.859516,230 106.344798,230 C108.830079,230 110.844798,227.985281 110.844798,225.5 C110.844798,223.014719 108.830079,221 106.344798,221 Z"/>
    <circle cx="115.095" cy="12.566" r="3.749" fill="#AE9DD3"/>
    <path fill="#FF8284" fill-rule="nonzero" d="M175.216031,60.2882701 C178.24471,60.2882701 180.69994,62.7434996 180.69994,65.7721787 C180.69994,68.8008579 178.24471,71.2560874 175.216031,71.2560874 C172.187352,71.2560874 169.732122,68.8008579 169.732122,65.7721787 C169.732122,62.7434996 172.187352,60.2882701 175.216031,60.2882701 Z M175.216031,62.2882701 C173.291921,62.2882701 171.732122,63.8480691 171.732122,65.7721787 C171.732122,67.6962884 173.291921,69.2560874 175.216031,69.2560874 C177.140141,69.2560874 178.69994,67.6962884 178.69994,65.7721787 C178.69994,63.8480691 177.140141,62.2882701 175.216031,62.2882701 Z"/>
  </g>
</svg>
