<?xml version="1.0" encoding="UTF-8"?>
<svg width="150px" height="150px" viewBox="0 0 150 150" version="1.1" xmlns="http://www.w3.org/2000/svg" xmlns:xlink="http://www.w3.org/1999/xlink">
    <!-- Generator: Sketch 56.3 (81716) - https://sketch.com -->
    <title>empty_trip</title>
    <desc>Created with Sketch.</desc>
    <g id="Trips" stroke="none" stroke-width="1" fill="none" fill-rule="evenodd">
        <g id="Artboard">
            <g id="empty_trip">
                <rect id="Rectangle" fill="#D8D8D8" x="0" y="0" width="150" height="150"></rect>
                <g id="Group" transform="translate(27.000000, 29.000000)" fill-rule="nonzero">
                    <g id="map-marker-(6)" transform="translate(74.841951, 0.000000)" fill="#626262">
                        <path d="M10.1505691,13.7757724 C8.14842463,13.7757724 6.52536585,12.1527136 6.52536585,10.1505691 C6.52536585,9.18910542 6.90730581,8.26702079 7.5871633,7.5871633 C8.26702079,6.90730581 9.18910542,6.52536585 10.1505691,6.52536585 C12.1527136,6.52536585 13.7757724,8.14842463 13.7757724,10.1505691 C13.7757724,11.1120328 13.3938324,12.0341174 12.7139749,12.7139749 C12.0341174,13.3938324 11.1120328,13.7757724 10.1505691,13.7757724 L10.1505691,13.7757724 Z M10.1505691,-8.8817842e-16 C4.54456459,-8.8817842e-16 -8.8817842e-16,4.54456459 -8.8817842e-16,10.1505691 C-8.8817842e-16,17.7634959 10.1505691,29.001626 10.1505691,29.001626 C10.1505691,29.001626 20.3011382,17.7634959 20.3011382,10.1505691 C20.3011382,4.54456459 15.7565736,-8.8817842e-16 10.1505691,-8.8817842e-16 Z" id="Shape"></path>
                    </g>
                    <g id="map-marker-(6)-copy" transform="translate(0.000000, 61.006992)">
                        <path d="M10.1505691,0 C4.54456459,0 0,4.54456459 0,10.1505691 C0,17.7634959 10.1505691,29.001626 10.1505691,29.001626 C10.1505691,29.001626 20.3011382,17.7634959 20.3011382,10.1505691 C20.3011382,4.54456459 15.7565736,0 10.1505691,0 Z" id="Shape" stroke="#626262" stroke-width="3"></path>
                        <path d="M10.1505691,13.7757724 C8.14842463,13.7757724 6.52536585,12.1527136 6.52536585,10.1505691 C6.52536585,9.18910542 6.90730581,8.26702079 7.5871633,7.5871633 C8.26702079,6.90730581 9.18910542,6.52536585 10.1505691,6.52536585 C12.1527136,6.52536585 13.7757724,8.14842463 13.7757724,10.1505691 C13.7757724,11.1120328 13.3938324,12.0341174 12.7139749,12.7139749 C12.0341174,13.3938324 11.1120328,13.7757724 10.1505691,13.7757724 L10.1505691,13.7757724 Z" id="Path" fill="#626262"></path>
                    </g>
                    <path d="M70.4670677,30.7472569 L64.1325182,32.798986 C63.2578995,33.0822707 62.7785285,34.0209369 63.0618131,34.8955557 C63.3450978,35.7701744 64.283764,36.2495454 65.1583828,35.9662608 L71.4929323,33.9145317 C72.367551,33.631247 72.846922,32.6925808 72.5636374,31.817962 C72.2803527,30.9433433 71.3416865,30.4639723 70.4670677,30.7472569 Z M52.5191775,36.5604893 L46.184628,38.6122184 C45.3100093,38.8955031 44.8306382,39.8341693 45.1139229,40.7087881 C45.3972076,41.5834068 46.3358738,42.0627778 47.2104926,41.7794932 L53.5450421,39.7277641 C54.4196608,39.4444794 54.8990318,38.5058132 54.6157472,37.6311944 C54.3324625,36.7565757 53.3937963,36.2772047 52.5191775,36.5604893 Z M34.5712873,42.3737217 L32.9721084,42.8916878 C31.5217481,43.3614523 31.413426,45.3717868 32.8049113,45.9946773 L37.3480569,48.0283908 C38.1871719,48.4040159 39.1719134,48.0282831 39.5475385,47.1891681 C39.9231635,46.3500531 39.5474307,45.3653117 38.7083157,44.9896866 L34.16517,42.9559731 L33.9979729,46.0589626 L35.5971518,45.5409965 C36.4717706,45.2577118 36.9511416,44.3190456 36.6678569,43.4444268 C36.3845723,42.5698081 35.4459061,42.0904371 34.5712873,42.3737217 Z M48.4899724,53.0160064 L54.5673809,55.736524 C55.4064959,56.1121491 56.3912373,55.7364163 56.7668624,54.8973013 C57.1424875,54.0581863 56.7667547,53.0734449 55.9276397,52.6978198 L49.8502312,49.9773022 C49.0111162,49.6016771 48.0263748,49.9774099 47.6507497,50.8165249 C47.2751246,51.6556399 47.6508574,52.6403813 48.4899724,53.0160064 Z M65.7092964,60.7241396 L71.7867048,63.4446572 C72.6258198,63.8202823 73.6105613,63.4445495 73.9861864,62.6054345 C74.3618114,61.7663195 73.9860786,60.781578 73.1469636,60.4059529 L67.0695552,57.6854354 C66.2304402,57.3098103 65.2456988,57.6855431 64.8700737,58.5246581 C64.4944486,59.3637731 64.8701814,60.3485145 65.7092964,60.7241396 Z M82.9286203,68.4322727 L84.3123909,69.0517098 L84.9925203,67.5323577 L84.3847097,65.9826567 L79.597317,67.8603273 C78.7414408,68.1960119 78.3197421,69.1619627 78.6554266,70.0178389 C78.9911112,70.8737151 79.957062,71.2954138 80.8129382,70.9597293 L85.6003309,69.0820587 C86.9740518,68.5432696 87.0194681,66.6159012 85.6726497,66.0130056 L84.2888791,65.3935685 C83.4497641,65.0179434 82.4650227,65.3936762 82.0893976,66.2327912 C81.7137725,67.0719062 82.0895053,68.0566477 82.9286203,68.4322727 Z M68.2328432,72.317605 L62.0340392,74.7488473 C61.178163,75.0845318 60.7564643,76.0504827 61.0921489,76.9063589 C61.4278334,77.7622351 62.3937842,78.1839338 63.2496604,77.8482493 L69.4484643,75.4170069 C70.3043406,75.0813224 70.7260393,74.1153716 70.3903547,73.2594954 C70.0546702,72.4036191 69.0887194,71.9819204 68.2328432,72.317605 Z M50.6695654,79.2061249 L44.4707615,81.6373673 C43.6148852,81.9730518 43.1931865,82.9390026 43.5288711,83.7948788 C43.8645556,84.6507551 44.8305064,85.0724538 45.6863826,84.7367692 L51.8851866,82.3055269 C52.7410628,81.9698424 53.1627615,81.0038916 52.8270769,80.1480153 C52.4913924,79.2921391 51.5254416,78.8704404 50.6695654,79.2061249 Z M33.1062876,86.0946449 L27.0782343,88.4589169 C26.222358,88.7946014 25.8006593,89.7605523 26.1363439,90.6164285 C26.4720284,91.4723047 27.4379792,91.8940034 28.2938554,91.5583189 L34.3219088,89.1940469 C35.177785,88.8583624 35.5994837,87.8924115 35.2637992,87.0365353 C34.9281146,86.1806591 33.9621638,85.7589604 33.1062876,86.0946449 Z" id="Path-2" fill="#626262"></path>
                </g>
            </g>
        </g>
    </g>
</svg>