<?xml version="1.0" encoding="UTF-8"?>
<svg width="243px" height="225px" viewBox="0 0 243 225" version="1.1" xmlns="http://www.w3.org/2000/svg" xmlns:xlink="http://www.w3.org/1999/xlink">
    <!-- Generator: Sketch 55.2 (78181) - https://sketchapp.com -->
    <title>illustration</title>
    <desc>Created with Sketch.</desc>
    <defs>
        <circle id="path-1" cx="81.7476748" cy="81.3955608" r="81.3955608"></circle>
    </defs>
    <g id="About-/-Roam-with-care" stroke="none" stroke-width="1" fill="none" fill-rule="evenodd">
        <g id="Tablet---Donation" transform="translate(-735.000000, -247.000000)">
            <g id="donate" transform="translate(257.500000, 88.000000)">
                <g id="illustration" transform="translate(475.000000, 158.000000)">
                    <g id="world" transform="translate(40.137890, 33.161154)">
                        <mask id="mask-2" fill="white">
                            <use xlink:href="#path-1"></use>
                        </mask>
                        <use id="Oval" fill="#A0E7E5" xlink:href="#path-1"></use>
                        <path d="M69.3944936,7.76754662 C93.6490832,19.8261482 107.854838,31.8847498 88.6246659,43.9433514 C69.3944936,56.001953 20.8499864,58.01172 5.78458506,45.9531184 C-9.28081628,33.8945168 1.66703526,17.6636594 26.2373345,15.6306704 C50.8076337,13.5976814 45.139904,-4.29105498 69.3944936,7.76754662 Z" id="Path-2" fill="#98CF95" mask="url(#mask-2)" transform="translate(48.242818, 28.838820) rotate(146.000000) translate(-48.242818, -28.838820) "></path>
                        <path d="M158.401788,44.8106995 C186.290427,45.9854899 194.55668,92.8875209 175.326508,104.946122 C165.081812,111.370231 137.039169,115.011584 126.399891,93.740099 C119.343268,79.6315429 94.7944648,98.7766794 87.7550166,93.1421863 C72.6896153,81.0835847 92.539625,60.9862637 117.109924,58.9532747 C141.680223,56.9202857 130.513148,43.635909 158.401788,44.8106995 Z" id="Path-2-Copy" fill="#98CF95" mask="url(#mask-2)" transform="translate(134.150973, 77.333823) scale(-1, 1) rotate(278.000000) translate(-134.150973, -77.333823) "></path>
                        <path d="M115.342008,159.42598 C107.870422,164.111163 101.376143,169.333322 93.6167831,153.819761 C88.4702989,143.530214 77.3530581,137.821321 95.2724864,136.338637 C113.191915,134.855952 129.366814,150.63149 115.342008,159.42598 Z" id="Path-2-Copy-2" fill="#98CF95" mask="url(#mask-2)" transform="translate(103.060495, 150.219587) rotate(201.000000) translate(-103.060495, -150.219587) "></path>
                        <path d="M13.7272844,91.3350545 C41.6159243,92.509845 41.107439,108.385047 21.8772667,120.443649 C11.6325703,126.867757 2.7279119,134.028143 -7.91136642,112.756658 C-14.9679898,98.648102 -30.2114411,90.82033 -5.64114193,88.787341 C18.9291573,86.754352 -14.1613555,90.1602641 13.7272844,91.3350545 Z" id="Path-2-Copy-3" fill="#98CF95" mask="url(#mask-2)" transform="translate(8.247939, 107.570272) rotate(221.000000) translate(-8.247939, -107.570272) "></path>
                    </g>
                    <g id="face" transform="translate(119.342984, 120.225109) rotate(-3.000000) translate(-119.342984, -120.225109) translate(76.842984, 88.225109)">
                        <g id="eyes" transform="translate(0.112320, -0.000000)">
                            <g id="eye-1" transform="translate(0.000000, 0.000000)">
                                <path d="M20.293013,-1.64655109 L21.1436184,-1.74351338 C21.5623915,-1.79125021 21.9405725,-1.49046587 21.9883093,-1.07169277 C22.0150468,-0.837137107 21.9317284,-0.603411394 21.7626485,-0.438659283 C17.2959926,3.91356522 15.0626646,8.41000062 15.0626646,13.0506469 C15.0626646,17.7281905 17.3316477,22.5484186 21.8696137,27.5113314 C22.3026714,27.9849822 22.2697955,28.720016 21.7961631,29.1530939 C21.6153866,29.3183915 21.3869982,29.4223351 21.1436184,29.4500785 L21.3178564,29.4302167 C19.7150939,29.6129223 18.137147,28.9237366 17.1819379,27.6238118 C13.3411367,22.3969431 11.4207361,17.4959589 11.4207361,12.9208592 C11.4207361,8.17002007 13.4915037,3.73980529 17.633039,-0.369785104 C18.3510129,-1.08221669 19.2880642,-1.53199486 20.293013,-1.64655109 Z" id="Rectangle" fill="#436160" transform="translate(17.450037, 13.853283) rotate(-58.000000) translate(-17.450037, -13.853283) "></path>
                                <path d="M2.00976693,12.6434914 C4.00579523,11.8525382 6.00182352,11.061585 7.99785181,10.2706318" id="Path-4" stroke="#436160" stroke-width="2" stroke-linecap="round"></path>
                                <path d="M7.57195393,22.0839005 C9.37302437,20.2573155 11.1740948,18.4307304 12.9751652,16.6041454" id="Path-7" stroke="#436160" stroke-width="2" stroke-linecap="round"></path>
                                <polyline id="Path-8" stroke="#436160" stroke-width="2" stroke-linecap="round" points="20.5157166 26.123061 20.5157166 21.137897 20.5157166 20.9730333"></polyline>
                            </g>
                            <g id="eye-2" transform="translate(49.979081, 27.038545)">
                                <path d="M19.5532219,-1.64655109 L20.4038272,-1.74351338 C20.8226003,-1.79125021 21.2007813,-1.49046587 21.2485182,-1.07169277 C21.2752557,-0.837137107 21.1919372,-0.603411394 21.0228574,-0.438659283 C16.5562015,3.91356522 14.3228735,8.41000062 14.3228735,13.0506469 C14.3228735,17.7281905 16.5918565,22.5484186 21.1298226,27.5113314 C21.5628803,27.9849822 21.5300043,28.720016 21.056372,29.1530939 C20.8755955,29.3183915 20.6472071,29.4223351 20.4038272,29.4500785 L20.5780652,29.4302167 C18.9753028,29.6129223 17.3973559,28.9237366 16.4421467,27.6238118 C12.6013456,22.3969431 10.680945,17.4959589 10.680945,12.9208592 C10.680945,8.17002007 12.7517126,3.73980529 16.8932478,-0.369785104 C17.6112217,-1.08221669 18.548273,-1.53199486 19.5532219,-1.64655109 Z" id="Rectangle-Copy-3" fill="#436160" transform="translate(16.710246, 13.853283) rotate(-58.000000) translate(-16.710246, -13.853283) "></path>
                                <path d="M11.3659144,24.7797002 C12.5788401,22.8883472 13.7917659,20.9969943 15.0046916,19.1056414" id="Path-10" stroke="#436160" stroke-width="2" stroke-linecap="round"></path>
                                <polyline id="Path-11" stroke="#436160" stroke-width="2" stroke-linecap="round" points="22.8808583 27.8630438 22.8808583 23.3175162 22.8808583 21.2881227"></polyline>
                                <path d="M3.16198294,16.8505416 C4.85445268,15.4596677 6.54692243,14.0687938 8.23939217,12.67792" id="Path-9" stroke="#436160" stroke-width="2" stroke-linecap="round"></path>
                            </g>
                        </g>
                        <path d="M16.6585248,50.9738908 C16.6585248,63.9324752 28.6074345,65.9729031 37.8650991,61.1365599" id="mouth" stroke-opacity="0.56840035" stroke="#000000" stroke-width="3" stroke-linecap="round" stroke-linejoin="round"></path>
                    </g>
                    <g id="stars" transform="translate(14.363034, 2.512209)">
                        <polygon id="Star" stroke="#EECE72" stroke-width="2" points="210.523086 28.8903997 203.730546 32.4614495 205.027806 24.8978446 199.532525 19.5412699 207.126816 18.4377549 210.523086 11.5561599 213.919356 18.4377549 221.513647 19.5412699 216.018367 24.8978446 217.315627 32.4614495"></polygon>
                        <polygon id="Star-Copy-3" fill="#EECE72" points="223.523086 65.8903999 219.081687 68.2253817 219.929919 63.2798108 216.336751 59.777338 221.302387 59.0557889 223.523086 54.5561599 225.743786 59.0557889 230.709422 59.777338 227.116254 63.2798108 227.964486 68.2253817"></polygon>
                        <polygon id="Star-Copy" fill="#EECE72" points="9.54639293 14.3195894 3.93516395 17.2695871 5.00681333 11.0213918 0.467233727 6.59639528 6.74077844 5.68479587 9.54639293 0 12.3520074 5.68479587 18.6255521 6.59639528 14.0859725 11.0213918 15.1576219 17.2695871"></polygon>
                        <polygon id="Star-Copy-2" fill="#EECE72" points="170.327748 219.818258 164.716519 222.768256 165.788168 216.520061 161.248588 212.095064 167.522133 211.183465 170.327748 205.498669 173.133362 211.183465 179.406907 212.095064 174.867327 216.520061 175.938977 222.768256"></polygon>
                    </g>
                    <g id="hearts" transform="translate(0.088052, 0.810368)" fill-rule="nonzero">
                        <path d="M15.2476708,98.2402801 L16.1936555,97.3791093 C23.5716217,90.6887982 25.4044066,88.4465124 25.4044066,85.2561778 C25.4044066,82.3651879 23.1563531,80.1199728 20.2682016,80.1199728 C18.6544148,80.1199728 17.0565569,80.8684022 16.0065049,82.0918573 L15.2476702,82.9760041 L14.4888355,82.0918573 C13.4387835,80.8684022 11.8409256,80.1199728 10.2271388,80.1199728 C7.33898735,80.1199728 5.09093378,82.3651879 5.09093378,85.2561778 C5.09093378,88.4465124 6.92371874,90.6887982 14.3031237,97.3804166 L15.2476708,98.2402801 Z" id="Path" stroke="#D07272" stroke-width="2" transform="translate(15.247670, 89.356278) rotate(-45.000000) translate(-15.247670, -89.356278) "></path>
                        <path d="M231.432829,189.487549 L229.815102,188.01486 C224.069383,182.804664 220.276093,179.357232 220.276093,175.151143 C220.276093,171.703711 222.976023,169.014938 226.412298,169.014938 C228.35357,169.014938 230.216745,169.918633 231.432829,171.335539 C232.648913,169.918633 234.512088,169.014938 236.453361,169.014938 C239.889635,169.014938 242.589566,171.703711 242.589566,175.151143 C242.589566,179.357232 238.796275,182.804664 233.050556,188.01486 L231.432829,189.487549 Z" id="Path-Copy-2" fill="#D07272" transform="translate(231.432829, 179.251243) scale(-1, 1) rotate(-34.000000) translate(-231.432829, -179.251243) "></path>
                        <path d="M166.340871,14.1966699 L166.882424,13.7036713 C172.352835,8.74312369 173.708422,7.08465584 173.708422,4.79666907 C173.708422,2.76656858 172.134382,1.19451529 170.106269,1.19451529 C168.969529,1.19451529 167.840175,1.72349934 167.099705,2.58624948 L166.34087,3.4703963 L165.582035,2.58624948 C164.841565,1.72349934 163.712211,1.19451529 162.575472,1.19451529 C160.547359,1.19451529 158.973318,2.76656858 158.973318,4.79666907 C158.973318,7.08465584 160.328905,8.74312369 165.800755,13.7049785 L166.340871,14.1966699 Z" id="Path-Copy-3" stroke="#D07272" stroke-width="2"></path>
                    </g>
                </g>
            </g>
        </g>
    </g>
</svg>