<?xml version="1.0" encoding="UTF-8"?>
<svg width="186px" height="149px" viewBox="0 0 186 149" version="1.1" xmlns="http://www.w3.org/2000/svg" xmlns:xlink="http://www.w3.org/1999/xlink">
    <!-- Generator: Sketch 55.2 (78181) - https://sketchapp.com -->
    <title>expand</title>
    <desc>Created with Sketch.</desc>
    <defs>
        <path d="M28.5273287,28.0642843 L28.5273287,26.299235 C28.5273287,27.2740448 29.3175682,28.0642843 30.2923781,28.0642843 L30.9983978,28.0642843 C32.0706886,28.0642843 32.9399521,27.1950209 32.9399521,26.1227301 L32.9399521,15.5324341 C32.9399521,12.9004476 35.0735987,10.7668009 37.7055852,10.7668009 C40.3375718,10.7668009 42.4712184,12.9004476 42.4712184,15.5324341 L42.4712184,26.1227301 C42.4712184,32.4589939 37.3346617,37.5955507 30.9983978,37.5955507 L30.2923781,37.5955507 C29.3175682,37.5955507 28.5273287,38.3857902 28.5273287,39.3606 L28.5273287,37.5955507 L28.5273287,60.7176969 C28.5273287,64.6169362 25.3663707,67.7778942 21.4671314,67.7778942 C17.5678921,67.7778942 14.4069341,64.6169362 14.4069341,60.7176969 L14.4069341,43.0672036 L11.9358651,43.0672036 C5.59960118,43.0672036 0.463044421,37.9306468 0.463044421,31.594383 L0.463044421,21.004087 C0.463044421,18.3721005 2.59669107,16.2384538 5.22867761,16.2384538 C7.86066414,16.2384538 9.99431079,18.3721005 9.99431079,21.004087 L9.99431079,31.594383 C9.99431079,32.6666738 10.8635742,33.5359372 11.9358651,33.5359372 L14.4069341,33.5359372 L14.4069341,7.06019731 C14.4069341,3.16095801 17.5678921,4.54747351e-13 21.4671314,4.54747351e-13 C25.3663707,4.54747351e-13 28.5273287,3.16095801 28.5273287,7.06019731 L28.5273287,28.0642843 L28.5273287,28.0642843 Z M12.3771274,33.5359372 L12.6418848,33.5359372 C13.6166946,33.5359372 14.4069341,32.7456977 14.4069341,31.7708879 L14.4069341,33.5359372 L12.3771274,33.5359372 L12.3771274,33.5359372 Z M12.3771274,43.0672036 L14.4069341,43.0672036 L14.4069341,44.8322529 C14.4069341,43.8574431 13.6166946,43.0672036 12.6418848,43.0672036 L12.3771274,43.0672036 L12.3771274,43.0672036 Z" id="path-1"></path>
    </defs>
    <g id="Roam-with-care" stroke="none" stroke-width="1" fill="none" fill-rule="evenodd">
        <g id="Tablet---Roadmap-4" transform="translate(-780.000000, -426.000000)">
            <g id="Goals:-roadmap" transform="translate(256.000000, 117.000000)">
                <g id="Roadmap" transform="translate(0.000000, 128.000000)">
                    <g id="Phase-4" transform="translate(58.000000, 112.000000)">
                        <g id="text">
                            <g id="expand" transform="translate(466.000000, 69.000000)">
                                <g id="arrows" fill="#FFFFFF" fill-rule="nonzero">
                                    <path d="M67.6610406,96.0965298 C67.6610406,96.0965298 67.6610406,96.0418845 67.6610406,96.0145619 C67.6593337,95.831074 67.58435,95.6551428 67.4514271,95.5227549 C67.3079386,95.4032398 67.1269325,95.3327499 66.9369213,95.322389 C65.6958274,95.207149 64.4485222,95.1645677 63.2019899,95.1948835 L62.1825061,95.1948835 C61.4964983,95.1220232 60.8200184,95.067378 60.1340106,95.0491629 C58.095043,94.9854101 56.0465475,94.9945176 53.998052,94.9763026 C51.9495565,94.9580875 49.8820053,94.9216573 47.8239819,94.830582 C45.7659585,94.7395066 43.5554889,94.6211086 41.4212425,94.5391407 C40.0682826,94.4844955 38.7153228,94.4116352 37.3528351,94.2568071 L35.523481,93.9653658 C34.8851126,93.8651829 34.2372164,93.8196452 33.6179038,93.765 L33.5702644,93.765 C33.4528771,93.7676075 33.3394099,93.8058879 33.2463162,93.8742905 C33.0591158,93.8259357 32.8618436,93.8259357 32.6746431,93.8742905 C32.1047383,94.0289581 31.7726321,94.5946782 31.931468,95.1402383 C32.1153265,95.7358743 32.338081,96.3199029 32.59842,96.8888856 C32.8080335,97.35337 33.0271749,97.7996394 33.2748999,98.2550163 C33.7608221,99.1657701 34.2276885,100.003664 34.8184174,100.841557 C35.4091464,101.679451 36.028459,102.590204 36.6001321,103.482743 C37.0193591,104.129378 37.4004746,104.794229 37.7625342,105.468186 L37.3242515,105.695875 C37.0479428,105.859811 36.8002177,106.041961 36.5334369,106.215005 C36.0379869,106.542876 35.5806483,106.888962 35.0756704,107.225941 L31.8647728,109.457288 C29.7876936,110.878064 27.7582539,112.353485 25.7288142,113.828906 C23.6993744,115.304328 21.4889049,116.852609 19.3451305,118.355353 C17.2013562,119.858097 15.1623885,121.479239 13.1138931,123.10038 C11.0653976,124.721522 9.30273864,126.269804 7.349522,127.863623 C6.3967334,128.710624 5.3677217,129.566732 4.40540521,130.450164 C3.44308872,131.333595 2.63321841,132.116843 1.72806924,132.927414 C1.54789867,133.07984 1.37915703,133.24418 1.22309128,133.419221 C1.03253356,133.649945 0.851503723,133.877634 0.680001774,134.102286 C0.397660032,134.565282 0.559407669,135.159316 1.04206144,135.431987 L1.18497973,135.431987 L3.00480597,137.8637 C3.65270222,138.719808 4.18626383,139.685207 4.84368797,140.495778 C5.1676361,140.914725 5.50111211,141.324564 5.79647657,141.743511 C6.09184104,142.162458 6.4634286,142.654265 6.74926518,143.146072 C7.40668931,144.056826 8.11175288,144.967579 8.75964913,145.878333 C9.15779704,146.457144 9.61068337,146.999801 10.1126089,147.499475 C10.3387579,147.731237 10.5986852,147.930618 10.8843677,148.091465 C11.178455,148.242471 11.5037947,148.329547 11.8371563,148.346476 C12.2077851,148.321911 12.5715951,148.238818 12.9138074,148.100572 C13.2018164,148.010759 13.4522163,147.835234 13.6283989,147.599658 L14.4859086,146.88927 L15.6387828,145.978516 C16.381958,145.359203 17.0870215,144.712568 17.8111409,144.075041 C19.2784353,142.699802 20.8505365,141.45207 22.4416935,140.213444 C24.0328504,138.974819 25.3572266,137.690656 26.8626326,136.479354 C28.3680386,135.268051 29.9877792,133.956566 31.6265756,132.736156 L33.2939557,131.470208 C34.8755848,130.31355 36.4762696,129.184216 38.0578987,128.036666 C39.6395278,126.889116 41.3831309,125.659599 43.0123994,124.393651 L43.8508534,123.765231 C44.803642,123.06395 45.7564306,122.371777 46.7092192,121.661389 L46.6234682,121.725142 L48.0907627,120.686883 L48.8434657,120.176861 L49.2245811,120.431872 C50.1011466,121.160475 50.8919612,121.980153 51.6923036,122.790724 C52.492646,123.601295 53.2548769,124.430081 53.9789963,125.304405 C54.3029444,125.714244 54.6173646,126.13319 54.9317849,126.5066 C55.2738569,126.875482 55.7517196,127.103872 56.2656889,127.144127 C56.6943246,127.149624 57.1069359,126.988574 57.4090352,126.697858 C57.5511187,126.562756 57.6729608,126.409511 57.7710949,126.242481 C57.8565816,126.113928 57.9329753,125.980051 57.9997642,125.841749 C58.4017114,125.673153 58.7003157,125.337352 58.8096345,124.930995 C58.9716085,124.375436 59.0573595,123.801661 59.181222,123.236993 C59.3050846,122.672326 59.4765865,122.071228 59.6290327,121.497454 C59.9434529,120.377226 60.2864568,119.256999 60.5818213,118.14588 C61.3154685,115.841672 62.106283,113.546573 62.9352091,111.269688 C63.7641352,108.992804 64.5835334,106.715919 65.3648201,104.393497 C65.7554634,103.23684 66.1365788,102.071075 66.4795827,100.90531 C66.8225866,99.739545 67.0607838,98.6193178 67.3561483,97.471768 C67.4418992,97.1621117 67.5276502,96.861563 67.6324569,96.5610142 C67.6941527,96.4131871 67.7041795,96.2502516 67.6610406,96.0965298 Z M35.8664849,98.6648555 C35.43773,97.8907148 35.0470867,97.1074665 34.685027,96.3151107 L34.2372164,95.2768513 L34.1800491,95.1402383 L34.3039116,95.1402383 C35.2567002,95.2677438 36.2094888,95.5136473 37.1051101,95.6502604 C38.0007314,95.7868735 38.9154084,95.8870564 39.8205576,95.9599167 C39.9158365,96.76138 40.0015874,97.5628434 40.1445057,98.3643068 C40.287424,99.1657701 40.5446769,100.140277 40.7257068,101.05103 C40.9067366,101.961784 41.0972943,102.64485 41.2878521,103.455421 C41.4784098,104.265991 41.6499117,105.213175 41.8404694,106.087499 C42.0310272,106.961823 42.2692243,107.909007 42.4693099,108.819761 C42.6693955,109.730514 42.8408975,110.541085 43.0314552,111.397194 C43.4091609,113.204172 43.8829942,114.991569 44.4511102,116.752426 C44.6511958,117.307986 44.8512814,117.872653 45.0608949,118.428213 L45.3753152,119.211462 C45.4686665,119.518355 45.6424877,119.797367 45.8802931,120.022032 L45.6325681,120.185968 C44.7655305,120.759743 43.9175486,121.369948 43.0695667,122.007476 L42.3359195,122.572143 C42.1072503,121.989261 41.8595252,121.406378 41.6499117,120.823496 C41.3354915,119.985602 41.0972943,119.129494 40.8400414,118.273385 C40.3255356,116.561168 39.8205576,114.839843 39.2774681,113.136734 C39.0202152,112.326163 38.7534344,111.515592 38.5533488,110.677698 C38.3532632,109.839805 38.2484564,109.184062 38.1341218,108.428136 L38.3056237,108.318846 C38.7724901,108.027405 39.2584123,107.708641 39.6585835,107.408092 C39.8274333,107.25906 39.9467146,107.065862 40.0015874,106.852532 L40.0015874,106.852532 C40.0305443,106.812061 40.0560349,106.769421 40.0778105,106.725027 C40.1357357,106.499896 40.1016608,106.262123 39.9825317,106.060176 C39.6014162,105.249606 39.2107729,104.429927 38.8010738,103.637571 C38.3913747,102.845216 37.8482852,101.998214 37.3337794,101.196751 C36.8192735,100.395288 36.3238234,99.4936415 35.8664849,98.6648555 Z M37.1051101,109.020126 C37.1718053,109.448181 37.2289726,109.867127 37.2956678,110.286074 C37.291044,110.25893 37.291044,110.23125 37.2956678,110.204106 C37.4195303,111.11486 37.5624486,112.025614 37.7244227,112.936368 C37.8863967,113.847122 38.029315,114.621262 38.2103449,115.459156 C38.3913747,116.297049 38.6009882,117.280663 38.8296575,118.191417 C39.0583267,119.102171 39.1917171,119.876312 39.4203864,120.714205 C39.5823605,121.269765 39.7538624,121.816217 39.9444201,122.36267 C40.1157643,122.882577 40.3161373,123.393331 40.5446769,123.892736 L38.5057093,125.459233 C38.448542,125.277082 38.3818468,125.094931 38.3151516,124.91278 C38.1627054,124.512049 38.029315,124.111317 37.9054525,123.701478 C37.78159,123.291639 37.6005602,122.790724 37.4576419,122.380885 C37.3147236,121.971046 37.2003889,121.542991 37.0765264,121.124045 C36.8383293,120.313474 36.6191879,119.493795 36.361935,118.683224 C36.1046821,117.872653 35.8474291,116.916362 35.5997041,116.032931 C35.3519791,115.1495 35.0947261,114.165885 34.8946405,113.218701 C34.6945549,112.271517 34.5802203,111.588452 34.4182462,110.777881 L34.8374732,110.495548 C35.5901762,109.994633 36.3428792,109.502826 37.1051101,109.020126 Z M33.2939557,111.570237 C33.4178182,112.162227 33.5321528,112.754217 33.6655432,113.337099 C33.8751567,114.247853 34.1228818,115.158607 34.3610789,116.069361 C34.5992761,116.980115 34.7993617,117.890868 35.018503,118.801622 C35.2376444,119.712376 35.4091464,120.459194 35.5615925,121.297088 C35.6473435,121.73425 35.7330945,122.162304 35.8093176,122.599466 C35.8855407,123.036628 36.0189311,123.592187 36.1332657,124.083994 C36.2476003,124.575801 36.3047677,124.994748 36.4191023,125.404587 C36.4762696,125.632276 36.5429648,125.859964 36.60966,126.087653 C36.6646883,126.340382 36.7611573,126.583209 36.8954966,126.807148 C36.4000465,127.189665 35.942708,127.563074 35.4282021,127.954698 C35.3537195,128.011493 35.2975658,128.087271 35.2662281,128.173279 L34.685027,128.601333 C34.5992761,128.309892 34.4944693,128.036666 34.4087183,127.745225 C34.2658,127.289848 34.1228818,126.834471 33.9990192,126.360879 C33.7512942,125.495663 33.4845134,124.648662 33.2177326,123.783446 C32.9509518,122.91823 32.6936989,121.961938 32.4364459,121.051184 C32.179193,120.14043 31.9124122,119.275214 31.6932708,118.373568 C31.2999555,116.953873 30.9819537,115.516084 30.7404822,114.065702 C30.7404822,113.838014 30.7404822,113.619433 30.6833149,113.400852 C31.512241,112.736002 32.3792786,112.153119 33.2463162,111.570237 L33.2939557,111.570237 Z M29.7781657,113.974627 C29.8420051,114.585925 29.9374002,115.193836 30.0640023,115.796135 C30.25456,116.706889 30.4927572,117.617642 30.7023707,118.583041 C30.7976495,119.020203 30.8929284,119.448258 31.007263,119.885419 C31.1215977,120.322581 31.2645159,120.796173 31.3979064,121.260658 C31.6456314,122.171411 31.8743007,123.082165 32.093442,123.992919 C32.3125834,124.903673 32.4745575,125.632276 32.59842,126.461062 L32.59842,126.461062 C32.59842,126.461062 32.59842,126.533922 32.59842,126.570352 L32.59842,126.570352 C32.59842,126.825363 32.6651152,127.071267 32.7032267,127.326278 L32.7032267,127.13502 C32.7032267,127.499321 32.8080335,127.863623 32.846145,128.218817 C32.8096849,128.697676 32.9551538,129.173037 33.2558441,129.557625 L30.6642591,131.561283 C30.6166197,131.379132 30.5499245,131.206089 30.4927572,131.033046 C30.340311,130.641422 30.2069206,130.24069 30.092586,129.839959 C29.8258052,128.929205 29.5971359,128.091311 29.3779945,127.216988 C29.1588531,126.342664 28.8730166,125.495663 28.6443473,124.639554 C28.415678,123.783446 28.253704,122.99109 28.1107857,122.153196 C27.9107001,121.014754 27.7391981,119.867204 27.5391125,118.728762 C27.4343058,118.136772 27.3199711,117.544782 27.2056365,116.952792 C27.1389413,116.606706 27.0627182,116.260619 26.9864951,115.914533 L27.0722461,115.85078 L29.7781657,113.974627 Z M25.8526767,116.706889 L26.2528479,118.419106 C26.4719893,119.32986 26.6434912,120.240613 26.8435768,121.151367 C27.0436624,122.062121 27.2056365,122.890907 27.3866663,123.765231 C27.5676962,124.639554 27.7391981,125.422803 27.9297558,126.251588 C28.167953,127.371816 28.3870944,128.510258 28.6634031,129.621378 C28.7872656,130.122292 28.9301839,130.623207 29.0731022,131.115014 L29.3208272,131.898262 C29.3779945,132.05309 29.4446897,132.207918 29.5113849,132.371854 C29.5303751,132.404268 29.5527186,132.434779 29.5780801,132.462929 L28.8253771,132.927414 L26.8531047,134.448373 C26.8531047,134.31176 26.7959374,134.184254 26.7578259,134.047641 C26.6434912,133.646909 26.5482124,133.227963 26.4434056,132.827231 C26.3385989,132.426499 26.2052085,131.916477 26.0908738,131.524853 C25.9765392,131.133229 25.8526767,130.614099 25.7097584,130.158722 C25.4334497,129.247969 25.1190295,128.337215 24.909416,127.426461 C24.6998025,126.515707 24.5664121,125.677814 24.4234938,124.80349 C24.3091591,124.111317 24.2138803,123.419144 24.1090735,122.717864 C24.0042668,122.016583 23.8613485,121.269765 23.7470139,120.55027 C23.6326792,119.830774 23.5755119,119.011096 23.5374004,118.236955 L23.8613485,118.009266 L25.8526767,116.706889 Z M18.6305391,122.909122 C18.6305391,123.756123 18.6972343,124.594017 18.7353458,125.43191 C18.7734574,126.269804 18.8401526,127.025729 18.9449593,127.818085 C19.0497661,128.610441 19.1736286,129.421012 19.2879632,130.222475 C19.4499373,131.433778 19.6119113,132.64508 19.8119969,133.86549 C20.0120825,135.0859 20.1645287,136.142375 20.3360307,137.280817 C20.3314682,137.241472 20.3314682,137.201765 20.3360307,137.162419 C20.3360307,137.517613 20.4217816,137.881915 20.4694211,138.237109 C20.4924764,138.638608 20.5498347,139.037633 20.640923,139.430196 C20.661292,139.515902 20.7002422,139.596571 20.7552577,139.666992 L18.3637583,141.661543 C18.2113121,141.151521 18.0207544,140.641499 17.8778361,140.122369 L17.5634158,138.911066 C17.4490812,138.483012 17.3538023,138.054958 17.2585235,137.626904 C17.1632446,137.198849 17.0393821,136.71615 16.9345754,136.242558 C16.8297686,135.768966 16.7535455,135.404664 16.6677945,134.985718 C16.4772368,134.074964 16.3247906,133.16421 16.1342329,132.308101 C15.9722589,131.588606 15.8388685,130.860003 15.7150059,130.140507 C15.5911434,129.421012 15.4958646,128.774377 15.4005857,128.091311 C15.2746699,127.318902 15.1919773,126.540618 15.1528607,125.759781 C15.1528607,125.368157 15.1528607,124.976533 15.1528607,124.584909 C15.1481548,124.521236 15.1481548,124.457324 15.1528607,124.393651 C16.0008425,123.737908 16.8583523,123.082165 17.7253899,122.43553 L18.6019554,121.80711 L18.6305391,122.909122 Z M5.99656218,138.656055 C5.59639097,138.155141 5.21527553,137.645119 4.79604854,137.153312 C4.37682156,136.661505 3.94806668,136.242558 3.54789547,135.723428 L2.75708093,134.748922 C3.10961271,134.38462 3.50978393,134.056749 3.89089937,133.71977 L5.29149862,132.435607 C5.68214194,132.08952 6.09184104,131.752542 6.48248437,131.415563 C6.48248437,131.606821 6.48248437,131.798079 6.48248437,131.989337 C6.48248437,132.180596 6.48248437,132.481145 6.48248437,132.727048 C6.53965169,133.701555 6.60634689,134.666954 6.68256998,135.64146 C6.68256998,136.115052 6.77784884,136.597752 6.84454404,137.080451 C6.91123924,137.563151 6.95887867,138.04585 7.04462965,138.537657 C7.13038062,139.029464 7.22565948,139.575917 7.32093834,140.095046 L7.32093834,140.095046 C6.88265558,139.585024 6.41578917,139.111432 5.9870343,138.60141 L5.99656218,138.656055 Z M10.4365571,143.783599 C9.89346757,143.209824 9.36943384,142.626942 8.87398376,142.025845 L8.66437027,141.779941 C8.5119241,141.096876 8.35947792,140.41381 8.21655963,139.730745 C8.07364134,139.04768 7.93072305,138.328184 7.79733264,137.617796 C7.66394224,136.907408 7.57819126,136.278988 7.47338452,135.60503 L7.47338452,135.659675 C7.349522,134.748922 7.23518737,133.765307 7.11132485,132.818123 C7.05415753,132.362747 6.98746233,131.90737 6.9398229,131.433778 C6.9398229,131.297165 6.9398229,131.151444 6.9398229,131.014831 C7.36857777,130.650529 7.77827687,130.27712 8.21655963,129.921926 C8.85492799,129.393689 9.51235213,128.874559 10.1221368,128.35543 L10.1221368,128.819914 C10.1697763,129.229753 10.2078878,129.6487 10.2650551,130.058539 C10.3793898,130.981437 10.5032523,131.89219 10.6366427,132.790801 C10.6320802,132.830146 10.6320802,132.869853 10.6366427,132.909199 C10.7605052,133.819953 10.8938956,134.785352 11.0749254,135.714321 C11.2559553,136.643289 11.4655688,137.599581 11.6561265,138.537657 C11.8466842,139.475734 12.0181862,140.359165 12.1801602,141.269919 C12.2659112,141.688866 12.3326064,142.107812 12.4183574,142.526759 C12.5041083,142.945706 12.6089151,143.328222 12.6946661,143.728954 C12.780417,144.129686 12.8566401,144.475772 12.9233353,144.849181 C12.9233353,145.031332 12.9995584,145.22259 13.0281421,145.404741 C13.0515211,145.555368 13.1174005,145.697057 13.2186998,145.81458 C13.0032544,145.649579 12.7322316,145.565382 12.4564689,145.577784 L12.3040227,145.577784 C12.1684338,145.510653 12.0379033,145.434573 11.9133794,145.350096 C11.3899339,144.833767 10.8938628,144.292709 10.4270292,143.728954 L10.4365571,143.783599 Z M14.8193847,144.694353 C14.7241058,144.785429 14.619299,144.858289 14.5240202,144.940257 L14.4096856,144.566848 C14.3048788,144.220761 14.1810163,143.883782 14.0762095,143.537696 C13.9714028,143.191609 13.8284845,142.772663 13.7141499,142.390146 C13.5998152,142.007629 13.4950085,141.579575 13.3997296,141.178843 C13.1805883,140.26809 12.9805026,139.357336 12.780417,138.446582 C12.5803314,137.535828 12.3802458,136.625074 12.1801602,135.714321 C11.779989,133.892813 11.5417919,132.125951 11.2273716,130.322658 C11.2273716,130.322658 11.2273716,130.404626 11.2273716,130.441056 C11.1606764,129.940141 11.0939812,129.439227 11.0368139,128.938312 C10.9789212,128.500287 10.9693407,128.057659 11.0082302,127.617719 C12.0467698,126.779826 13.0853094,125.932825 14.1333769,125.104039 L14.5335481,124.794382 C14.5335481,125.122254 14.5335481,125.459233 14.5335481,125.787104 C14.5349256,126.191926 14.5603744,126.596346 14.6097712,126.998407 C14.6097712,127.444676 14.6955221,127.90916 14.7526894,128.337215 C14.8384404,129.156893 14.9241914,129.967464 15.038526,130.787142 C15.1528607,131.606821 15.2862511,132.462929 15.4005857,133.300823 C15.5911434,134.703384 15.7531175,136.105945 15.9436752,137.499398 C16.0484819,138.228001 16.1532887,138.947497 16.2771512,139.6761 C16.3343185,140.022186 16.381958,140.368273 16.4391253,140.714359 C16.4962926,141.060445 16.5534599,141.415639 16.6010993,141.761726 C16.6010993,141.971199 16.6582667,142.18978 16.6868503,142.390146 C16.715434,142.590512 16.6868503,142.626942 16.7535455,142.74534 C16.7673779,142.802777 16.789843,142.857996 16.8202407,142.909276 C16.1723445,143.510373 15.5053924,144.111471 14.8193847,144.694353 Z M21.9557713,138.60141 C21.9557713,138.382829 21.8700203,138.155141 21.8319088,137.927452 C21.7556857,137.535828 21.6794626,137.153312 21.5937116,136.761687 C21.4317376,135.987547 21.2792914,135.213406 21.1268452,134.439265 C20.974399,133.665125 20.7933692,132.854554 20.6313951,132.05309 C20.4694211,131.251627 20.3360307,130.468379 20.221696,129.666915 L20.221696,129.666915 L20.221696,129.566732 C20.1073614,128.728839 19.9834989,127.900053 19.8691642,127.071267 C19.7357738,125.969255 19.7167181,124.867243 19.6786065,123.765231 C19.6786065,123.209671 19.6214392,122.645003 19.6023834,122.089444 C19.6023834,121.743357 19.6023834,121.397271 19.6023834,121.051184 C20.4884768,120.431872 21.3650424,119.803451 22.2606636,119.229677 C22.2606636,119.858097 22.3749983,120.486517 22.4702771,121.105829 C22.6322512,122.062121 22.813281,123.018412 22.9657272,123.974704 C23.1181734,124.930995 23.2610917,125.796212 23.3944821,126.643213 C23.5278725,127.490214 23.6993744,128.46472 23.8899322,129.311721 C24.1471851,130.441056 24.3758543,131.579498 24.6426352,132.708833 C24.7664977,133.218855 24.8903602,133.728877 25.0046948,134.238899 C25.0912301,134.740275 25.2416177,135.229647 25.4525055,135.696106 C25.4525055,135.696106 25.4525055,135.759858 25.4525055,135.796288 L21.9557713,138.60141 Z M49.5961687,118.355353 C49.4509717,118.267805 49.2818542,118.223429 49.1102465,118.227847 C48.9795668,118.229209 48.8503062,118.25392 48.7291311,118.300708 L48.6433801,118.300708 C48.5083041,118.293414 48.3744452,118.328601 48.2622646,118.400891 C47.8811492,118.674117 47.4905059,118.938235 47.0998625,119.202354 C47.0998625,119.093064 47.0236395,118.974666 46.976,118.865375 L46.7473308,118.246062 L46.2614086,116.952792 C45.9565162,116.087576 45.6802075,115.22236 45.4420104,114.329821 C44.975144,112.590281 44.6035564,110.841634 44.1938573,109.092987 C43.7841582,107.344339 43.2410687,105.522832 42.8218417,103.737754 C42.4026147,102.08929 41.9166925,100.459041 41.5260492,98.8014686 C41.373603,98.1366183 41.2497405,97.4626605 41.1544617,96.7887027 L41.0687107,96.0783147 L46.5091336,96.4972614 C46.9093048,98.182156 47.0712789,99.8943732 47.4619222,101.588375 C47.8525655,103.282377 48.2622646,105.15853 48.6433801,106.943608 C48.8434657,107.854361 49.0244955,108.810653 49.2245811,109.739622 C49.4246667,110.668591 49.6152245,111.606667 49.7962543,112.544744 C49.9772841,113.48282 50.158314,114.293391 50.3488717,115.158607 C50.5394294,116.023823 50.7871544,116.980115 51.0539352,117.836223 C51.2540209,118.537504 51.4541065,119.247892 51.6637199,119.940065 C51.0306543,119.348204 50.3381256,118.817403 49.5961687,118.355353 L49.5961687,118.355353 Z M54.8841454,122.909122 C54.6650041,122.699649 54.4268069,122.490175 54.1981376,122.289809 C54.217222,122.211931 54.217222,122.130891 54.1981376,122.053013 C54.1409703,121.9164 54.083803,121.77068 54.0171078,121.634067 C53.9504126,121.497454 53.8837174,121.388163 53.8170222,121.269765 C53.750327,121.151367 53.5597693,120.777958 53.4359068,120.522947 C53.1119586,119.748806 52.8832894,118.938235 52.6260364,118.127664 C52.3687835,117.317094 52.0829469,116.40634 51.8447498,115.541124 C51.3778834,113.719616 51.0920468,111.898108 50.6632919,110.076601 C50.234537,108.255093 49.7962543,106.433586 49.3293879,104.612078 C49.1102465,103.701324 48.9101609,102.872538 48.7005474,102.007322 C48.4909339,101.142106 48.2908483,100.27689 48.1193463,99.4116736 C47.9954838,98.8196837 47.8811492,98.2276937 47.7382309,97.6357037 L47.4333386,96.4972614 C49.1293023,96.6126236 50.825266,96.703699 52.5212297,96.7704876 C52.4612397,96.8308674 52.4214343,96.9069659 52.4068951,96.9890685 C52.3402414,97.3475251 52.3402414,97.714409 52.4068951,98.0728655 C52.4068951,98.3734143 52.492646,98.6648555 52.5402855,98.9836193 C52.6355643,99.4572113 52.749899,99.8943732 52.8547057,100.395288 C53.0579673,101.318185 53.2675808,102.228939 53.4835462,103.127549 C53.6931597,104.038303 53.8932453,104.949057 54.1504982,105.859811 C54.4077511,106.770564 54.7031156,107.772394 54.9508406,108.737793 C55.1985657,109.703192 55.417707,110.477332 55.6559042,111.342549 C55.8941013,112.207765 56.1132427,113.063873 56.341912,113.919982 C56.5705813,114.77609 56.7992505,115.650414 56.9993361,116.51563 C57.1041429,116.971007 57.2089496,117.426384 57.3328121,117.881761 C57.3932216,118.09619 57.4696407,118.306202 57.5614814,118.510181 C57.6186487,118.646794 57.675816,118.783407 57.7425112,118.910913 L57.4566747,119.694161 C57.0279198,120.859926 56.589637,122.034798 56.2371052,123.227886 C56.1653857,123.455093 56.1081137,123.686239 56.0656033,123.920059 C55.6368484,123.610402 55.2652609,123.246101 54.8841454,122.909122 Z M58.6476604,116.44277 C58.6476604,116.324372 58.5809652,116.215081 58.5523816,116.096683 C58.3237123,115.18593 58.0664594,114.275176 57.8187343,113.40996 C57.5710093,112.544744 57.3328121,111.688635 57.0755592,110.832526 C56.8183063,109.976418 56.5038861,109.065664 56.2466331,108.173125 C55.9893802,107.280587 55.7130715,106.515553 55.4462907,105.6048 C55.1795099,104.694046 54.9603685,103.837937 54.7316993,102.945398 C54.50303,102.05286 54.331528,101.296934 54.1314424,100.477256 C53.9313568,99.6575772 53.7407991,98.8196837 53.6074087,97.9817902 C53.588362,97.7848801 53.588362,97.5867102 53.6074087,97.3898002 C53.6074087,97.3898002 53.6074087,97.3898002 53.6074087,97.3260474 C53.6383324,97.1483322 53.5974634,96.9660241 53.4930741,96.8160253 L57.1517823,96.9253157 C57.1517823,96.9253157 57.1517823,96.979961 57.1517823,97.0163911 C57.1327993,97.2710794 57.1327993,97.526736 57.1517823,97.7814243 C57.1994217,98.2732314 57.2661169,98.7559309 57.3518679,99.2386304 C57.513842,100.24046 57.7139276,101.242289 57.9044853,102.244118 C58.2379613,104.001873 58.6286046,105.759628 59.0001922,107.508275 C59.1240547,108.11848 59.2479172,108.737793 59.4289471,109.329783 C59.5242259,109.648546 59.6195048,109.96731 59.7243115,110.286074 C59.8370986,110.709638 59.9934836,111.121486 60.191178,111.515592 C60.2492247,111.606132 60.323389,111.686271 60.4103193,111.752388 C59.8291183,113.318884 59.2193336,114.876273 58.6476604,116.44277 Z M61.5060262,109.247815 C61.35358,108.847083 61.2201896,108.437244 61.0867992,108.036512 C60.8104905,107.125758 60.5913492,106.215005 60.353152,105.377111 C59.8767577,103.555603 59.4765865,101.788741 59.0859432,99.9854485 C58.8858576,99.2295229 58.7429393,98.5191349 58.6476604,97.7996394 C58.6284345,97.5297616 58.6284345,97.2589463 58.6476604,96.9890685 L59.0287759,96.9890685 C59.8862856,96.9890685 60.7342675,97.0892514 61.5822493,97.1803268 L61.6965839,97.1803268 C61.7239804,97.5352117 61.774898,97.8880782 61.8490301,98.2368012 C61.8490301,98.4918123 61.9538369,98.7468234 62.0110042,99.0018344 C62.1443946,99.621147 62.277785,100.231352 62.4016475,100.823342 C62.52551,101.415332 62.6207889,101.970892 62.7255956,102.553774 C62.782763,102.845216 62.8304024,103.136657 62.8875697,103.464528 C62.9403987,103.874722 63.0694646,104.272596 63.2686851,104.639401 C62.6652524,106.175539 62.0776994,107.711677 61.5060262,109.247815 Z M65.0694556,99.502749 C64.7740911,100.495471 64.4310872,101.469977 64.116667,102.444484 C64.1120694,102.392968 64.1120694,102.341172 64.116667,102.289656 C63.9832766,101.779634 63.8784698,101.260504 63.7546073,100.741374 C63.6307448,100.222245 63.4116034,99.6302546 63.2877409,99.0929098 C63.1638784,98.5555651 63.0209601,98.0000052 62.9256812,97.4444454 C63.1352947,97.4444454 63.3544361,97.5081982 63.5640496,97.5537359 C63.9165814,97.6265962 64.2595853,97.7176715 64.6025892,97.7814243 C64.9455931,97.8451771 65.1837902,97.8542846 65.4696268,97.8907148 C65.3171806,98.4098444 65.1742623,98.9471892 65.0218162,99.4663189 L65.0694556,99.502749 Z" id="Shape" style="mix-blend-mode: soft-light;" transform="translate(34.114261, 121.055738) scale(-1, -1) translate(-34.114261, -121.055738) "></path>
                                    <path d="M185.661041,3.09652976 C185.661041,3.09652976 185.661041,3.04188453 185.661041,3.01456192 C185.659334,2.83107403 185.58435,2.65514283 185.451427,2.52275486 C185.307939,2.40323977 185.126932,2.33274992 184.936921,2.32238902 C183.695827,2.20714901 182.448522,2.16456769 181.20199,2.19488349 L180.182506,2.19488349 C179.496498,2.12202318 178.820018,2.06737795 178.134011,2.04916288 C176.095043,1.98541011 174.046548,1.99451765 171.998052,1.97630257 C169.949557,1.95808749 167.882005,1.92165734 165.823982,1.83058196 C163.765958,1.73950658 161.555489,1.62110858 159.421242,1.53914074 C158.068283,1.48449551 156.715323,1.41163521 155.352835,1.25680706 L153.523481,0.965365839 C152.885113,0.865182919 152.237216,0.819645229 151.617904,0.765 L151.570264,0.765 C151.452877,0.767607453 151.33941,0.8058879 151.246316,0.874290458 C151.059116,0.825935703 150.861844,0.825935703 150.674643,0.874290458 C150.104738,1.02895806 149.772632,1.59467824 149.931468,2.14023826 C150.115327,2.7358743 150.338081,3.31990288 150.59842,3.88888558 C150.808033,4.35337002 151.027175,4.79963939 151.2749,5.2550163 C151.760822,6.16577011 152.227689,7.00366362 152.818417,7.84155713 C153.409146,8.67945063 154.028459,9.59020445 154.600132,10.4827432 C155.019359,11.1293784 155.400475,11.7942287 155.762534,12.4681865 L155.324251,12.6958749 C155.047943,12.8598106 154.800218,13.0419614 154.533437,13.2150046 C154.037987,13.542876 153.580648,13.8889624 153.07567,14.2259414 L149.864773,16.4572882 C147.787694,17.8780641 145.758254,19.3534853 143.728814,20.8289065 C141.699374,22.3043277 139.488905,23.8526092 137.345131,25.3553529 C135.201356,26.8580967 133.162389,28.4792385 131.113893,30.1003803 C129.065398,31.7215221 127.302739,33.2698036 125.349522,34.8636228 C124.396733,35.7106238 123.367722,36.5667324 122.405405,37.4501636 C121.443089,38.3335948 120.633218,39.1168431 119.728069,39.9274139 C119.547899,40.0798399 119.379157,40.2441804 119.223091,40.419221 C119.032534,40.6499453 118.851504,40.8776338 118.680002,41.1022864 C118.39766,41.5652815 118.559408,42.159316 119.042061,42.4319869 L119.18498,42.4319869 L121.004806,44.8636996 C121.652702,45.7198082 122.186264,46.6852072 122.843688,47.4957781 C123.167636,47.9147249 123.501112,48.3245641 123.796477,48.7435109 C124.091841,49.1624576 124.463429,49.6542647 124.749265,50.1460717 C125.406689,51.0568255 126.111753,51.9675794 126.759649,52.8783332 C127.157797,53.4571439 127.610683,53.9998007 128.112609,54.499475 C128.338758,54.7312367 128.598685,54.9306181 128.884368,55.0914649 C129.178455,55.242471 129.503795,55.3295472 129.837156,55.346476 C130.207785,55.3219114 130.571595,55.2388183 130.913807,55.1005725 C131.201816,55.0107594 131.452216,54.8352339 131.628399,54.5996579 L132.485909,53.8892699 L133.638783,52.9785161 C134.381958,52.3592035 135.087022,51.7125683 135.811141,51.0750406 C137.278435,49.6998024 138.850537,48.4520696 140.441693,47.2134445 C142.03285,45.9748193 143.357227,44.6906564 144.862633,43.4793538 C146.368039,42.2680512 147.987779,40.9565658 149.626576,39.7361556 L151.293956,38.4702078 C152.875585,37.3135505 154.47627,36.1842158 156.057899,35.036666 C157.639528,33.8891162 159.383131,32.6595985 161.012399,31.3936507 L161.850853,30.7652306 C162.803642,30.0639502 163.756431,29.3717773 164.709219,28.6613893 L164.623468,28.7251421 L166.090763,27.6868827 L166.843466,27.1768606 L167.224581,27.4318716 C168.101147,28.1604747 168.891961,28.9801531 169.692304,29.790724 C170.492646,30.6012949 171.254877,31.4300809 171.978996,32.3044045 C172.302944,32.7142438 172.617365,33.1331905 172.931785,33.5065996 C173.273857,33.8754818 173.75172,34.1038721 174.265689,34.1441272 C174.694325,34.1496243 175.106936,33.9885744 175.409035,33.6978579 C175.551119,33.5627562 175.672961,33.4095106 175.771095,33.242481 C175.856582,33.1139276 175.932975,32.9800515 175.999764,32.8417493 C176.401711,32.673153 176.700316,32.3373524 176.809634,31.9309955 C176.971609,31.3754356 177.05736,30.8016607 177.181222,30.2369934 C177.305085,29.672326 177.476586,29.0712285 177.629033,28.4974536 C177.943453,27.3772264 178.286457,26.2569992 178.581821,25.1458796 C179.315469,22.8416724 180.106283,20.5465728 180.935209,18.2696883 C181.764135,15.9928037 182.583533,13.7159192 183.36482,11.393497 C183.755463,10.2368397 184.136579,9.07107477 184.479583,7.90530989 C184.822587,6.73954501 185.060784,5.61931782 185.356148,4.47176802 C185.441899,4.16211172 185.52765,3.86156296 185.632457,3.56101421 C185.694153,3.41318707 185.70418,3.25025158 185.661041,3.09652976 Z M153.866485,5.66485551 C153.43773,4.89071477 153.047087,4.10746649 152.685027,3.31511068 L152.237216,2.27685133 L152.180049,2.14023826 L152.303912,2.14023826 C153.2567,2.26774379 154.209489,2.51364732 155.10511,2.65026039 C156.000731,2.78687346 156.915408,2.88705638 157.820558,2.95991669 C157.915836,3.76138004 158.001587,4.5628434 158.144506,5.36430675 C158.287424,6.16577011 158.544677,7.14027669 158.725707,8.0510305 C158.906737,8.96178432 159.097294,9.64484967 159.287852,10.4554206 C159.47841,11.2659915 159.649912,12.2131754 159.840469,13.0874991 C160.031027,13.9618227 160.269224,14.9090067 160.46931,15.8197605 C160.669396,16.7305143 160.840897,17.5410852 161.031455,18.3971938 C161.409161,20.2041722 161.882994,21.9915694 162.45111,23.7524262 C162.651196,24.3079861 162.851281,24.8726534 163.060895,25.4282133 L163.375315,26.2114615 C163.468666,26.5183555 163.642488,26.7973666 163.880293,27.0220324 L163.632568,27.1859681 C162.76553,27.759743 161.917549,28.3699481 161.069567,29.0074757 L160.33592,29.5721431 C160.10725,28.9892607 159.859525,28.4063782 159.649912,27.8234958 C159.335491,26.9856023 159.097294,26.1294937 158.840041,25.2733851 C158.325536,23.5611679 157.820558,21.8398432 157.277468,20.1367336 C157.020215,19.3261627 156.753434,18.5155918 156.553349,17.6776983 C156.353263,16.8398048 156.248456,16.1840621 156.134122,15.4281364 L156.305624,15.3188459 C156.77249,15.0274047 157.258412,14.7086409 157.658584,14.4080921 C157.827433,14.2590603 157.946715,14.0658616 158.001587,13.8525323 L158.001587,13.8525323 C158.030544,13.812061 158.056035,13.7694206 158.077811,13.7250268 C158.135736,13.4998959 158.101661,13.2621233 157.982532,13.0601765 C157.601416,12.2496056 157.210773,11.4299271 156.801074,10.6375713 C156.391375,9.84521551 155.848285,8.99821447 155.333779,8.19675111 C154.819274,7.39528776 154.323823,6.49364148 153.866485,5.66485551 Z M155.10511,16.0201264 C155.171805,16.4481807 155.228973,16.8671274 155.295668,17.2860742 C155.291044,17.2589303 155.291044,17.2312502 155.295668,17.2041063 C155.41953,18.1148601 155.562449,19.0256139 155.724423,19.9363678 C155.886397,20.8471216 156.029315,21.6212623 156.210345,22.4591558 C156.391375,23.2970493 156.600988,24.2806634 156.829657,25.1914173 C157.058327,26.1021711 157.191717,26.8763118 157.420386,27.7142053 C157.58236,28.2697651 157.753862,28.8162174 157.94442,29.3626697 C158.115764,29.8825766 158.316137,30.3933313 158.544677,30.8927361 L156.505709,32.4592327 C156.448542,32.2770819 156.381847,32.0949312 156.315152,31.9127804 C156.162705,31.5120487 156.029315,31.111317 155.905453,30.7014778 C155.78159,30.2916386 155.60056,29.790724 155.457642,29.3808848 C155.314724,28.9710456 155.200389,28.5429913 155.076526,28.1240445 C154.838329,27.3134736 154.619188,26.4937952 154.361935,25.6832243 C154.104682,24.8726534 153.847429,23.9163619 153.599704,23.0329307 C153.351979,22.1494995 153.094726,21.1658854 152.894641,20.2187014 C152.694555,19.2715175 152.58022,18.5884521 152.418246,17.7778812 L152.837473,17.4955475 C153.590176,16.9946329 154.342879,16.5028259 155.10511,16.0201264 Z M151.293956,18.570237 C151.417818,19.162227 151.532153,19.754217 151.665543,20.3370994 C151.875157,21.2478532 152.122882,22.1586071 152.361079,23.0693609 C152.599276,23.9801147 152.799362,24.8908685 153.018503,25.8016223 C153.237644,26.7123761 153.409146,27.4591943 153.561593,28.2970878 C153.647344,28.7342496 153.733094,29.1623039 153.809318,29.5994657 C153.885541,30.0366275 154.018931,30.5921874 154.133266,31.0839944 C154.2476,31.5758015 154.304768,31.9947482 154.419102,32.4045875 C154.47627,32.6322759 154.542965,32.8599644 154.60966,33.0876528 C154.664688,33.3403816 154.761157,33.583209 154.895497,33.8071483 C154.400047,34.1896649 153.942708,34.563074 153.428202,34.9546981 C153.35372,35.0114931 153.297566,35.0872714 153.266228,35.173279 L152.685027,35.6013333 C152.599276,35.3098921 152.494469,35.036666 152.408718,34.7452248 C152.2658,34.2898478 152.122882,33.8344709 151.999019,33.360879 C151.751294,32.4956628 151.484513,31.6486618 151.217733,30.7834457 C150.950952,29.9182295 150.693699,28.961938 150.436446,28.0511842 C150.179193,27.1404304 149.912412,26.2752143 149.693271,25.373568 C149.299955,23.9538728 148.981954,22.5160837 148.740482,21.0657025 C148.740482,20.838014 148.740482,20.6194331 148.683315,20.4008522 C149.512241,19.7360019 150.379279,19.1531195 151.246316,18.570237 L151.293956,18.570237 Z M147.778166,20.9746271 C147.842005,21.5859254 147.9374,22.1938356 148.064002,22.7961347 C148.25456,23.7068885 148.492757,24.6176424 148.702371,25.5830414 C148.79765,26.0202032 148.892928,26.4482575 149.007263,26.8854194 C149.121598,27.3225812 149.264516,27.7961732 149.397906,28.2606576 C149.645631,29.1714114 149.874301,30.0821652 150.093442,30.992919 C150.312583,31.9036729 150.474557,32.6322759 150.59842,33.4610619 L150.59842,33.4610619 C150.59842,33.4610619 150.59842,33.5339222 150.59842,33.5703523 L150.59842,33.5703523 C150.59842,33.8253634 150.665115,34.0712669 150.703227,34.326278 L150.703227,34.1350197 C150.703227,34.4993212 150.808033,34.8636228 150.846145,35.2188167 C150.809685,35.6976759 150.955154,36.173037 151.255844,36.5576248 L148.664259,38.5612832 C148.61662,38.3791325 148.549924,38.2060892 148.492757,38.033046 C148.340311,37.6414219 148.206921,37.2406902 148.092586,36.8399585 C147.825805,35.9292047 147.597136,35.0913112 147.377995,34.2169875 C147.158853,33.3426639 146.873017,32.4956628 146.644347,31.6395543 C146.415678,30.7834457 146.253704,29.9910899 146.110786,29.1531963 C145.9107,28.0147541 145.739198,26.8672043 145.539113,25.728762 C145.434306,25.136772 145.319971,24.5447821 145.205636,23.9527921 C145.138941,23.6067056 145.062718,23.2606192 144.986495,22.9145327 L145.072246,22.85078 L147.778166,20.9746271 Z M143.852677,23.7068885 L144.252848,25.4191057 C144.471989,26.3298595 144.643491,27.2406133 144.843577,28.1513672 C145.043662,29.062121 145.205636,29.8909069 145.386666,30.7652306 C145.567696,31.6395543 145.739198,32.4228025 145.929756,33.2515885 C146.167953,34.3718157 146.387094,35.510258 146.663403,36.6213776 C146.787266,37.1222922 146.930184,37.6232068 147.073102,38.1150139 L147.320827,38.8982621 C147.377995,39.0530903 147.44469,39.2079184 147.511385,39.3718541 C147.530375,39.4042678 147.552719,39.434779 147.57808,39.4629295 L146.825377,39.9274139 L144.853105,41.4483728 C144.853105,41.3117597 144.795937,41.1842542 144.757826,41.0476411 C144.643491,40.6469095 144.548212,40.2279627 144.443406,39.827231 C144.338599,39.4264994 144.205208,38.9164772 144.090874,38.5248531 C143.976539,38.1332289 143.852677,37.6140993 143.709758,37.1587224 C143.43345,36.2479685 143.119029,35.3372147 142.909416,34.4264609 C142.699802,33.5157071 142.566412,32.6778136 142.423494,31.8034899 C142.309159,31.111317 142.21388,30.4191441 142.109074,29.7178637 C142.004267,29.0165833 141.861348,28.2697651 141.747014,27.5502696 C141.632679,26.8307741 141.575512,26.0110957 141.5374,25.2369549 L141.861348,25.0092665 L143.852677,23.7068885 Z M136.630539,29.909122 C136.630539,30.7561231 136.697234,31.5940166 136.735346,32.4319101 C136.773457,33.2698036 136.840153,34.0257292 136.944959,34.8180851 C137.049766,35.6104409 137.173629,36.4210118 137.287963,37.2224751 C137.449937,38.4337777 137.611911,39.6450803 137.811997,40.8654904 C138.012083,42.0859005 138.164529,43.1423749 138.336031,44.2808172 C138.331468,44.2414717 138.331468,44.2017647 138.336031,44.1624192 C138.336031,44.5176132 138.421782,44.8819147 138.469421,45.2371087 C138.492476,45.6386077 138.549835,46.0376328 138.640923,46.4301962 C138.661292,46.5159023 138.700242,46.5965712 138.755258,46.6669922 L136.363758,48.661543 C136.211312,48.1515209 136.020754,47.6414987 135.877836,47.1223691 L135.563416,45.9110665 C135.449081,45.4830122 135.353802,45.0549579 135.258523,44.6269036 C135.163245,44.1988493 135.039382,43.7161498 134.934575,43.2425578 C134.829769,42.7689658 134.753546,42.4046643 134.667795,41.9857176 C134.477237,41.0749638 134.324791,40.1642099 134.134233,39.3081014 C133.972259,38.5886058 133.838868,37.8600028 133.715006,37.1405073 C133.591143,36.4210118 133.495865,35.7743766 133.400586,35.0913112 C133.27467,34.3189015 133.191977,33.5406177 133.152861,32.7597814 C133.152861,32.3681573 133.152861,31.9765332 133.152861,31.584909 C133.148155,31.5212356 133.148155,31.4573241 133.152861,31.3936507 C134.000843,30.737908 134.858352,30.0821652 135.72539,29.43553 L136.601955,28.8071099 L136.630539,29.909122 Z M123.996562,45.6560554 C123.596391,45.1551408 123.215276,44.6451187 122.796049,44.1533116 C122.376822,43.6615046 121.948067,43.2425578 121.547895,42.7234282 L120.757081,41.7489216 C121.109613,41.3846201 121.509784,41.0567487 121.890899,40.7197698 L123.291499,39.4356069 C123.682142,39.0895204 124.091841,38.7525415 124.482484,38.4155626 C124.482484,38.6068209 124.482484,38.7980792 124.482484,38.9893375 C124.482484,39.1805958 124.482484,39.4811446 124.482484,39.7270481 C124.539652,40.7015547 124.606347,41.6669537 124.68257,42.6414603 C124.68257,43.1150523 124.777849,43.5977518 124.844544,44.0804513 C124.911239,44.5631509 124.958879,45.0458504 125.04463,45.5376574 C125.130381,46.0294645 125.225659,46.5759168 125.320938,47.0950465 L125.320938,47.0950465 C124.882656,46.5850243 124.415789,46.1114323 123.987034,45.6014102 L123.996562,45.6560554 Z M128.436557,50.7835994 C127.893468,50.2098245 127.369434,49.6269421 126.873984,49.0258445 L126.66437,48.779941 C126.511924,48.0968757 126.359478,47.4138103 126.21656,46.7307449 C126.073641,46.0476796 125.930723,45.3281841 125.797333,44.6177961 C125.663942,43.9074081 125.578191,43.278988 125.473385,42.6050302 L125.473385,42.6596754 C125.349522,41.7489216 125.235187,40.7653075 125.111325,39.8181235 C125.054158,39.3627466 124.987462,38.9073697 124.939823,38.4337777 C124.939823,38.2971646 124.939823,38.151444 124.939823,38.0148309 C125.368578,37.6505294 125.778277,37.2771204 126.21656,36.9219264 C126.854928,36.3936892 127.512352,35.8745595 128.122137,35.3554298 L128.122137,35.8199143 C128.169776,36.2297535 128.207888,36.6487002 128.265055,37.0585394 C128.37939,37.9814366 128.503252,38.8921904 128.636643,39.7908009 C128.63208,39.8301464 128.63208,39.8698534 128.636643,39.9091989 C128.760505,40.8199527 128.893896,41.7853517 129.074925,42.7143206 C129.255955,43.6432895 129.465569,44.599581 129.656126,45.5376574 C129.846684,46.4757339 130.018186,47.3591651 130.18016,48.2699189 C130.265911,48.6888656 130.332606,49.1078124 130.418357,49.5267591 C130.504108,49.9457059 130.608915,50.3282225 130.694666,50.7289542 C130.780417,51.1296858 130.85664,51.4757723 130.923335,51.8491814 C130.923335,52.0313321 130.999558,52.2225904 131.028142,52.4047412 C131.051521,52.5553679 131.117401,52.697057 131.2187,52.8145804 C131.003254,52.6495787 130.732232,52.5653822 130.456469,52.5777844 L130.304023,52.5777844 C130.168434,52.5106534 130.037903,52.434573 129.913379,52.350096 C129.389934,51.8337671 128.893863,51.2927091 128.427029,50.7289542 L128.436557,50.7835994 Z M132.819385,51.6943532 C132.724106,51.7854286 132.619299,51.8582889 132.52402,51.9402567 L132.409686,51.5668477 C132.304879,51.2207612 132.181016,50.8837823 132.07621,50.5376959 C131.971403,50.1916094 131.828485,49.7726627 131.71415,49.3901461 C131.599815,49.0076295 131.495008,48.5795752 131.39973,48.1788435 C131.180588,47.2680897 130.980503,46.3573359 130.780417,45.4465821 C130.580331,44.5358282 130.380246,43.6250744 130.18016,42.7143206 C129.779989,40.892813 129.541792,39.1259506 129.227372,37.322658 C129.227372,37.322658 129.227372,37.4046259 129.227372,37.441056 C129.160676,36.9401414 129.093981,36.4392268 129.036814,35.9383122 C128.978921,35.5002868 128.969341,35.0576588 129.00823,34.6177192 C130.04677,33.7798257 131.085309,32.9328247 132.133377,32.1040387 L132.533548,31.7943824 C132.533548,32.1222538 132.533548,32.4592327 132.533548,32.7871041 C132.534926,33.1919259 132.560374,33.5963457 132.609771,33.9984066 C132.609771,34.444676 132.695522,34.9091604 132.752689,35.3372147 C132.83844,36.1568932 132.924191,36.9674641 133.038526,37.7871425 C133.152861,38.6068209 133.286251,39.4629295 133.400586,40.300823 C133.591143,41.7033839 133.753117,43.1059448 133.943675,44.4993981 C134.048482,45.2280011 134.153289,45.9474967 134.277151,46.6760997 C134.334319,47.0221862 134.381958,47.3682726 134.439125,47.714359 C134.496293,48.0604455 134.55346,48.4156395 134.601099,48.7617259 C134.601099,48.9711993 134.658267,49.1897802 134.68685,49.3901461 C134.715434,49.5905119 134.68685,49.6269421 134.753546,49.7453401 C134.767378,49.8027774 134.789843,49.8579962 134.820241,49.9092757 C134.172344,50.5103733 133.505392,51.1114708 132.819385,51.6943532 Z M139.955771,45.6014102 C139.955771,45.3828293 139.87002,45.1551408 139.831909,44.9274524 C139.755686,44.5358282 139.679463,44.1533116 139.593712,43.7616875 C139.431738,42.9875468 139.279291,42.213406 139.126845,41.4392653 C138.974399,40.6651245 138.793369,39.8545536 138.631395,39.0530903 C138.469421,38.2516269 138.336031,37.4683787 138.221696,36.6669153 L138.221696,36.6669153 L138.221696,36.5667324 C138.107361,35.7288389 137.983499,34.9000529 137.869164,34.0712669 C137.735774,32.9692548 137.716718,31.8672427 137.678607,30.7652306 C137.678607,30.2096708 137.621439,29.6450034 137.602383,29.0894436 C137.602383,28.7433571 137.602383,28.3972707 137.602383,28.0511842 C138.488477,27.4318716 139.365042,26.8034515 140.260664,26.2296766 C140.260664,26.8580967 140.374998,27.4865169 140.470277,28.1058295 C140.632251,29.062121 140.813281,30.0184125 140.965727,30.974704 C141.118173,31.9309955 141.261092,32.7962116 141.394482,33.6432126 C141.527872,34.4902137 141.699374,35.4647203 141.889932,36.3117213 C142.147185,37.441056 142.375854,38.5794983 142.642635,39.708833 C142.766498,40.2188552 142.89036,40.7288773 143.004695,41.2388994 C143.09123,41.7402753 143.241618,42.2296467 143.452505,42.6961055 C143.452505,42.6961055 143.452505,42.7598583 143.452505,42.7962885 L139.955771,45.6014102 Z M167.596169,25.3553529 C167.450972,25.2678053 167.281854,25.223429 167.110246,25.2278474 C166.979567,25.2292087 166.850306,25.2539203 166.729131,25.3007077 L166.64338,25.3007077 C166.508304,25.293414 166.374445,25.3286012 166.262265,25.4008906 C165.881149,25.6741168 165.490506,25.9382354 165.099863,26.202354 C165.099863,26.0930635 165.023639,25.9746655 164.976,25.8653751 L164.747331,25.2460625 L164.261409,23.9527921 C163.956516,23.087576 163.680208,22.2223598 163.44201,21.3298211 C162.975144,19.5902813 162.603556,17.841634 162.193857,16.0929867 C161.784158,14.3443393 161.241069,12.5228317 160.821842,10.7377542 C160.402615,9.08928985 159.916693,7.45904052 159.526049,5.80146858 C159.373603,5.1366183 159.249741,4.46266048 159.154462,3.78870266 L159.068711,3.07831468 L164.509134,3.49726144 C164.909305,5.18215599 165.071279,6.89437316 165.461922,8.58837525 C165.852566,10.2823773 166.262265,12.1585302 166.64338,13.9436077 C166.843466,14.8543615 167.024496,15.810653 167.224581,16.7396219 C167.424667,17.6685908 167.615224,18.6066672 167.796254,19.5447436 C167.977284,20.48282 168.158314,21.2933909 168.348872,22.1586071 C168.539429,23.0238232 168.787154,23.9801147 169.053935,24.8362233 C169.254021,25.5375037 169.454106,26.2478917 169.66372,26.9400646 C169.030654,26.3482043 168.338126,25.8174033 167.596169,25.3553529 L167.596169,25.3553529 Z M172.884145,29.909122 C172.665004,29.6996486 172.426807,29.4901753 172.198138,29.2898094 C172.217222,29.2119314 172.217222,29.1308914 172.198138,29.0530134 C172.14097,28.9164004 172.083803,28.7706797 172.017108,28.6340667 C171.950413,28.4974536 171.883717,28.3881631 171.817022,28.2697651 C171.750327,28.1513672 171.559769,27.7779581 171.435907,27.522947 C171.111959,26.7488063 170.883289,25.9382354 170.626036,25.1276645 C170.368784,24.3170936 170.082947,23.4063398 169.84475,22.5411237 C169.377883,20.719616 169.092047,18.8981084 168.663292,17.0766008 C168.234537,15.2550932 167.796254,13.4335855 167.329388,11.6120779 C167.110246,10.7013241 166.910161,9.87253813 166.700547,9.00732201 C166.490934,8.14210588 166.290848,7.27688976 166.119346,6.41167364 C165.995484,5.81968366 165.881149,5.22769368 165.738231,4.6357037 L165.433339,3.49726144 C167.129302,3.61262359 168.825266,3.70369897 170.52123,3.77048758 C170.46124,3.8308674 170.421434,3.90696594 170.406895,3.9890685 C170.340241,4.34752505 170.340241,4.71440898 170.406895,5.07286553 C170.406895,5.37341429 170.492646,5.66485551 170.540285,5.98361935 C170.635564,6.45721133 170.749899,6.89437316 170.854706,7.39528776 C171.057967,8.31818495 171.267581,9.22893877 171.483546,10.1275492 C171.69316,11.038303 171.893245,11.9490568 172.150498,12.8598106 C172.407751,13.7705644 172.703116,14.7723936 172.950841,15.7377927 C173.198566,16.7031917 173.417707,17.4773325 173.655904,18.3425486 C173.894101,19.2077647 174.113243,20.0638733 174.341912,20.9199819 C174.570581,21.7760905 174.799251,22.6504141 174.999336,23.5156302 C175.104143,23.9710071 175.20895,24.4263841 175.332812,24.881761 C175.393222,25.0961901 175.469641,25.3062022 175.561481,25.5101811 C175.618649,25.6467942 175.675816,25.7834072 175.742511,25.9109128 L175.456675,26.694161 C175.02792,27.8599259 174.589637,29.0347983 174.237105,30.2278858 C174.165386,30.4550926 174.108114,30.6862392 174.065603,30.9200587 C173.636848,30.6104024 173.265261,30.2461009 172.884145,29.909122 Z M176.64766,23.4427699 C176.64766,23.3243719 176.580965,23.2150815 176.552382,23.0966835 C176.323712,22.1859297 176.066459,21.2751759 175.818734,20.4099597 C175.571009,19.5447436 175.332812,18.688635 175.075559,17.8325265 C174.818306,16.9764179 174.503886,16.0656641 174.246633,15.1731253 C173.98938,14.2805866 173.713072,13.5155534 173.446291,12.6047996 C173.17951,11.6940458 172.960369,10.8379372 172.731699,9.94539843 C172.50303,9.0528597 172.331528,8.29693403 172.131442,7.4772556 C171.931357,6.65757717 171.740799,5.81968366 171.607409,4.98179015 C171.588362,4.78488011 171.588362,4.58671022 171.607409,4.38980017 C171.607409,4.38980017 171.607409,4.38980017 171.607409,4.32604741 C171.638332,4.14833217 171.597463,3.96602408 171.493074,3.81602527 L175.151782,3.92531573 C175.151782,3.92531573 175.151782,3.97996096 175.151782,4.01639111 C175.132799,4.27107939 175.132799,4.52673604 175.151782,4.78142431 C175.199422,5.27323137 175.266117,5.75593089 175.351868,6.23863041 C175.513842,7.24045961 175.713928,8.2422888 175.904485,9.244118 C176.237961,11.0018729 176.628605,12.7596277 177.000192,14.508275 C177.124055,15.1184801 177.247917,15.7377927 177.428947,16.3297827 C177.524226,16.6485465 177.619505,16.9673103 177.724312,17.2860742 C177.837099,17.7096381 177.993484,18.1214864 178.191178,18.5155918 C178.249225,18.606132 178.323389,18.6862712 178.410319,18.7523878 C177.829118,20.3188844 177.219334,21.8762734 176.64766,23.4427699 Z M179.506026,16.2478148 C179.35358,15.8470831 179.22019,15.4372439 179.086799,15.0365122 C178.810491,14.1257584 178.591349,13.2150046 178.353152,12.3771111 C177.876758,10.5556035 177.476586,8.78874109 177.085943,6.98544854 C176.885858,6.22952288 176.742939,5.5191349 176.64766,4.79963939 C176.628435,4.52976159 176.628435,4.25894629 176.64766,3.9890685 L177.028776,3.9890685 C177.886286,3.9890685 178.734267,4.08925142 179.582249,4.1803268 L179.696584,4.1803268 C179.72398,4.53521169 179.774898,4.88807823 179.84903,5.23680122 C179.84903,5.49181229 179.953837,5.74682336 180.011004,6.00183442 C180.144395,6.62114702 180.277785,7.23135207 180.401648,7.82334205 C180.52551,8.41533203 180.620789,8.97089185 180.725596,9.55377429 C180.782763,9.84521551 180.830402,10.1366567 180.88757,10.4645281 C180.940399,10.8747223 181.069465,11.2725965 181.268685,11.6394005 C180.665252,13.1755386 180.077699,14.7116767 179.506026,16.2478148 Z M183.069456,6.50274902 C182.774091,7.49547068 182.431087,8.46997726 182.116667,9.44448384 C182.112069,9.39296801 182.112069,9.34117151 182.116667,9.28965569 C181.983277,8.77963355 181.87847,8.26050388 181.754607,7.74137421 C181.630745,7.22224453 181.411603,6.63025455 181.287741,6.0929098 C181.163878,5.55556506 181.02096,5.00000523 180.925681,4.4444454 C181.135295,4.4444454 181.354436,4.50819817 181.56405,4.55373586 C181.916581,4.62659617 182.259585,4.71767155 182.602589,4.78142431 C182.945593,4.84517708 183.18379,4.85428462 183.469627,4.89071477 C183.317181,5.40984445 183.174262,5.94718919 183.021816,6.46631887 L183.069456,6.50274902 Z" id="Shape-Copy" style="mix-blend-mode: soft-light;"></path>
                                </g>
                                <g id="cactus" transform="translate(67.500000, 36.000000)">
                                    <mask id="mask-2" fill="white">
                                        <use xlink:href="#path-1"></use>
                                    </mask>
                                    <use id="Shape" fill="#68B086" xlink:href="#path-1"></use>
                                </g>
                            </g>
                        </g>
                    </g>
                </g>
            </g>
        </g>
    </g>
</svg>