<?xml version="1.0" encoding="UTF-8"?>
<svg width="165px" height="177px" viewBox="0 0 165 177" version="1.1" xmlns="http://www.w3.org/2000/svg" xmlns:xlink="http://www.w3.org/1999/xlink">
    <!-- Generator: Sketch 55.2 (78181) - https://sketchapp.com -->
    <title>money</title>
    <desc>Created with Sketch.</desc>
    <defs>
        <ellipse id="path-1" cx="52.6107158" cy="53.7183544" rx="52.6107158" ry="52.6107595"></ellipse>
        <ellipse id="path-3" cx="52.6107158" cy="53.7183544" rx="52.6107158" ry="52.6107595"></ellipse>
        <path d="M14.0031314,56.5825458 C11.9777214,56.4415157 10.1786387,56.1944345 8.60586226,55.8413003 C5.98731502,55.2533601 3.20515031,54.3009112 0.259284668,52.9839252 L0.259284668,45.2231533 C2.3868543,46.7282802 4.9917242,47.9394189 8.07397251,48.8566056 C9.99226066,49.4274319 11.9686392,49.8206239 14.0031314,50.0361851 L14.0031314,34.5823806 C11.2979715,33.7516934 9.04884081,32.9008542 7.25568059,32.029841 C5.31904669,31.0891367 3.69611728,29.7486531 2.38684366,28.0083501 C1.07757004,26.2680471 0.422943052,24.0339079 0.422943052,21.3058653 C0.422943052,19.0481749 1.07757004,16.9081047 2.38684366,14.8855904 C3.69611728,12.8630761 5.74182663,11.2051095 8.52403307,9.91164109 C10.1177148,9.1707266 11.9440743,8.64201772 14.0031314,8.3255108 L14.0031314,0.326757534 L23.3385744,0.326757534 L23.3385744,8.17014106 C24.5593984,8.29344946 25.6629371,8.47415185 26.6491991,8.71224907 C28.6949391,9.20611884 31.1361523,10.0409814 33.9729118,11.2168618 L33.9729118,18.8365288 C31.1907054,17.3314019 28.7904064,16.2143322 26.7719429,15.4852864 C25.7293619,15.1087181 24.584909,14.8294041 23.3385744,14.6473431 L23.3385744,29.3447975 C25.7354896,30.0890986 27.793692,30.8547623 29.5132208,31.6418024 C31.7226201,32.6530596 33.5364823,34.0405777 34.9548621,35.8043983 C36.3732419,37.5682189 37.0824211,39.8141168 37.0824211,42.5421593 C37.0824211,45.1290962 36.414156,47.4925804 35.0776059,49.6326828 C33.7410557,51.7727851 31.6680703,53.4895448 28.8585873,54.7830132 C27.2473426,55.5248202 25.4073449,56.0539101 23.3385744,56.3702864 L23.3385744,64.6375874 L14.0031314,64.6375874 L14.0031314,56.5825458 Z M23.3385744,49.4472525 C24.0826939,49.1861494 24.736174,48.8599211 25.2990174,48.468567 C26.9901625,47.2926866 27.8357224,45.6229614 27.8357224,43.4593415 C27.8357224,42.0012498 27.3447522,40.8018697 26.3627969,39.8611654 C25.5309067,39.064222 24.52284,38.3854385 23.3385744,37.824801 L23.3385744,49.4472525 Z M14.0031314,15.1965001 C13.3305292,15.4382122 12.7316018,15.7343728 12.2063467,16.0849824 C10.5152016,17.2138276 9.66964176,18.6954147 9.66964176,20.5297881 C9.66964176,22.0819425 10.1333359,23.3401234 11.060738,24.3043454 C11.8395578,25.1140859 12.8203484,25.7911335 14.0031314,26.335502 L14.0031314,15.1965001 Z" id="path-5"></path>
        <path d="M26.8936029,44.2995691 C16.628248,44.2995691 8.30696203,35.9941688 8.30696203,25.7494681 C8.30696203,15.5047673 16.628248,7.19936709 26.8936029,7.19936709 C37.1589579,7.19936709 45.4802438,15.5047673 45.4802438,25.7494681 C45.4802438,35.9941688 37.1589579,44.2995691 26.8936029,44.2995691 Z" id="path-7"></path>
        <ellipse id="path-9" cx="30.4588608" cy="31.0126582" rx="21.5981013" ry="21.0443038"></ellipse>
    </defs>
    <g id="Roam-with-care" stroke="none" stroke-width="1" fill="none" fill-rule="evenodd">
        <g id="Tablet---Roadmap-3" transform="translate(-803.000000, -407.000000)">
            <g id="Goals:-roadmap" transform="translate(256.500000, 117.000000)">
                <g id="Roadmap" transform="translate(0.000000, 128.000000)">
                    <g id="Phase-2" transform="translate(58.000000, 112.000000)">
                        <g id="money" transform="translate(489.500000, 52.000000)">
                            <g id="coin-1" transform="translate(54.825958, 0.000000)">
                                <ellipse id="Oval-Copy" stroke="#000000" stroke-width="2" cx="53.7183107" cy="52.6107595" rx="53.6107158" ry="53.6107595"></ellipse>
                                <mask id="mask-2" fill="white">
                                    <use xlink:href="#path-1"></use>
                                </mask>
                                <ellipse stroke="#000000" stroke-width="2" cx="52.6107158" cy="53.7183544" rx="53.6107158" ry="53.6107595"></ellipse>
                                <mask id="mask-4" fill="white">
                                    <use xlink:href="#path-3"></use>
                                </mask>
                                <ellipse stroke="#000000" stroke-width="2" cx="52.6107158" cy="53.7183544" rx="53.6107158" ry="53.6107595"></ellipse>
                                <path d="M0.900994236,58.7706747 C6.62834221,78.5487553 6.05914864,82.1018215 15.8373013,98.3790917 C18.4730071,102.766638 27.0851952,115.425226 24.807306,110.841698 C11.4557175,83.9758712 -4.71667069,58.5417338 -17.4586898,31.381496 C-20.1323388,25.6824822 -8.78787308,40.646984 -5.58233003,46.0647004 C6.60454905,66.6618514 16.9838512,88.2784274 28.589786,109.208428 C29.2974252,110.484576 30.0706968,113.368757 31.3263243,112.625315 C32.6262863,111.855623 30.8893805,109.593216 30.2576682,108.220895 C20.7664207,87.6022579 10.3773831,67.402679 0.99509654,46.7342328 C-2.95354052,38.0356931 -6.65573046,29.202273 -9.71958651,20.1541176 C-12.1280935,13.0413339 -19.5416609,-7.90595888 -15.3884391,-1.64949441 C152.362675,251.052851 49.2868103,124.833833 26.0609218,58.7544502 C18.1489964,36.2444333 -0.414924055,13.1529513 5.77376298,-9.89047666 C10.5885029,-27.8180456 22.0754022,23.4886758 31.1889566,39.6603355 C41.8567606,58.5899528 54.5479226,76.3378704 65.0787657,95.344022 C68.7988842,102.058122 77.0031555,123.633535 73.8410963,116.639265 C57.1043302,79.6186254 41.6299122,41.0865876 33.2375745,1.12490111 C31.6023878,-6.66134654 26.4060677,-28.7605813 31.5404882,-22.6829819 C43.795036,-8.17730694 47.5383819,11.7804063 56.4191904,28.5649167 C70.7740869,55.6953189 86.2706725,82.2061064 101.221622,109.012652 C103.409288,112.935062 96.3949487,101.380236 94.7090935,97.217415 C85.7823913,75.1750352 77.0623439,53.0254888 69.4269411,30.5032078 C66.9611594,23.2298485 65.692743,15.585199 64.4643966,8.00410403 C63.97328,4.97303532 63.2425185,-4.09273305 64.2891716,-1.20602378 C77.0023261,33.8573419 87.1066587,69.8251893 99.6186379,104.960845 C101.063093,109.017107 98.8524674,96.3150439 97.554877,92.2094418 C90.9797468,71.4055971 82.2314384,51.3126934 76.0497964,30.3885544 C73.3168841,21.1379644 72.3454214,11.4504681 70.8795778,1.91665843 C70.6184451,0.218257475 70.100807,-4.7701718 70.8795778,-3.23841723 C84.2544509,23.0684523 76.9497398,58.5664876 91.3938802,84.4454608 C92.0592848,85.637639 94.1440904,88.121252 94.6939506,86.8715697 C96.2832011,83.2596367 96.0991458,78.9660179 95.5224836,75.0622713 C92.7409999,56.2328663 87.7298322,37.788074 84.6682695,19.0021756 C83.7672602,13.4735383 82.7167885,-3.29468121 83.6526136,2.2281695 C87.3613247,24.1154397 97.5179513,89.9012973 92.9990275,68.1668438 L97.2898763,85.1063402 C93.5724426,67.2267757 88.6088247,49.6040426 85.4016185,31.6259457 C83.4134756,20.4813472 76.5799222,-12.2194046 81.7262205,-2.13623047 C210.381057,249.93799 -20.5292155,-118.259939 94.9265023,-9.27069942 C113.990745,8.72578713 105.387198,42.1160956 111.35114,67.6454955 C113.397012,76.4031072 120.839856,102.326649 118.943141,93.5355271 C115.980659,79.8046588 111.231402,66.5054422 108.148417,52.8011274 C104.585698,36.9643282 104.515991,20.2401452 99.0183301,4.96687104 C95.1476487,-5.7864263 101.129363,27.7562998 103.180464,38.9994561 C107.281246,61.4779867 118.2689,83.209511 117.458055,106.044644 C116.389899,136.126226 77.5794257,-19.0412117 90.7924907,24.0945164 C98.9203361,50.6288995 109.009127,76.9976898 112.095305,104.576864 C113.351944,115.806625 100.514605,85.0491662 96.4343024,74.5117187 C86.7243032,49.4354866 82.8972512,22.0422011 70.8309042,-1.98912802 C64.1983862,-15.1984467 76.4282585,27.0466264 79.8247049,41.4320547 C81.8467584,49.9963311 84.0184552,58.5643957 87.0759905,66.8158809 C94.9395601,88.0375906 107.882334,107.605802 112.550674,129.750853 C115.924144,145.753469 97.6474817,100.614552 91.0466751,85.6514846 C76.6390478,52.9914916 65.724306,18.7498338 49.5464773,-13.0704856 C46.8700545,-18.3347662 49.2124137,-1.22636962 49.8612333,4.64346198 C50.6308419,11.6060639 52.0957553,18.4907351 53.7864892,25.2886422 C62.3308293,59.6427363 76.3544579,92.9109696 80.5569723,128.061338 C83.118354,149.485063 65.6125705,87.5714239 58.7858093,67.103596 C51.1842721,44.3128535 44.7721565,21.1387395 37.2807287,-1.6884333 C36.2699716,-4.76831701 33.9550716,-13.7342433 33.2981461,-10.5600091 C31.8842253,-3.72800783 33.2912229,3.50412153 34.7962116,10.3166411 C39.6901193,32.4695275 45.2492887,54.5331676 52.4322813,76.0530496 C59.9610312,98.6088027 95.1104251,159.672004 78.8555594,142.316215 C56.7768289,118.742117 48.1436078,85.4636936 34.03474,56.409464 C24.5947594,36.9698201 0.927647534,-23.4062013 8.25287196,-3.07509024 C23.3914986,38.9420661 42.9907886,79.2909567 57.4975812,121.530422 C60.2962238,129.679236 47.6112709,107.365122 43.5693586,99.7560139 C34.6651258,82.9933376 26.3260331,65.9120317 18.7166155,48.5232583 C11.2218567,31.396499 5.61811553,13.4896009 -1.70791102,-3.71001038 C-2.44889241,-5.4496426 -1.76304785,0.151792321 -1.1281543,1.93288296 C4.82295903,18.627764 10.6899013,35.3978373 17.9897564,51.5485933 C28.5574518,74.9293687 44.1883549,96.0922972 52.4149751,120.395786 C67.8751447,166.068984 -38.8207567,-46.1503021 1.64948613,35.5749975 C18.3491273,69.2981256 37.7077312,101.681595 53.8751833,135.663074 C57.186697,142.623362 -70.9054201,-63.5086553 -4.82734833,16.617169 C21.8535572,48.970255 36.2932651,89.8529885 53.3646513,128.156522 C54.9094572,131.622645 46.0156527,125.846118 42.8933363,123.689367 C37.4049106,119.898217 32.0319993,115.69646 27.8283145,110.517207 C17.0532554,97.241531 7.05921141,83.2679411 -1.7890337,68.6373554 C-5.88417299,61.8660368 -16.6596405,41.3652163 -10.7860793,46.6682531 C7.73105425,63.3867372 21.0102706,85.1261978 37.3521167,103.976556 C64.7483365,135.578161 46.6667425,92.4729667 41.065372,76.060621 C33.8778644,55.0008008 24.6026074,34.6955811 17.3288769,13.6653852 C14.1874729,4.58279098 5.11186905,-5.82099472 9.85369276,-14.1802438 C13.5286852,-20.6588011 19.0231885,-2.38629768 22.7889739,4.03990927 C44.2929858,40.7359018 66.8245679,76.9421286 85.6125375,115.100098 C98.2239942,140.7137 55.4932918,66.5737824 41.3639034,41.7651985 C37.4281338,34.8547176 34.3450651,27.4695665 31.4788349,20.0513622 C29.8929728,15.9469295 25.9517052,3.43610589 28.0489682,7.30428575 C117.045759,171.449462 -89.8350973,-184.891147 70.0294122,96.2991063 C74.3156493,103.838291 88.7227445,125.067066 86.0105794,116.829633 C-22.4747085,-212.66368 111.334818,241.266489 42.1448444,15.9108609 C38.0243849,2.49029314 24.6828366,-36.9768821 31.9158157,-24.9446821 C44.7744205,-3.55414533 48.8995723,22.0637591 59.4423622,44.6856149 C67.790954,62.59934 69.0233593,99.9546367 88.4626475,96.388882 C107.520021,92.893182 70.9940774,61.7715413 63.3459853,43.969572 C56.8063439,28.7476717 39.2790922,-17.7537284 45.9413856,-2.58510928 C57.1859029,23.0162549 66.2499869,49.5282563 77.1054728,75.2969863 C80.9911169,84.5207201 95.6019314,110.734418 90.144591,102.344368 C81.526077,89.0943687 74.5954169,74.8026662 67.5730176,60.6419044 C58.3651425,42.0741018 53.6512969,20.9798626 41.4774751,4.20648116 C36.4350463,-2.74109741 42.1232595,21.6561343 45.1171792,29.7017158 C52.7284391,50.155508 62.6667696,69.717533 73.0071552,88.9364122 C78.9575389,99.9959325 97.8883152,132.207973 93.867581,120.310337 C45.7931478,-21.9453057 71.5441674,99.1201801 50.907175,21.886898 C49.8308283,17.8587048 47.2321197,5.76391248 49.0478433,9.51731235 C59.1434735,30.3866441 66.6329166,52.4242038 75.9492043,73.6529 C82.5345404,88.6586732 99.2844489,134.389081 96.7436502,118.200066 C92.6130382,91.881356 78.8377607,67.996823 71.0623743,42.5158537 C67.8719393,32.0603765 65.7790418,21.2827606 63.8846399,10.5167437 C62.0014714,-0.185432757 61.3891384,-11.0777234 59.7419752,-21.8187549 C58.6073179,-29.2177733 55.6430813,-22.6593247 59.0843408,-12.148932 C68.1363196,15.4978793 82.8021197,52.9834361 99.0918813,77.4483596 C100.563194,79.6580632 100.238404,72.1944073 100.072925,69.5448477 C98.8784307,50.4192915 95.4896658,31.4358343 95.0216862,12.2787282 C94.9521502,9.432219 98.3185415,17.1143456 98.8604113,19.909668 C102.38002,38.0661338 114.2696,57.7090778 107.136006,74.7723929 C100.984288,89.4870921 98.4432135,44.0486156 95.3061564,28.4113244 C94.8089673,25.9329856 98.4696545,32.5145497 99.1470447,34.9498121 C101.043319,41.7670424 105.29669,49.1670024 102.934933,55.8372787 C101.271226,60.5360612 98.270955,46.9944961 96.5370578,42.3211593 C90.4037757,25.7902516 85.0846992,8.96856252 79.3585199,-7.70773586" id="Path-6" stroke="#FFCB00" stroke-width="2" mask="url(#mask-4)"></path>
                                <ellipse id="Oval" stroke="#000000" stroke-width="2" fill="#D9DEB2" cx="53.7183461" cy="52.6107959" rx="44.75" ry="44.7500364"></ellipse>
                                <ellipse id="Oval-Copy-9" stroke="#000000" stroke-width="2" fill="#D9DEB2" cx="53.7183461" cy="52.6107959" rx="44.75" ry="44.7500364"></ellipse>
                                <g id="Group" transform="translate(35.996827, 20.141632)">
                                    <mask id="mask-6" fill="white">
                                        <use xlink:href="#path-5"></use>
                                    </mask>
                                    <path stroke="#000000" stroke-width="1.5" d="M13.2531314,57.2772661 C11.4729961,57.1281339 9.86938356,56.8936702 8.44155608,56.5730813 C5.77185004,55.9736545 2.94273343,55.0051321 -0.0468153358,53.6686169 L-0.490715332,53.4701659 L-0.490715332,43.7738708 L0.692433195,44.6108769 C2.74931809,46.0659987 5.28033705,47.2428002 8.28788077,48.137757 C9.90046665,48.6176153 11.555422,48.9690471 13.2531314,49.1920382 L13.2531314,35.1345648 C10.7476541,34.3453645 8.63996156,33.5360424 6.92798752,32.7044648 C4.8840238,31.7116259 3.16809468,30.2943278 1.7875132,28.4592415 C0.373920449,26.5802762 -0.327056948,24.1879502 -0.327056948,21.3058653 C-0.327056948,18.9009731 0.370696992,16.6199146 1.75724953,14.4780229 C3.14867947,12.3285967 5.30465542,10.5812635 8.20785178,9.23154595 C9.70124894,8.53725451 11.3833162,8.02390436 13.2531314,7.68983326 L13.2531314,-0.423242466 L24.0885744,-0.423242466 L24.0885744,7.49921192 C25.0783821,7.62049294 25.9904864,7.78168102 26.8252032,7.98319314 C28.9130106,8.48721855 31.3898859,9.3342771 34.2601028,10.5240261 L34.7229118,10.7158675 L34.7229118,20.0949812 L33.6160481,19.4961865 C30.8642725,18.0075221 28.4965851,16.9056295 26.5171612,16.1906843 C25.7659944,15.9193715 24.9565216,15.7003494 24.0885744,15.5340101 L24.0885744,28.7944297 C26.2907299,29.4956835 28.2026299,30.217108 29.8253588,30.9598421 C32.1388899,32.0187611 34.0464865,33.4779815 35.5393281,35.3343988 C37.07074,37.2387801 37.8324211,39.6509461 37.8324211,42.5421593 C37.8324211,45.2686566 37.1252011,47.7699145 35.71374,50.0299653 C34.2951185,52.3014815 32.1082411,54.1125616 29.1722379,55.4642792 C27.663041,56.159104 25.9681806,56.6726639 24.0885744,57.0065337 L24.0885744,65.3875874 L13.2531314,65.3875874 L13.2531314,57.2772661 Z M24.0885744,48.3172301 C24.3693873,48.1750625 24.6300898,48.0202015 24.8708585,47.8527911 C26.357354,46.8192068 27.0857224,45.3808995 27.0857224,43.4593415 C27.0857224,42.2018581 26.6752424,41.199106 25.8439645,40.4027492 C25.3333211,39.9135573 24.7484999,39.4706037 24.0885744,39.07414 L24.0885744,48.3172301 Z M13.2531314,16.3374608 C13.0304661,16.453065 12.8203628,16.5768606 12.6227332,16.7087791 C11.1339449,17.7025504 10.4196418,18.95415 10.4196418,20.5297881 C10.4196418,21.8954705 10.8142268,22.9661268 11.6012884,23.7844364 C12.0685049,24.2702024 12.6186453,24.7059823 13.2531314,25.0914233 L13.2531314,16.3374608 Z"></path>
                                    <path d="M-0.518635724,17.182376 L18.6708861,67.7493676 L-0.518635724,17.182376 Z M-2.59317862,17.182376 L16.5963432,67.7493676 L-2.59317862,17.182376 Z M-9.85407876,17.182376 L9.33544304,67.7493676 L-9.85407876,17.182376 Z M0.518635724,11.9960188 L20.2267932,69.8239105 L0.518635724,11.9960188 Z M3.63045007,11.7367094 L22.3013361,69.8239105 L3.63045007,11.7367094 Z M5.70499297,9.66216652 L24.375879,67.7493676 L5.70499297,9.66216652 Z M6.74226442,6.55035217 L25.4131505,64.6375533 L6.74226442,6.55035217 Z M8.81680731,4.47580927 L27.4876934,62.5630104 L8.81680731,4.47580927 Z M10.8913502,3.43853782 L29.5622363,61.5257389 L10.8913502,3.43853782 Z M11.9286217,2.40126638 L30.5995077,60.4884675 L11.9286217,2.40126638 Z M11.9286217,-1.03727145 L32.6740506,55.3592113 L11.9286217,-1.03727145 Z M14.0031646,-2.0745429 L34.7485935,54.3219398 L14.0031646,-2.0745429 Z M16.0777075,-3.11181435 L36.8231364,53.2846684 L16.0777075,-3.11181435 Z M17.1149789,-3.11181435 L37.8604079,53.2846684 L17.1149789,-3.11181435 Z M19.1895218,-5.18635724 L39.9349508,51.2101255 L19.1895218,-5.18635724 Z M21.2640647,-5.18635724 L42.0094937,51.2101255 L21.2640647,-5.18635724 Z M23.3386076,-5.18635724 L44.0840366,51.2101255 L23.3386076,-5.18635724 Z M24.375879,-5.18635724 L45.121308,51.2101255 L24.375879,-5.18635724 Z M26.4504219,-5.18635724 L47.1958509,51.2101255 L26.4504219,-5.18635724 Z M14.0031646,0.326723478 L34.7485935,56.7232062 L14.0031646,0.326723478 Z M7.77953586,48.0412101 L11.9286217,56.7232062 L7.77953586,48.0412101 Z M0.259284668,45.9666672 L3.63045007,54.2648388 L0.259284668,45.9666672 Z M2.98213882,45.9666672 L7.77953586,55.6859347 L2.98213882,45.9666672 Z" id="Combined-Shape" stroke="#000000" stroke-linecap="square" mask="url(#mask-6)"></path>
                                </g>
                            </g>
                            <g id="coin-2" transform="translate(0.000000, 81.685127)">
                                <ellipse id="Oval-Copy-5" stroke="#000000" stroke-width="1.5" cx="25.786008" cy="25.7367814" rx="25.786008" ry="25.7367814"></ellipse>
                                <ellipse id="Oval-Copy-4" stroke="#000000" cx="26.8936029" cy="25.7367814" rx="25.786008" ry="25.7367814"></ellipse>
                                <path d="M26.8936029,44.907164 C37.4944233,44.907164 46.0878388,36.3298351 46.0878388,25.7494681 C46.0878388,15.1691011 37.4944233,6.59177215 26.8936029,6.59177215 C16.2927825,6.59177215 7.69936709,15.1691011 7.69936709,25.7494681 C7.69936709,36.3298351 16.2927825,44.907164 26.8936029,44.907164 Z" id="Path" stroke="#000000" fill-rule="nonzero"></path>
                                <mask id="mask-8" fill="white">
                                    <use xlink:href="#path-7"></use>
                                </mask>
                                <use id="Path" fill-opacity="0.64" fill="#FFFFFF" fill-rule="nonzero" xlink:href="#path-7"></use>
                                <path d="M8.0226646,46.0306269 C5.05482464,20.416683 8.74125639,40.0503137 -6.14874826,4.14337916 C-8.02772395,-0.387731383 -2.44731907,13.2986395 0.281323923,17.3955599 C9.67068962,31.4932208 43.4918031,69.1559426 30.1102539,58.5844493 C15.0817972,46.7118906 6.30022884,28.8018801 -4.83019494,13.3574335 C-7.35309552,9.85668597 -7.26614194,4.48092345 -10.7503294,1.8867791 C-13.0996214,0.137618686 -10.2953199,7.8255546 -8.86598798,10.3525924 C-1.6056977,23.1886788 26.6109059,38.1889574 15.1035145,47.5959947 C3.666627,56.9453966 -20.4553607,30.2015172 -16.0925344,16.2601338 C-12.0128275,3.2234569 5.65675877,33.356038 17.1432655,41.0779836 C25.589394,46.7559976 40.7146789,66.0103471 43.6041781,56.3919842 C46.8083209,45.7262577 26.8899228,41.2248041 19.6808128,32.6311733 C10.589329,21.7936557 2.83847034,9.9351382 -5.13858586,-1.71190414 C-10.0050076,-8.81720952 4.82659257,12.3644795 10.3440955,18.9989336 C16.6134439,26.5374351 23.0212514,34.0199824 30.1806739,40.7573089 C35.066163,45.3547655 50.7450812,57.8844695 46.3238461,52.8574359 C-0.109787854,0.0614577982 48.1276535,71.7436651 -0.265037951,6.44511121 C-5.58454542,-0.732752527 11.414931,20.0904792 18.2019934,25.9658894 C30.3941257,36.5203494 51.1329671,70.6291405 56.5153162,55.5986112 C62.287062,39.4806685 32.3032806,30.9493293 21.1110668,17.8421292 C14.6806582,10.3114784 -3.50683422,-12.9765653 3.74647234,-6.1989752 C22.2161846,11.0593797 38.2294147,30.6761951 55.0073574,49.5152925 C60.9508783,56.1889693 -10.4141248,-18.2405652 4.73478026,-7.01372659 C24.2682847,7.46253434 38.9511738,27.3307971 56.7217196,43.8381618 C57.5373848,44.5958472 56.7055377,41.4735894 56.0053785,40.6124114 C48.7737185,31.7176546 40.0782601,23.993101 33.1625956,14.8610417 C25.4308322,4.65133283 16.594753,-5.30918631 12.1798714,-17.2586908 C8.9661425,-25.9571048 23.0262585,-2.03655188 29.4327652,4.7657257 C40.8333618,16.8706099 53.950799,27.342558 65.4780792,39.3320878 C73.248558,47.4141666 48.402476,24.6618681 40.7169591,16.5024214 C29.7548854,4.86436777 20.9227043,-8.62310122 9.63261092,-19.9571094 C8.04460695,-21.5512902 9.69005732,-15.2678877 10.9293098,-13.4010924 C26.5071192,10.0651363 45.8919472,31.1466622 59.7910592,55.6009865 C63.2381979,61.6659386 48.1228652,47.6266113 42.9291176,42.8998913 C27.7323966,29.0696762 -11.11803,-17.8711808 -1.28977,0.012613372 C9.12682028,18.9669509 33.9696496,27.5013397 44.7697501,46.2491608 C47.8303831,51.5620929 8.17804401,12.2266658 -4.67478534,7.28599165 C-5.65338148,6.90981575 -5.2344975,9.50090128 -4.67478534,10.3715953 C-0.783283193,16.4252563 3.21294769,22.5529783 8.38690585,27.6048936 C16.938781,35.9550479 43.7534804,59.5596763 36.2295069,50.3110409 C22.8878357,33.9111621 6.61003314,19.967603 -9.2715099,5.89877646 C-12.2629971,3.2487371 -5.54333403,13.0491859 -2.68602812,15.8373182 C15.7823688,33.8586066 33.1907511,53.3731555 54.4852783,68.1120523 C68.6751345,77.9334879 30.0736311,43.8459258 18.9280476,30.7973889 C14.6290046,25.7643441 11.4928026,19.8572036 8.32862725,14.0747948 C6.57541688,10.8708702 6.21034985,7.01121456 4.22969906,3.9367221 C3.10736342,2.19456115 4.7715822,8.08983838 5.67209441,9.95115509 C7.19610837,13.1012208 9.24296358,16.0053504 11.4076799,18.7732736 C19.0571236,28.5542653 26.1802894,38.8510106 35.0833611,47.5579888 C42.9480621,55.2494669 66.0329917,77.5244731 61.379151,67.6441047 C50.9683036,45.5412839 -1.81460848,-7.00864236 16.9222925,9.0010077 L5.16458493,-12.4580711 C796.307977,663.530392 -192.461186,-165.832421 63.7030102,48.7171687" id="Path-5" stroke="#FFCB00" stroke-width="1.5" mask="url(#mask-8)"></path>
                                <g id="Group-2" mask="url(#mask-8)">
                                    <g transform="translate(26.378058, 25.597265) rotate(-36.000000) translate(-26.378058, -25.597265) translate(15.302109, 12.306126)">
                                        <path d="M15.1660759,5.05772152 L14.5210127,7.26936709 C13.9450633,6.94683544 12.8392405,6.48607595 11.3878481,6.48607595 C9.29139241,6.48607595 8.41594937,7.70708861 8.41594937,8.83594937 C8.41594937,10.3334177 9.40658228,11.0706329 11.6412658,12.0382278 C14.4749367,13.2822785 15.8341772,14.8258228 15.8341772,17.2448101 C15.8341772,20.1936709 13.6455696,22.4053165 9.68303797,22.4053165 C8.0243038,22.4053165 6.27341772,21.921519 5.42101266,21.3455696 L6.02,19.1108861 C6.96455696,19.6868354 8.39291139,20.1475949 9.8443038,20.1475949 C11.9407595,20.1475949 13.1156962,19.0648101 13.1156962,17.4751899 C13.1156962,15.9777215 12.2172152,15.0562025 10.1207595,14.1807595 C7.49443038,13.1210127 5.72050633,11.5313924 5.72050633,9.13544304 C5.72050633,6.3478481 7.95518987,4.25139241 11.456962,4.25139241 C13.1387342,4.25139241 14.4058228,4.66607595 15.1660759,5.05772152 Z" id="S" stroke="none" fill="#000000" fill-rule="nonzero" transform="translate(10.627595, 13.328354) rotate(24.000000) translate(-10.627595, -13.328354) "></path>
                                        <path d="M6.80894563,23.9240506 L15.0335398,2.54010577" id="Line-4" stroke="#000000" stroke-width="2" fill="none" stroke-linecap="square"></path>
                                    </g>
                                </g>
                            </g>
                            <g id="coin-3" transform="translate(52.056962, 113.805380)">
                                <ellipse id="Oval-Copy-5" stroke="#000000" stroke-width="1.5" cx="31.3239827" cy="30.1587034" rx="30.2163877" ry="30.1587034"></ellipse>
                                <ellipse id="Oval-Copy-7" stroke="#000000" cx="30.2163877" cy="30.1587034" rx="30.2163877" ry="30.1587034"></ellipse>
                                <ellipse id="Oval" stroke="#000000" cx="30.7701852" cy="30.7283592" rx="21.9094257" ry="21.8675997"></ellipse>
                                <path d="M30.4588608,52.4446203 C42.5990392,52.4446203 52.4446203,42.85149 52.4446203,31.0126582 C52.4446203,19.1738265 42.5990392,9.5806962 30.4588608,9.5806962 C18.3186823,9.5806962 8.47310127,19.1738265 8.47310127,31.0126582 C8.47310127,42.85149 18.3186823,52.4446203 30.4588608,52.4446203 Z" id="Path" stroke="#000000" fill-rule="nonzero"></path>
                                <mask id="mask-10" fill="white">
                                    <use xlink:href="#path-9"></use>
                                </mask>
                                <use id="Oval-Copy-6" fill-opacity="0.640297203" fill="#FFFFFF" xlink:href="#path-9"></use>
                                <path d="M-0.860982002,59.7106161 C-9.18600255,20.5883654 -29.4373857,23.3208222 22.6105123,72.8762856 C411.70118,443.334442 -75.5465181,-21.6836927 -12.0083193,28.5919576 C1.96124018,39.6456025 10.2100705,60.4746469 27.5600771,64.5130785 C40.9553227,67.6309899 10.2403626,43.1210439 2.26710839,31.9147424 C-2.02839356,25.8774722 -14.8130189,8.04288685 -9.18741347,12.8649748 C4.52079133,24.6152068 35.2958416,69.1925504 27.0300757,53.140761 L40.1676226,65.0841822 C35.1047323,55.25225 25.9233962,48.1124124 19.7247083,38.9540274 C14.9269548,31.8654831 -0.211374297,12.3510327 7.27940813,16.4927809 C16.0644181,21.3501238 17.995709,33.5115548 24.1810473,41.4179935 C30.5355521,49.5406701 36.9330574,57.8204234 44.8143295,64.4719764 C48.0853827,67.2326453 40.8678884,56.8383071 38.3504747,53.3765576 C29.7154461,41.5023448 19.6729839,30.6667063 11.4069299,18.5327457 C8.34240671,14.0342506 18.5657998,26.780574 22.6689206,30.357187 C30.9495211,37.5752305 39.0665042,45.1842058 48.4789112,50.8476933 C51.0894475,52.4184647 45.6843404,45.3770677 43.7370204,43.0339572 C38.2866763,36.475837 28.6100584,32.4766116 26.3724412,24.2481087 C24.7038749,18.1122057 47.9996668,36.5372717 41.7121984,35.5879772 C33.8238655,34.3969809 28.3566989,26.7320206 21.085406,23.4498616 C16.5651518,21.4094826 10.7376629,16.9338012 6.66936561,19.770137 C3.5183668,21.9669505 9.2011297,27.0708614 11.112725,30.4026157 C55.8812839,108.430553 8.51715341,25.2081701 35.5447117,65.0560596 C35.8690576,65.5342567 34.2528303,65.6190641 33.8205845,65.2356112 L19.2314824,54.9146435 C11.342339,47.9160458 4.68847213,39.6146616 -3.0891515,32.4923358 C-4.06662369,31.5972198 -7.47523426,29.9306704 -6.80348843,31.0732298 C11.8374383,62.77922 0.702995562,27.1213271 30.1105741,70.6416263 C31.7467286,73.0629728 24.2086485,70.9859896 21.3471618,70.3928501 C18.846876,69.8745816 16.5363226,68.6169121 14.3100401,67.3664334 C7.79377248,63.7063169 1.26152585,60.0185729 -4.83058495,55.6890946 C-7.78642814,53.5884666 -10.0743547,50.6789582 -12.6962396,48.1738899" id="Path-2" stroke="#FFCB00" stroke-width="2" mask="url(#mask-10)" transform="translate(78.505374, 114.688139) rotate(10.000000) translate(-78.505374, -114.688139) "></path>
                                <g id="Group-2" mask="url(#mask-10)">
                                    <g transform="translate(18.624894, 13.413721)">
                                        <path d="M18.9575949,6.3221519 L18.1512658,9.08670886 C17.4313291,8.6835443 16.0490506,8.10759494 14.2348101,8.10759494 C11.6142405,8.10759494 10.5199367,9.63386076 10.5199367,11.0449367 C10.5199367,12.9167722 11.7582278,13.8382911 14.5515823,15.0477848 C18.0936709,16.6028481 19.7927215,18.5322785 19.7927215,21.5560127 C19.7927215,25.2420886 17.056962,28.0066456 12.1037975,28.0066456 C10.0303797,28.0066456 7.84177215,27.4018987 6.77626582,26.681962 L7.525,23.8886076 C8.7056962,24.6085443 10.4911392,25.1844937 12.3053797,25.1844937 C14.9259494,25.1844937 16.3946203,23.8310127 16.3946203,21.8439873 C16.3946203,19.9721519 15.271519,18.8202532 12.6509494,17.7259494 C9.36803797,16.4012658 7.15063291,14.4142405 7.15063291,11.4193038 C7.15063291,7.93481013 9.94398734,5.31424051 14.3212025,5.31424051 C16.4234177,5.31424051 18.0072785,5.83259494 18.9575949,6.3221519 Z" id="S" stroke="none" fill="#000000" fill-rule="nonzero" transform="translate(13.284494, 16.660443) rotate(24.000000) translate(-13.284494, -16.660443) "></path>
                                        <path d="M8.51118204,29.9050633 L18.7919248,3.17513221" id="Line-4" stroke="#000000" stroke-width="2" fill="none" stroke-linecap="square"></path>
                                    </g>
                                </g>
                            </g>
                        </g>
                    </g>
                </g>
            </g>
        </g>
    </g>
</svg>