<?xml version="1.0" encoding="UTF-8"?>
<svg width="215px" height="215px" viewBox="0 0 215 215" version="1.1" xmlns="http://www.w3.org/2000/svg" xmlns:xlink="http://www.w3.org/1999/xlink">
    <!-- Generator: Sketch 55.1 (78136) - https://sketchapp.com -->
    <title>Write Reviews</title>
    <desc>Created with Sketch.</desc>
    <defs>
        <circle id="path-1" cx="109.497496" cy="106.63962" r="105.36038"></circle>
        <filter x="-1.4%" y="-1.4%" width="102.8%" height="102.8%" filterUnits="objectBoundingBox" id="filter-2">
            <feGaussianBlur stdDeviation="1" in="SourceGraphic"></feGaussianBlur>
        </filter>
        <ellipse id="path-4" cx="101.876492" cy="103.618436" rx="101.876492" ry="103.618436"></ellipse>
    </defs>
    <g id="Write-Reviews" stroke="none" stroke-width="1" fill="none" fill-rule="evenodd">
        <g id="review" transform="translate(-0.000000, 1.500000)">
            <g id="Group">
                <mask id="mask-3" fill="white">
                    <use xlink:href="#path-1"></use>
                </mask>
                <circle stroke="#2FC3EB" stroke-width="8" cx="109.497496" cy="106.63962" r="101.36038"></circle>
                <mask id="mask-5" fill="white">
                    <use xlink:href="#path-4"></use>
                </mask>
                <ellipse stroke="#84898A" cx="101.876492" cy="103.618436" rx="101.376492" ry="103.118436"></ellipse>
            </g>
            <g id="Group-3" transform="translate(50.889126, 27.531250)">
                <path d="M13.2058789,8.68544671 C13.2058742,8.68189568 13.2058718,8.67834415 13.2058718,8.67479213 C13.2058718,3.88383673 17.4904132,0 22.7756629,0 C28.0609125,0 32.3454539,3.88383673 32.3454539,8.67479213 C32.3454539,8.9058077 32.335492,9.13471415 32.3159363,9.36117774 C37.7626748,10.6806947 41.5826652,13.7606152 41.5826652,17.3495843 C41.5826652,22.1405397 34.7754875,26.0243764 26.3784083,26.0243764 C23.9747434,26.0243764 21.7013535,25.7061382 19.6806106,25.1394809 C17.9262844,25.7061382 15.9526207,26.0243764 13.8658574,26.0243764 C6.5758579,26.0243764 0.666145645,22.1405397 0.666145645,17.3495843 C0.666145645,12.7040709 6.22249445,8.9114363 13.2058789,8.68544671 Z" id="Combined-Shape" fill="#FFFFFF"></path>
                <path d="M65.6553148,73.9890405 L60.8413022,39.9179112 L56.0272897,73.9890405 L27.3691358,73.9890405 C25.7122815,73.9890405 24.3691358,72.6458948 24.3691358,70.9890405 C24.3691358,70.4222681 24.529689,69.8670899 24.8322016,69.3878019 L58.3043681,16.355931 C59.1887078,14.9548209 61.0414309,14.5358958 62.4425409,15.4202355 C62.8201968,15.6586009 63.139871,15.9782751 63.3782364,16.355931 L96.8504029,69.3878019 C97.7347426,70.7889119 97.3158174,72.6416349 95.9147074,73.5259746 C95.4354193,73.8284873 94.8802411,73.9890405 94.3134687,73.9890405 L65.6553148,73.9890405 L65.6553148,73.9890405 Z" id="Path" fill="#9AE4F7"></path>
                <path d="M62.6553148,70.9890405 L57.8413022,36.9179112 L53.0272897,70.9890405 L24.3691358,70.9890405 C22.7122815,70.9890405 21.3691358,69.6458948 21.3691358,67.9890405 C21.3691358,67.4222681 21.529689,66.8670899 21.8322016,66.3878019 L55.3043681,13.355931 C56.1887078,11.9548209 58.0414309,11.5358958 59.4425409,12.4202355 C59.8201968,12.6586009 60.139871,12.9782751 60.3782364,13.355931 L93.8504029,66.3878019 C94.7347426,67.7889119 94.3158174,69.6416349 92.9147074,70.5259746 C92.4354193,70.8284873 91.8802411,70.9890405 91.3134687,70.9890405 L62.6553148,70.9890405 L62.6553148,70.9890405 Z" id="Path-Copy" stroke="#84898A"></path>
                <path d="M13.7588481,100.759213 L103.457892,100.759213 C105.473995,100.759213 107.10837,102.393588 107.10837,104.409692 C107.10837,106.425795 105.473995,108.06017 103.457892,108.06017 L13.7588481,108.06017 C11.7427447,108.06017 10.10837,106.425795 10.10837,104.409692 C10.10837,102.393588 11.7427447,100.759213 13.7588481,100.759213 Z" id="Rectangle-19" fill="#2FC3EB"></path>
                <rect id="Rectangle-19-Copy" fill="#2FC3EB" x="10.10837" y="115.361126" width="97" height="7.30095627" rx="3.65047813"></rect>
                <rect id="Rectangle-19-Copy-2" fill="#2FC3EB" x="10.10837" y="131.585473" width="97" height="7.30095627" rx="3.65047813"></rect>
                <path d="M10.7588481,99.2592135 C9.01888708,99.2592135 7.60836998,100.669731 7.60836998,102.409692 C7.60836998,104.149653 9.01888708,105.56017 10.7588481,105.56017 L100.457892,105.56017 C102.197853,105.56017 103.60837,104.149653 103.60837,102.409692 C103.60837,100.669731 102.197853,99.2592135 100.457892,99.2592135 L10.7588481,99.2592135 Z" id="Rectangle-19-Copy-5" stroke="#84898A"></path>
                <rect id="Rectangle-19-Copy-4" stroke="#84898A" x="7.60836998" y="113.861126" width="96" height="6.30095627" rx="3.15047813"></rect>
                <rect id="Rectangle-19-Copy-3" stroke="#84898A" x="7.60836998" y="130.085473" width="96" height="6.30095627" rx="3.15047813"></rect>
                <g id="List/Nav/Default" transform="translate(28.392608, 80.260131)">
                    <polygon id="Touch-bounds" fill-opacity="0" fill="#212121" points="0 0.811217363 64.8973891 0.811217363 64.8973891 13.7906952 0 13.7906952"></polygon>
                    <g id="Icon/Small" transform="translate(0.000000, 0.405609)" fill="#FDA304">
                        <polygon id="Icon" points="4.91056911 9.04372157 2.37855691 10.5782744 3.04992378 7.70098783 0.824822154 5.76361486 3.75965447 5.51425003 4.91056911 2.80960064 6.06148374 5.51425003 8.99631606 5.76361486 6.77121443 7.70098783 7.4425813 10.5782744"></polygon>
                    </g>
                    <g id="Icon/Small-Copy" transform="translate(12.979478, 0.405609)" fill="#FDA304">
                        <polygon id="Icon" points="4.91056911 9.04372157 2.37855691 10.5782744 3.04992378 7.70098783 0.824822154 5.76361486 3.75965447 5.51425003 4.91056911 2.80960064 6.06148374 5.51425003 8.99631606 5.76361486 6.77121443 7.70098783 7.4425813 10.5782744"></polygon>
                    </g>
                    <g id="Icon/Small-Copy-2" transform="translate(25.958956, 0.405609)" fill="#FDA304">
                        <polygon id="Icon" points="4.91056911 9.04372157 2.37855691 10.5782744 3.04992378 7.70098783 0.824822154 5.76361486 3.75965447 5.51425003 4.91056911 2.80960064 6.06148374 5.51425003 8.99631606 5.76361486 6.77121443 7.70098783 7.4425813 10.5782744"></polygon>
                    </g>
                    <g id="Icon/Small-Copy-3" transform="translate(38.938433, 0.405609)" fill="#FDA304">
                        <polygon id="Icon" points="4.91056911 9.04372157 2.37855691 10.5782744 3.04992378 7.70098783 0.824822154 5.76361486 3.75965447 5.51425003 4.91056911 2.80960064 6.06148374 5.51425003 8.99631606 5.76361486 6.77121443 7.70098783 7.4425813 10.5782744"></polygon>
                    </g>
                    <g id="Icon/Small-Copy-4" transform="translate(51.917911, 0.405609)" fill="#FDA304">
                        <polygon id="Icon" points="4.91056911 9.04372157 2.37855691 10.5782744 3.04992378 7.70098783 0.824822154 5.76361486 3.75965447 5.51425003 4.91056911 2.80960064 6.06148374 5.51425003 8.99631606 5.76361486 6.77121443 7.70098783 7.4425813 10.5782744"></polygon>
                    </g>
                </g>
            </g>
        </g>
    </g>
</svg>