<?xml version="1.0" encoding="UTF-8"?>
<svg width="215px" height="215px" viewBox="0 0 215 215" version="1.1" xmlns="http://www.w3.org/2000/svg" xmlns:xlink="http://www.w3.org/1999/xlink">
    <!-- Generator: Sketch 55.2 (78181) - https://sketchapp.com -->
    <title>Share</title>
    <desc>Created with Sketch.</desc>
    <defs>
        <circle id="path-1" cx="109.497496" cy="106.63962" r="105.36038"></circle>
        <ellipse id="path-3" cx="101.876492" cy="103.618436" rx="101.876492" ry="103.618436"></ellipse>
        <circle id="path-5" cx="109.497496" cy="106.63962" r="105.36038"></circle>
        <ellipse id="path-7" cx="101.876492" cy="103.618436" rx="101.876492" ry="103.618436"></ellipse>
    </defs>
    <g id="Share" stroke="none" stroke-width="1" fill="none" fill-rule="evenodd">
        <g id="Group" transform="translate(-0.000000, 1.500000)">
            <mask id="mask-2" fill="white">
                <use xlink:href="#path-1"></use>
            </mask>
            <circle stroke="#80BC99" stroke-width="8" cx="109.497496" cy="106.63962" r="101.36038"></circle>
            <path d="M117.551777,124.53125 L193.889126,183.824117 C182.57989,203.20087 173.391135,210.176502 166.322861,204.751011 C159.254588,199.32552 142.99756,183.824117 117.551777,158.246802 L105.889126,145.458144 L117.551777,124.53125 Z" id="Path-2" fill="#C3996F" mask="url(#mask-2)"></path>
            <path d="M118.551777,122.53125 L194.889126,181.824117 C183.57989,201.20087 174.391135,208.176502 167.322861,202.751011 C160.254588,197.32552 143.99756,181.824117 118.551777,156.246802 L106.889126,143.458144 L118.551777,122.53125 Z" id="Path-2-Copy" stroke="#979797" mask="url(#mask-2)"></path>
            <mask id="mask-4" fill="white">
                <use xlink:href="#path-3"></use>
            </mask>
            <ellipse stroke="#84898A" cx="101.876492" cy="103.618436" rx="101.376492" ry="103.118436"></ellipse>
            <g id="Group-2" mask="url(#mask-4)">
                <g transform="translate(66.389126, 33.531250)">
                    <path d="M55.764735,55.6887856 L55.764735,52.1863463 C55.764735,54.1206901 57.3328305,55.6887856 59.2671743,55.6887856 L60.6681501,55.6887856 C62.7959283,55.6887856 64.5208333,53.9638805 64.5208333,51.8361023 L64.5208333,30.8214662 C64.5208333,25.5987379 68.7546912,21.36488 73.9774196,21.36488 C79.2001479,21.36488 83.4340058,25.5987379 83.4340058,30.8214662 L83.4340058,51.8361023 C83.4340058,64.4093373 73.241385,74.6019581 60.6681501,74.6019581 L59.2671743,74.6019581 C57.3328305,74.6019581 55.764735,76.1700536 55.764735,78.1043974 L55.764735,74.6019581 L55.764735,120.483914 C55.764735,128.221289 49.4923529,134.493671 41.7549776,134.493671 C34.0176022,134.493671 27.7452202,128.221289 27.7452202,120.483914 L27.7452202,85.45952 L22.8418051,85.45952 C10.2685702,85.45952 0.0759493671,75.2668992 0.0759493671,62.6936643 L0.0759493671,41.6790282 C0.0759493671,36.4562999 4.30980724,32.222442 9.5325356,32.222442 C14.755264,32.222442 18.9891218,36.4562999 18.9891218,41.6790282 L18.9891218,62.6936643 C18.9891218,64.8214425 20.7140269,66.5463476 22.8418051,66.5463476 L27.7452202,66.5463476 L27.7452202,14.0097574 C27.7452202,6.27238203 34.0176022,0 41.7549776,0 C49.4923529,0 55.764735,6.27238203 55.764735,14.0097574 L55.764735,55.6887856 L55.764735,55.6887856 Z M23.717415,66.5463476 L24.2427809,66.5463476 C26.1771247,66.5463476 27.7452202,64.9782521 27.7452202,63.0439082 L27.7452202,66.5463476 L23.717415,66.5463476 Z M23.717415,85.45952 L24.2427809,85.45952 C26.1771247,85.45952 27.7452202,87.0276156 27.7452202,88.9619594 L27.7452202,85.45952 L23.717415,85.45952 Z" id="Shape" stroke="none" fill="#BAEACE" fill-rule="evenodd"></path>
                    <path d="M53.149243,54.7254557 C53.149243,56.3227191 54.3844137,57.6094597 55.8976231,57.6094597 L57.1969751,57.6094597 C58.8895875,57.6094597 60.2701932,56.1712121 60.2701932,54.3870554 L60.2701932,34.0830319 C60.2701932,28.7652403 64.4161149,24.4462213 69.5408193,24.4462213 C74.6655238,24.4462213 78.8114455,28.7652403 78.8114455,34.0830319 L78.8114455,54.3870554 C78.8114455,66.8067952 69.1389965,76.8830808 57.1969751,76.8830808 L55.8976231,76.8830808 C54.3844137,76.8830808 53.149243,78.1698214 53.149243,79.7670847 L53.149243,120.713532 C53.149243,128.460937 47.1126672,134.749548 39.6557228,134.749548 C32.1987783,134.749548 26.1622025,128.460937 26.1622025,120.713532 L26.1622025,87.3734929 L22.1144704,87.3734929 C10.172449,87.3734929 0.5,77.2972073 0.5,64.8774675 L0.5,44.573444 C0.5,39.2556525 4.64592169,34.9366335 9.77062617,34.9366335 C14.8953306,34.9366335 19.0412523,39.2556525 19.0412523,44.573444 L19.0412523,64.8774675 C19.0412523,66.6616242 20.421858,68.0998718 22.1144704,68.0998718 L26.1622025,68.0998718 L26.1622025,17.8398131 C26.1622025,10.0924077 32.1987783,3.80379747 39.6557228,3.80379747 C47.1126672,3.80379747 53.149243,10.0924077 53.149243,17.8398131 L53.149243,54.7254557 Z M22.9265654,68.0998718 L23.4138224,68.0998718 C24.9270318,68.0998718 26.1622025,66.8131312 26.1622025,65.2158679 L27.1622025,65.2158679 L27.1622025,69.0998718 L22.9265654,69.0998718 L22.9265654,68.0998718 Z M25.9247659,87.3734929 C26.0073356,87.4507552 26.0865638,87.5317677 26.1622025,87.6162682 L26.1622025,87.3734929 L25.9247659,87.3734929 Z" id="Shape-Copy" stroke="#84898A" stroke-width="1" fill="none"></path>
                </g>
            </g>
            <path d="M105.226912,155.03125 C106.894998,155.84161 108.044849,157.552149 108.044849,159.53125 C108.044849,162.292674 105.806273,164.53125 103.044849,164.53125 L95.3156919,164.53125 C92.5542682,164.53125 90.3156919,162.292674 90.3156919,159.53125 C90.3156919,157.847397 91.1480576,156.357953 92.4237777,155.45193 C90.0879034,155.031325 88.3156919,152.988248 88.3156919,150.53125 C88.3156919,147.769826 90.5542682,145.53125 93.3156919,145.53125 C90.0019834,145.53125 87.3156919,142.844958 87.3156919,139.53125 C87.3156919,136.217542 90.0019834,133.53125 93.3156919,133.53125 L90.8156919,133.53125 C87.7781258,133.53125 85.3156919,131.068816 85.3156919,128.03125 C85.3156919,124.993684 87.7781258,122.53125 90.8156919,122.53125 L99.5448489,122.53125 C102.582415,122.53125 105.044849,124.993684 105.044849,128.03125 C105.044849,131.068816 102.582415,133.53125 99.5448489,133.53125 L101.044849,133.53125 C104.358557,133.53125 107.044849,136.217542 107.044849,139.53125 C107.044849,142.844958 104.358557,145.53125 101.044849,145.53125 L103.044849,145.53125 C105.806273,145.53125 108.044849,147.769826 108.044849,150.53125 C108.044849,152.510351 106.894998,154.22089 105.226912,155.03125 Z" id="Combined-Shape" fill="#C3996F" mask="url(#mask-4)"></path>
            <path d="M106.008427,153.480988 L105.082663,153.03125 L106.008427,152.581512 C107.547244,151.833951 108.544849,150.27246 108.544849,148.53125 C108.544849,146.045969 106.53013,144.03125 104.044849,144.03125 L102.044849,144.03125 L102.044849,143.03125 C105.082415,143.03125 107.544849,140.568816 107.544849,137.53125 C107.544849,134.493684 105.082415,132.03125 102.044849,132.03125 L100.544849,132.03125 L100.544849,131.03125 C103.306273,131.03125 105.544849,128.792674 105.544849,126.03125 C105.544849,123.269826 103.306273,121.03125 100.544849,121.03125 L91.8156919,121.03125 C89.0542682,121.03125 86.8156919,123.269826 86.8156919,126.03125 C86.8156919,128.792674 89.0542682,131.03125 91.8156919,131.03125 L94.3156919,131.03125 L94.3156919,132.03125 C91.2781258,132.03125 88.8156919,134.493684 88.8156919,137.53125 C88.8156919,140.568816 91.2781258,143.03125 94.3156919,143.03125 L94.3156919,144.03125 C91.8304105,144.03125 89.8156919,146.045969 89.8156919,148.53125 C89.8156919,150.717407 91.3859118,152.576944 93.5123845,152.959844 L94.6832956,153.170682 L93.7132943,153.859582 C92.5315238,154.698882 91.8156919,156.054557 91.8156919,157.53125 C91.8156919,160.016531 93.8304105,162.03125 96.3156919,162.03125 L104.044849,162.03125 C106.53013,162.03125 108.544849,160.016531 108.544849,157.53125 C108.544849,155.79004 107.547244,154.228549 106.008427,153.480988 Z" id="Combined-Shape-Copy" stroke="#84898A" mask="url(#mask-4)"></path>
            <path d="M113.500238,111.53125 L123.607738,111.53125 C126.210002,111.531251 128.515618,113.208695 129.316508,115.684649 C130.399977,119.034193 129.757516,121.390467 127.389126,122.753472 C124.754537,124.269675 119.984236,124.556778 113.078224,123.614783 C110.105413,123.209287 107.889126,120.670172 107.889126,117.669833 L107.889126,117.142361 C107.889126,114.04343 110.401307,111.53125 113.500238,111.53125 Z" id="Rectangle-Copy-3" fill="#C3996F" mask="url(#mask-4)"></path>
            <path d="M111.500238,110.03125 C108.677449,110.03125 106.389126,112.319572 106.389126,115.142361 L106.389126,115.669833 C106.389126,118.420144 108.420723,120.747666 111.1458,121.119371 C117.950542,122.047553 122.62717,121.766087 125.139729,120.320112 C127.282885,119.086729 127.857138,116.980612 126.840778,113.838533 C126.106628,111.568908 123.993147,110.031251 121.607738,110.03125 L111.500238,110.03125 Z" id="Rectangle-Copy-4" stroke="#84898A" mask="url(#mask-4)"></path>
        </g>
        <g id="Group" transform="translate(0.000000, 1.482759)">
            <mask id="mask-6" fill="white">
                <use xlink:href="#path-5"></use>
            </mask>
            <circle stroke="#D3591A" stroke-width="8" cx="109.497496" cy="106.63962" r="101.36038"></circle>
            <path d="M117.551777,124.53125 L193.889126,183.824117 C182.57989,203.20087 173.391135,210.176502 166.322861,204.751011 C159.254588,199.32552 142.99756,183.824117 117.551777,158.246802 L105.889126,145.458144 L117.551777,124.53125 Z" id="Path-2" fill="#C3996F" mask="url(#mask-6)"></path>
            <path d="M118.551777,122.53125 L194.889126,181.824117 C183.57989,201.20087 174.391135,208.176502 167.322861,202.751011 C160.254588,197.32552 143.99756,181.824117 118.551777,156.246802 L106.889126,143.458144 L118.551777,122.53125 Z" id="Path-2-Copy" stroke="#979797" mask="url(#mask-6)"></path>
            <mask id="mask-8" fill="white">
                <use xlink:href="#path-7"></use>
            </mask>
            <ellipse stroke="#84898A" cx="101.876492" cy="103.618436" rx="101.376492" ry="103.118436"></ellipse>
            <g id="Group-2" mask="url(#mask-8)">
                <g transform="translate(66.389126, 33.531250)">
                    <path d="M55.764735,55.6887856 L55.764735,52.1863463 C55.764735,54.1206901 57.3328305,55.6887856 59.2671743,55.6887856 L60.6681501,55.6887856 C62.7959283,55.6887856 64.5208333,53.9638805 64.5208333,51.8361023 L64.5208333,30.8214662 C64.5208333,25.5987379 68.7546912,21.36488 73.9774196,21.36488 C79.2001479,21.36488 83.4340058,25.5987379 83.4340058,30.8214662 L83.4340058,51.8361023 C83.4340058,64.4093373 73.241385,74.6019581 60.6681501,74.6019581 L59.2671743,74.6019581 C57.3328305,74.6019581 55.764735,76.1700536 55.764735,78.1043974 L55.764735,74.6019581 L55.764735,120.483914 C55.764735,128.221289 49.4923529,134.493671 41.7549776,134.493671 C34.0176022,134.493671 27.7452202,128.221289 27.7452202,120.483914 L27.7452202,85.45952 L22.8418051,85.45952 C10.2685702,85.45952 0.0759493671,75.2668992 0.0759493671,62.6936643 L0.0759493671,41.6790282 C0.0759493671,36.4562999 4.30980724,32.222442 9.5325356,32.222442 C14.755264,32.222442 18.9891218,36.4562999 18.9891218,41.6790282 L18.9891218,62.6936643 C18.9891218,64.8214425 20.7140269,66.5463476 22.8418051,66.5463476 L27.7452202,66.5463476 L27.7452202,14.0097574 C27.7452202,6.27238203 34.0176022,0 41.7549776,0 C49.4923529,0 55.764735,6.27238203 55.764735,14.0097574 L55.764735,55.6887856 L55.764735,55.6887856 Z M23.717415,66.5463476 L24.2427809,66.5463476 C26.1771247,66.5463476 27.7452202,64.9782521 27.7452202,63.0439082 L27.7452202,66.5463476 L23.717415,66.5463476 Z M23.717415,85.45952 L24.2427809,85.45952 C26.1771247,85.45952 27.7452202,87.0276156 27.7452202,88.9619594 L27.7452202,85.45952 L23.717415,85.45952 Z" id="Shape" stroke="none" fill="#BAEACE" fill-rule="evenodd"></path>
                    <path d="M53.149243,54.7254557 C53.149243,56.3227191 54.3844137,57.6094597 55.8976231,57.6094597 L57.1969751,57.6094597 C58.8895875,57.6094597 60.2701932,56.1712121 60.2701932,54.3870554 L60.2701932,34.0830319 C60.2701932,28.7652403 64.4161149,24.4462213 69.5408193,24.4462213 C74.6655238,24.4462213 78.8114455,28.7652403 78.8114455,34.0830319 L78.8114455,54.3870554 C78.8114455,66.8067952 69.1389965,76.8830808 57.1969751,76.8830808 L55.8976231,76.8830808 C54.3844137,76.8830808 53.149243,78.1698214 53.149243,79.7670847 L53.149243,120.713532 C53.149243,128.460937 47.1126672,134.749548 39.6557228,134.749548 C32.1987783,134.749548 26.1622025,128.460937 26.1622025,120.713532 L26.1622025,87.3734929 L22.1144704,87.3734929 C10.172449,87.3734929 0.5,77.2972073 0.5,64.8774675 L0.5,44.573444 C0.5,39.2556525 4.64592169,34.9366335 9.77062617,34.9366335 C14.8953306,34.9366335 19.0412523,39.2556525 19.0412523,44.573444 L19.0412523,64.8774675 C19.0412523,66.6616242 20.421858,68.0998718 22.1144704,68.0998718 L26.1622025,68.0998718 L26.1622025,17.8398131 C26.1622025,10.0924077 32.1987783,3.80379747 39.6557228,3.80379747 C47.1126672,3.80379747 53.149243,10.0924077 53.149243,17.8398131 L53.149243,54.7254557 Z M22.9265654,68.0998718 L23.4138224,68.0998718 C24.9270318,68.0998718 26.1622025,66.8131312 26.1622025,65.2158679 L27.1622025,65.2158679 L27.1622025,69.0998718 L22.9265654,69.0998718 L22.9265654,68.0998718 Z M25.9247659,87.3734929 C26.0073356,87.4507552 26.0865638,87.5317677 26.1622025,87.6162682 L26.1622025,87.3734929 L25.9247659,87.3734929 Z" id="Shape-Copy" stroke="#84898A" stroke-width="1" fill="none"></path>
                </g>
            </g>
            <path d="M105.226912,155.03125 C106.894998,155.84161 108.044849,157.552149 108.044849,159.53125 C108.044849,162.292674 105.806273,164.53125 103.044849,164.53125 L95.3156919,164.53125 C92.5542682,164.53125 90.3156919,162.292674 90.3156919,159.53125 C90.3156919,157.847397 91.1480576,156.357953 92.4237777,155.45193 C90.0879034,155.031325 88.3156919,152.988248 88.3156919,150.53125 C88.3156919,147.769826 90.5542682,145.53125 93.3156919,145.53125 C90.0019834,145.53125 87.3156919,142.844958 87.3156919,139.53125 C87.3156919,136.217542 90.0019834,133.53125 93.3156919,133.53125 L90.8156919,133.53125 C87.7781258,133.53125 85.3156919,131.068816 85.3156919,128.03125 C85.3156919,124.993684 87.7781258,122.53125 90.8156919,122.53125 L99.5448489,122.53125 C102.582415,122.53125 105.044849,124.993684 105.044849,128.03125 C105.044849,131.068816 102.582415,133.53125 99.5448489,133.53125 L101.044849,133.53125 C104.358557,133.53125 107.044849,136.217542 107.044849,139.53125 C107.044849,142.844958 104.358557,145.53125 101.044849,145.53125 L103.044849,145.53125 C105.806273,145.53125 108.044849,147.769826 108.044849,150.53125 C108.044849,152.510351 106.894998,154.22089 105.226912,155.03125 Z" id="Combined-Shape" fill="#C3996F" mask="url(#mask-8)"></path>
            <path d="M106.008427,153.480988 L105.082663,153.03125 L106.008427,152.581512 C107.547244,151.833951 108.544849,150.27246 108.544849,148.53125 C108.544849,146.045969 106.53013,144.03125 104.044849,144.03125 L102.044849,144.03125 L102.044849,143.03125 C105.082415,143.03125 107.544849,140.568816 107.544849,137.53125 C107.544849,134.493684 105.082415,132.03125 102.044849,132.03125 L100.544849,132.03125 L100.544849,131.03125 C103.306273,131.03125 105.544849,128.792674 105.544849,126.03125 C105.544849,123.269826 103.306273,121.03125 100.544849,121.03125 L91.8156919,121.03125 C89.0542682,121.03125 86.8156919,123.269826 86.8156919,126.03125 C86.8156919,128.792674 89.0542682,131.03125 91.8156919,131.03125 L94.3156919,131.03125 L94.3156919,132.03125 C91.2781258,132.03125 88.8156919,134.493684 88.8156919,137.53125 C88.8156919,140.568816 91.2781258,143.03125 94.3156919,143.03125 L94.3156919,144.03125 C91.8304105,144.03125 89.8156919,146.045969 89.8156919,148.53125 C89.8156919,150.717407 91.3859118,152.576944 93.5123845,152.959844 L94.6832956,153.170682 L93.7132943,153.859582 C92.5315238,154.698882 91.8156919,156.054557 91.8156919,157.53125 C91.8156919,160.016531 93.8304105,162.03125 96.3156919,162.03125 L104.044849,162.03125 C106.53013,162.03125 108.544849,160.016531 108.544849,157.53125 C108.544849,155.79004 107.547244,154.228549 106.008427,153.480988 Z" id="Combined-Shape-Copy" stroke="#84898A" mask="url(#mask-8)"></path>
            <path d="M113.500238,111.53125 L123.607738,111.53125 C126.210002,111.531251 128.515618,113.208695 129.316508,115.684649 C130.399977,119.034193 129.757516,121.390467 127.389126,122.753472 C124.754537,124.269675 119.984236,124.556778 113.078224,123.614783 C110.105413,123.209287 107.889126,120.670172 107.889126,117.669833 L107.889126,117.142361 C107.889126,114.04343 110.401307,111.53125 113.500238,111.53125 Z" id="Rectangle-Copy-3" fill="#C3996F" mask="url(#mask-8)"></path>
            <path d="M111.500238,110.03125 C108.677449,110.03125 106.389126,112.319572 106.389126,115.142361 L106.389126,115.669833 C106.389126,118.420144 108.420723,120.747666 111.1458,121.119371 C117.950542,122.047553 122.62717,121.766087 125.139729,120.320112 C127.282885,119.086729 127.857138,116.980612 126.840778,113.838533 C126.106628,111.568908 123.993147,110.031251 121.607738,110.03125 L111.500238,110.03125 Z" id="Rectangle-Copy-4" stroke="#84898A" mask="url(#mask-8)"></path>
        </g>
    </g>
</svg>