<?xml version="1.0" encoding="UTF-8"?>
<svg width="215px" height="215px" viewBox="0 0 215 215" version="1.1" xmlns="http://www.w3.org/2000/svg" xmlns:xlink="http://www.w3.org/1999/xlink">
    <!-- Generator: Sketch 55.2 (78181) - https://sketchapp.com -->
    <title>Write Reviews</title>
    <desc>Created with Sketch.</desc>
    <defs>
        <circle id="path-1" cx="109.497496" cy="106.63962" r="105.36038"></circle>
        <ellipse id="path-3" cx="101.876492" cy="103.618436" rx="101.876492" ry="103.618436"></ellipse>
    </defs>
    <g id="Write-Reviews" stroke="none" stroke-width="1" fill="none" fill-rule="evenodd">
        <g id="Add-review" transform="translate(0.000000, 1.482759)">
            <g id="Group">
                <mask id="mask-2" fill="white">
                    <use xlink:href="#path-1"></use>
                </mask>
                <circle stroke="#099AA4" stroke-width="8" cx="109.497496" cy="106.63962" r="101.36038"></circle>
                <mask id="mask-4" fill="white">
                    <use xlink:href="#path-3"></use>
                </mask>
                <ellipse stroke="#84898A" cx="101.876492" cy="103.618436" rx="101.376492" ry="103.118436"></ellipse>
            </g>
            <g id="Group-3" transform="translate(49.331155, 33.763134)">
                <path d="M17.8797919,8.68544671 C17.8797872,8.68189568 17.8797849,8.67834415 17.8797849,8.67479213 C17.8797849,3.88383673 22.1643263,0 27.4495759,0 C32.7348256,0 37.0193669,3.88383673 37.0193669,8.67479213 C37.0193669,8.9058077 37.009405,9.13471415 36.9898494,9.36117774 C42.4365879,10.6806947 46.2565782,13.7606152 46.2565782,17.3495843 C46.2565782,22.1405397 39.4494006,26.0243764 31.0523214,26.0243764 C28.6486564,26.0243764 26.3752666,25.7061382 24.3545236,25.1394809 C22.6001975,25.7061382 20.6265337,26.0243764 18.5397705,26.0243764 C11.2497709,26.0243764 5.34005869,22.1405397 5.34005869,17.3495843 C5.34005869,12.7040709 10.8964075,8.9114363 17.8797919,8.68544671 Z" id="Combined-Shape" fill="#FFFFFF"></path>
                <path d="M13.2058789,11.8013887 C13.2058742,11.7978377 13.2058718,11.7942862 13.2058718,11.7907342 C13.2058718,6.99977876 17.4904132,3.11594203 22.7756629,3.11594203 C28.0609125,3.11594203 32.3454539,6.99977876 32.3454539,11.7907342 C32.3454539,12.0217497 32.335492,12.2506562 32.3159363,12.4771198 C37.7626748,13.7966367 41.5826652,16.8765572 41.5826652,20.4655263 C41.5826652,25.2564817 34.7754875,29.1403184 26.3784083,29.1403184 C23.9747434,29.1403184 21.7013535,28.8220802 19.6806106,28.2554229 C17.9262844,28.8220802 15.9526207,29.1403184 13.8658574,29.1403184 C6.5758579,29.1403184 0.666145645,25.2564817 0.666145645,20.4655263 C0.666145645,15.820013 6.22249445,12.0273783 13.2058789,11.8013887 Z" id="Combined-Shape-Copy-2" stroke="#979797"></path>
                <path d="M68.3292278,71.9890405 L63.5152153,37.9179112 L58.7012028,71.9890405 L30.0430488,71.9890405 C28.3861946,71.9890405 27.0430488,70.6458948 27.0430488,68.9890405 C27.0430488,68.4222681 27.2036021,67.8670899 27.5061147,67.3878019 L60.9782812,14.355931 C61.8626208,12.9548209 63.7153439,12.5358958 65.1164539,13.4202355 C65.4941098,13.6586009 65.8137841,13.9782751 66.0521494,14.355931 L99.5243159,67.3878019 C100.408656,68.7889119 99.9897305,70.6416349 98.5886204,71.5259746 C98.1093324,71.8284873 97.5541542,71.9890405 96.9873818,71.9890405 L68.3292278,71.9890405 L68.3292278,71.9890405 Z" id="Path" fill="#1DBDC8"></path>
                <path d="M64.7712568,69.9890405 L59.9572443,35.9179112 L55.1432317,69.9890405 L26.4850778,69.9890405 C24.8282235,69.9890405 23.4850778,68.6458948 23.4850778,66.9890405 C23.4850778,66.4222681 23.645631,65.8670899 23.9481437,65.3878019 L57.4203101,12.355931 C58.3046498,10.9548209 60.1573729,10.5358958 61.5584829,11.4202355 C61.9361388,11.6586009 62.255813,11.9782751 62.4941784,12.355931 L95.9663449,65.3878019 C96.8506846,66.7889119 96.4317594,68.6416349 95.0306494,69.5259746 C94.5513613,69.8284873 93.9961832,69.9890405 93.4294108,69.9890405 L64.7712568,69.9890405 L64.7712568,69.9890405 Z" id="Path-Copy" stroke="#979797"></path>
                <path d="M16.4327612,98.7592135 L106.131805,98.7592135 C108.147908,98.7592135 109.782283,100.393588 109.782283,102.409692 C109.782283,104.425795 108.147908,106.06017 106.131805,106.06017 L16.4327612,106.06017 C14.4166578,106.06017 12.782283,104.425795 12.782283,102.409692 C12.782283,100.393588 14.4166578,98.7592135 16.4327612,98.7592135 Z" id="Rectangle-19" fill="#1DBDC8"></path>
                <rect id="Rectangle-19-Copy" fill="#1DBDC8" x="12.782283" y="113.361126" width="97" height="7.30095627" rx="3.65047813"></rect>
                <rect id="Rectangle-19-Copy-2" fill="#1DBDC8" x="12.782283" y="129.585473" width="97" height="7.30095627" rx="3.65047813"></rect>
                <path d="M13.4327612,97.2592135 C11.6928001,97.2592135 10.282283,98.6697306 10.282283,100.409692 C10.282283,102.149653 11.6928001,103.56017 13.4327612,103.56017 L103.131805,103.56017 C104.871766,103.56017 106.282283,102.149653 106.282283,100.409692 C106.282283,98.6697306 104.871766,97.2592135 103.131805,97.2592135 L13.4327612,97.2592135 Z" id="Rectangle-19-Copy-5" stroke="#979797"></path>
                <rect id="Rectangle-19-Copy-4" stroke="#979797" x="10.282283" y="111.861126" width="96" height="6.30095627" rx="3.15047813"></rect>
                <rect id="Rectangle-19-Copy-3" stroke="#979797" x="10.282283" y="128.085473" width="96" height="6.30095627" rx="3.15047813"></rect>
                <g id="List/Nav/Default" transform="translate(31.066521, 78.260131)">
                    <polygon id="Touch-bounds" fill-opacity="0" fill="#212121" points="0 0.811217363 64.8973891 0.811217363 64.8973891 13.7906952 0 13.7906952"></polygon>
                    <g id="Icon/Small" transform="translate(0.000000, 0.405609)" fill="#FDA304">
                        <polygon id="Icon" points="4.91056911 9.04372157 2.37855691 10.5782744 3.04992378 7.70098783 0.824822154 5.76361486 3.75965447 5.51425003 4.91056911 2.80960064 6.06148374 5.51425003 8.99631606 5.76361486 6.77121443 7.70098783 7.4425813 10.5782744"></polygon>
                    </g>
                    <g id="Icon/Small-Copy" transform="translate(12.979478, 0.405609)" fill="#FDA304">
                        <polygon id="Icon" points="4.91056911 9.04372157 2.37855691 10.5782744 3.04992378 7.70098783 0.824822154 5.76361486 3.75965447 5.51425003 4.91056911 2.80960064 6.06148374 5.51425003 8.99631606 5.76361486 6.77121443 7.70098783 7.4425813 10.5782744"></polygon>
                    </g>
                    <g id="Icon/Small-Copy-2" transform="translate(25.958956, 0.405609)" fill="#FDA304">
                        <polygon id="Icon" points="4.91056911 9.04372157 2.37855691 10.5782744 3.04992378 7.70098783 0.824822154 5.76361486 3.75965447 5.51425003 4.91056911 2.80960064 6.06148374 5.51425003 8.99631606 5.76361486 6.77121443 7.70098783 7.4425813 10.5782744"></polygon>
                    </g>
                    <g id="Icon/Small-Copy-3" transform="translate(38.938433, 0.405609)" fill="#FDA304">
                        <polygon id="Icon" points="4.91056911 9.04372157 2.37855691 10.5782744 3.04992378 7.70098783 0.824822154 5.76361486 3.75965447 5.51425003 4.91056911 2.80960064 6.06148374 5.51425003 8.99631606 5.76361486 6.77121443 7.70098783 7.4425813 10.5782744"></polygon>
                    </g>
                    <g id="Icon/Small-Copy-4" transform="translate(51.917911, 0.405609)" fill="#FDA304">
                        <polygon id="Icon" points="4.91056911 9.04372157 2.37855691 10.5782744 3.04992378 7.70098783 0.824822154 5.76361486 3.75965447 5.51425003 4.91056911 2.80960064 6.06148374 5.51425003 8.99631606 5.76361486 6.77121443 7.70098783 7.4425813 10.5782744"></polygon>
                    </g>
                </g>
            </g>
        </g>
    </g>
</svg>