<?xml version="1.0" encoding="UTF-8"?>
<svg width="230px" height="152px" viewBox="0 0 230 152" version="1.1" xmlns="http://www.w3.org/2000/svg" xmlns:xlink="http://www.w3.org/1999/xlink">
    <!-- Generator: Sketch 53.2 (72643) - https://sketchapp.com -->
    <title>friends</title>
    <desc>Created with Sketch.</desc>
    <g id="Empty-States" stroke="none" stroke-width="1" fill="none" fill-rule="evenodd">
        <g id="Social---Friends---Empty-" transform="translate(-65.000000, -205.000000)">
            <g id="friends" transform="translate(65.000000, 207.000000)">
                <g id="person-1" transform="translate(5.421494, 0.401295)">
                    <path d="M61.608589,104.053835 L22.241534,106.934572 C11.2766532,107.736942 2.79034605,116.866937 2.79034605,127.861135 L2.79034605,147.223327 L120.426832,147.223327 L120.426832,127.861135 C120.426832,116.866937 111.940525,107.736942 100.975644,106.934572 L61.608589,104.053835 Z" id="Rectangle" stroke="#979797" stroke-width="4" fill="#B3B3B3"></path>
                    <path d="M44.3305932,90.6971173 L45.757252,98.5060635 L44.1701226,106.403606 C52.0216211,111.082652 57.8907006,113.399857 61.608589,113.399857 C65.3264775,113.399857 71.195557,111.082652 79.0470555,106.403606 L77.459926,98.5060635 L78.8865849,90.6971173 L44.3305932,90.6971173 Z" id="Rectangle" stroke="#979797" stroke-width="4" fill="#F8F8F8"></path>
                    <rect id="face" stroke="#979797" stroke-width="4" fill="#F8F8F8" x="29.1994675" y="12.2675281" width="63.9238571" height="57.5526019" rx="16"></rect>
                    <path d="M62.8291046,47.7951764 L58.9254313,55.8090464 L66.6898805,55.8090464 L67.8692905,58.2571653 L57.63702,58.2571653 C56.5324505,58.2571653 55.63702,57.3617348 55.63702,56.2571653 C55.63702,55.9566016 55.7047633,55.6599029 55.8352141,55.3891242 L61.1613961,44.3334889 L62.8291046,47.7951764 Z" id="Combined-Shape" fill="#84898A"></path>
                    <path d="M85.1379877,9.37784235 C88.6758779,8.87338651 92.9025162,11.8526659 95.0636937,16.6021059 C96.5302483,19.825031 95.9934727,23.5123088 93.4533668,27.6639393 C93.0028789,28.4002311 92.1308415,28.7644309 91.2904944,28.5672465 L91.2904888,28.5672702 C86.2823317,27.3921241 83.0413292,25.1850746 81.5674814,21.9461217 C81.4393375,21.6645106 81.321037,21.3823499 81.2124566,21.1002731 C76.452737,25.6908416 68.293247,29.5715176 58.5772366,31.3332671 C48.1606094,33.2220554 34.4241317,32.1310187 17.3678036,28.0601569 C17.0192771,27.9769736 16.6994987,27.8016841 16.4419032,27.5526163 C15.6478309,26.7848318 15.6265205,25.5186967 16.3943051,24.7246245 L16.3942874,24.7246074 C29.8304916,10.8283693 41.7867065,2.93045276 52.262932,1.03085778 C67.9850884,-1.81995228 82.1564189,1.89781982 85.1379868,9.3778403 Z" id="hair" stroke="#979797" stroke-width="4" fill="#CDCDCD"></path>
                    <path d="M32.8771142,59.331059 C35.5215489,63.4056331 38.2348772,65.3052011 41.0344263,65.3052011 C42.9855451,65.3052011 45.3898605,64.8186767 50.3439915,63.5488491 C50.5260331,63.5021722 50.5260331,63.5021722 50.708268,63.4554026 C56.5863746,61.9466563 58.8053161,61.4800153 61.1581096,61.4800153 C63.5069866,61.4800153 65.1381708,61.8511885 70.9986569,63.4643238 C72.3248131,63.8293565 73.2192606,64.0672386 74.1204001,64.289348 C76.8643257,64.9656604 78.9926207,65.3052011 80.8346,65.3052011 C84.3820542,65.3052011 87.1697983,63.4396103 89.3727741,59.4526164 L93.1233246,52.664788 L93.1233246,67.081502 C93.1233246,83.0977598 80.1395824,96.081502 64.1233246,96.081502 L58.1994675,96.081502 C42.1832098,96.081502 29.1994675,83.0977598 29.1994675,67.081502 L29.1994675,53.6645007 L32.8771142,59.331059 Z" id="Rectangle" stroke="#979797" stroke-width="4" fill="#CDCDCD"></path>
                    <path d="M55.571484,70.8729225 C57.881981,72.2017761 60.192478,72.866203 62.502975,72.866203 C64.8134719,72.866203 67.1239689,72.2017761 69.4344659,70.8729225" id="Line" stroke="#979797" stroke-width="4" stroke-linecap="square"></path>
                    <ellipse id="Oval" fill="#84898A" cx="48.4163966" cy="40.7863645" rx="4.47192963" ry="4.3327585"></ellipse>
                    <ellipse id="Oval-Copy" fill="#84898A" cx="74.8007815" cy="40.7863645" rx="4.47192963" ry="4.3327585"></ellipse>
                </g>
                <g id="person-2" transform="translate(111.853419, 3.071569)">
                    <path d="M71.3747883,15.6236355 C85.6466786,11.1822896 95.1612722,17.0031937 99.9185689,33.0863478 C104.675866,49.169502 104.675866,75.5149063 99.9185689,112.122561 L71.3747883,112.122561 L71.3747883,15.6236355 Z" id="Rectangle" stroke="#979797" stroke-width="4" fill="#979797"></path>
                    <path d="M19.2033063,36.6418541 L41.3666259,36.6418541 C34.1542541,47.5464787 30.5480682,57.2743387 30.5480682,65.825434 C30.5480682,71.1710875 39.6115445,80.9473581 41.3666259,89.6061447 C42.0682315,93.0675532 42.0682315,99.6141073 41.3666259,109.245807 L19.2033063,109.245807 C16.5592902,92.9561673 15.2372822,80.5092127 15.2372822,71.9049436 C15.2372822,63.3006744 16.5592902,51.5463112 19.2033063,36.6418541 Z" id="Rectangle" stroke="#979797" stroke-width="4" fill="#979797"></path>
                    <path d="M57.1478189,100.021481 L22.1086734,102.879752 C11.2089181,103.768884 2.81604836,112.874269 2.81604836,123.810229 L2.81604836,144.723819 L111.479589,144.723819 L111.479589,123.810229 C111.479589,112.874269 103.08672,103.768884 92.1869643,102.879752 L57.1478189,100.021481 Z" id="Rectangle" stroke="#979797" stroke-width="4" fill="#EBEBEB"></path>
                    <path d="M41.1375427,86.2292773 L42.5547432,94.3558418 L40.8808097,103.081962 C48.8815558,114.600152 54.8929962,120.369329 58.1827462,120.369329 C61.4704009,120.369329 67.4610417,114.601628 75.4226466,103.084569 L73.748218,94.3558418 L75.1654185,86.2292773 L41.1375427,86.2292773 Z" id="Rectangle" stroke="#979797" stroke-width="4" fill="#BCBCBC"></path>
                    <path d="M58.1514806,92.5251821 C41.3070043,92.5251821 27.5238595,73.4298326 27.5238595,51.5217494 C27.5238595,31.1294448 39.8932221,19.1378598 58.1514806,19.1378598 C76.4097391,19.1378598 88.7791017,31.1294448 88.7791017,51.5217494 C88.7791017,73.4298326 74.9959569,92.5251821 58.1514806,92.5251821 Z" id="Oval" stroke="#979797" stroke-width="4" fill="#BCBCBC"></path>
                    <path d="M54.1421081,39.0161439 C71.5980754,39.2362888 85.6527054,32.26093 85.534003,23.436244 C85.4153005,14.611558 71.1682157,7.27927387 53.7122485,7.05912898 C42.6986829,6.92023205 28.992995,12.5916388 12.5951847,24.0733493 L12.5951857,24.0733507 C11.690372,24.7068993 11.4704681,25.9539884 12.1040167,26.8588021 C12.3090986,27.1516935 12.5889494,27.384251 12.9144296,27.5322595 C29.446526,35.0500491 43.1890855,38.8780105 54.1421081,39.0161439 Z" id="Oval" stroke="#979797" stroke-width="4" fill="#979797" transform="translate(48.638453, 23.038927) rotate(-11.000000) translate(-48.638453, -23.038927) "></path>
                    <ellipse id="Oval" fill="#84898A" cx="69.7784977" cy="50.203736" rx="3.70842948" ry="3.59301928"></ellipse>
                    <ellipse id="Oval-Copy" fill="#84898A" cx="46.5244636" cy="50.203736" rx="3.70842948" ry="3.59301928"></ellipse>
                    <path d="M58.6949344,58.6276325 L55.8009121,64.5687848 L61.5571542,64.5687848 L62.4315201,66.3837191 L57.2608857,66.3837191 C55.6040314,66.3837191 54.2608857,65.0405734 54.2608857,63.3837191 C54.2608857,62.9328736 54.3625005,62.4878255 54.5581768,62.0816574 L57.4585641,56.0612803 L58.6949344,58.6276325 Z" id="Combined-Shape" fill="#84898A"></path>
                    <path d="M51.1492859,74.9015466 C54.0943134,76.7396214 56.4283783,77.6586587 58.1514806,77.6586587 C59.874583,77.6586587 62.2086479,76.7396214 65.1536753,74.9015466" id="Line-2" stroke="#979797" stroke-width="4" stroke-linecap="square"></path>
                </g>
                <rect id="Rectangle" fill="#F8F8F8" x="0.0551781188" y="145.486181" width="229.857183" height="4.45045661"></rect>
                <rect id="Rectangle" fill-opacity="0.351073" fill="#F8F8F8" x="2.06693537" y="0" width="225.707547" height="150"></rect>
            </g>
        </g>
    </g>
</svg>