<?xml version="1.0" encoding="UTF-8"?>
<svg width="257px" height="171px" viewBox="0 0 257 171" version="1.1" xmlns="http://www.w3.org/2000/svg" xmlns:xlink="http://www.w3.org/1999/xlink">
    <!-- Generator: Sketch 53.2 (72643) - https://sketchapp.com -->
    <title>campfire</title>
    <desc>Created with Sketch.</desc>
    <defs>
        <rect id="path-1" x="56.011236" y="0" width="28.7640449" height="27.8651685" rx="4"></rect>
        <filter x="-7.0%" y="-7.2%" width="113.9%" height="114.4%" filterUnits="objectBoundingBox" id="filter-2">
            <feGaussianBlur stdDeviation="1.5" in="SourceAlpha" result="shadowBlurInner1"></feGaussianBlur>
            <feOffset dx="0" dy="-1" in="shadowBlurInner1" result="shadowOffsetInner1"></feOffset>
            <feComposite in="shadowOffsetInner1" in2="SourceAlpha" operator="arithmetic" k2="-1" k3="1" result="shadowInnerInner1"></feComposite>
            <feColorMatrix values="0 0 0 0 0   0 0 0 0 0   0 0 0 0 0  0 0 0 0.0973830857 0" type="matrix" in="shadowInnerInner1"></feColorMatrix>
        </filter>
        <rect id="path-3" x="56.011236" y="0" width="28.7640449" height="27.8651685" rx="4"></rect>
        <filter x="-7.0%" y="-7.2%" width="113.9%" height="114.4%" filterUnits="objectBoundingBox" id="filter-4">
            <feGaussianBlur stdDeviation="1.5" in="SourceAlpha" result="shadowBlurInner1"></feGaussianBlur>
            <feOffset dx="0" dy="-1" in="shadowBlurInner1" result="shadowOffsetInner1"></feOffset>
            <feComposite in="shadowOffsetInner1" in2="SourceAlpha" operator="arithmetic" k2="-1" k3="1" result="shadowInnerInner1"></feComposite>
            <feColorMatrix values="0 0 0 0 0   0 0 0 0 0   0 0 0 0 0  0 0 0 0.101835664 0" type="matrix" in="shadowInnerInner1"></feColorMatrix>
        </filter>
    </defs>
    <g id="Empty-States" stroke="none" stroke-width="1" fill="none" fill-rule="evenodd">
        <g id="Social---Nearby-people---Empty-Copy" transform="translate(-46.000000, -191.000000)">
            <g id="campfire" transform="translate(46.101124, 191.000000)">
                <g transform="translate(68.211897, 28.471910)">
                    <path d="M64.5280899,47.6404494 L67.6067416,47.6404494 C71.4727348,47.6404494 74.6067416,50.7744562 74.6067416,54.6404494 L74.6067416,168.280899 C74.6067416,172.146892 71.4727348,175.280899 67.6067416,175.280899 L64.5280899,175.280899 C60.6620966,175.280899 57.5280899,172.146892 57.5280899,168.280899 L57.5280899,54.6404494 C57.5280899,50.7744562 60.6620966,47.6404494 64.5280899,47.6404494 Z" id="Rectangle-Copy" fill="#8B8B8B" transform="translate(66.067416, 111.460674) scale(1, -1) rotate(-74.000000) translate(-66.067416, -111.460674) "></path>
                    <path d="M62.7303371,44.6404494 L65.8089888,44.6404494 C71.3318363,44.6404494 75.8089888,49.1176019 75.8089888,54.6404494 L75.8089888,168.280899 C75.8089888,173.803746 71.3318363,178.280899 65.8089888,178.280899 L62.7303371,178.280899 C57.2074896,178.280899 52.7303371,173.803746 52.7303371,168.280899 L52.7303371,54.6404494 C52.7303371,49.1176019 57.2074896,44.6404494 62.7303371,44.6404494 Z" id="Rectangle" stroke="#F8F8F8" stroke-width="6" fill="#8B8B8B" transform="translate(64.269663, 111.460674) rotate(-74.000000) translate(-64.269663, -111.460674) "></path>
                    <g id="fire-(1)" transform="translate(28.764045, 0.544242)" fill="#C0C0C0" fill-rule="nonzero">
                        <path d="M65.1785268,42.5867665 C63.98402,41.0287141 62.5817728,39.678402 61.2314607,38.3280899 C57.8556804,35.211985 53.9605493,32.9787765 50.6886392,29.7068664 C43.1061174,22.1243446 41.5480649,9.60799001 46.2741573,0 C41.5480649,1.19450687 37.1855181,3.89513109 33.5500624,6.85543071 C20.3585518,17.6579276 15.1650437,36.7181024 21.3972534,53.0776529 C21.6049938,53.5970037 21.8127341,54.1163546 21.8127341,54.7915106 C21.8127341,55.9340824 21.0337079,56.972784 19.9950062,57.3882647 C18.8524345,57.9076155 17.6059925,57.596005 16.671161,56.7650437 C16.3595506,56.5053683 16.1518102,56.2456929 15.8921348,55.8821473 C10.1792759,48.4554307 9.24444444,37.8087391 13.1395755,29.2913858 C4.62222222,36.3545568 2.10942375e-15,48.2996255 0.727091136,59.5695381 C0.934831461,62.1662921 1.24644195,64.7630462 2.12933833,67.3598002 C2.85642946,70.4759051 4.20674157,73.59201 5.86866417,76.3445693 C11.2699126,85.3293383 20.7740325,91.7692884 31.0052434,93.0676654 C41.9116105,94.4699126 53.5970037,92.4444444 61.9585518,84.7580524 C71.3068664,76.136829 74.6826467,62.3220974 69.748814,50.4808989 L69.0736579,49.1305868 C68.0349563,46.741573 66.6327091,44.6122347 64.9188514,42.6387016 L65.1785268,42.5867665 L65.1785268,42.5867665 Z M55.3707865,76.2047441 C53.9166042,77.451186 51.5795256,78.8014981 49.7617978,79.3208489 C44.0489388,81.3982522 38.3360799,78.4898876 34.8564295,75.0621723 C41.0367041,73.60799 44.6721598,69.0377029 45.7108614,64.4154806 C46.5937578,60.2606742 44.9837703,56.8329588 44.3086142,52.8339576 C43.6853933,48.9907615 43.7892634,45.7188514 45.2434457,42.1353308 C46.1263421,44.1088639 47.1650437,46.082397 48.3595506,47.6404494 C52.3066167,52.8339576 58.4868914,55.1191011 59.7852684,62.1822722 C59.9930087,62.9093633 60.0968789,63.6364544 60.0968789,64.4154806 C60.2526841,68.6741573 58.4349563,73.3483146 55.3188514,76.2047441 L55.3707865,76.2047441 Z" id="Shape"></path>
                    </g>
                </g>
                <g id="mallow" transform="translate(59.292135, 44.202247) rotate(-35.000000) translate(-59.292135, -44.202247) translate(13.000000, 30.269663)">
                    <rect id="Rectangle" fill="#B4B4B4" x="0" y="10.6495787" width="92.5842697" height="6.29213483" rx="2"></rect>
                    <g id="Rectangle">
                        <use fill="#DDDDDD" fill-rule="evenodd" xlink:href="#path-1"></use>
                        <use fill="black" fill-opacity="1" filter="url(#filter-2)" xlink:href="#path-1"></use>
                    </g>
                </g>
                <g id="mallow-copy" transform="translate(208.250520, 44.202247) scale(-1, 1) rotate(-35.000000) translate(-208.250520, -44.202247) translate(161.958385, 30.269663)">
                    <rect id="Rectangle" fill="#B4B4B4" x="0" y="10.6495787" width="92.5842697" height="6.29213483" rx="2"></rect>
                    <g id="Rectangle">
                        <use fill="#DDDDDD" fill-rule="evenodd" xlink:href="#path-3"></use>
                        <use fill="black" fill-opacity="1" filter="url(#filter-4)" xlink:href="#path-3"></use>
                    </g>
                </g>
                <rect id="Rectangle" fill-opacity="0.321073" fill="#F8F8F8" x="0.398876404" y="0.110501567" width="256.308962" height="170.336991"></rect>
            </g>
        </g>
    </g>
</svg>