<?xml version="1.0" encoding="UTF-8"?>
<svg width="217px" height="114px" viewBox="0 0 217 114" version="1.1" xmlns="http://www.w3.org/2000/svg" xmlns:xlink="http://www.w3.org/1999/xlink">
    <!-- Generator: Sketch 53.2 (72643) - https://sketchapp.com -->
    <title>tumbleweed</title>
    <desc>Created with Sketch.</desc>
    <g id="Social" stroke="none" stroke-width="1" fill="none" fill-rule="evenodd">
        <g id="Social---Nearby---No-one-around" transform="translate(-129.000000, -252.000000)">
            <g id="tumbleweed" transform="translate(106.000000, 232.000000)">
                <path d="M95.7990828,86.5683295 L84.0916887,81.1755096 L86.2154547,76.5649783 L96.0496572,81.0949431 C96.0202123,63.0385713 87.6432356,48.292731 77.0815585,45.347249 L79.1355262,40.6524658 C88.8874147,43.7286606 96.5907437,54.2564023 99.6708338,67.8885089 L107.594896,59.1701821 L111.351311,62.584377 L100.740703,74.2585337 C100.994242,76.5151283 101.125893,78.8312626 101.125893,81.1904495 C101.125893,85.2424464 100.737529,89.1674407 100.010275,92.8818979 L107.746428,88.8147464 L110.10858,93.3078098 L98.2789037,99.5270616 C96.3728285,105.306333 93.5872909,110.337112 90.1607499,114.216778 C101.040083,109.713149 109.702257,101.005915 114.080028,90.1466883 L113.868999,89.8183892 L114.201845,89.6044396 L106.325113,78.0435486 L110.520135,75.1853723 L116.159684,83.4626892 C116.841101,80.4157352 117.200394,77.2489513 117.200394,73.9992256 C117.200394,65.4939807 114.739296,57.5568746 110.483448,50.8492161 L99.2453587,49.1230446 L100.016019,44.1057283 L106.073823,45.0362074 C100.118505,38.4120315 92.1520526,33.5997088 83.1222798,31.5398862 L85.1899728,26.8137306 C101.09368,30.7708468 113.919311,42.4234339 119.400489,57.549741 L120.826817,52.6618238 L125.699745,54.0837779 L121.907867,67.0782525 L121.778344,67.0404566 C122.106663,69.3130795 122.276552,71.6364481 122.276552,73.9992256 C122.276552,77.8769994 121.818955,81.648625 120.954408,85.2639866 L126.679271,81.5841106 L129.424031,85.8542014 L118.425105,92.9241695 C110.977769,110.391616 93.5333328,122.64574 73.2070239,122.64574 C53.023848,122.64574 35.6821008,110.563589 28.1477544,93.2923962 L16.5759694,85.8542014 L19.320729,81.5841106 L25.5361746,85.5793193 C24.6221222,81.8681242 24.1374961,77.989884 24.1374961,73.9992256 C24.1374961,71.6231032 24.3093088,69.2868361 24.6412823,67.0019543 L24.3798142,67.0782525 L20.5879364,54.0837779 L25.4608644,52.6618238 L26.9437711,57.7436314 C32.3852999,42.5230527 45.2524824,30.7877378 61.2240749,26.8137306 L63.291768,31.5398862 C54.2447151,33.6036506 46.2650567,38.4304599 40.3060578,45.0742568 L46.6015067,44.0469914 L47.4190013,49.0568899 L35.8725284,50.9409957 C31.6523717,57.6292274 29.2136541,65.5327403 29.2136541,73.9992256 C29.2136541,76.6633593 29.4551264,79.2717498 29.917592,81.8040728 L35.0035023,74.339346 L39.1985242,77.1975223 L31.636923,88.2958868 C35.74521,100.013992 44.7625748,109.460057 56.2532979,114.216778 C51.6057733,108.954666 48.1374606,101.574926 46.4433516,93.0821613 L35.9154072,87.5472729 L38.2775591,83.0542095 L45.5462741,86.8756133 C45.3759676,85.0152628 45.2881546,83.1172144 45.2881546,81.1904495 C45.2881546,76.2976039 45.8544253,71.5899399 46.8998588,67.2145336 L38.7793014,56.5422684 L42.8189888,53.4684586 L48.7087524,61.2089517 C52.5092667,50.8835489 59.1890729,43.2042505 67.2785215,40.6524658 L69.3324892,45.347249 C63.0541454,47.0981782 57.5477999,53.0189494 54.1079968,61.3262175 L59.7585694,59.4100433 L61.3887694,64.2173116 L52.0898595,67.370679 C50.9806267,71.6209421 50.3643127,76.2841949 50.3643127,81.1904495 C50.3643127,84.1427926 50.5874826,87.0071437 51.0069349,89.7464632 L51.0072143,89.7482879 C51.6302919,93.8164961 52.6862888,97.6089088 54.0871289,101.004194 L56.8221085,96.3177574 L61.2062878,98.8763414 L56.8089101,106.411327 C60.2472036,112.061085 64.8018467,115.942929 69.8229185,117.161535 L69.8229185,91.4342159 L59.4488575,83.113393 L62.624927,79.1535997 L69.8229185,84.926962 L69.8229185,54.9636329 L74.8990766,54.9636329 L74.8990766,70.289935 L82.9185496,63.8576791 L86.0946191,67.8174724 L74.8990766,76.7971889 L74.8990766,88.9984449 L75.1642725,89.2111531 L74.8990766,89.5417885 L74.8990766,104.252973 L82.9865454,97.7661792 L86.1626149,101.725973 L74.8990766,110.760227 L74.8990766,117.468108 C85.3881755,116.207379 94.2210448,103.336602 95.7990828,86.5683295 L95.7990828,86.5683295 Z" id="Path" fill="#E3DCD4" fill-rule="nonzero" transform="translate(73.000000, 74.729735) rotate(-53.000000) translate(-73.000000, -74.729735) "></path>
                <path d="M237,122.998644 L202.125,129.48 C175.830003,132.301547 157.863138,130.141095 148.224404,122.998644 C133.766304,112.284968 135.006286,94.2986439 148.224404,86.5986439 C161.442523,78.8986439 187.132065,86.5986439 175.231763,103.238957 C167.298228,114.332499 143.554307,113.452395 104,100.598644" id="Path-4" stroke="#E3DCD4" stroke-width="5" stroke-linecap="round" stroke-linejoin="bevel" stroke-dasharray="9,12"></path>
            </g>
        </g>
    </g>
</svg>