<?xml version="1.0" encoding="UTF-8"?>
<svg width="145px" height="124px" viewBox="0 0 145 124" version="1.1" xmlns="http://www.w3.org/2000/svg" xmlns:xlink="http://www.w3.org/1999/xlink">
    <!-- Generator: Sketch 56.3 (81716) - https://sketch.com -->
    <title>trip_empty</title>
    <desc>Created with Sketch.</desc>
    <g id="trip_empty" stroke="none" stroke-width="1" fill="none" fill-rule="evenodd">
        <g id="Group" transform="translate(9.500000, 7.000000)" fill="#D6D6D6" fill-rule="nonzero">
            <path d="M97.7864266,68.0857523 C113.971795,71.6071134 125.083333,78.7945343 125.083333,87.5754939 C125.083333,100.118138 102.412451,109.409483 74.6666667,109.409483 C46.9208827,109.409483 24.25,100.118138 24.25,87.5754939 C24.25,78.7945343 35.3615384,71.6071134 51.5469067,68.0857523 L54.3877236,71.5746667 C38.8661579,74.58042 28.2198163,80.8464954 28.2198163,87.5754939 C28.2198163,96.9575397 48.9162074,105.439667 74.6666667,105.439667 C100.417126,105.439667 121.113517,96.9575397 121.113517,87.5754939 C121.113517,80.8464954 110.467175,74.58042 94.9456097,71.5746667 L97.7864266,68.0857523 Z" id="Combined-Shape"></path>
            <path d="M74.6666667,20.15625 C80.8511053,20.15625 85.8645833,25.1697281 85.8645833,31.3541667 C85.8645833,34.3240388 84.6848062,37.1722727 82.5847895,39.2722895 C80.4847727,41.3723062 77.6365388,42.5520833 74.6666667,42.5520833 C68.4822281,42.5520833 63.46875,37.5386053 63.46875,31.3541667 C63.46875,28.3842945 64.6485271,25.5360606 66.7485439,23.4360439 C68.8485606,21.3360271 71.6967945,20.15625 74.6666667,20.15625 L74.6666667,20.15625 Z M74.6666667,0 C91.9830948,0 106.020833,14.0377386 106.020833,31.3541667 C106.020833,54.8697917 74.6666667,89.5833333 74.6666667,89.5833333 C74.6666667,89.5833333 43.3125,54.8697917 43.3125,31.3541667 C43.3125,14.0377386 57.3502386,0 74.6666667,0 L74.6666667,0 Z M74.6666667,7.95833333 C61.7455046,7.95833333 51.2708332,18.4330048 51.2708332,31.3541668 C51.2708332,36.0333335 51.2708332,45.3916669 74.6666667,76.7888755 C98.0625002,45.3916669 98.0625002,36.0333335 98.0625002,31.3541668 C98.0625002,18.4330048 87.5878287,7.95833333 74.6666667,7.95833333 L74.6666667,7.95833333 Z" id="Shape"></path>
            <polygon id="Path" points="26.6666667 46.6964286 15.2380952 46.6964286 15.2380952 58.125 11.4285714 58.125 11.4285714 46.6964286 0 46.6964286 0 42.8869048 11.4285714 42.8869048 11.4285714 31.4583333 15.2380952 31.4583333 15.2380952 42.8869048 26.6666667 42.8869048"></polygon>
        </g>
    </g>
</svg>