<?xml version="1.0" encoding="UTF-8"?>
<svg width="145px" height="124px" viewBox="0 0 145 124" version="1.1" xmlns="http://www.w3.org/2000/svg" xmlns:xlink="http://www.w3.org/1999/xlink">
    <!-- Generator: Sketch 56.3 (81716) - https://sketch.com -->
    <title>trip_following_empty</title>
    <desc>Created with Sketch.</desc>
    <g id="trip_following_empty" stroke="none" stroke-width="1" fill="none" fill-rule="evenodd">
        <path d="M72.5,50.85 L70.8919619,49.3861308 C65.180654,44.207139 61.4100817,40.7803542 61.4100817,36.599455 C61.4100817,33.1726703 64.093842,30.5 67.5095368,30.5 C69.4391826,30.5 71.2911989,31.3982834 72.5,32.806703 C73.7088011,31.3982834 75.5608174,30.5 77.4904632,30.5 C80.906158,30.5 83.5899183,33.1726703 83.5899183,36.599455 C83.5899183,40.7803542 79.819346,44.207139 74.1080381,49.3861308 L72.5,50.85 Z" id="Path" fill="#D6D6D6" fill-rule="nonzero"></path>
        <path d="M95.6197599,74.3810106 C111.805128,77.9023717 122.916667,85.0897926 122.916667,93.8707522 C122.916667,106.413396 100.245784,115.704742 72.5,115.704742 C44.754216,115.704742 22.0833333,106.413396 22.0833333,93.8707522 C22.0833333,85.0897926 33.1948717,77.9023717 49.3802401,74.3810106 L52.221057,77.869925 C36.6994912,80.8756783 26.0531496,87.1417537 26.0531496,93.8707522 C26.0531496,103.252798 46.7495407,111.734925 72.5,111.734925 C98.2504593,111.734925 118.94685,103.252798 118.94685,93.8707522 C118.94685,87.1417537 108.300509,80.8756783 92.778943,77.869925 L95.6197599,74.3810106 Z" id="Combined-Shape" fill="#D6D6D6" fill-rule="nonzero"></path>
        <path d="M72.5,8.29525828 C87.8834314,8.29525828 100.354166,20.7659934 100.354166,36.1494248 C100.354166,57.0400497 72.5,87.8785911 72.5,87.8785911 C72.5,87.8785911 44.6458335,57.0400497 44.6458335,36.1494248 C44.6458335,20.7659934 57.1165686,8.29525828 72.5,8.29525828 L72.5,8.29525828 Z M72.5,14.3652195 C60.4689156,14.3652195 50.7157945,24.1183405 50.7157945,36.149425 C50.7157945,40.5062661 50.7157945,49.2199483 72.5,78.4543521 C94.2842055,49.2199483 94.2842055,40.5062661 94.2842055,36.149425 C94.2842055,24.1183405 84.5310845,14.3652195 72.5,14.3652195 L72.5,14.3652195 Z" id="Shape" fill="#D6D6D6" fill-rule="nonzero"></path>
    </g>
</svg>