<?xml version="1.0" encoding="UTF-8"?>
<svg width="145px" height="124px" viewBox="0 0 145 124" version="1.1" xmlns="http://www.w3.org/2000/svg" xmlns:xlink="http://www.w3.org/1999/xlink">
    <!-- Generator: Sketch 56.3 (81716) - https://sketch.com -->
    <title>trip_empty</title>
    <desc>Created with Sketch.</desc>
    <g id="trip_empty" stroke="none" stroke-width="1" fill="none" fill-rule="evenodd">
        <g id="Group" transform="translate(10.000000, 8.000000)" fill="#D6D6D6" fill-rule="nonzero">
            <path d="M97.7864266,66.0857523 C113.971795,69.6071134 125.083333,76.7945343 125.083333,85.5754939 C125.083333,98.1181381 102.412451,107.409483 74.6666667,107.409483 C46.9208827,107.409483 24.25,98.1181381 24.25,85.5754939 C24.25,76.7945343 35.3615384,69.6071134 51.5469067,66.0857523 L54.3877236,69.5746667 C38.8661579,72.58042 28.2198163,78.8464954 28.2198163,85.5754939 C28.2198163,94.9575397 48.9162074,103.439667 74.6666667,103.439667 C100.417126,103.439667 121.113517,94.9575397 121.113517,85.5754939 C121.113517,78.8464954 110.467175,72.58042 94.9456097,69.5746667 L97.7864266,66.0857523 Z" id="Combined-Shape"></path>
            <path d="M75,17.9062499 C80.4940826,17.9062499 84.9479166,22.3600839 84.9479166,27.8541665 C84.9479166,30.492518 83.8998355,33.0228095 82.0342393,34.8884058 C80.168643,36.754002 77.6383515,37.8020831 75,37.8020831 C69.5059174,37.8020831 65.0520834,33.3482491 65.0520834,27.8541665 C65.0520834,25.215815 66.1001645,22.6855235 67.9657607,20.8199272 C69.831357,18.954331 72.3616485,17.9062499 75,17.9062499 L75,17.9062499 Z M75,0 C90.3834314,0 102.854166,12.4707351 102.854166,27.8541665 C102.854166,48.7447914 75,79.5833329 75,79.5833329 C75,79.5833329 47.1458335,48.7447914 47.1458335,27.8541665 C47.1458335,12.4707351 59.6165686,0 75,0 L75,0 Z M75,6.0699612 C62.9689156,6.0699612 53.2157945,15.8230822 53.2157945,27.8541667 C53.2157945,32.2110078 53.2157945,40.92469 75,70.1590938 C96.7842055,40.92469 96.7842055,32.2110078 96.7842055,27.8541667 C96.7842055,15.8230822 87.0310845,6.0699612 75,6.0699612 L75,6.0699612 Z" id="Shape"></path>
            <polygon id="Path" points="26.6666667 44.6964286 15.2380952 44.6964286 15.2380952 56.125 11.4285714 56.125 11.4285714 44.6964286 0 44.6964286 0 40.8869048 11.4285714 40.8869048 11.4285714 29.4583333 15.2380952 29.4583333 15.2380952 40.8869048 26.6666667 40.8869048"></polygon>
        </g>
    </g>
</svg>