<?xml version="1.0" encoding="UTF-8"?>
<svg width="145px" height="124px" viewBox="0 0 145 124" version="1.1" xmlns="http://www.w3.org/2000/svg" xmlns:xlink="http://www.w3.org/1999/xlink">
    <!-- Generator: Sketch 56.3 (81716) - https://sketch.com -->
    <title>trip_following_empty</title>
    <desc>Created with Sketch.</desc>
    <g id="trip_following_empty" stroke="none" stroke-width="1" fill="none" fill-rule="evenodd">
        <g id="Group" transform="translate(21.500000, 7.000000)" fill="#D6D6D6" fill-rule="nonzero">
            <path d="M73.7864266,68.0857523 C89.9717949,71.6071134 101.083333,78.7945343 101.083333,87.5754939 C101.083333,100.118138 78.4124507,109.409483 50.6666667,109.409483 C22.9208827,109.409483 0.25,100.118138 0.25,87.5754939 C0.25,78.7945343 11.3615384,71.6071134 27.5469067,68.0857523 L30.3877236,71.5746667 C14.8661579,74.58042 4.21981627,80.8464954 4.21981627,87.5754939 C4.21981627,96.9575397 24.9162074,105.439667 50.6666667,105.439667 C76.417126,105.439667 97.1135171,96.9575397 97.1135171,87.5754939 C97.1135171,80.8464954 86.4671755,74.58042 70.9456097,71.5746667 L73.7864266,68.0857523 Z" id="Combined-Shape"></path>
            <path d="M50.6666667,0 C67.9830948,0 82.0208333,14.0377386 82.0208333,31.3541667 C82.0208333,54.8697917 50.6666667,89.5833333 50.6666667,89.5833333 C50.6666667,89.5833333 19.3125,54.8697917 19.3125,31.3541667 C19.3125,14.0377386 33.3502386,0 50.6666667,0 L50.6666667,0 Z M27.2708332,31.3541668 C27.2708332,36.0333335 27.2708332,45.3916669 50.6666667,76.7888755 C74.0625002,45.3916669 74.0625002,36.0333335 74.0625002,31.3541668 C74.0625002,18.4330048 63.5878287,7.95833333 50.6666667,7.95833333 C37.7455046,7.95833333 27.2708332,18.4330048 27.2708332,31.3541668 Z" id="Shape"></path>
            <path d="M51,43.85 L49.3919619,42.3861308 C43.680654,37.207139 39.9100817,33.7803542 39.9100817,29.599455 C39.9100817,26.1726703 42.593842,23.5 46.0095368,23.5 C47.9391826,23.5 49.7911989,24.3982834 51,25.806703 C52.2088011,24.3982834 54.0608174,23.5 55.9904632,23.5 C59.406158,23.5 62.0899183,26.1726703 62.0899183,29.599455 C62.0899183,33.7803542 58.319346,37.207139 52.6080381,42.3861308 L51,43.85 Z" id="Path"></path>
        </g>
    </g>
</svg>