<?xml version="1.0" encoding="UTF-8"?>
<svg width="136px" height="108px" viewBox="0 0 136 108" version="1.1" xmlns="http://www.w3.org/2000/svg" xmlns:xlink="http://www.w3.org/1999/xlink">
    <!-- Generator: Sketch 56.3 (81716) - https://sketch.com -->
    <title>illustration</title>
    <desc>Created with Sketch.</desc>
    <g id="Empty-States" stroke="none" stroke-width="1" fill="none" fill-rule="evenodd">
        <g id="Trips-:-My-Trips-:-Empty-State" transform="translate(-112.000000, -232.000000)">
            <g id="illustration" transform="translate(112.000000, 232.000000)">
                <g id="mountain_icon" fill="#B9B9B9">
                    <path d="M33.1543731,27.2058939 L38.4165064,37.3678229 C38.6704657,37.8582545 39.2739137,38.0499531 39.7643453,37.7959938 C39.9478889,37.7009498 40.0974721,37.5513666 40.1925162,37.3678229 L47.2189269,23.7988229 L54.9542876,34.909289 C55.2698521,35.3625411 55.8931011,35.474159 56.3463532,35.1585945 C56.4435645,35.0909138 56.527978,35.0065002 56.5956587,34.909289 L62.9216892,25.8230743 L75.9667885,46.4375522 L87.425896,28.329333 L98.309095,49.3463406 C98.5630543,49.8367722 99.1665023,50.0284708 99.6569339,49.7745116 C99.8404775,49.6794675 99.9900607,49.5298843 100.085105,49.3463406 L107.767547,34.5104501 L127.444233,65.6044729 C129.213027,68.3996033 128.381016,72.0993946 125.585886,73.8681881 C124.627716,74.47453 123.517107,74.7964156 122.383202,74.7964156 L93.9126317,74.7964156 L93.9564984,74.8657358 L13.872437,74.8657358 C10.5646607,74.8657358 7.88317812,72.1842532 7.88317812,68.8764769 C7.88317812,67.7425721 8.20506381,66.6319629 8.81140569,65.673793 L33.1543731,27.2058939 Z" id="Combined-Shape"></path>
                    <path d="M107.553758,82.3523093 L13.872437,82.3523093 C6.42994024,82.3523093 0.396604544,76.3189737 0.396604544,68.8764769 C0.396604544,66.3251912 1.12084734,63.8263204 2.48511657,61.6704382 L37.0882435,6.98895368 C41.0680288,0.699910276 49.3925592,-1.17211331 55.6816026,2.80767197 C57.367738,3.87467954 58.7958768,5.30281826 59.8628843,6.98895368 L75.9667885,32.4370985 L84.253657,19.3418001 C88.2334423,13.0527567 96.5579727,11.1807331 102.847016,15.1605184 C104.533152,16.2275259 105.96129,17.6556647 107.028298,19.3418001 L133.770523,61.6011181 C137.750308,67.8901615 135.878284,76.2146919 129.589241,80.1944772 C127.433359,81.5587464 124.934488,82.2829892 122.383202,82.2829892 L107.509891,82.2829892 L107.553758,82.3523093 Z M93.9126317,74.7964156 L122.383202,74.7964156 C123.517107,74.7964156 124.627716,74.47453 125.585886,73.8681881 C128.381016,72.0993946 129.213027,68.3996033 127.444233,65.6044729 L100.702009,23.3451549 C100.227783,22.5957614 99.5930548,21.9610331 98.8436613,21.4868075 C96.0485309,19.718014 92.3487396,20.5500245 90.5799461,23.3451549 L75.9667885,46.4375522 L53.5365952,10.9923085 C53.0623696,10.242915 52.4276413,9.60818667 51.6782478,9.13396108 C48.8831174,7.36516763 45.1833261,8.19717811 43.4145326,10.9923085 L8.81140569,65.673793 C8.20506381,66.6319629 7.88317812,67.7425721 7.88317812,68.8764769 C7.88317812,72.1842532 10.5646607,74.8657358 13.872437,74.8657358 L93.9564984,74.8657358 L93.9126317,74.7964156 Z" id="Combined-Shape-Copy" fill-rule="nonzero"></path>
                </g>
                <g id="trailer_icon" transform="translate(28.000000, 47.500000)">
                    <path d="M54.5664706,50.5952381 C53.6102809,55.9787355 48.906939,60.0666667 43.2488095,60.0666667 C37.5906801,60.0666667 32.8873381,55.9787355 31.9311485,50.5952381 L1.77635684e-15,50.5952381 L1.77635684e-15,24.9333333 C1.77635684e-15,11.1630336 11.1630336,-1.58095759e-13 24.9333333,-1.58095759e-13 L35.922619,-1.58095759e-13 C55.7621337,-1.58095759e-13 71.8452381,16.0831044 71.8452381,35.922619 L71.8452381,46.547619 L79.9404762,46.547619 L79.9404762,50.5952381 L54.5664706,50.5952381 L54.5664706,50.5952381 Z M43.2488095,56.6666667 C47.7196861,56.6666667 51.3440476,53.0423051 51.3440476,48.5714286 C51.3440476,44.100552 47.7196861,40.4761905 43.2488095,40.4761905 C38.777933,40.4761905 35.1535714,44.100552 35.1535714,48.5714286 C35.1535714,53.0423051 38.777933,56.6666667 43.2488095,56.6666667 Z" id="Shape" fill="#D6D6D6"></path>
                    <path d="M19.1047614,13.3571429 C24.0674341,13.3571429 28.0904752,17.380184 28.0904752,22.3428567 L28.0904752,45.7057125 L10.1190476,45.7057125 L10.1190476,22.3428567 C10.1190476,17.380184 14.1420887,13.3571429 19.1047614,13.3571429 Z M42.9857143,17.4047619 L53.9142867,17.4047619 C56.4179776,17.4047619 58.44762,19.4344044 58.44762,21.9380952 L58.44762,27.7769704 C58.44762,30.2806613 56.4179776,32.3103038 53.9142867,32.3103038 L42.9857143,32.3103038 C40.4820234,32.3103038 38.452381,30.2806613 38.452381,27.7769704 L38.452381,21.9380952 C38.452381,19.4344044 40.4820234,17.4047619 42.9857143,17.4047619 Z" id="Path-2" fill="#F8F8F8"></path>
                    <path d="M43.2488095,53.2666667 C40.6557011,53.2666667 38.5535714,51.164537 38.5535714,48.5714286 C38.5535714,45.9783202 40.6557011,43.8761905 43.2488095,43.8761905 C45.8419179,43.8761905 47.9440476,45.9783202 47.9440476,48.5714286 C47.9440476,51.164537 45.8419179,53.2666667 43.2488095,53.2666667 Z" id="Path" fill="#B5B5B5" fill-rule="nonzero"></path>
                </g>
            </g>
        </g>
    </g>
</svg>