<svg xmlns="http://www.w3.org/2000/svg" width="26" height="41" viewBox="0 0 26 41">
  <defs>
    <linearGradient id="logo_dark-a" x1="70.22%" x2="29.78%" y1="24.703%" y2="86.699%">
      <stop offset="0%" stop-color="#00DAEF"/>
      <stop offset="100%" stop-color="#00EFCA"/>
    </linearGradient>
  </defs>
  <g fill="none" fill-rule="evenodd" transform="translate(0 .5)">
    <path fill="url(#logo_dark-a)" fill-rule="nonzero" d="M16.7959269,0 C17.8683245,0 18.7376745,0.86935 18.7376745,1.94174757 L18.7376745,1.94174757 L18.7376745,2.52427184 C18.7376745,3.59666942 17.8683245,4.46601942 16.7959269,4.46601942 L16.7959269,4.46601942 L16.6988395,4.46601942 L16.6990337,15.198835 L16.777588,15.2246649 C21.8379291,16.9254238 25.3628544,21.6624627 25.4357412,27.1093143 L25.4357412,27.1093143 L25.4368932,27.2815534 C25.4368932,34.3057575 19.7426507,40 12.7184466,40 C5.6942425,40 -3.1934505e-15,34.3057575 -3.1934505e-15,27.2815534 C-3.1934505e-15,21.7624512 3.54579313,16.9432019 8.65949941,15.2245996 L8.65949941,15.2245996 L8.73786863,15.1986408 L8.73767445,4.46601942 L8.64058708,4.46601942 C7.58636573,4.46601942 6.72836732,3.62588917 6.69958548,2.5786223 L6.69958548,2.5786223 L6.6988395,2.52427184 L6.6988395,1.94174757 C6.6988395,0.86935 7.5681895,0 8.64058708,0 L8.64058708,0 Z M15.3398058,12.4543689 L13.3007812,12.4543689 C12.979062,12.4543689 12.718257,12.7151739 12.718257,13.0368932 C12.718257,13.3586125 12.979062,13.6194175 13.3007812,13.6194175 L13.3007812,13.6194175 L15.3398058,13.6194175 C15.6615251,13.6194175 15.9223301,13.3586125 15.9223301,13.0368932 C15.9223301,12.7151739 15.6615251,12.4543689 15.3398058,12.4543689 L15.3398058,12.4543689 Z M15.3399955,9.51456311 L14.2718447,9.51456311 C13.9501254,9.51456311 13.6893204,9.77536811 13.6893204,10.0970874 C13.6893204,10.4188067 13.9501254,10.6796117 14.2718447,10.6796117 L14.2718447,10.6796117 L15.3399955,10.6796117 C15.6617148,10.6796117 15.9225198,10.4188067 15.9225198,10.0970874 C15.9225198,9.77536811 15.6617148,9.51456311 15.3399955,9.51456311 L15.3399955,9.51456311 Z M15.3398058,6.57475728 L13.3007812,6.57475728 C12.979062,6.57475728 12.718257,6.83556228 12.718257,7.15728155 C12.718257,7.47900083 12.979062,7.73980583 13.3007812,7.73980583 L13.3007812,7.73980583 L15.3398058,7.73980583 C15.6615251,7.73980583 15.9223301,7.47900083 15.9223301,7.15728155 C15.9223301,6.83556228 15.6615251,6.57475728 15.3398058,6.57475728 L15.3398058,6.57475728 Z"/>
    <path fill="#1A203F" d="M24.5912343,24.8543689 L24.5912343,31.8446602 L17.2125935,38.6407767 L8.86307898,38.6407767 C6.1517462,36.6690483 4.33944847,35.0509253 3.42618578,33.7864078 C2.51292309,32.5218902 1.80094898,30.6448675 1.29026345,28.1553398 C2.45531199,25.9546926 4.26760973,24.8543689 6.72715665,24.8543689 C10.416477,24.8543689 12.1640499,28.1553398 15.8533702,28.1553398 C18.3129172,28.1553398 21.2255385,27.0550162 24.5912343,24.8543689 Z M16.8956015,31.327679 C15.9602178,31.327679 15.2019394,32.0859574 15.2019394,33.0213411 C15.2019394,33.9567249 15.9602178,34.7150033 16.8956015,34.7150033 C17.8309853,34.7150033 18.5892637,33.9567249 18.5892637,33.0213411 C18.5892637,32.0859574 17.8309853,31.327679 16.8956015,31.327679 Z M16.3368568,20 C17.4348824,20 18.325008,20.8901256 18.325008,21.9881512 C18.325008,23.0861769 17.4348824,23.9763025 16.3368568,23.9763025 C15.2388312,23.9763025 14.3487055,23.0861769 14.3487055,21.9881512 C14.3487055,20.8901256 15.2388312,20 16.3368568,20 Z M9.04134167,28.3298789 C8.36261036,28.3298789 7.81238992,28.8800994 7.81238992,29.5588307 C7.81238992,30.237562 8.36261036,30.7877824 9.04134167,30.7877824 C9.72007297,30.7877824 10.2702934,30.237562 10.2702934,29.5588307 C10.2702934,28.8800994 9.72007297,28.3298789 9.04134167,28.3298789 Z"/>
    <path fill="url(#logo_dark-a)" fill-rule="nonzero" d="M16.7959269,0 C17.8488263,0 18.7059946,0.838024661 18.7368163,1.88345853 L18.7376745,1.94174757 L18.7376745,2.52427184 C18.7376745,3.57717128 17.8996498,4.43433957 16.8542159,4.46516126 L16.7959269,4.46601942 L16.6988395,4.46601942 L16.6990337,15.198835 L16.777588,15.2246649 C21.7873256,16.9084162 25.2922023,21.5680256 25.4325209,26.946124 L25.4357412,27.1093143 L25.4368932,27.2815534 C25.4368932,34.2355155 19.8559661,39.8859822 12.9287694,39.9982961 L12.7184466,40 C5.6942425,40 -3.1934505e-15,34.3057575 -3.1934505e-15,27.2815534 C-3.1934505e-15,21.8176423 3.47523184,17.0396569 8.50656057,15.2770854 L8.65949941,15.2245996 L8.73786863,15.1986408 L8.73767445,4.46601942 L8.64058708,4.46601942 C7.60588835,4.46601942 6.76021233,3.65671699 6.70203356,2.63658667 L6.69958548,2.5786223 L6.6988395,2.52427184 L6.6988395,1.94174757 C6.6988395,0.888848138 7.53686416,0.0316798504 8.58229804,0.000858160467 L8.64058708,0 L16.7959269,0 Z M14.3422987,7.78375089 L14.3202247,7.81842697 L14.2982884,7.78375089 L14.2732584,7.73977528 L15.3398058,7.73980583 C15.6615251,7.73980583 15.9223301,7.47900083 15.9223301,7.15728155 C15.9223301,6.83556228 15.6615251,6.57475728 15.3398058,6.57475728 L14.9008989,6.57460674 L14.9010542,2.66826661 L16.8038202,2.66786517 L16.8237155,2.6657106 C16.8822536,2.65442355 16.9285412,2.60673775 16.9381046,2.54713406 L16.9399216,2.52427184 L16.9395506,1.93370787 L16.9373656,1.91395899 C16.9260786,1.85542088 16.8783928,1.80913329 16.8187891,1.79956985 L16.7959269,1.79775281 L8.63370787,1.79775281 L8.61279849,1.80030881 C8.55426038,1.81159587 8.50797279,1.85928167 8.49840936,1.91888535 L8.49659231,1.94174757 L8.49686988,2.53422584 C8.50066853,2.60083289 8.55235625,2.65612027 8.61817167,2.66651168 L8.64058708,2.66826661 L10.5353947,2.66826661 L10.5356449,16.49696 L9.24304872,16.925007 L9.10093155,16.9737405 C4.74563102,18.4994862 1.79775281,22.6284702 1.79775281,27.2815534 C1.79775281,33.312886 6.68711396,38.2022472 12.7184466,38.2022472 C18.6894659,38.2022472 23.541239,33.4101843 23.6377163,27.4738133 L23.6391806,27.2935768 L23.6383384,27.1447832 L23.6353797,26.9930128 C23.516829,22.449231 20.5905536,18.4632629 16.3450881,16.9767419 L16.2160353,16.9324629 L14.9013044,16.5001573 L14.9011236,13.6193258 L14.3669663,13.6193258 L14.3422987,13.6633625 L14.3202247,13.6982022 L14.2982884,13.6633625 L14.2732584,13.6193258 L15.3398058,13.6194175 C15.6615251,13.6194175 15.9223301,13.3586125 15.9223301,13.0368932 C15.9223301,12.7151739 15.6615251,12.4543689 15.3398058,12.4543689 L14.9011236,12.4541573 L14.9012563,11.1368255 C14.8741907,11.153245 14.8464328,11.1686375 14.8180367,11.1829489 L14.8058427,11.188764 L14.7938035,11.1829489 C14.5931046,11.0817982 14.4242852,10.9266424 14.3064342,10.7365701 L14.2732584,10.6795506 L15.3399955,10.6796117 C15.6617148,10.6796117 15.9225198,10.4188067 15.9225198,10.0970874 C15.9225198,9.77536811 15.6617148,9.51456311 15.3399955,9.51456311 L14.3078652,9.51438202 L14.3116854,9.4494382 L14.3228189,9.43190396 C14.4396983,9.2535389 14.6022273,9.10777875 14.7938035,9.01122585 L14.805618,9.00539326 L14.816706,9.0106996 C14.8456043,9.02520548 14.8738334,9.04082463 14.9013385,9.05749968 L14.9011236,7.73977528 L14.3669663,7.73977528 L14.3422987,7.78375089 Z"/>
  </g>
</svg>
