<svg xmlns="http://www.w3.org/2000/svg" width="31" height="48" viewBox="0 0 31 48">
  <defs>
    <linearGradient id="logo_light-a" x1="100%" x2="0%" y1="33.81%" y2="73.487%">
      <stop offset="0%" stop-color="#00DAEF"/>
      <stop offset="100%" stop-color="#00EFCA"/>
    </linearGradient>
  </defs>
  <g fill="none" fill-rule="evenodd">
    <path fill="#303659" fill-rule="nonzero" d="M20.1551123,0 C21.4419893,0 22.4852093,1.04322 22.4852093,2.33009709 L22.4852093,2.33009709 L22.4852093,3.02912621 C22.4852093,4.3160033 21.4419893,5.3592233 20.1551123,5.3592233 L20.1551123,5.3592233 L20.0386074,5.3592233 L20.0388404,18.2386019 L20.1331056,18.2695979 C26.2055149,20.3105086 30.4354253,25.9949553 30.5228895,32.5311772 L30.5228895,32.5311772 L30.5242718,32.7378641 C30.5242718,41.166909 23.6911808,48 15.2621359,48 C6.833091,48 -3.8321406e-15,41.166909 -3.8321406e-15,32.7378641 C-3.8321406e-15,26.1149415 4.25495175,20.3318423 10.3913993,18.2695195 L10.3913993,18.2695195 L10.4854424,18.2383689 L10.4852093,5.3592233 L10.3687045,5.3592233 C9.10363888,5.3592233 8.07404079,4.351067 8.03950258,3.09434676 L8.03950258,3.09434676 L8.0386074,3.02912621 L8.0386074,2.33009709 C8.0386074,1.04322 9.0818274,0 10.3687045,0 L10.3687045,0 Z M18.407767,14.9452427 L15.9609375,14.9452427 C15.5748744,14.9452427 15.2619084,15.2582087 15.2619084,15.6442718 C15.2619084,16.030335 15.5748744,16.343301 15.9609375,16.343301 L15.9609375,16.343301 L18.407767,16.343301 C18.7938301,16.343301 19.1067961,16.030335 19.1067961,15.6442718 C19.1067961,15.2582087 18.7938301,14.9452427 18.407767,14.9452427 L18.407767,14.9452427 Z M18.4079946,11.4174757 L17.1262136,11.4174757 C16.7401505,11.4174757 16.4271845,11.7304417 16.4271845,12.1165049 C16.4271845,12.502568 16.7401505,12.815534 17.1262136,12.815534 L17.1262136,12.815534 L18.4079946,12.815534 C18.7940578,12.815534 19.1070238,12.502568 19.1070238,12.1165049 C19.1070238,11.7304417 18.7940578,11.4174757 18.4079946,11.4174757 L18.4079946,11.4174757 Z M18.407767,7.88970874 L15.9609375,7.88970874 C15.5748744,7.88970874 15.2619084,8.20267474 15.2619084,8.58873786 C15.2619084,8.97480099 15.5748744,9.28776699 15.9609375,9.28776699 L15.9609375,9.28776699 L18.407767,9.28776699 C18.7938301,9.28776699 19.1067961,8.97480099 19.1067961,8.58873786 C19.1067961,8.20267474 18.7938301,7.88970874 18.407767,7.88970874 L18.407767,7.88970874 Z"/>
    <path fill="url(#logo_light-a)" d="M29.0094812,29.8252427 L29.0094812,38.2135922 L20.1551123,46.368932 L10.1356948,46.368932 C6.88209544,44.002858 4.70733816,42.0611104 3.61142294,40.5436893 C2.51550771,39.0262682 1.66113878,36.7738411 1.04831614,33.7864078 C2.44637439,31.1456311 4.62113167,29.8252427 7.57258799,29.8252427 C11.9997725,29.8252427 14.0968598,33.7864078 18.5240443,33.7864078 C21.4755006,33.7864078 24.9706462,32.4660194 29.0094812,29.8252427 Z M17.7747218,38.5932148 C16.6522613,38.5932148 15.7423273,39.5031488 15.7423273,40.6256094 C15.7423273,41.7480699 16.6522613,42.6580039 17.7747218,42.6580039 C18.8971824,42.6580039 19.8071164,41.7480699 19.8071164,40.6256094 C19.8071164,39.5031488 18.8971824,38.5932148 17.7747218,38.5932148 Z M18.6042283,24 C19.6457168,24 20.49001,24.8442932 20.49001,25.8857817 C20.49001,26.9272701 19.6457168,27.7715633 18.6042283,27.7715633 C17.5627399,27.7715633 16.7184467,26.9272701 16.7184467,25.8857817 C16.7184467,24.8442932 17.5627399,24 18.6042283,24 Z M8.34961,33.9958547 C7.53513243,33.9958547 6.8748679,34.6561192 6.8748679,35.4705968 C6.8748679,36.2850744 7.53513243,36.9453389 8.34961,36.9453389 C9.16408757,36.9453389 9.8243521,36.2850744 9.8243521,35.4705968 C9.8243521,34.6561192 9.16408757,33.9958547 8.34961,33.9958547 Z"/>
    <path fill="#303659" fill-rule="nonzero" d="M20.1551123,0 C21.4185916,0 22.4471935,1.00562959 22.4841796,2.26015024 L22.4852093,2.33009709 L22.4852093,3.02912621 C22.4852093,4.29260554 21.4795798,5.32120748 20.2250591,5.35819351 L20.1551123,5.3592233 L20.0386074,5.3592233 L20.0388404,18.2386019 L20.1331056,18.2695979 C26.1447908,20.2900994 30.3506428,25.8816307 30.5190251,32.3353489 L30.5228895,32.5311772 L30.5242718,32.7378641 C30.5242718,41.0826185 23.8271594,47.8631786 15.5145232,47.9979553 L15.2621359,48 C6.833091,48 -3.8321406e-15,41.166909 -3.8321406e-15,32.7378641 C-3.8321406e-15,26.1811707 4.17027821,20.4475883 10.2078727,18.3325025 L10.3913993,18.2695195 L10.4854424,18.2383689 L10.4852093,5.3592233 L10.3687045,5.3592233 C9.12706602,5.3592233 8.1122548,4.38806039 8.04244027,3.163904 L8.03950258,3.09434676 L8.0386074,3.02912621 L8.0386074,2.33009709 C8.0386074,1.06661777 9.044237,0.0380158205 10.2987576,0.00102979256 L10.3687045,0 L20.1551123,0 Z M17.2107584,9.34050107 L17.1842697,9.38211236 L17.1579461,9.34050107 L17.1279101,9.28773034 L18.407767,9.28776699 C18.7938301,9.28776699 19.1067961,8.97480099 19.1067961,8.58873786 C19.1067961,8.20267474 18.7938301,7.88970874 18.407767,7.88970874 L17.8810787,7.88952809 L17.881265,3.20191993 L20.1645843,3.2014382 L20.1884586,3.19885272 C20.2587043,3.18530826 20.3142494,3.1280853 20.3257255,3.05656088 L20.327906,3.02912621 L20.3274607,2.32044944 L20.3248388,2.29675078 C20.3112943,2.22650505 20.2540713,2.17095995 20.1825469,2.15948382 L20.1551123,2.15730337 L10.3604494,2.15730337 L10.3353582,2.16037058 C10.2651125,2.17391504 10.2095674,2.231138 10.1980912,2.30266242 L10.1959108,2.33009709 L10.1962439,3.04107101 C10.2008022,3.12099947 10.2628275,3.18734433 10.341806,3.19981401 L10.3687045,3.20191993 L12.6424737,3.20191993 L12.6427739,19.796352 L11.0916585,20.3100084 L10.9211179,20.3684886 C5.69475722,22.1993835 2.15730337,27.1541642 2.15730337,32.7378641 C2.15730337,39.9754632 8.02453676,45.8426966 15.2621359,45.8426966 C22.4273591,45.8426966 28.2494868,40.0922212 28.3652596,32.968576 L28.3670167,32.7522922 L28.366006,32.5737399 L28.3624557,32.3916154 C28.2201949,26.9390773 24.7086643,22.1559155 19.6141057,20.3720903 L19.4592424,20.3189554 L17.8815653,19.8001887 L17.8813483,16.343191 L17.2403596,16.343191 L17.2107584,16.396035 L17.1842697,16.4378427 L17.1579461,16.396035 L17.1279101,16.343191 L18.407767,16.343301 C18.7938301,16.343301 19.1067961,16.030335 19.1067961,15.6442718 C19.1067961,15.2582087 18.7938301,14.9452427 18.407767,14.9452427 L17.8813483,14.9449888 L17.8815076,13.3641906 C17.8490288,13.383894 17.8157193,13.402365 17.781644,13.4195387 L17.7670112,13.4265169 L17.7525642,13.4195387 C17.5117255,13.2981579 17.3091422,13.1119708 17.167721,12.8838841 L17.1279101,12.8154607 L18.4079946,12.815534 C18.7940578,12.815534 19.1070238,12.502568 19.1070238,12.1165049 C19.1070238,11.7304417 18.7940578,11.4174757 18.4079946,11.4174757 L17.1694382,11.4172584 L17.1740225,11.3393258 L17.1873827,11.3182847 C17.3276379,11.1042467 17.5226727,10.9293345 17.7525642,10.813471 L17.7667416,10.8064719 L17.7800472,10.8128395 C17.8147252,10.8302466 17.8486001,10.8489896 17.8816062,10.8689996 L17.8813483,9.28773034 L17.2403596,9.28773034 L17.2107584,9.34050107 Z"/>
  </g>
</svg>
