<?xml version="1.0" encoding="UTF-8"?>
<svg width="24px" height="24px" viewBox="0 0 24 24" version="1.1" xmlns="http://www.w3.org/2000/svg" xmlns:xlink="http://www.w3.org/1999/xlink">
    <!-- Generator: Sketch 48.2 (47327) - http://www.bohemiancoding.com/sketch -->
    <title>att</title>
    <desc>Created with Sketch.</desc>
    <defs></defs>
    <g id="FreeRoam" stroke="none" stroke-width="1" fill="none" fill-rule="evenodd">
        <g id="att" fill-rule="nonzero">
            <g id="Group" transform="translate(2.500000, 0.000000)" fill="#0098D6" stroke="#FFFFFF">
                <path d="M1.14034248,7.5484505 C1.77092942,4.20901815 4.46092666,1.46776712 7.78977758,0.798161167 C8.40548439,0.673498726 9.01094044,0.614308866 9.60184702,0.614308866 C11.9866362,0.614639536 14.1389647,1.5778801 15.7000559,3.13830997 C17.2604858,4.69940118 18.2237263,6.85172964 18.2237263,9.23651884 C18.2243877,12.7555048 16.1097555,15.7877451 13.0811526,17.1157142 C12.0937732,17.5478994 11.3014888,18.3560559 10.952963,19.3996492 L9.93119395,22.457351 C9.89978034,22.5482852 9.85646262,22.5972243 9.80157147,22.6359126 C9.74668031,22.6732783 9.67525568,22.6947718 9.60184702,22.6947718 C9.5281077,22.6947718 9.45668307,22.6732783 9.40212258,22.6359126 C9.34723143,22.5975549 9.30391371,22.5486158 9.2725001,22.4576817 L8.25006967,19.3976652 C7.90551194,18.3666373 7.12909971,17.5535208 6.14403495,17.1256343 C3.10418927,15.8026252 0.979306379,12.7641022 0.979967718,9.23718018 C0.979637048,8.68496194 1.03155218,8.12083959 1.14034248,7.5484505 Z" id="Shape"></path>
            </g>
            <g id="radio-tower-(1)" transform="translate(7.500000, 5.000000)" fill="#FFFFFF">
                <path d="M4.5,3.6 C4.99705627,3.6 5.4,4.00294373 5.4,4.5 C5.4,4.725 5.319,4.923 5.1885,5.0805 L6.615,9 L5.6565,9 L4.5,5.8185 L3.3435,9 L2.385,9 L3.8115,5.0805 C3.681,4.923 3.6,4.725 3.6,4.5 C3.6,4.00294373 4.00294373,3.6 4.5,3.6 Z M4.5,2.7 C3.50588745,2.7 2.7,3.50588745 2.7,4.5 C2.7,4.725 2.745,4.95 2.826,5.157 L2.43,6.237 C2.0385,5.7645 1.8,5.1615 1.8,4.5 C1.8,3.00883118 3.00883118,1.8 4.5,1.8 C5.21608452,1.8 5.90284009,2.08446347 6.40918831,2.59081169 C6.91553653,3.09715991 7.2,3.78391548 7.2,4.5 C7.2,5.1615 6.9615,5.7645 6.57,6.237 L6.174,5.157 C6.255,4.95 6.3,4.725 6.3,4.5 C6.3,3.50588745 5.49411255,2.7 4.5,2.7 Z M4.5,0.9 C2.5117749,0.9 0.9,2.5117749 0.9,4.5 C0.9,5.562 1.35,6.525 2.088,7.173 L1.764,8.073 C0.693,7.2495 0,5.9535 0,4.5 C-3.99680289e-16,2.01471863 2.01471863,1.55431223e-16 4.5,-4.4408921e-16 C5.6934742,-9.43689571e-16 6.83806681,0.474105782 7.68198052,1.31801948 C8.52589422,2.16193319 9,3.3065258 9,4.5 C9,5.9535 8.307,7.2495 7.236,8.073 L6.912,7.173 C7.65,6.525 8.1,5.562 8.1,4.5 C8.1,2.5117749 6.4882251,0.9 4.5,0.9 Z" id="Shape"></path>
            </g>
        </g>
    </g>
</svg>