<?xml version="1.0" encoding="UTF-8"?>
<svg width="24px" height="24px" viewBox="0 0 24 24" version="1.1" xmlns="http://www.w3.org/2000/svg" xmlns:xlink="http://www.w3.org/1999/xlink">
    <!-- Generator: Sketch 55.2 (78181) - https://sketchapp.com -->
    <title>cabelas</title>
    <desc>Created with Sketch.</desc>
    <g id="cabelas" stroke="none" stroke-width="1" fill="none" fill-rule="evenodd">
        <g id="Group" transform="translate(2.500000, 0.500000)" fill="#435D10" fill-rule="nonzero" stroke="#FFCB06">
            <path d="M1.14034248,7.5484505 C1.77092942,4.20901815 4.46092666,1.46776712 7.78977758,0.798161167 C8.40548439,0.673498726 9.01094044,0.614308866 9.60184702,0.614308866 C11.9866362,0.614639536 14.1389647,1.5778801 15.7000559,3.13830997 C17.2604858,4.69940118 18.2237265,6.85172964 18.2237265,9.23651884 C18.2243877,12.7555048 16.1097555,15.7877451 13.0811526,17.1157142 C12.0937732,17.5478994 11.3014888,18.3560559 10.952963,19.3996492 L9.93119395,22.457351 C9.89978034,22.5482852 9.85646262,22.5972243 9.80157147,22.6359126 C9.74668031,22.6732783 9.67525568,22.6947718 9.60184702,22.6947718 C9.5281077,22.6947718 9.45668307,22.6732783 9.40212258,22.6359126 C9.34723143,22.5975549 9.30391371,22.5486158 9.2725001,22.4576817 L8.25006967,19.3976652 C7.90551194,18.3666373 7.12909971,17.5535208 6.14403495,17.1256343 C3.10418927,15.8026252 0.979306379,12.7641022 0.979966148,9.23718018 C0.979637048,8.68496194 1.03155218,8.12083959 1.14034248,7.5484505 Z" id="Shape"></path>
        </g>
        <path d="M13.932,11.616 C14.002,11.462 14.156,11.462 14.226,11.644 C14.576,12.582 13.68,13.632 13.092,14.052 C12.098,14.766 10.922,14.752 10.166,14.346 C9.536,14.01 8.99,13.142 8.962,11.994 C8.906,9.026 11.398,6.492 12.966,5.89 C13.722,5.596 14.408,5.54 14.856,5.932 C15.164,6.198 15.486,6.604 15.598,6.954 C15.724,7.36 15.682,7.752 15.472,8.186 C15.262,8.62 15.066,9.166 14.912,9.572 C14.87,9.684 14.772,9.768 14.604,9.656 C14.282,9.446 14.058,9.012 14.268,8.312 C14.492,7.57 14.996,6.772 14.674,6.436 C14.282,6.016 12.154,7.15 10.894,9.236 C9.662,11.28 9.802,13.352 10.488,13.912 C11.384,14.64 12.868,13.702 13.932,11.616 Z" id="C" fill="#FFCB06" fill-rule="nonzero"></path>
    </g>
</svg>