<?xml version="1.0" encoding="UTF-8"?>
<svg width="24px" height="24px" viewBox="0 0 24 24" version="1.1" xmlns="http://www.w3.org/2000/svg" xmlns:xlink="http://www.w3.org/1999/xlink">
    <!-- Generator: Sketch 48.2 (47327) - http://www.bohemiancoding.com/sketch -->
    <title>casino</title>
    <desc>Created with Sketch.</desc>
    <defs></defs>
    <g id="FreeRoam" stroke="none" stroke-width="1" fill="none" fill-rule="evenodd">
        <g id="casino" fill-rule="nonzero">
            <g id="Group-Copy" transform="translate(3.000000, 1.000000)">
                <path d="M0.640342477,7.3140755 C1.27092942,3.97464315 3.96092666,1.23339212 7.28977758,0.563786167 C7.90548439,0.439123726 8.51094044,0.379933866 9.10184702,0.379933866 C11.4866362,0.380264536 13.6389647,1.3435051 15.2000559,2.90393497 C16.7604858,4.46502618 17.7237263,6.61735464 17.7237263,9.00214384 C17.7243877,12.5211298 15.6097555,15.5533701 12.5811526,16.8813392 C11.5937732,17.3135244 10.8014888,18.1216809 10.452963,19.1652742 L9.43119395,22.222976 C9.39978034,22.3139102 9.35646262,22.3628493 9.30157147,22.4015376 C9.24668031,22.4389033 9.17525568,22.4603968 9.10184702,22.4603968 C9.0281077,22.4603968 8.95668307,22.4389033 8.90212258,22.4015376 C8.84723143,22.3631799 8.80391371,22.3142408 8.7725001,22.2233067 L7.75006967,19.1632902 C7.40551194,18.1322623 6.62909971,17.3191458 5.64403495,16.8912593 C2.60418927,15.5682502 0.479306379,12.5297272 0.479967718,9.00280518 C0.479637048,8.45058694 0.531552176,7.88646459 0.640342477,7.3140755 Z" id="Shape" stroke="#FFFFFF" fill="#FFAD00"></path>
                <g id="coins" transform="translate(4.101846, 5.533802)" fill="#FFFFFF">
                    <path d="M6.36363636,0 C8.37194454,0 10,1.62805546 10,3.63636364 C10,5.64467182 8.37194454,7.27272727 6.36363636,7.27272727 C4.35532818,7.27272727 2.72727273,5.64467182 2.72727273,3.63636364 C2.72727273,1.62805546 4.35532818,4.03717464e-16 6.36363636,0 Z M6.36363636,6.36363636 C7.8698675,6.36363636 9.09090909,5.14259477 9.09090909,3.63636364 C9.09090909,2.1301325 7.8698675,0.909090909 6.36363636,0.909090909 C4.85740523,0.909090909 3.63636364,2.1301325 3.63636364,3.63636364 C3.63636364,5.14259477 4.85740523,6.36363636 6.36363636,6.36363636 Z M0.909090909,3.63636364 C0.909090909,4.82272727 1.66818182,5.83181818 2.72727273,6.20454545 L2.72727273,7.15454545 C1.15909091,6.75 0,5.33181818 0,3.63636364 C0,1.94090909 1.15909091,0.522727273 2.72727273,0.118181818 L2.72727273,1.06818182 C1.66818182,1.44090909 0.909090909,2.45 0.909090909,3.63636364 Z" id="Shape"></path>
                </g>
            </g>
        </g>
    </g>
</svg>