<?xml version="1.0" encoding="UTF-8"?>
<svg width="24px" height="24px" viewBox="0 0 24 24" version="1.1" xmlns="http://www.w3.org/2000/svg" xmlns:xlink="http://www.w3.org/1999/xlink">
    <!-- Generator: Sketch 55.1 (78136) - https://sketchapp.com -->
    <title>cracker_barrel</title>
    <desc>Created with Sketch.</desc>
    <g id="cracker_barrel" stroke="none" stroke-width="1" fill="none" fill-rule="evenodd">
        <g id="Group" transform="translate(2.500000, 0.500000)" fill="#EE9817" fill-rule="nonzero" stroke="#67290E">
            <path d="M1.14034248,7.5484505 C1.77092942,4.20901815 4.46092666,1.46776712 7.78977758,0.798161167 C8.40548439,0.673498726 9.01094044,0.614308866 9.60184702,0.614308866 C11.9866362,0.614639536 14.1389647,1.5778801 15.7000559,3.13830997 C17.2604858,4.69940118 18.2237265,6.85172964 18.2237265,9.23651884 C18.2243877,12.7555048 16.1097555,15.7877451 13.0811526,17.1157142 C12.0937732,17.5478994 11.3014888,18.3560559 10.952963,19.3996492 L9.93119395,22.457351 C9.89978034,22.5482852 9.85646262,22.5972243 9.80157147,22.6359126 C9.74668031,22.6732783 9.67525568,22.6947718 9.60184702,22.6947718 C9.5281077,22.6947718 9.45668307,22.6732783 9.40212258,22.6359126 C9.34723143,22.5975549 9.30391371,22.5486158 9.2725001,22.4576817 L8.25006967,19.3976652 C7.90551194,18.3666373 7.12909971,17.5535208 6.14403495,17.1256343 C3.10418927,15.8026252 0.979306379,12.7641022 0.979966148,9.23718018 C0.979637048,8.68496194 1.03155218,8.12083959 1.14034248,7.5484505 Z" id="Shape"></path>
        </g>
        <path d="M9.334,13.635 C8.137,13.635 7.507,13.311 6.94,12.807 C6.274,12.213 5.959,11.178 5.959,10.404 C5.959,9.477 6.256,8.64 6.886,7.965 C7.399,7.416 8.146,6.993 9.262,6.993 C10.081,6.993 10.756,7.2 11.071,7.371 C11.197,7.434 11.242,7.425 11.26,7.362 L11.332,7.137 C11.35,7.083 11.368,7.083 11.503,7.083 C11.638,7.083 11.656,7.101 11.656,7.227 C11.656,7.398 11.818,8.928 11.863,9.198 C11.872,9.261 11.863,9.306 11.818,9.315 L11.62,9.369 C11.575,9.387 11.539,9.351 11.512,9.27 C11.413,8.91 11.17,8.451 10.792,8.064 C10.405,7.686 9.928,7.389 9.244,7.389 C7.93,7.389 7.372,8.586 7.381,9.918 C7.381,10.485 7.543,11.592 8.182,12.267 C8.767,12.87 9.28,12.942 9.586,12.942 C10.612,12.942 11.377,12.474 11.71,11.979 C11.755,11.907 11.8,11.871 11.845,11.907 L11.998,12.042 C12.025,12.06 12.034,12.096 11.998,12.15 C11.476,12.906 10.603,13.635 9.334,13.635 Z M13.384,10.647 L13.384,9.585 C13.384,9.252 13.366,8.154 13.357,8.01 C13.33,7.488 13.186,7.47 12.889,7.47 L12.601,7.47 C12.538,7.47 12.538,7.461 12.538,7.389 L12.538,7.182 C12.538,7.128 12.547,7.101 12.61,7.101 C12.727,7.101 13.159,7.128 14.014,7.128 C14.302,7.128 14.842,7.101 15.454,7.101 C16.102,7.101 16.678,7.164 16.993,7.344 C17.506,7.623 17.686,8.037 17.686,8.568 C17.686,9.162 17.326,9.738 16.372,10.053 L16.372,10.071 C17.488,10.359 18.073,10.899 18.073,11.853 C18.073,12.339 17.803,13.005 17.371,13.221 C17.002,13.41 16.372,13.554 15.256,13.554 C15.175,13.554 14.941,13.536 14.689,13.527 C14.428,13.509 14.149,13.5 13.978,13.5 C13.528,13.5 13.231,13.509 13.033,13.509 C12.844,13.518 12.745,13.527 12.682,13.527 C12.592,13.527 12.583,13.5 12.583,13.428 L12.583,13.23 C12.583,13.176 12.592,13.158 12.673,13.158 L12.988,13.158 C13.258,13.158 13.303,13.05 13.339,12.78 C13.366,12.573 13.384,11.385 13.384,10.647 Z M14.698,9.27 L14.698,9.954 C15.067,9.99 15.643,9.936 15.904,9.702 C16.201,9.441 16.336,9.036 16.336,8.64 C16.336,8.298 16.228,7.938 15.967,7.731 C15.661,7.488 15.22,7.407 15.121,7.407 C14.932,7.407 14.734,7.416 14.725,7.56 C14.707,7.74 14.698,8.523 14.698,9.27 Z M14.698,10.26 L14.698,12.042 C14.698,12.897 14.896,13.248 15.373,13.248 C16.012,13.248 16.615,12.933 16.615,11.808 C16.615,11.079 16.291,10.602 15.805,10.413 C15.355,10.242 14.923,10.26 14.698,10.26 Z" id="CB" fill="#67290E" fill-rule="nonzero"></path>
    </g>
</svg>