<?xml version="1.0" encoding="UTF-8"?>
<svg width="24px" height="24px" viewBox="0 0 24 24" version="1.1" xmlns="http://www.w3.org/2000/svg" xmlns:xlink="http://www.w3.org/1999/xlink">
    <!-- Generator: Sketch 48.2 (47327) - http://www.bohemiancoding.com/sketch -->
    <title>dump</title>
    <desc>Created with Sketch.</desc>
    <defs></defs>
    <g id="FreeRoam" stroke="none" stroke-width="1" fill="none" fill-rule="evenodd">
        <g id="dump" fill-rule="nonzero">
            <g id="Group" transform="translate(2.500000, 0.500000)">
                <path d="M1.14034248,7.5484505 C1.77092942,4.20901815 4.46092666,1.46776712 7.78977758,0.798161167 C8.40548439,0.673498726 9.01094044,0.614308866 9.60184702,0.614308866 C11.9866362,0.614639536 14.1389647,1.5778801 15.7000559,3.13830997 C17.2604858,4.69940118 18.2237263,6.85172964 18.2237263,9.23651884 C18.2243877,12.7555048 16.1097555,15.7877451 13.0811526,17.1157142 C12.0937732,17.5478994 11.3014888,18.3560559 10.952963,19.3996492 L9.93119395,22.457351 C9.89978034,22.5482852 9.85646262,22.5972243 9.80157147,22.6359126 C9.74668031,22.6732783 9.67525568,22.6947718 9.60184702,22.6947718 C9.5281077,22.6947718 9.45668307,22.6732783 9.40212258,22.6359126 C9.34723143,22.5975549 9.30391371,22.5486158 9.2725001,22.4576817 L8.25006967,19.3976652 C7.90551194,18.3666373 7.12909971,17.5535208 6.14403495,17.1256343 C3.10418927,15.8026252 0.979306379,12.7641022 0.979967718,9.23718018 C0.979637048,8.68496194 1.03155218,8.12083959 1.14034248,7.5484505 Z" id="Shape" stroke="#FFFFFF" fill="#864319"></path>
                <path d="M9.18685985,3.6538774 C9.08185985,3.6538774 8.94185985,3.7138774 8.79185985,3.8138774 C8.50685985,4.0038774 7.93185985,4.6038774 7.70685985,5.2038774 C7.53685985,5.6538774 7.53185985,6.0638774 7.60185985,6.3688774 C7.32185985,6.4188774 7.11685985,6.5088774 7.03685985,6.5438774 C6.78185985,6.6538774 6.24185985,7.1338774 6.19185985,7.8788774 C6.17685985,8.1388774 6.21185985,8.4038774 6.29185985,8.6538774 C5.96185985,8.7488774 5.77185985,8.8688774 5.75685985,8.8738774 C5.59685985,8.9338774 5.33185985,9.1188774 5.25685985,9.2188774 C5.08185985,9.4188774 4.96685985,9.6538774 4.90185985,9.9038774 C4.75685985,10.4488774 4.80685985,11.0688774 5.07185985,11.5688774 C5.21685985,11.8488774 5.41685985,12.1538774 5.63685985,12.3688774 C6.35685985,13.1088774 7.59685985,13.3888774 8.57685985,13.5488774 C9.77185985,13.7488774 11.0218598,13.6788774 12.1368598,13.2188774 C13.8118598,12.5238774 14.2568598,11.4038774 14.3268598,11.0988774 C14.4718598,10.4038774 14.2918598,9.7488774 14.2168598,9.5888774 C14.1068598,9.3588774 13.9268598,9.1238774 13.6318598,8.9738774 C13.4318598,8.8488774 13.2568598,8.7838774 13.1268598,8.7538774 C13.2568598,8.2788774 13.0718598,7.9038774 12.8168598,7.6238774 C12.4318598,7.2138774 12.0368598,7.1538774 12.0368598,7.1538774 C12.1668598,6.9038774 12.2168598,6.6038774 12.1468598,6.3138774 C12.0668598,5.9588774 11.8718598,5.7338774 11.6168598,5.5838774 C11.3568598,5.4288774 11.0368598,5.3538774 10.7068598,5.2938774 C10.5468598,5.2638774 9.88185985,5.1688774 9.60685985,4.7888774 C9.38185985,4.4788774 9.37685985,3.9188774 9.31685985,3.7538774 C9.29185985,3.6888774 9.25685985,3.6538774 9.18685985,3.6538774 Z M11.5068598,7.4588774 C11.5418598,7.4588774 11.5718598,7.4638774 11.6018598,7.4638774 C12.3168598,7.5438774 12.8268598,8.2338774 12.7418598,8.9988774 C12.6568598,9.7638774 12.0068598,10.3238774 11.2918598,10.2438774 C10.5768598,10.1538774 10.0668598,9.4788774 10.1518598,8.7088774 C10.2318598,7.9838774 10.8268598,7.4338774 11.5068598,7.4588774 Z M7.81685985,7.4588774 C8.48185985,7.4788774 9.03685985,8.0438774 9.08685985,8.7588774 C9.14685985,9.5288774 8.61185985,10.1938774 7.89685985,10.2488774 L7.89185985,10.2488774 C7.17685985,10.3038774 6.54685985,9.7238774 6.48685985,8.9538774 C6.43185985,8.1838774 6.96685985,7.5188774 7.68185985,7.4638774 C7.72685985,7.4588774 7.77185985,7.4588774 7.81685985,7.4588774 Z M7.82685985,8.3088774 C7.80685985,8.3088774 7.79185985,8.3088774 7.77185985,8.3138774 C7.49185985,8.3488774 7.29185985,8.6038774 7.32685985,8.8788774 C7.35685985,9.1538774 7.61185985,9.3488774 7.89185985,9.3138774 C8.17185985,9.2788774 8.37185985,9.0238774 8.34185985,8.7488774 C8.31185985,8.4888774 8.08185985,8.3038774 7.82685985,8.3088774 Z M11.4768598,8.3188774 C11.2168598,8.3288774 11.0068598,8.5288774 10.9868598,8.7938774 C10.9668598,9.0688774 11.1818598,9.3088774 11.4618598,9.3238774 C11.7568598,9.3438774 11.9868598,9.1288774 12.0068598,8.8538774 C12.0268598,8.5738774 11.8118598,8.3338774 11.5318598,8.3188774 C11.5068598,8.3188774 11.5068598,8.3188774 11.4768598,8.3188774 Z M7.86185985,10.7288774 C8.00685985,10.7238774 8.13685985,10.7688774 8.25685985,10.7938774 C8.84685985,10.9038774 9.35685985,10.9188774 9.60185985,10.9188774 C9.84685985,10.9188774 10.3518598,10.9038774 10.9368598,10.7938774 C11.1418598,10.7538774 11.3768598,10.6688774 11.5618598,10.7938774 C11.8018598,10.9538774 11.6268598,11.5288774 11.2568598,11.9188774 C11.0268598,12.1538774 10.4918598,12.6088774 9.60185985,12.6088774 C8.71185985,12.6088774 8.17185985,12.1538774 7.94685985,11.9188774 C7.57685985,11.5288774 7.40185985,10.9538774 7.63685985,10.7938774 C7.70685985,10.7488774 7.78185985,10.7288774 7.86185985,10.7288774 Z" id="Shape" fill="#FFFFFF"></path>
            </g>
        </g>
    </g>
</svg>