<?xml version="1.0" encoding="UTF-8"?>
<svg width="24px" height="24px" viewBox="0 0 24 24" version="1.1" xmlns="http://www.w3.org/2000/svg" xmlns:xlink="http://www.w3.org/1999/xlink">
    <!-- Generator: Sketch 48.2 (47327) - http://www.bohemiancoding.com/sketch -->
    <title>gas</title>
    <desc>Created with Sketch.</desc>
    <defs></defs>
    <g id="FreeRoam" stroke="none" stroke-width="1" fill="none" fill-rule="evenodd">
        <g id="gas" fill-rule="nonzero">
            <g id="Group" transform="translate(2.500000, 0.500000)">
                <path d="M1.14034248,7.5484505 C1.77092942,4.20901815 4.46092666,1.46776712 7.78977758,0.798161167 C8.40548439,0.673498726 9.01094044,0.614308866 9.60184702,0.614308866 C11.9866362,0.614639536 14.1389647,1.5778801 15.7000559,3.13830997 C17.2604858,4.69940118 18.2237263,6.85172964 18.2237263,9.23651884 C18.2243877,12.7555048 16.1097555,15.7877451 13.0811526,17.1157142 C12.0937732,17.5478994 11.3014888,18.3560559 10.952963,19.3996492 L9.93119395,22.457351 C9.89978034,22.5482852 9.85646262,22.5972243 9.80157147,22.6359126 C9.74668031,22.6732783 9.67525568,22.6947718 9.60184702,22.6947718 C9.5281077,22.6947718 9.45668307,22.6732783 9.40212258,22.6359126 C9.34723143,22.5975549 9.30391371,22.5486158 9.2725001,22.4576817 L8.25006967,19.3976652 C7.90551194,18.3666373 7.12909971,17.5535208 6.14403495,17.1256343 C3.10418927,15.8026252 0.979306379,12.7641022 0.979967718,9.23718018 C0.979637048,8.68496194 1.03155218,8.12083959 1.14034248,7.5484505 Z" id="Shape" stroke="#FFFFFF" fill="#DBAD49"></path>
                <g id="gas-station" transform="translate(5.101846, 4.125129)" fill="#FFFFFF">
                    <path d="M7.41176471,3.70588235 C7.11937866,3.70588235 6.88235294,3.46885663 6.88235294,3.17647059 C6.88235294,2.88408454 7.11937866,2.64705882 7.41176471,2.64705882 C7.70415075,2.64705882 7.94117647,2.88408454 7.94117647,3.17647059 C7.94117647,3.46885663 7.70415075,3.70588235 7.41176471,3.70588235 Z M4.23529412,3.70588235 L1.05882353,3.70588235 L1.05882353,1.05882353 L4.23529412,1.05882353 L4.23529412,3.70588235 Z M8.34882353,2.23941176 L8.35411765,2.23411765 L6.38470588,0.264705882 L5.82352941,0.825882353 L6.94058824,1.94294118 C6.44294118,2.11764706 6.08823529,2.61 6.08823529,3.17647059 C6.08823529,3.9074357 6.6807996,4.5 7.41176471,4.5 C7.60235294,4.5 7.77705882,4.45764706 7.94117647,4.38882353 L7.94117647,8.20588235 C7.94117647,8.4982684 7.70415075,8.73529412 7.41176471,8.73529412 C7.11937866,8.73529412 6.88235294,8.4982684 6.88235294,8.20588235 L6.88235294,5.82352941 C6.88235294,5.23588235 6.40588235,4.76470588 5.82352941,4.76470588 L5.29411765,4.76470588 L5.29411765,1.05882353 C5.29411765,0.471176471 4.81764706,0 4.23529412,0 L1.05882353,0 C0.471176471,0 0,0.471176471 0,1.05882353 L0,9.52941176 L5.29411765,9.52941176 L5.29411765,5.55882353 L6.08823529,5.55882353 L6.08823529,8.20588235 C6.08823529,8.93684746 6.6807996,9.52941176 7.41176471,9.52941176 C7.76278653,9.52941176 8.09943142,9.38996889 8.34764133,9.14175898 C8.59585124,8.89354906 8.73529412,8.55690418 8.73529412,8.20588235 L8.73529412,3.17647059 C8.73529412,2.81117647 8.58705882,2.47764706 8.34882353,2.23941176 Z" id="Shape"></path>
                </g>
            </g>
        </g>
    </g>
</svg>