<?xml version="1.0" encoding="UTF-8"?>
<svg width="24px" height="24px" viewBox="0 0 24 24" version="1.1" xmlns="http://www.w3.org/2000/svg" xmlns:xlink="http://www.w3.org/1999/xlink">
    <!-- Generator: Sketch 48.2 (47327) - http://www.bohemiancoding.com/sketch -->
    <title>groceries</title>
    <desc>Created with Sketch.</desc>
    <defs></defs>
    <g id="FreeRoam" stroke="none" stroke-width="1" fill="none" fill-rule="evenodd">
        <g id="groceries" fill-rule="nonzero">
            <g id="Group" transform="translate(2.500000, 0.000000)">
                <path d="M1.14034248,7.5484505 C1.77092942,4.20901815 4.46092666,1.46776712 7.78977758,0.798161167 C8.40548439,0.673498726 9.01094044,0.614308866 9.60184702,0.614308866 C11.9866362,0.614639536 14.1389647,1.5778801 15.7000559,3.13830997 C17.2604858,4.69940118 18.2237263,6.85172964 18.2237263,9.23651884 C18.2243877,12.7555048 16.1097555,15.7877451 13.0811526,17.1157142 C12.0937732,17.5478994 11.3014888,18.3560559 10.952963,19.3996492 L9.93119395,22.457351 C9.89978034,22.5482852 9.85646262,22.5972243 9.80157147,22.6359126 C9.74668031,22.6732783 9.67525568,22.6947718 9.60184702,22.6947718 C9.5281077,22.6947718 9.45668307,22.6732783 9.40212258,22.6359126 C9.34723143,22.5975549 9.30391371,22.5486158 9.2725001,22.4576817 L8.25006967,19.3976652 C7.90551194,18.3666373 7.12909971,17.5535208 6.14403495,17.1256343 C3.10418927,15.8026252 0.979306379,12.7641022 0.979967718,9.23718018 C0.979637048,8.68496194 1.03155218,8.12083959 1.14034248,7.5484505 Z" id="Shape" stroke="#FFFFFF" fill="#549A4A"></path>
                <path d="M12.3018463,12.3545403 C11.8023463,12.3545403 11.4018463,12.7550403 11.4018463,13.2545403 C11.4018463,13.7515966 11.80479,14.1545403 12.3018463,14.1545403 C12.7989026,14.1545403 13.2018463,13.7515966 13.2018463,13.2545403 C13.2018463,12.7550403 12.7968463,12.3545403 12.3018463,12.3545403 Z M5.10184632,5.15454033 L5.10184632,6.05454033 L6.00184632,6.05454033 L7.62184632,9.47004033 L7.00984632,10.5725403 C6.94234632,10.6985403 6.90184632,10.8470403 6.90184632,11.0045403 C6.90184632,11.5015966 7.30479004,11.9045403 7.80184632,11.9045403 L13.2018463,11.9045403 L13.2018463,11.0045403 L7.99084632,11.0045403 C7.92871428,11.0045403 7.87834632,10.9541724 7.87834632,10.8920403 C7.87834632,10.8695403 7.88284632,10.8515403 7.89184632,10.8380403 L8.29684632,10.1045403 L11.6493463,10.1045403 C11.9868463,10.1045403 12.2838463,9.91554033 12.4368463,9.64104033 L14.0478463,6.72954033 C14.0793463,6.65754033 14.1018463,6.58104033 14.1018463,6.50454033 C14.1018463,6.2560122 13.9003745,6.05454033 13.6518463,6.05454033 L6.99634632,6.05454033 L6.57334632,5.15454033 L5.10184632,5.15454033 Z M7.80184632,12.3545403 C7.30234632,12.3545403 6.90184632,12.7550403 6.90184632,13.2545403 C6.90184632,13.7515966 7.30479004,14.1545403 7.80184632,14.1545403 C8.29890259,14.1545403 8.70184632,13.7515966 8.70184632,13.2545403 C8.70184632,12.7550403 8.29684632,12.3545403 7.80184632,12.3545403 Z" id="Shape" fill="#FFFFFF"></path>
            </g>
        </g>
    </g>
</svg>