<?xml version="1.0" encoding="UTF-8"?>
<svg width="24px" height="24px" viewBox="0 0 24 24" version="1.1" xmlns="http://www.w3.org/2000/svg" xmlns:xlink="http://www.w3.org/1999/xlink">
    <!-- Generator: Sketch 48.2 (47327) - http://www.bohemiancoding.com/sketch -->
    <title>default</title>
    <desc>Created with Sketch.</desc>
    <defs></defs>
    <g id="FreeRoam" stroke="none" stroke-width="1" fill="none" fill-rule="evenodd">
        <g id="default" fill-rule="nonzero">
            <g id="Group" transform="translate(3.000000, 1.000000)">
                <path d="M0.640342477,7.3140755 C1.27092942,3.97464315 3.96092666,1.23339212 7.28977758,0.563786167 C7.90548439,0.439123726 8.51094044,0.379933866 9.10184702,0.379933866 C11.4866362,0.380264536 13.6389647,1.3435051 15.2000559,2.90393497 C16.7604858,4.46502618 17.7237263,6.61735464 17.7237263,9.00214384 C17.7243877,12.5211298 15.6097555,15.5533701 12.5811526,16.8813392 C11.5937732,17.3135244 10.8014888,18.1216809 10.452963,19.1652742 L9.43119395,22.222976 C9.39978034,22.3139102 9.35646262,22.3628493 9.30157147,22.4015376 C9.24668031,22.4389033 9.17525568,22.4603968 9.10184702,22.4603968 C9.0281077,22.4603968 8.95668307,22.4389033 8.90212258,22.4015376 C8.84723143,22.3631799 8.80391371,22.3142408 8.7725001,22.2233067 L7.75006967,19.1632902 C7.40551194,18.1322623 6.62909971,17.3191458 5.64403495,16.8912593 C2.60418927,15.5682502 0.479306379,12.5297272 0.479967718,9.00280518 C0.479637048,8.45058694 0.531552176,7.88646459 0.640342477,7.3140755 Z" id="Shape" stroke="#FFFFFF" fill="#9FC375"></path>
                <path d="M4.82406854,6 C4.14905384,6 3.60184632,6.54720753 3.60184632,7.22222222 L3.60184632,10.8888889 C3.60184632,11.5639036 4.14905384,12.1111111 4.82406854,12.1111111 L6.04629076,12.1111111 C6.04629076,13.1236332 6.86710205,13.9444444 7.87962409,13.9444444 C8.89214614,13.9444444 9.71295743,13.1236332 9.71295743,12.1111111 L14.6018463,12.1111111 L14.6018463,10.8888889 L13.3796241,10.8888889 L13.3796241,7.22222222 C13.3796241,6.54720753 12.8324166,6 12.1574019,6 L4.82406854,6 Z M4.82406854,7.22222222 L7.87962409,7.22222222 L7.87962409,9.05555556 L4.82406854,9.05555556 L4.82406854,7.22222222 Z M9.71295743,7.22222222 L12.1574019,7.22222222 L12.1574019,9.05555556 L9.71295743,9.05555556 L9.71295743,7.22222222 Z M7.87962409,11.5 C8.21713144,11.5 8.49073521,11.7736038 8.49073521,12.1111111 C8.49073521,12.4486185 8.21713144,12.7222222 7.87962409,12.7222222 C7.54211675,12.7222222 7.26851298,12.4486185 7.26851298,12.1111111 C7.26851298,11.7736038 7.54211675,11.5 7.87962409,11.5 Z" id="Shape" fill="#FFFFFF"></path>
            </g>
        </g>
    </g>
</svg>
