<?xml version="1.0" encoding="UTF-8"?>
<svg width="24px" height="24px" viewBox="0 0 24 24" version="1.1" xmlns="http://www.w3.org/2000/svg" xmlns:xlink="http://www.w3.org/1999/xlink">
    <!-- Generator: Sketch 55.1 (78136) - https://sketchapp.com -->
    <title>propane</title>
    <desc>Created with Sketch.</desc>
    <g id="propane" stroke="none" stroke-width="1" fill="none" fill-rule="evenodd">
        <g id="Group" transform="translate(2.500000, 0.500000)">
            <path d="M1.14034248,7.5484505 C1.77092942,4.20901815 4.46092666,1.46776712 7.78977758,0.798161167 C8.40548439,0.673498726 9.01094044,0.614308866 9.60184702,0.614308866 C11.9866362,0.614639536 14.1389647,1.5778801 15.7000559,3.13830997 C17.2604858,4.69940118 18.2237265,6.85172964 18.2237265,9.23651884 C18.2243877,12.7555048 16.1097555,15.7877451 13.0811526,17.1157142 C12.0937732,17.5478994 11.3014888,18.3560559 10.952963,19.3996492 L9.93119395,22.457351 C9.89978034,22.5482852 9.85646262,22.5972243 9.80157147,22.6359126 C9.74668031,22.6732783 9.67525568,22.6947718 9.60184702,22.6947718 C9.5281077,22.6947718 9.45668307,22.6732783 9.40212258,22.6359126 C9.34723143,22.5975549 9.30391371,22.5486158 9.2725001,22.4576817 L8.25006967,19.3976652 C7.90551194,18.3666373 7.12909971,17.5535208 6.14403495,17.1256343 C3.10418927,15.8026252 0.979306379,12.7641022 0.979966148,9.23718018 C0.979637048,8.68496194 1.03155218,8.12083959 1.14034248,7.5484505 Z" id="Shape" stroke="#FFFFFF" fill="#CC4040" fill-rule="nonzero"></path>
            <g id="tank" transform="translate(5.375000, 3.500000)">
                <path d="M2.34722222,1.82966667 L2.34722222,7.99360578e-15 L5.90277778,7.99360578e-15 L5.90277778,1.82966667 L6.18560606,1.82966667 C7.25670376,1.82966667 8.125,2.72509717 8.125,3.82966667 L8.125,8.99633333 C8.125,10.1009028 7.25670376,10.9963333 6.18560606,10.9963333 L2.06439394,10.9963333 C0.993296243,10.9963333 0.125,10.1009028 0.125,8.99633333 L0.125,3.82966667 C0.125,2.72509717 0.993296243,1.82966667 2.06439394,1.82966667 L2.34722222,1.82966667 Z" id="Path" fill="#FFFFFF"></path>
                <rect id="Rectangle" fill="#CC4040" x="0" y="4.57966667" width="8.25" height="1"></rect>
            </g>
        </g>
    </g>
</svg>