<?xml version="1.0" encoding="UTF-8"?>
<svg width="24px" height="24px" viewBox="0 0 24 24" version="1.1" xmlns="http://www.w3.org/2000/svg" xmlns:xlink="http://www.w3.org/1999/xlink">
    <!-- Generator: Sketch 53.2 (72643) - https://sketchapp.com -->
    <title>recycle</title>
    <desc>Created with Sketch.</desc>
    <g id="recycle" stroke="none" stroke-width="1" fill="none" fill-rule="evenodd">
        <g id="Group" transform="translate(2.500000, 0.500000)" fill-rule="nonzero">
            <path d="M1.14034248,7.5484505 C1.77092942,4.20901815 4.46092666,1.46776712 7.78977758,0.798161167 C8.40548439,0.673498726 9.01094044,0.614308866 9.60184702,0.614308866 C11.9866362,0.614639536 14.1389647,1.5778801 15.7000559,3.13830997 C17.2604858,4.69940118 18.2237263,6.85172964 18.2237263,9.23651884 C18.2243877,12.7555048 16.1097555,15.7877451 13.0811526,17.1157142 C12.0937732,17.5478994 11.3014888,18.3560559 10.952963,19.3996492 L9.93119395,22.457351 C9.89978034,22.5482852 9.85646262,22.5972243 9.80157147,22.6359126 C9.74668031,22.6732783 9.67525568,22.6947718 9.60184702,22.6947718 C9.5281077,22.6947718 9.45668307,22.6732783 9.40212258,22.6359126 C9.34723143,22.5975549 9.30391371,22.5486158 9.2725001,22.4576817 L8.25006967,19.3976652 C7.90551194,18.3666373 7.12909971,17.5535208 6.14403495,17.1256343 C3.10418927,15.8026252 0.979306379,12.7641022 0.979967718,9.23718018 C0.979637048,8.68496194 1.03155218,8.12083959 1.14034248,7.5484505 Z" id="Shape" stroke="#FFFFFF" fill="#37C5EA"></path>
            <path d="M14.4072603,10.7585958 L13.1534991,12.9301103 C12.9077618,13.3614042 12.4513927,13.5870812 11.9900086,13.556991 L10.9869996,13.556991 L10.9869996,14.56 L9.73323828,12.3032297 L10.9869996,10.0464594 L10.9869996,11.0494684 L12.4012423,11.0494684 L11.2879023,9.11867603 L13.4594168,7.86491474 L14.3621249,9.42960883 C14.6229073,9.8157673 14.6580126,10.332317 14.4072603,10.7585958 L14.4072603,10.7585958 Z M8.08328843,4.56 L10.590811,4.56 C11.0822854,4.56 11.5085643,4.84585757 11.7141811,5.25709127 L12.2156856,6.12970913 L13.0832884,5.62820461 L11.7593165,7.83983952 L9.17656827,7.88497492 L10.0441711,7.38347041 L9.33704971,6.15478435 L8.22872474,8.08557673 L6.05219515,6.83181545 L6.95490327,5.26712136 C7.16052012,4.85087262 7.58679896,4.56 8.08328843,4.56 L8.08328843,4.56 Z M5.99702965,12.9351254 L4.74326837,10.7636108 C4.49753116,10.337332 4.53263647,9.82579739 4.78840377,9.43963892 L5.28990829,8.57203611 L4.42230548,8.07053159 L7.00003868,8.11065196 L8.32902564,10.3273019 L7.46142283,9.82579739 L6.75430147,11.0494684 L8.98098151,11.0494684 L8.98098151,13.556991 L7.17556526,13.556991 C6.70916606,13.5920963 6.24778191,13.3614042 5.99702965,12.9351254 Z" id="Shape" fill="#FFFFFF"></path>
        </g>
    </g>
</svg>