<?xml version="1.0" encoding="UTF-8"?>
<svg width="24px" height="24px" viewBox="0 0 24 24" version="1.1" xmlns="http://www.w3.org/2000/svg" xmlns:xlink="http://www.w3.org/1999/xlink">
    <!-- Generator: Sketch 53.2 (72643) - https://sketchapp.com -->
    <title>search</title>
    <desc>Created with Sketch.</desc>
    <g id="search" stroke="none" stroke-width="1" fill="none" fill-rule="evenodd">
        <g id="Group-Copy" transform="translate(3.500000, 1.000000)" fill-rule="nonzero">
            <path d="M0.640342477,7.3140755 C1.27092942,3.97464315 3.96092666,1.23339212 7.28977758,0.563786167 C7.90548439,0.439123726 8.51094044,0.379933866 9.10184702,0.379933866 C11.4866362,0.380264536 13.6389647,1.3435051 15.2000559,2.90393497 C16.7604858,4.46502618 17.7237263,6.61735464 17.7237263,9.00214384 C17.7243877,12.5211298 15.6097555,15.5533701 12.5811526,16.8813392 C11.5937732,17.3135244 10.8014888,18.1216809 10.452963,19.1652742 L9.43119395,22.222976 C9.39978034,22.3139102 9.35646262,22.3628493 9.30157147,22.4015376 C9.24668031,22.4389033 9.17525568,22.4603968 9.10184702,22.4603968 C9.0281077,22.4603968 8.95668307,22.4389033 8.90212258,22.4015376 C8.84723143,22.3631799 8.80391371,22.3142408 8.7725001,22.2233067 L7.75006967,19.1632902 C7.40551194,18.1322623 6.62909971,17.3191458 5.64403495,16.8912593 C2.60418927,15.5682502 0.479306379,12.5297272 0.479967718,9.00280518 C0.479637048,8.45058694 0.531552176,7.88646459 0.640342477,7.3140755 Z" id="Shape" fill="#000000"></path>
            <g id="magnify" transform="translate(4.000000, 4.500000)" fill="#FFFFFF">
                <path d="M3.61111111,-1.97372982e-16 C5.60547271,5.42775701e-16 7.22222222,1.61674951 7.22222222,3.61111111 C7.22222222,4.50555556 6.89444444,5.32777778 6.35555556,5.96111111 L6.50555556,6.11111111 L6.94444444,6.11111111 L9.72222222,8.88888889 L8.88888889,9.72222222 L6.11111111,6.94444444 L6.11111111,6.50555556 L5.96111111,6.35555556 C5.32777778,6.89444444 4.50555556,7.22222222 3.61111111,7.22222222 C1.61674951,7.22222222 1.13489465e-15,5.60547271 8.8817842e-16,3.61111111 C-3.45402719e-16,1.61674951 1.61674951,-1.97372982e-16 3.61111111,-4.4408921e-16 L3.61111111,-1.97372982e-16 Z M3.61111111,1.11111111 C2.22222222,1.11111111 1.11111111,2.22222222 1.11111111,3.61111111 C1.11111111,5 2.22222222,6.11111111 3.61111111,6.11111111 C5,6.11111111 6.11111111,5 6.11111111,3.61111111 C6.11111111,2.22222222 5,1.11111111 3.61111111,1.11111111 Z" id="Shape"></path>
            </g>
        </g>
    </g>
</svg>