<?xml version="1.0" encoding="UTF-8"?>
<svg width="24px" height="24px" viewBox="0 0 24 24" version="1.1" xmlns="http://www.w3.org/2000/svg" xmlns:xlink="http://www.w3.org/1999/xlink">
    <!-- Generator: Sketch 53.2 (72643) - https://sketchapp.com -->
    <title>shower</title>
    <desc>Created with Sketch.</desc>
    <g id="shower" stroke="none" stroke-width="1" fill="none" fill-rule="evenodd">
        <g id="Group-Copy" transform="translate(3.000000, 1.000000)" fill-rule="nonzero">
            <path d="M0.640342477,7.3140755 C1.27092942,3.97464315 3.96092666,1.23339212 7.28977758,0.563786167 C7.90548439,0.439123726 8.51094044,0.379933866 9.10184702,0.379933866 C11.4866362,0.380264536 13.6389647,1.3435051 15.2000559,2.90393497 C16.7604858,4.46502618 17.7237263,6.61735464 17.7237263,9.00214384 C17.7243877,12.5211298 15.6097555,15.5533701 12.5811526,16.8813392 C11.5937732,17.3135244 10.8014888,18.1216809 10.452963,19.1652742 L9.43119395,22.222976 C9.39978034,22.3139102 9.35646262,22.3628493 9.30157147,22.4015376 C9.24668031,22.4389033 9.17525568,22.4603968 9.10184702,22.4603968 C9.0281077,22.4603968 8.95668307,22.4389033 8.90212258,22.4015376 C8.84723143,22.3631799 8.80391371,22.3142408 8.7725001,22.2233067 L7.75006967,19.1632902 C7.40551194,18.1322623 6.62909971,17.3191458 5.64403495,16.8912593 C2.60418927,15.5682502 0.479306379,12.5297272 0.479967718,9.00280518 C0.479637048,8.45058694 0.531552176,7.88646459 0.640342477,7.3140755 Z" id="Shape" stroke="#FFFFFF" fill="#00BCFF"></path>
            <g id="shower-head-(1)" transform="translate(4.000000, 3.000000)" fill="#FFFFFF">
                <path d="M9,9 C9.27614237,9 9.5,9.22385763 9.5,9.5 C9.5,9.77614237 9.27614237,10 9,10 C8.72385763,10 8.5,9.77614237 8.5,9.5 C8.5,9.22385763 8.72385763,9 9,9 L9,9 Z M7,9 C7.27614237,9 7.5,9.22385763 7.5,9.5 C7.5,9.77614237 7.27614237,10 7,10 C6.72385763,10 6.5,9.77614237 6.5,9.5 C6.5,9.22385763 6.72385763,9 7,9 L7,9 Z M5,9 C5.27614237,9 5.5,9.22385763 5.5,9.5 C5.5,9.77614237 5.27614237,10 5,10 C4.72385763,10 4.5,9.77614237 4.5,9.5 C4.5,9.22385763 4.72385763,9 5,9 L5,9 Z M3,9 C3.27614237,9 3.5,9.22385763 3.5,9.5 C3.5,9.77614237 3.27614237,10 3,10 C2.72385763,10 2.5,9.77614237 2.5,9.5 C2.5,9.22385763 2.72385763,9 3,9 L3,9 Z M1,9 C1.27614237,9 1.5,9.22385763 1.5,9.5 C1.5,9.77614237 1.27614237,10 1,10 C0.723857625,10 0.5,9.77614237 0.5,9.5 C0.5,9.22385763 0.723857625,9 1,9 L1,9 Z M2,7.5 C2.27614237,7.5 2.5,7.72385763 2.5,8 C2.5,8.27614237 2.27614237,8.5 2,8.5 L2,8.5 C1.72385763,8.5 1.5,8.27614237 1.5,8 C1.5,7.72385763 1.72385763,7.5 2,7.5 L2,7.5 L2,7.5 Z M4,7.5 C4.27614237,7.5 4.5,7.72385763 4.5,8 C4.5,8.27614237 4.27614237,8.5 4,8.5 C3.72385763,8.5 3.5,8.27614237 3.5,8 C3.5,7.72385763 3.72385763,7.5 4,7.5 L4,7.5 Z M6,7.5 C6.27614237,7.5 6.5,7.72385763 6.5,8 C6.5,8.27614237 6.27614237,8.5 6,8.5 C5.72385763,8.5 5.5,8.27614237 5.5,8 C5.5,7.72385763 5.72385763,7.5 6,7.5 L6,7.5 Z M8,7.5 C8.27614237,7.5 8.5,7.72385763 8.5,8 C8.5,8.27614237 8.27614237,8.5 8,8.5 C7.72385763,8.5 7.5,8.27614237 7.5,8 C7.5,7.72385763 7.72385763,7.5 8,7.5 L8,7.5 Z M3,6 C3.27614237,6 3.5,6.22385763 3.5,6.5 C3.5,6.77614237 3.27614237,7 3,7 C2.72385763,7 2.5,6.77614237 2.5,6.5 C2.5,6.22385763 2.72385763,6 3,6 L3,6 Z M5,6 C5.27614237,6 5.5,6.22385763 5.5,6.5 C5.5,6.77614237 5.27614237,7 5,7 C4.72385763,7 4.5,6.77614237 4.5,6.5 C4.5,6.22385763 4.72385763,6 5,6 L5,6 Z M7,6 C7.27614237,6 7.5,6.22385763 7.5,6.5 C7.5,6.77614237 7.27614237,7 7,7 C6.72385763,7 6.5,6.77614237 6.5,6.5 C6.5,6.22385763 6.72385763,6 7,6 L7,6 Z M8.5,5 L1.5,5 L1.5,4 L8.5,4 L8.5,5 L8.5,5 Z M7.96,3.5 L2.04,3.5 C2.25,2.25 3.25,1.25 4.5,1.04 L4.5,0 L5.5,0 L5.5,1.04 C6.75,1.25 7.75,2.25 7.96,3.5 Z" id="Shape"></path>
            </g>
        </g>
    </g>
</svg>