<?xml version="1.0" encoding="UTF-8"?>
<svg width="24px" height="24px" viewBox="0 0 24 24" version="1.1" xmlns="http://www.w3.org/2000/svg" xmlns:xlink="http://www.w3.org/1999/xlink">
    <!-- Generator: Sketch 48.2 (47327) - http://www.bohemiancoding.com/sketch -->
    <title>truck_stop</title>
    <desc>Created with Sketch.</desc>
    <defs></defs>
    <g id="FreeRoam" stroke="none" stroke-width="1" fill="none" fill-rule="evenodd">
        <g id="truck_stop" fill-rule="nonzero">
            <g id="Group" transform="translate(2.500000, 0.500000)">
                <path d="M1.14034248,7.5484505 C1.77092942,4.20901815 4.46092666,1.46776712 7.78977758,0.798161167 C8.40548439,0.673498726 9.01094044,0.614308866 9.60184702,0.614308866 C11.9866362,0.614639536 14.1389647,1.5778801 15.7000559,3.13830997 C17.2604858,4.69940118 18.2237263,6.85172964 18.2237263,9.23651884 C18.2243877,12.7555048 16.1097555,15.7877451 13.0811526,17.1157142 C12.0937732,17.5478994 11.3014888,18.3560559 10.952963,19.3996492 L9.93119395,22.457351 C9.89978034,22.5482852 9.85646262,22.5972243 9.80157147,22.6359126 C9.74668031,22.6732783 9.67525568,22.6947718 9.60184702,22.6947718 C9.5281077,22.6947718 9.45668307,22.6732783 9.40212258,22.6359126 C9.34723143,22.5975549 9.30391371,22.5486158 9.2725001,22.4576817 L8.25006967,19.3976652 C7.90551194,18.3666373 7.12909971,17.5535208 6.14403495,17.1256343 C3.10418927,15.8026252 0.979306379,12.7641022 0.979967718,9.23718018 C0.979637048,8.68496194 1.03155218,8.12083959 1.14034248,7.5484505 Z" id="Shape" stroke="#FFFFFF" fill="#E83030"></path>
                <path d="M12.0563918,12.040904 C11.7174898,12.040904 11.4427554,11.7661696 11.4427554,11.4272676 C11.4427554,11.0883656 11.7174898,10.8136312 12.0563918,10.8136312 C12.3952938,10.8136312 12.6700281,11.0883656 12.6700281,11.4272676 C12.6700281,11.7661696 12.3952938,12.040904 12.0563918,12.040904 Z M12.6700281,8.35908579 L13.4718463,9.38181306 L11.6473009,9.38181306 L11.6473009,8.35908579 L12.6700281,8.35908579 Z M7.14730086,12.040904 C6.80839886,12.040904 6.5336645,11.7661696 6.5336645,11.4272676 C6.5336645,11.0883656 6.80839886,10.8136312 7.14730086,10.8136312 C7.48620287,10.8136312 7.76093723,11.0883656 7.76093723,11.4272676 C7.76093723,11.7661696 7.48620287,12.040904 7.14730086,12.040904 Z M12.8745736,7.74544943 L11.6473009,7.74544943 L11.6473009,6.10908579 L5.92002813,6.10908579 C5.46593723,6.10908579 5.10184632,6.4731767 5.10184632,6.92726761 L5.10184632,11.4272676 L5.92002813,11.4272676 C5.92002813,12.1050716 6.46949685,12.6545403 7.14730086,12.6545403 C7.82510487,12.6545403 8.37457359,12.1050716 8.37457359,11.4272676 L10.829119,11.4272676 C10.829119,12.1050716 11.3785878,12.6545403 12.0563918,12.6545403 C12.7341958,12.6545403 13.2836645,12.1050716 13.2836645,11.4272676 L14.1018463,11.4272676 L14.1018463,9.38181306 L12.8745736,7.74544943 Z" id="Shape" fill="#FFFFFF"></path>
            </g>
        </g>
    </g>
</svg>