<?xml version="1.0" encoding="UTF-8"?>
<svg width="24px" height="24px" viewBox="0 0 24 24" version="1.1" xmlns="http://www.w3.org/2000/svg" xmlns:xlink="http://www.w3.org/1999/xlink">
    <!-- Generator: Sketch 48.2 (47327) - http://www.bohemiancoding.com/sketch -->
    <title>walmart</title>
    <desc>Created with Sketch.</desc>
    <defs></defs>
    <g id="FreeRoam" stroke="none" stroke-width="1" fill="none" fill-rule="evenodd">
        <g id="walmart" fill-rule="nonzero">
            <g id="Group" transform="translate(2.500000, 0.500000)">
                <path d="M1.14034248,7.5484505 C1.77092942,4.20901815 4.46092666,1.46776712 7.78977758,0.798161167 C8.40548439,0.673498726 9.01094044,0.614308866 9.60184702,0.614308866 C11.9866362,0.614639536 14.1389647,1.5778801 15.7000559,3.13830997 C17.2604858,4.69940118 18.2237263,6.85172964 18.2237263,9.23651884 C18.2243877,12.7555048 16.1097555,15.7877451 13.0811526,17.1157142 C12.0937732,17.5478994 11.3014888,18.3560559 10.952963,19.3996492 L9.93119395,22.457351 C9.89978034,22.5482852 9.85646262,22.5972243 9.80157147,22.6359126 C9.74668031,22.6732783 9.67525568,22.6947718 9.60184702,22.6947718 C9.5281077,22.6947718 9.45668307,22.6732783 9.40212258,22.6359126 C9.34723143,22.5975549 9.30391371,22.5486158 9.2725001,22.4576817 L8.25006967,19.3976652 C7.90551194,18.3666373 7.12909971,17.5535208 6.14403495,17.1256343 C3.10418927,15.8026252 0.979306379,12.7641022 0.979967718,9.23718018 C0.979637048,8.68496194 1.03155218,8.12083959 1.14034248,7.5484505 Z" id="Shape" stroke="#FFFFFF" fill="#035281"></path>
                <path d="M9.49937314,4.25714986 C9.11037457,4.25714986 8.80118368,4.47991508 8.80118368,4.75110703 L9.03742669,7.49429769 C9.06350587,7.65956929 9.26092682,7.78705338 9.49959461,7.78705338 C9.73873373,7.7867331 9.93546472,7.65935965 9.96209189,7.49429769 L10.1994593,4.75110703 C10.1994593,4.47993838 9.88940523,4.25717315 9.49985015,4.25717315 L9.49937314,4.25714986 Z M5.64953542,6.45760723 C5.44758574,6.46252095 5.21817414,6.61931496 5.07224431,6.87877292 C4.87708062,7.22426459 4.91166357,7.61035643 5.14001327,7.74580682 L7.57450539,8.90843236 C7.72659087,8.9664396 7.93314592,8.85568358 8.05275523,8.64422258 C8.05277227,8.64419329 8.05273876,8.64413523 8.05275523,8.64410611 C8.17292105,8.43160157 8.16361943,8.19266499 8.03711681,8.08668059 L5.83834527,6.50518374 C5.78124081,6.47126641 5.71700397,6.45600407 5.64968363,6.45764159 L5.64953542,6.45760723 Z M13.3492109,6.45760723 C13.2819076,6.45596913 13.2177673,6.47123205 13.1607707,6.50514939 L10.9617152,8.08664623 C10.8359616,8.19262481 10.8266373,8.43157304 10.9461881,8.64407175 L10.9463017,8.64418822 C11.0663539,8.85565039 11.2722389,8.96640408 11.4243301,8.90839801 L13.8599011,7.74583069 C14.0891991,7.6103803 14.1220615,7.22430593 13.9282209,6.8787968 C13.7816323,6.61933302 13.5518403,6.46254599 13.3499076,6.45763111 L13.3492109,6.45760723 Z M7.66545457,10.0768579 C7.63396024,10.0764212 7.60342673,10.0814106 7.57484043,10.09244 L5.14034831,11.2536679 C4.91200429,11.3897123 4.87742134,11.7759497 5.07257935,12.1218082 C5.26715246,12.4666186 5.61011426,12.630545 5.83851506,12.4953217 L8.03745696,10.9150478 C8.16397718,10.8077706 8.17331288,10.5688981 8.05309538,10.3566032 L8.05409483,10.357069 C7.95689913,10.1841456 7.80194025,10.0787261 7.66545968,10.0768218 L7.66545457,10.0768579 Z M11.3343707,10.0768579 C11.1980491,10.0787622 11.0433969,10.1841817 10.9459627,10.3571051 L10.9468485,10.3566393 C10.8272222,10.5689342 10.8364841,10.8078067 10.9622649,10.9150839 L13.1613204,12.4953578 C13.3892953,12.6305811 13.7325921,12.4666599 13.9280511,12.1218444 C14.1218917,11.7759742 14.0890293,11.3897367 13.8597313,11.253704 L11.4248985,10.0924761 C11.3963139,10.0814467 11.3658519,10.0764544 11.3343922,10.076894 L11.3343707,10.0768579 Z M9.49903242,11.2137444 C9.26076781,11.2140356 9.06379832,11.3409781 9.03775605,11.5058188 L8.80151304,14.248893 C8.80151304,14.5205391 9.11069825,14.7428501 9.4997025,14.7428501 C9.88942794,14.7428501 10.1991981,14.5205333 10.1991981,14.248893 L9.96240422,11.5058188 C9.93577648,11.3409781 9.73904605,11.2140589 9.49990693,11.2137444 L9.49902107,11.2137444 L9.49903242,11.2137444 Z" id="Shape" fill="#FFC220" transform="translate(9.500000, 9.500000) scale(-1, 1) rotate(-180.000000) translate(-9.500000, -9.500000) "></path>
            </g>
        </g>
    </g>
</svg>