<?xml version="1.0" encoding="UTF-8"?>
<svg width="223px" height="249px" viewBox="0 0 223 249" version="1.1" xmlns="http://www.w3.org/2000/svg" xmlns:xlink="http://www.w3.org/1999/xlink">
    <!-- Generator: Sketch 56.3 (81716) - https://sketch.com -->
    <title>Group</title>
    <desc>Created with Sketch.</desc>
    <g id="Onboarding" stroke="none" stroke-width="1" fill="none" fill-rule="evenodd">
        <g id="products" transform="translate(-54.000000, -5.000000)" fill="#D6D6D6">
            <g id="Group" transform="translate(54.000000, 5.750000)">
                <g id="circles">
                    <circle id="Oval" cx="210" cy="74.5" r="13"></circle>
                    <circle id="Oval-Copy-2" cx="111.5" cy="13" r="13"></circle>
                    <circle id="Oval-Copy-3" cx="13" cy="74.5" r="13"></circle>
                    <circle id="Oval-Copy-4" cx="13" cy="189.5" r="13"></circle>
                    <circle id="Oval-Copy-5" cx="210" cy="189.5" r="13"></circle>
                    <circle id="Oval-Copy-7" cx="111.5" cy="235" r="13"></circle>
                </g>
                <g id="bag" transform="translate(56.500000, 45.500000)" fill-rule="nonzero">
                    <path d="M83.3728945,32.0818628 L103.871674,32.0818628 C107.185383,32.0818628 109.871674,34.7681543 109.871674,38.0818628 L109.871674,122 C109.871674,134.150264 100.021939,144 87.871674,144 L22.5670397,144 C10.4167752,144 0.567039699,134.150264 0.567039699,122 L0.567039699,38.0818628 C0.567039699,34.7681543 3.2533312,32.0818628 6.5670397,32.0818628 L26.6271055,32.0818628 C26.5430064,31.1761623 26.5,30.258317 26.5,29.3302704 C26.5,13.3447496 39.2598846,0.385924611 55,0.385924611 C70.7401154,0.385924611 83.5,13.3447496 83.5,29.3302704 C83.5,30.258317 83.4569936,31.1761623 83.3728945,32.0818628 L83.3728945,32.0818628 Z M36.6934024,32.0818628 L73.3065976,32.0818628 C73.4340126,31.18394 73.5,30.2652357 73.5,29.3302704 C73.5,18.8332638 65.1823421,10.3859246 55,10.3859246 C44.8176579,10.3859246 36.5,18.8332638 36.5,29.3302704 C36.5,30.2652357 36.5659874,31.18394 36.6934024,32.0818628 L36.6934024,32.0818628 Z M56.3147148,115.927683 C67.3319723,105.768951 71.3181311,101.861974 75.0026551,97.2782633 C79.253607,91.9898906 81.148795,87.6800818 81.148795,83.341038 C81.148795,76.3780199 75.8957666,71.0432286 69.137604,71.0432286 C65.3384491,71.0432286 61.5342994,72.855097 59.0402558,75.8099621 L55.2193569,80.3368439 L51.3984579,75.8099621 C48.9044143,72.855097 45.1002646,71.0432286 41.3011097,71.0432286 C34.5429471,71.0432286 29.2899187,76.3780199 29.2899187,83.341038 C29.2899187,87.6800818 31.1851067,91.9898906 35.4360586,97.2782633 C39.1205826,101.861974 43.1067414,105.768951 54.1311487,115.934289 L55.2193621,116.94163 L56.3147148,115.927683 Z" id="Shape"></path>
                </g>
            </g>
        </g>
    </g>
</svg>