<?xml version="1.0" encoding="UTF-8"?>
<svg width="46px" height="28px" viewBox="0 0 46 28" version="1.1" xmlns="http://www.w3.org/2000/svg" xmlns:xlink="http://www.w3.org/1999/xlink">
    <!-- Generator: Sketch 56.3 (81716) - https://sketch.com -->
    <title>mountain_icon</title>
    <desc>Created with Sketch.</desc>
    <g id="Onboarding" stroke="none" stroke-width="1" fill="none" fill-rule="evenodd">
        <g id="Guides-:-Product-Guides-Questions-Copy-4" transform="translate(-157.000000, -67.000000)" fill="#01BFA5">
            <g id="q1" transform="translate(20.000000, 67.000000)">
                <g id="mountain_icon" transform="translate(137.500000, 0.000000)">
                    <path d="M11.0712774,9.084895 L12.2369951,11.336062 C12.4909544,11.8264935 13.0944024,12.0181922 13.584834,11.7642329 C13.7683776,11.6691888 13.9179608,11.5196056 14.0130049,11.336062 L15.7678698,7.94716789 L17.8043144,10.8721575 C18.1198789,11.3254096 18.7431279,11.4370275 19.1963801,11.121463 C19.2935913,11.0537823 19.3780049,10.9693687 19.4456856,10.8721575 L21.011511,8.62312848 L25.3676758,15.5069444 L29.1942285,9.46004627 L32.2369951,15.336062 C32.4909544,15.8264935 33.0944024,16.0181922 33.584834,15.7642329 C33.7683776,15.6691888 33.9179608,15.5196056 34.0130049,15.336062 L35.9869392,11.5241137 L42.5575973,21.907376 C43.1482525,22.8407571 42.8704183,24.0762326 41.9370372,24.6668878 C41.6170745,24.8693642 41.2462075,24.9768519 40.8675614,24.9768519 L31.3603516,24.9768519 L31.375,25 L4.6324386,25 C3.52786911,25 2.6324386,24.1045695 2.6324386,23 C2.6324386,22.6213539 2.73992626,22.2504869 2.94240269,21.9305241 L11.0712774,9.084895 Z" id="Combined-Shape"></path>
                    <path d="M35.9155483,27.5 L4.6324386,27.5 C2.14715723,27.5 0.132438605,25.4852814 0.132438605,23 C0.132438605,22.1480463 0.374285823,21.3135955 0.829857793,20.5936793 L12.3849192,2.33382922 C13.7138934,0.233721832 16.4937133,-0.391405127 18.5938207,0.937569082 C19.1568738,1.29387613 19.6337738,1.77077611 19.9900808,2.33382922 L25.3676758,10.8317571 L28.1349192,6.45882922 C29.4638934,4.35872183 32.2437133,3.73359487 34.3438207,5.06256908 C34.9068738,5.41887613 35.3837738,5.89577611 35.7400808,6.45882922 L44.6701422,20.5705312 C45.9991164,22.6706386 45.3739895,25.4504585 43.2738821,26.7794327 C42.5539659,27.2350046 41.7195151,27.4768519 40.8675614,27.4768519 L35.9008998,27.4768519 L35.9155483,27.5 Z M31.3603516,24.9768519 L40.8675614,24.9768519 C41.2462075,24.9768519 41.6170745,24.8693642 41.9370372,24.6668878 C42.8704183,24.0762326 43.1482525,22.8407571 42.5575973,21.907376 L33.6275359,7.79567404 C33.4691772,7.54542821 33.2572217,7.33347267 33.0069759,7.17511398 C32.0735948,6.58445877 30.8381193,6.86229298 30.2474641,7.79567404 L25.3676758,15.5069444 L17.8775359,3.67067404 C17.7191772,3.42042821 17.5072217,3.20847267 17.2569759,3.05011398 C16.3235948,2.45945877 15.0881193,2.73729298 14.4974641,3.67067404 L2.94240269,21.9305241 C2.73992626,22.2504869 2.6324386,22.6213539 2.6324386,23 C2.6324386,24.1045695 3.52786911,25 4.6324386,25 L31.375,25 L31.3603516,24.9768519 Z" id="Combined-Shape-Copy" fill-rule="nonzero"></path>
                </g>
            </g>
        </g>
    </g>
</svg>