<?xml version="1.0" encoding="UTF-8"?>
<svg width="36px" height="27px" viewBox="0 0 36 27" version="1.1" xmlns="http://www.w3.org/2000/svg" xmlns:xlink="http://www.w3.org/1999/xlink">
    <!-- Generator: Sketch 56.3 (81716) - https://sketch.com -->
    <title>trailer_icon</title>
    <desc>Created with Sketch.</desc>
    <g id="Onboarding" stroke="none" stroke-width="1" fill="none" fill-rule="evenodd">
        <g id="Guides-:-Product-Guides-Questions-Copy" transform="translate(-162.000000, -69.000000)" fill="#01BFA5">
            <g id="q1" transform="translate(53.000000, 69.000000)">
                <g id="trailer_icon" transform="translate(109.142857, 0.000000)">
                    <path d="M34.2678571,21.3214286 L35.0535714,21.3214286 L35.1607143,21.4285714 L35.0535714,21.5357143 L34.2678571,21.5357143 L34.2678571,21.3214286 Z M30.6964286,21.3214286 L30.6964286,15.8482143 C30.6964286,7.64777197 24.0486566,1 15.8482143,1 L11,1 C5.4771525,1 1,5.4771525 1,11 L1,21.3214286 L14.9253075,21.3214286 L15.0718615,22.1465506 C15.4142274,24.0741244 17.0989646,25.5 19.0803571,25.5 C21.0617497,25.5 22.7464869,24.0741244 23.0888528,22.1465506 L23.2354068,21.3214286 L30.6964286,21.3214286 Z M18.9642857,6.67857143 L23.7857147,6.67857143 C25.442569,6.67857143 26.7857147,8.02171718 26.7857147,9.67857143 L26.7857147,12.2545458 C26.7857147,13.9114 25.442569,15.2545458 23.7857147,15.2545458 L18.9642857,15.2545458 C17.3074315,15.2545458 15.9642857,13.9114 15.9642857,12.2545458 L15.9642857,9.67857143 C15.9642857,8.02171718 17.3074315,6.67857143 18.9642857,6.67857143 Z M8.42857121,4.89285714 C11.1702704,4.89285714 13.3928567,7.11544347 13.3928567,9.85714264 L13.3928567,21.1642849 L3.46428571,21.1642849 L3.46428571,9.85714264 C3.46428571,7.11544347 5.68687204,4.89285714 8.42857121,4.89285714 Z M19.0803571,26 C16.5556269,26 14.5089286,23.9533017 14.5089286,21.4285714 C14.5089286,18.9038411 16.5556269,16.8571429 19.0803571,16.8571429 C21.6050874,16.8571429 23.6517857,18.9038411 23.6517857,21.4285714 C23.6517857,23.9533017 21.6050874,26 19.0803571,26 Z" id="Combined-Shape" stroke="#01BFA5" stroke-width="2"></path>
                    <path d="M19.0803571,23.5 C17.9363387,23.5 17.0089286,22.5725898 17.0089286,21.4285714 C17.0089286,20.284553 17.9363387,19.3571429 19.0803571,19.3571429 C20.2243756,19.3571429 21.1517857,20.284553 21.1517857,21.4285714 C21.1517857,22.5725898 20.2243756,23.5 19.0803571,23.5 Z" id="Path" fill-rule="nonzero"></path>
                </g>
            </g>
        </g>
    </g>
</svg>