<?xml version="1.0" encoding="UTF-8"?>
<svg width="18px" height="47px" viewBox="0 0 18 47" version="1.1" xmlns="http://www.w3.org/2000/svg" xmlns:xlink="http://www.w3.org/1999/xlink">
    <!-- Generator: Sketch 53.2 (72643) - https://sketchapp.com -->
    <title>Path</title>
    <desc>Created with Sketch.</desc>
    <g id="Empty-States" stroke="none" stroke-width="1" fill="none" fill-rule="evenodd" fill-opacity="0.75">
        <g id="Social---Nearby-people---Empty-Copy" transform="translate(-315.000000, -174.000000)" fill="#D3591A">
            <path d="M326,188 L326,219 C326,220.104569 325.104569,221 324,221 C322.895431,221 322,220.104569 322,219 L322,188 L317.737034,188 C316.632465,188 315.737034,187.104569 315.737034,186 C315.737034,185.60515 315.85391,185.219135 316.072934,184.8906 L322.335899,175.496151 C322.948604,174.577094 324.190343,174.328746 325.1094,174.941451 C325.329105,175.08792 325.517631,175.276446 325.664101,175.496151 L331.927066,184.8906 C332.539771,185.809657 332.291424,187.051396 331.372366,187.664101 C331.043831,187.883124 330.657816,188 330.262966,188 L326,188 Z" id="Path"></path>
        </g>
    </g>
</svg>