<?xml version="1.0" encoding="UTF-8"?>
<svg width="177px" height="126px" viewBox="0 0 177 126" version="1.1" xmlns="http://www.w3.org/2000/svg" xmlns:xlink="http://www.w3.org/1999/xlink">
    <!-- Generator: Sketch 53.2 (72643) - https://sketchapp.com -->
    <title>Artboard</title>
    <desc>Created with Sketch.</desc>
    <defs>
        <polygon id="path-1" points="89 99.1585885 56.3779185 113.400443 59.8419496 77.9740249 36.2163633 51.3495568 70.9793338 43.6966809 89 13 107.020666 43.6966809 141.783637 51.3495568 118.15805 77.9740249 121.622082 113.400443"></polygon>
        <filter x="-7.2%" y="-8.1%" width="114.5%" height="109.5%" filterUnits="objectBoundingBox" id="filter-2">
            <feMorphology radius="2" operator="dilate" in="SourceAlpha" result="shadowSpreadOuter1"></feMorphology>
            <feOffset dx="0" dy="2" in="shadowSpreadOuter1" result="shadowOffsetOuter1"></feOffset>
            <feGaussianBlur stdDeviation="2" in="shadowOffsetOuter1" result="shadowBlurOuter1"></feGaussianBlur>
            <feComposite in="shadowBlurOuter1" in2="SourceAlpha" operator="out" result="shadowBlurOuter1"></feComposite>
            <feColorMatrix values="0 0 0 0 0.870754076   0 0 0 0 0.69930501   0 0 0 0 0.429885049  0 0 0 1 0" type="matrix" in="shadowBlurOuter1"></feColorMatrix>
        </filter>
    </defs>
    <g id="Artboard" stroke="none" stroke-width="1" fill="none" fill-rule="evenodd">
        <g id="confetti" fill="#FFD593">
            <path d="M13.8189576,56.9953972 C13.3111524,56.7299967 12.4930102,56.7272932 11.9800323,56.9953972 L9.10119425,58.5 L10.605797,55.621162 C10.8711975,55.1133568 10.873901,54.2952146 10.605797,53.7822367 L9.10119425,50.9033986 L11.9800323,52.4080014 C12.4878375,52.6734019 13.3059796,52.6761054 13.8189576,52.4080014 L16.6977956,50.9033986 L15.1931928,53.7822367 C14.9277923,54.2900419 14.9250888,55.108184 15.1931928,55.621162 L16.6977956,58.5 L13.8189576,56.9953972 Z" id="Star-4-Copy"></path>
            <path d="M6.81895735,114.995397 C6.31115218,114.729996 5.49301006,114.727293 4.98003215,114.995397 L2.10119425,116.5 L3.60579695,113.621162 C3.87119746,113.113357 3.87390095,112.295214 3.60579695,111.782237 L2.10119425,108.903399 L4.98003215,110.408001 C5.48783732,110.673402 6.30597944,110.676105 6.81895735,110.408001 L9.69779525,108.903399 L8.19319255,111.782237 C7.92779205,112.290042 7.92508855,113.108184 8.19319255,113.621162 L9.69779525,116.5 L6.81895735,114.995397 Z" id="Star-4-Copy-5" transform="translate(5.899495, 112.701699) rotate(-143.000000) translate(-5.899495, -112.701699) "></path>
            <path d="M173.519968,53.1970965 C173.012163,52.931696 172.19402,52.9289925 171.681042,53.1970965 L168.802204,54.7016993 L170.306807,51.8228613 C170.572208,51.3150561 170.574911,50.4969139 170.306807,49.983936 L168.802204,47.1050979 L171.681042,48.6097007 C172.188848,48.8751012 173.00699,48.8778047 173.519968,48.6097007 L176.398806,47.1050979 L174.894203,49.983936 C174.628802,50.4917412 174.626099,51.3098833 174.894203,51.8228613 L176.398806,54.7016993 L173.519968,53.1970965 Z" id="Star-4-Copy-2"></path>
            <path d="M156.128704,14.9564546 C155.614197,14.6875515 154.780107,14.687504 154.265509,14.9564546 L149.398806,17.5 L151.942351,12.6332968 C152.211254,12.1187898 152.211302,11.2847 151.942351,10.7701022 L149.398806,5.903399 L154.265509,8.44694436 C154.780016,8.71584751 155.614106,8.71589499 156.128704,8.44694436 L160.995407,5.903399 L158.451861,10.7701022 C158.182958,11.2846092 158.182911,12.118699 158.451861,12.6332968 L160.995407,17.5 L156.128704,14.9564546 Z" id="Star-4-Copy-3"></path>
            <path d="M9.42769341,21.5530556 C8.91318644,21.2841525 8.07909665,21.284105 7.56449884,21.5530556 L2.69779562,24.096601 L5.24134099,19.2298978 C5.51024414,18.7153908 5.51029161,17.881301 5.24134099,17.3667032 L2.69779562,12.5 L7.56449884,15.0435454 C8.07900581,15.3124485 8.9130956,15.312496 9.42769341,15.0435454 L14.2943966,12.5 L11.7508513,17.3667032 C11.4819481,17.8812102 11.4819006,18.7153 11.7508513,19.2298978 L14.2943966,24.096601 L9.42769341,21.5530556 Z" id="Star-4-Copy-4" transform="translate(8.496096, 18.298301) rotate(39.000000) translate(-8.496096, -18.298301) "></path>
            <rect id="Rectangle" transform="translate(17.949747, 82.949747) rotate(-45.000000) translate(-17.949747, -82.949747) " x="14.4497475" y="79.4497475" width="7" height="7"></rect>
            <rect id="Rectangle-Copy-2" transform="translate(112.949747, 14.949747) rotate(-45.000000) translate(-112.949747, -14.949747) " x="110.449747" y="12.4497475" width="5" height="5"></rect>
            <rect id="Rectangle-Copy" transform="translate(141.843146, 119.469354) rotate(-45.000000) translate(-141.843146, -119.469354) " x="137.843146" y="115.469354" width="8" height="8"></rect>
            <circle id="Oval" cx="56" cy="6" r="5.5"></circle>
            <circle id="Oval-Copy-3" cx="33" cy="110.8125" r="3"></circle>
            <circle id="Oval-Copy" cx="138" cy="29.5" r="4"></circle>
            <circle id="Oval-Copy-9" cx="61" cy="27.5" r="2"></circle>
            <circle id="Oval-Copy-2" cx="152.5" cy="77.5" r="2.5"></circle>
            <circle id="Oval-Copy-4" cx="160.302204" cy="102.5" r="2.5"></circle>
            <circle id="Oval-Copy-7" cx="35.6512107" cy="30" r="2"></circle>
            <circle id="Oval-Copy-8" cx="42.6512107" cy="86" r="2"></circle>
            <circle id="Oval-Copy-5" cx="131.343146" cy="90.5" r="1.5"></circle>
            <circle id="Oval-Copy-10" cx="84" cy="118.969354" r="1.5"></circle>
            <circle id="Oval-Copy-6" cx="159.343146" cy="33.5" r="1.5"></circle>
        </g>
        <g id="Star">
            <use fill="black" fill-opacity="1" filter="url(#filter-2)" xlink:href="#path-1"></use>
            <use stroke="#FFB034" stroke-width="4" fill="#FFD593" fill-rule="evenodd" xlink:href="#path-1"></use>
        </g>
    </g>
</svg>