<?xml version="1.0" encoding="UTF-8"?>
<svg width="54px" height="54px" viewBox="0 0 54 54" version="1.1" xmlns="http://www.w3.org/2000/svg" xmlns:xlink="http://www.w3.org/1999/xlink">
    <!-- Generator: Sketch 55.2 (78181) - https://sketchapp.com -->
    <title>apple_icon</title>
    <desc>Created with Sketch.</desc>
    <g id="Roam-with-care" stroke="none" stroke-width="1" fill="none" fill-rule="evenodd">
        <g id="Tablet---Roam-with-care" transform="translate(-318.000000, -382.000000)">
            <g id="guidelines" transform="translate(255.000000, 312.000000)">
                <g id="Pack-out-waste" transform="translate(64.416125, 72.000000)">
                    <g id="apple_icon" transform="translate(0.583875, 0.000000)">
                        <ellipse id="Oval" stroke="#E42D2D" stroke-width="3" cx="24.9674902" cy="25" rx="24.9674902" ry="25"></ellipse>
                        <g id="apple" transform="translate(12.483745, 7.500000)">
                            <path d="M14.8809493,-2.66453526e-15 L15.9351523,-2.66453526e-15 C16.1437022,-2.70284526e-15 16.3127654,0.169063111 16.3127654,0.377613027 C16.3127654,0.49714028 16.2561753,0.609610058 16.1602223,0.680882705 C15.4101261,1.2375626 14.8487517,1.90009666 14.4760993,2.66848488 C13.9374554,3.77913838 13.7092701,5.09964342 13.7915437,6.63 L11.379984,6.63 C11.2879405,5.11978847 11.5108678,3.810125 12.0487658,2.70100958 C12.5457028,1.67635351 13.30806,0.829889896 14.3358372,0.161618751 C14.4980809,0.0561478425 14.6874367,-2.62898756e-15 14.8809493,-2.66453526e-15 Z" id="Rectangle" fill="#53402B"></path>
                            <path d="M23.2664692,34.5379027 C22.1473446,34.8397213 20.9759418,35 19.7697001,35 C17.1617642,35 14.716679,34.2507945 12.6106884,32.9417609 C10.5046979,34.2507945 8.05961265,35 5.45167673,35 C4.12646529,35 2.84330387,34.8065461 1.62531731,34.4444864 C5.76402095,31.9695088 8.64133236,26.4887006 8.64133236,20.125 C8.64133236,13.172051 5.20650052,7.27306746 0.444482288,5.19700043 C2.00305197,4.5717841 3.69021848,4.23 5.45167673,4.23 C8.05961265,4.23 10.5046979,4.97920554 12.6106884,6.28823907 C14.716679,4.97920554 17.1617642,4.23 19.7697001,4.23 C21.4359344,4.23 23.0356921,4.53582941 24.523008,5.09809746 C19.6394044,7.08015118 16.0911566,13.0581922 16.0911566,20.125 C16.0911566,26.5700312 19.0424843,32.1094584 23.2664692,34.5379027 Z" id="Combined-Shape" fill="#E42D2D"></path>
                        </g>
                    </g>
                </g>
            </g>
        </g>
    </g>
</svg>