<svg xmlns="http://www.w3.org/2000/svg" width="346" height="345" viewBox="0 0 346 345">
  <g fill="none" fill-rule="evenodd">
    <circle cx="287.5" cy="172.5" r="57.5" fill="#6EEEE1"/>
    <path fill="#FFBFD9" d="M115,115 L115,230 L0,230 L0,115 L115,115 Z M57.5,151 C45.6258779,151 36,160.625878 36,172.5 C36,184.374122 45.6258779,194 57.5,194 C69.3741221,194 79,184.374122 79,172.5 C79,160.625878 69.3741221,151 57.5,151 Z"/>
    <path fill="#4A29B3" d="M346,1.42108547e-14 L346.000749,57.4862303 C343.713158,57.1657195 341.375932,57 339,57 C311.385763,57 289,79.3857625 289,107 C289,109.723167 289.217698,112.395488 289.63664,115.000509 L231,115 L231,1.42108547e-14 L346,1.42108547e-14 Z"/>
    <path fill="#FF9EC4" d="M230,230 L230,345 L212,345 L212,345 C212,317.385763 194.315248,295 172.5,295 C150.684752,295 133,317.385763 133,345 L115,345 L115,230 L230,230 Z"/>
    <path fill="#9E7FFF" d="M57.5,287 C89.2563731,287 115,312.743627 115,344.5 C115,344.667139 114.999287,344.834111 114.997864,345.000914 L0.004,345 L0,344.5 C0,313.061191 25.2313287,287.515474 56.5491324,287.007703 Z"/>
    <polygon fill="#CFBFFF" points="116 0 231 0 116 115"/>
    <polygon fill="#07BEB8" points="172.5 115 230 230 115 230"/>
    <rect width="58" height="115" fill="#78F1E5"/>
    <path fill="#FF297E" d="M287.5,230 L345,287.751092 L288.001,287.751 L345,345 L230,345 L286.999,287.751 L230,287.751092 L287.5,230 Z"/>
    <rect width="346" height="345" fill="#FFF" fill-opacity=".9"/>
  </g>
</svg>
