<?xml version="1.0" encoding="UTF-8"?>
<svg width="200px" height="156px" viewBox="0 0 200 156" version="1.1" xmlns="http://www.w3.org/2000/svg" xmlns:xlink="http://www.w3.org/1999/xlink">
    <!-- Generator: Sketch 56.3 (81716) - https://sketch.com -->
    <title>empty_campground_blue</title>
    <desc>Created with Sketch.</desc>
    <g id="empty_campground_blue" stroke="none" stroke-width="1" fill="none" fill-rule="evenodd">
        <g id="Group" transform="translate(0.000000, 3.000000)">
            <rect id="Rectangle" fill="#A5D0DF" x="0" y="-3" width="200" height="156"></rect>
            <g id="Group-Copy-4" transform="translate(134.122964, 37.374559) rotate(-18.000000) translate(-134.122964, -37.374559) translate(123.122964, 21.874559)" fill="#000000">
                <path d="M7.1360758,8.43442083 C6.62587489,8.16776821 5.80152119,8.16628107 5.28847485,8.43442083 L0.977626203,10.687453 L3.23065841,6.3766044 C3.49731103,5.86640348 3.49879817,5.04204978 3.23065841,4.52900344 L0.977626203,0.218154797 L5.28847485,2.471187 C5.79867576,2.73783963 6.62302946,2.73932677 7.1360758,2.471187 L11.4469244,0.218154797 L9.19389224,4.52900344 C8.92723962,5.03920436 8.92575248,5.86355806 9.19389224,6.3766044 L11.4469244,10.687453 L7.1360758,8.43442083 Z" id="Star-4" style="mix-blend-mode: overlay;"></path>
                <path d="M17.0118191,27.6273542 C16.5054872,27.3627237 15.6897188,27.360028 15.1782291,27.6273542 L12.3077435,29.1275916 L13.807981,26.257106 C14.0726115,25.7507741 14.0753071,24.9350057 13.807981,24.423516 L12.3077435,21.5530304 L15.1782291,23.0532679 C15.684561,23.3178984 16.5003295,23.320594 17.0118191,23.0532679 L19.8823047,21.5530304 L18.3820673,24.423516 C18.1174368,24.9298479 18.1147411,25.7456164 18.3820673,26.257106 L19.8823047,29.1275916 L17.0118191,27.6273542 Z" id="Star-4-Copy-2" style="mix-blend-mode: overlay;" transform="translate(16.095024, 25.340311) rotate(24.000000) translate(-16.095024, -25.340311) "></path>
            </g>
            <g id="tent-(1)" transform="translate(56.750000, 35.500000)" fill="#000000" fill-rule="nonzero">
                <path d="M9.00605523,13.7714008 C10.5021212,18.6648123 13.4636185,22.6155842 16.8897607,24.8505339 C10.076593,26.9335283 2.86482872,23.0989652 0.781834324,16.2857975 C-1.30116007,9.47262982 2.53340301,2.26086555 9.34657069,0.177871153 C7.75593809,3.94660276 7.50998921,8.8779894 9.00605523,13.7714008 L9.00605523,13.7714008 Z M0.5,78.9 L0.5,70.3 L12.368,70.3 L43.5,9.154 L74.632,70.3 L86.5,70.3 L86.5,78.9 L0.5,78.9 L0.5,78.9 Z M43.5,28.117 L22,70.3 L65,70.3 L43.5,28.117 Z" id="Shape" style="mix-blend-mode: overlay;"></path>
            </g>
        </g>
    </g>
</svg>