<?xml version="1.0" encoding="UTF-8"?>
<svg width="54px" height="54px" viewBox="0 0 54 54" version="1.1" xmlns="http://www.w3.org/2000/svg" xmlns:xlink="http://www.w3.org/1999/xlink">
    <!-- Generator: Sketch 55.2 (78181) - https://sketchapp.com -->
    <title>fire_icon</title>
    <desc>Created with Sketch.</desc>
    <g id="Roam-with-care" stroke="none" stroke-width="1" fill="none" fill-rule="evenodd">
        <g id="Tablet---Roam-with-care" transform="translate(-318.000000, -683.000000)">
            <g id="guidelines" transform="translate(255.000000, 312.000000)">
                <g id="fire-safety" transform="translate(64.500000, 373.000000)">
                    <g id="fire_icon" transform="translate(0.500000, 0.000000)">
                        <ellipse id="Oval" stroke="#FF9F31" stroke-width="3" cx="24.9674902" cy="25" rx="24.9674902" ry="25"></ellipse>
                        <path d="M35.527794,23.4893309 C35.0905039,22.9226481 34.5771633,22.431523 34.0828354,21.9403978 C32.8470155,20.8070322 31.4210694,19.9947868 30.2232747,18.8047528 C27.4474331,16.0468963 26.8770547,11.4945442 28.6072025,8 C26.8770547,8.43445684 25.2799951,9.4167071 23.9491121,10.4934045 C19.1199082,14.4224055 17.2186468,21.3548256 19.5001604,27.3049954 C19.5762109,27.4938897 19.6522614,27.682784 19.6522614,27.9283465 C19.6522614,28.3439139 19.3670721,28.7217025 18.9868199,28.8728179 C18.5685424,29.0617122 18.1122396,28.9483756 17.7700126,28.6461448 C17.6559369,28.5516976 17.5798864,28.4572505 17.4848234,28.3250245 C15.3934358,25.6238363 15.0512088,21.7515036 16.4771548,18.6536374 C13.3590861,21.2225996 11.6669635,25.567168 11.9331401,29.6661739 C12.0091905,30.6106453 12.1232662,31.5551167 12.4464807,32.4995881 C12.7126573,33.6329538 13.2069852,34.7663194 13.8153889,35.7674591 C15.7927007,39.0353302 19.2720091,41.3776192 23.017494,41.8498549 C27.010143,42.3598695 31.2879811,41.6231818 34.349012,38.8275465 C37.7712825,35.6919014 39.0071024,30.6673136 37.2009041,26.360524 L36.9537401,25.8693989 C36.5734878,25.0004852 36.0601472,24.2260186 35.432731,23.5082204 L35.527794,23.4893309 L35.527794,23.4893309 Z M31.937335,35.716603 C31.4049818,36.1699492 30.5494142,36.6610744 29.8839727,36.8499687 C27.7925852,37.6055458 25.7011976,36.5477378 24.4273525,35.3010356 C26.6898536,34.7721316 28.0207365,33.1098619 28.4009888,31.4287028 C28.7242032,29.9175486 28.1348122,28.6708463 27.8876482,27.2163604 C27.6594969,25.8185427 27.6975221,24.6285088 28.2298753,23.3251382 C28.5530897,24.0429365 28.933342,24.7607347 29.3706321,25.3274176 C30.8155908,27.2163604 33.0780918,28.0474952 33.5534072,30.6164574 C33.6294577,30.8809094 33.6674829,31.1453614 33.6674829,31.4287028 C33.7245207,32.9776359 33.0590792,34.6776844 31.9183224,35.716603 L31.937335,35.716603 Z" id="Shape" fill="#FF9F31" fill-rule="nonzero"></path>
                    </g>
                </g>
            </g>
        </g>
    </g>
</svg>