<svg xmlns="http://www.w3.org/2000/svg" xmlns:xlink="http://www.w3.org/1999/xlink" width="127" height="149" viewBox="0 0 127 149">
  <defs>
    <path id="donate-a" d="M15.8856082,23.9477278 C14.9815008,24.7685621 13.5896513,24.7685621 12.6855439,23.9358316 L12.5546862,23.8168701 C6.30920759,18.166199 2.2288282,14.4664964 2.38347815,9.85079025 C2.45485505,7.82844478 3.48982008,5.88937235 5.16717721,4.74734197 C8.30776076,2.606035 12.1859056,3.60531159 14.279628,6.05591845 C16.3733503,3.60531159 20.2514952,2.59413885 23.3920787,4.74734197 C25.0694359,5.88937235 26.1044009,7.82844478 26.1757778,9.85079025 C26.3423239,14.4664964 22.2500484,18.166199 16.0045697,23.8406624 L15.8856082,23.9477278 Z"/>
  </defs>
  <g fill="none" fill-rule="evenodd" transform="translate(-3 -11)">
    <circle cx="72.052" cy="85.539" r="8.297" fill="#FFD071"/>
    <path fill="#FFBA2D" fill-rule="nonzero" d="M72.0522031,77.2413793 C76.6347382,77.2413793 80.3496169,80.956258 80.3496169,85.5387931 C80.3496169,90.1213282 76.6347382,93.8362069 72.0522031,93.8362069 C67.469668,93.8362069 63.7547893,90.1213282 63.7547893,85.5387931 C63.7547893,80.956258 67.469668,77.2413793 72.0522031,77.2413793 Z M72.0522031,78.467433 C68.1467987,78.467433 64.9808429,81.6333887 64.9808429,85.5387931 C64.9808429,89.4441975 68.1467987,92.6101533 72.0522031,92.6101533 C75.9576074,92.6101533 79.1235632,89.4441975 79.1235632,85.5387931 C79.1235632,81.6333887 75.9576074,78.467433 72.0522031,78.467433 Z"/>
    <path fill="#933A31" d="M0,3.67816092 C35.5555556,60.0766284 55.9897829,88.2758621 61.302682,88.2758621 C69.2720307,88.2758621 55.7854406,79.0804598 55.7854406,69.2720307 C55.7854406,63.5835817 62.0123578,63.5570909 68.045977,69.2720307 C72.415954,73.4111973 76.0519148,79.5588681 77.8544061,77.2413793 C80.3258493,74.0638095 76.4456763,65.9754854 69.8850575,58.8505747 C66.7802243,55.4786886 95.0566159,52.2434144 95.0381496,49.4167264 C95.0191571,46.5900383 89.1271243,48.0282424 69.8850575,48.4291188 C68.3969069,48.4601219 84.5623142,35.5913465 80.3065134,35.5555556 C77.4676839,35.5316812 53.8907928,48.2855686 52.7203065,48.4291188 C43.3825267,49.5743182 33.7784398,33.4312786 23.908046,0 L0,3.67816092 Z"/>
    <path fill="#4C1813" fill-rule="nonzero" d="M70.9937624,47.7914116 C73.5476287,47.7315744 75.9934947,47.6513242 78.5652629,47.547765 L86.1113609,47.21528 L87.7555261,47.1496628 L88.6070751,47.1226339 C89.683337,47.0924276 90.5312008,47.0856288 91.2484522,47.1031728 L91.705087,47.1183463 C94.4180043,47.2340233 95.6405835,47.8380965 95.6512151,49.4127216 C95.6579689,50.4544623 94.3263046,51.1451186 91.4738421,52.0125791 L90.6477525,52.2577468 C89.6039648,52.560634 88.6117175,52.8195078 86.7917564,53.2587774 L80.0962162,54.8491077 L78.8465717,55.1546308 C76.3795994,55.7656301 74.7348672,56.2262629 73.3386705,56.7062878 L72.8520663,56.8781797 C71.7415796,57.2826905 70.9605033,57.6626353 70.537753,58.0048829 L70.4214129,58.1017334 C70.2403706,58.2589223 70.2316453,58.3128434 70.3119708,58.408187 L70.7524873,58.8926246 C77.4881326,66.371132 80.9413347,74.2709828 78.3383002,77.6177414 C77.3643257,78.8699943 76.0481085,78.5139823 74.4317737,77.0491046 L74.1750447,76.8104804 C73.7400147,76.3963409 73.2645241,75.8955918 72.6777861,75.241515 L71.9337375,74.3976165 C71.419136,73.8084349 70.5673437,72.832753 70.1346815,72.3448589 L69.5427923,71.6879115 C68.8521723,70.9320632 68.2329066,70.2934535 67.6244147,69.7171004 C61.9149145,64.3091605 56.3984674,64.3170651 56.3984674,69.2720307 C56.3984674,72.2938837 57.6509764,75.3417514 60.1159903,79.2133266 L60.425357,79.6932096 C60.4649198,79.7536478 60.5082192,79.8194973 60.5546206,79.8898278 L62.7251396,83.1379567 L62.9832345,83.5384574 C63.5556505,84.4386774 63.9228599,85.1064025 64.1569131,85.6986536 C64.9646002,87.7424345 63.9998917,88.8888889 61.302682,88.8888889 C55.7381088,88.8888889 36.2014637,62.0819008 1.61761379,7.38851593 L-1.01705766,3.21439218 L24.3442957,-0.687354484 L24.7891528,0.814525228 C34.4610405,33.2525389 43.8631839,48.8977498 52.6456831,47.8206508 L52.6829456,47.8112202 C52.9475211,47.7270112 54.2609798,47.1021526 56.4030474,46.0300869 L67.3353522,40.5221436 L68.6204759,39.8858559 C75.2947997,36.5941383 79.1001491,34.9323616 80.3116687,34.9425504 C81.1491576,34.9495936 81.6967484,35.4022763 81.6305645,36.1701434 C81.5887352,36.6554491 81.2923184,37.2243447 80.7648779,37.9405909 C80.0113138,38.9639054 78.7922884,40.274068 77.0519397,41.9788691 L76.5860731,42.4326228 L75.0633972,43.8855103 C73.9872073,44.9029061 72.1484255,46.6408716 71.6515305,47.1288284 L71.2299773,47.5487439 L70.9937624,47.7914116 Z M1.01722195,4.14190438 L2.0596148,5.79288942 L4.09800084,9.0138668 C37.1141276,61.1023287 56.5251749,87.6628352 61.302682,87.6628352 L61.5884685,87.6599264 C63.1335573,87.626551 63.4264427,87.299066 63.0819657,86.3232545 L63.0166705,86.149269 C62.8010976,85.6037809 62.4269161,84.9367968 61.8185497,83.9933288 L61.4156042,83.3812656 C61.0234978,82.797306 59.9901221,81.2632746 59.4598183,80.4565696 L59.0822965,79.8726575 C56.5008201,75.8189285 55.1724138,72.5857456 55.1724138,69.2720307 C55.1724138,62.8325301 62.128321,62.8225629 68.4675394,68.8269609 C69.0989836,69.425054 69.7370627,70.0829818 70.4450833,70.8577859 L71.1209516,71.6092625 L73.4254917,74.2381813 L73.7395306,74.5883117 C74.2442574,75.1462369 74.6589955,75.5792526 75.034277,75.935624 L75.2551154,76.1406356 C76.4122595,77.1893506 76.9955446,77.3471183 77.3705121,76.8650172 C79.4918097,74.1376346 76.0537152,66.4548143 69.4340919,59.2658239 C68.7668555,58.5411972 68.9565425,57.7075154 69.7662935,57.0519622 C70.3511732,56.5784589 71.3097726,56.1223466 72.6550981,55.6462397 L72.9891054,55.5300052 C74.7362693,54.9321259 76.838829,54.3688036 80.3557236,53.5255352 L84.5636918,52.5254899 C91.6200874,50.8260869 94.4285067,49.9367069 94.4251427,49.4208452 C94.4208812,48.7875018 93.858258,48.4723793 92.0138753,48.361676 L91.6528563,48.3432869 L91.3279724,48.3317713 C90.4904668,48.3077837 89.4554598,48.3197534 88.0478413,48.3664681 L86.9742679,48.4058234 L78.4737935,48.7784774 C75.5726867,48.894545 72.8258334,48.9810124 69.8978261,49.0420126 C69.3865985,49.0526632 69.0635807,48.6009267 69.2116335,48.1268022 C69.2653875,47.9546603 69.3722297,47.7880271 69.541318,47.5768523 C69.7321937,47.3384672 70.0170378,47.0304689 70.4096556,46.6345752 L70.7924832,46.2540454 C71.3873843,45.6698455 73.8452848,43.3505339 74.7103014,42.5319651 L75.7329796,41.5520326 L76.1877526,41.1090937 C77.8863973,39.4452396 79.0724667,38.171165 79.7776258,37.2135829 C80.0854447,36.7955753 80.2826546,36.4573462 80.3654111,36.2347455 L80.3868006,36.17147 L80.3013581,36.1685607 C79.3154758,36.1602695 74.9213262,38.1232195 67.8306108,41.645284 L66.035944,42.5409858 L56.2131505,47.495688 L55.1525092,48.0197549 C53.8365366,48.6633074 53.1549641,48.9639962 52.8534005,49.0275998 L52.7949299,49.0375867 C43.0404509,50.2338907 33.3845725,34.0932788 23.4721593,0.687298638 L1.01722195,4.14190438 Z"/>
    <g transform="translate(26.36 96.858)">
      <path fill="#FFB199" d="M0,10.8444082 L90.7279693,10.8444082 L90.7279693,56.8702367 C90.7279693,60.1839452 88.0416778,62.8702367 84.7279693,62.8702367 L6,62.8702367 C2.6862915,62.8702367 -4.82366169e-16,60.1839452 0,56.8702367 L0,10.8444082 L0,10.8444082 Z"/>
      <g transform="translate(31.089 22.582)">
        <mask id="donate-b" fill="#fff">
          <use xlink:href="#donate-a"/>
        </mask>
        <g fill="#FFF" mask="url(#donate-b)">
          <rect width="28.551" height="28.551"/>
        </g>
      </g>
      <polygon fill="#FF7043" fill-rule="nonzero" points=".007 12.974 90.735 12.326 90.721 10.487 -.007 11.135"/>
      <path fill="#FFB199" fill-opacity=".635" d="M0,10.7858425 L7.82418448,0.76886614 C8.20320921,0.28361663 8.78462095,1.13108272e-16 9.40035371,0 L80.7240389,0 C81.3143732,5.22062787e-15 81.8745516,0.260800463 82.2545615,0.712560425 L90.7279693,10.7858425 L90.7279693,10.7858425 L0,10.7858425 Z"/>
      <path fill="#FFB199" fill-rule="nonzero" d="M32.3575275,6.62969215 L58.3704418,6.62969215 C58.8782899,6.62969215 59.289982,6.21799996 59.289982,5.71015192 C59.289982,5.20230387 58.8782899,4.79061169 58.3704418,4.79061169 L32.3575275,4.79061169 C31.8496795,4.79061169 31.4379873,5.20230387 31.4379873,5.71015192 C31.4379873,6.21799996 31.8496795,6.62969215 32.3575275,6.62969215 Z"/>
    </g>
    <g transform="translate(29 57.692)">
      <g stroke-width="3" transform="matrix(-1 0 0 1 74.907 9.128)">
        <path stroke="#5BB4B0" d="M17.4391285,13.4380018 C15.5995341,11.8020571 13.5620608,10.9649217 11.3267085,10.9265956 C9.09135618,10.8882695 7.08136619,11.6560094 5.29673849,13.2298153" transform="rotate(-46 11.368 12.182)"/>
        <path stroke="#BFE8E0" d="M17.0392718,10.2702113 C14.2661518,7.80408573 11.1947368,6.54213538 7.82502659,6.48436024 C4.45531643,6.42658511 1.42533152,7.58392432 -1.26492814,9.9563779" transform="rotate(-46 7.887 8.376)"/>
      </g>
      <polygon fill="#FF6868" fill-opacity=".522" fill-rule="nonzero" points="58.79 26.387 88.675 1.56 87.5 .145 57.615 24.973"/>
      <polygon fill="#FFD071" fill-rule="nonzero" points="9.686 18.665 14.59 30.926 16.297 30.243 11.393 17.982"/>
      <polygon fill="#AE9DD3" fill-opacity=".698" fill-rule="nonzero" points="15.804 29.087 7.222 31.539 7.727 33.308 16.309 30.855"/>
      <polygon fill="#AE9DD3" fill-opacity=".698" fill-rule="nonzero" points="5.383 32.152 -.253 33.762 .253 35.531 5.888 33.921"/>
      <path fill="#AE9DD3" fill-rule="nonzero" d="M86.5332036,21.5236286 C85.4873311,20.6869306 83.8073559,20.5679943 82.5275442,21.1823039 C80.996684,21.9171168 80.3726764,23.4999654 81.1117768,25.3477164 C81.3307156,25.8950633 81.7302312,26.4394191 82.2661857,26.9464552 C80.819043,28.163087 79.472057,28.6678316 78.7664146,28.2642438 L78.6980082,28.22085 C78.2821877,27.9292972 77.7087485,28.0300361 77.4171957,28.4458565 C77.1256429,28.8616769 77.2263818,29.4351162 77.6422022,29.7266689 C79.3086477,30.8950983 81.5961185,30.0413505 83.7811247,28.0678239 C85.0755994,28.8284111 86.6931491,29.3830199 88.3825527,29.5362601 C92.7872847,29.9357989 97.3257329,27.8467967 101.40807,22.8830545 C101.730656,22.4908199 101.674195,21.9113434 101.28196,21.5887575 C100.889725,21.2661715 100.310249,21.3226328 99.987663,21.7148674 C96.277515,26.2260625 92.3216053,28.046928 88.5486876,27.704699 C87.3835691,27.599015 86.2671655,27.2621963 85.3292384,26.8136881 L85.116021,26.7082579 C86.9215295,24.6417107 87.7916395,22.5303774 86.5332036,21.5236286 Z M82.8193201,24.6646991 C82.4409281,23.7187189 82.6621047,23.1576854 83.3233714,22.8402774 C83.9408821,22.5438722 84.7766068,22.5771501 85.2697456,22.8795285 C85.2482175,23.0668256 85.1513859,23.3481881 84.980796,23.6853853 C84.7059273,24.2287053 84.2747987,24.8524138 83.7533202,25.4643436 L83.5762381,25.6677575 C83.211275,25.3326167 82.9491195,24.9891974 82.8193201,24.6646991 Z" transform="rotate(166 89.434 25.526)"/>
    </g>
  </g>
</svg>
